<?xml version="1.0" encoding="utf-8"?>
<!-- Generator: Adobe Illustrator 19.1.0, SVG Export Plug-In . SVG Version: 6.00 Build 0)  -->
<!DOCTYPE svg PUBLIC "-//W3C//DTD SVG 1.1//EN" "http://www.w3.org/Graphics/SVG/1.1/DTD/svg11.dtd">
<svg version="1.1" id="Layer_1" xmlns="http://www.w3.org/2000/svg" xmlns:xlink="http://www.w3.org/1999/xlink" x="0px" y="0px"
	 width="612px" height="371px" viewBox="0 -25.8 612 371" style="enable-background:new 0 -25.8 612 371;" xml:space="preserve">
<style type="text/css">
	.st0{fill:#FFFFFF;}
	.st1{fill:none;stroke:#000000;stroke-width:5;stroke-miterlimit:10;}
</style>
<rect y="-25.8" width="612" height="371"/>
<rect x="612" y="525.3" class="st0" width="165.8" height="312.6"/>
<line class="st1" x1="0" y1="340" x2="612" y2="337"/>
<g>
	<g>
		<path class="st0" d="M193.9,283.9c-10.3,6.8-24.3,11-36.4,11c-16,0-40-9.2-40-28.9c0-1.5,0.1-3.1,0.5-4.6
			c3.8-17.6,18.7-35.9,36.1-40.1c0.7-1.1,2.7-4.3,4.3-4.3c0.7,0,1,0.6,1,1.3c0,0.8-0.4,1.4-0.7,2h1.4c9.8-0.3,17.6,4.1,17.6,15.2
			c0,9.9-7.7,21.3-18.1,21.3c-8.4,0-12.9-5-12.9-13.5c0-6.5,2.6-13.4,5.7-19c-15.6,4.7-31.6,23.7-31.6,40.9
			c0,18.7,21.7,27.9,37.1,27.9c10.1,0,20.3-2.7,29.2-7.6c2.1-1,4-2.5,5.9-3.7c0.1,0,0.6-0.3,0.7-0.3c0.6,0,0.9,0.5,0.9,1
			C194.8,283,194.4,283.6,193.9,283.9z M161,222.8c-1.5,0-2.8,0.1-4.3,0.4c-3.7,5.5-7.4,12.5-7.4,19.2c0,6.6,4.1,12.2,10.8,12.2
			c8.4,0,14.7-11.1,14.7-18.9C174.8,227.5,168.7,222.8,161,222.8z"/>
		<path class="st0" d="M232.1,277.4c-2.5,5.7-8.7,12.7-15.1,12.7c-5.7,0-6.7-5.1-6.7-9.8c0-3.4,1-7,1-9.9c0-0.3,0-0.8-0.4-0.8
			c-0.7,0-4.1,3.7-9.7,3.7c-0.6,0-1.2,0.9-2.1,0.9l-0.4-0.4c0.1-0.5,0.4-1,0.6-1.4c-0.7-0.8-0.9-2-0.9-3.1c0-3.4,2.4-11.8,5.7-13.1
			c0.6,0,1,1,1,1.5c0,4.5-2.8,10.1-2.8,12.2c0,1,1,1.1,1.7,1.1c1.9,0,6.4-3.4,7.8-4.8s1.5-5.6,3.8-5.6c0.6,0,1,1.1,1,1.7
			c0,1.7-1.7,2.8-2.2,4.5c-1.1,3.4-2,7.9-2,11.5c0,4.2,1.4,8.9,6.3,8.9c8.5,0,12.6-13.4,13.9-13.9c0.4,0.1,0.5,0.5,0.5,0.9
			C233.2,274.6,232.2,277.1,232.1,277.4z"/>
		<path class="st0" d="M261.6,273.7c-2.6,6.5-11.5,13.9-18.6,13.9c-7.4,0-11.5-6.6-11.5-13.8c0-7.1,4.7-18.2,12.9-18.2
			c3.3,0,4.8,2.4,4.8,5.6c0,7.5-7.9,14.4-15.1,13.3c0.6,5.7,3.5,10.4,9.7,10.4c7.5,0,12.9-6,16.7-12c0.1-0.1,0.5-0.5,0.6-0.5
			c0.4,0,0.6,0.4,0.6,0.8C261.8,273.4,261.6,273.6,261.6,273.7z M243.4,257.6c-5.6,0-9.2,8-9.2,13c0,1.3,2.6,1.5,3.5,1.5
			c4.5,0,9.4-4.7,9.4-9.3C247.2,260.7,245.8,257.6,243.4,257.6z"/>
		<path class="st0" d="M302.2,276.8c-2.1,5.9-7.1,12.7-13.7,12.7c-4.3,0-7.1-3.4-8.4-7.4l-0.4-0.4l-0.5,0.4
			c-2.4,5-7.2,10.8-13.1,10.8c-5.1,0-8.9-4.1-8.9-9.3c0-8.8,10.6-24.3,19.9-24.3c1.9,0,5.1,1,5.1,3.3c0,0.6-0.4,1.7-1.1,1.7
			s-2.1-2.2-5.2-2.2c-7.1,0-16.1,13.9-16.1,20.9c0,4.2,2.7,7.4,6.9,7.4c6.9,0,12.3-9.2,12.3-15.5c0-1.4-0.4-2.8-0.4-4.2
			c0-1.5,0.4-5.2,2.4-5.2c0.9,0,1.5,0.8,1.5,1.7c0,2.7-0.7,5.1-0.7,7.8c0,4.6,1.7,12.4,7.4,12.4c6.7,0,10.9-9.3,12.9-14.7
			c0.1-0.4,0.4-0.6,0.7-0.6c0.5,0.1,0.5,0.8,0.5,1.1C303.2,273.6,302.5,276.3,302.2,276.8z"/>
		<path class="st0" d="M328.6,274.4c-2.5,5.5-10.9,14.1-17.2,14.1c-9.5,0-10.4-14-10.4-21c0-5.5,0.5-11,1.5-16.3
			c-1.2,0-7.5,0.1-7.9-1.3c0-1.8,7.1-1,8.4-1c0.9-3.7,4.8-16.1,9.5-16.1c3.2,0,3.5,6.9,3.5,9.2c0,2.3-0.1,4.7-0.7,7
			c3.1,0.1,7.1-0.1,10,0.6c0.2,0.1,0.6,0.3,0.6,0.6c0,1.5-9.3,0.8-11.1,0.8c-2.2,7.5-5.7,14.5-9.7,21.1c-0.4,0.6-0.7,1.3-0.7,2
			c0,4.3,3.5,11.1,8.3,11.1c7.9,0,14.4-12.4,15.6-12.9c0.5,0,0.6,0.8,0.6,1.1C328.8,273.7,328.6,274.3,328.6,274.4z M304.7,251.2
			c-0.9,4.2-1.6,8.5-1.6,12.9c0,2.2,0.1,4.3,0.5,6.5c3.8-5.6,6.4-12.9,8.4-19.4H304.7z M311.8,236.4c-2.4,0-5.9,10.6-6.4,12.4
			c2.5,0,4.8,0.1,7.3,0.1c0.6-1.9,1-4.1,1-6.1C313.6,240.7,313.2,236.4,311.8,236.4z"/>
		<path class="st0" d="M349.6,274.1c-2.2,6.4-9.7,16.2-16.8,16.2c-5.3,0-6.3-5.4-6.3-9.8c0-2.9,0.7-17.5,4-17.5c0.6,0,1,0.6,1,1.3
			c0,0.3-0.1,0.5-0.1,0.8c-1,5-2.2,9.9-2.2,15c0,3.7,0.7,7.8,5.1,7.8c7.2,0,14.2-15.3,15.1-15.3c0.4,0,0.6,0.3,0.6,0.6
			C349.9,273.5,349.7,273.9,349.6,274.1z M330.1,258.3c-1,0-2.1-0.5-2.1-1.8c0-2.4,1.4-7,4.5-7c1.6,0,2.2,1.9,2.2,3.3
			C334.6,255.4,332.8,258.3,330.1,258.3z"/>
		<path class="st0" d="M386.6,274.1c-1.5,4-6.3,6.9-10.3,6.9c-3.1,0-4.6-1.5-7.2-2.4c-0.5,0-0.6,0.4-0.7,0.8
			c-2,5.5-6.2,11.7-12.6,11.7c-6.8,0-8.8-6.1-8.8-12c0-5.6,1.7-13.3,5.6-17.5c0.4-0.4,0.7-0.8,1.2-0.8c0.6,0,1.1,0.6,1.1,1.1
			c0,0.4-5,10.1-5,16.8c0,4.1,1.9,10.2,6.8,10.2c4.8,0,9.9-8.3,9.9-12.9c0-0.6-0.5-1.7-1-3.1c-0.6-1.3-1.1-3.1-1.1-4.8
			c0-1.7,0.1-5.2,2.4-5.2c2.8,0,3.2,5.1,3.2,7.1c0,1.7-0.4,3.2-0.4,4.7c0,2,5.3,3.8,7.1,3.8c6.1,0,7.7-5.5,9.2-6.2
			c0.5,0.1,0.7,0.6,0.7,1.1C386.7,273.7,386.6,274,386.6,274.1z"/>
		<path class="st0" d="M407.5,274.1c-2.2,6.4-9.7,16.2-16.8,16.2c-5.3,0-6.3-5.4-6.3-9.8c0-2.9,0.7-17.5,4-17.5c0.6,0,1,0.6,1,1.3
			c0,0.3-0.1,0.5-0.1,0.8c-1,5-2.2,9.9-2.2,15c0,3.7,0.7,7.8,5.1,7.8c7.2,0,14.2-15.3,15.1-15.3c0.4,0,0.6,0.3,0.6,0.6
			C407.8,273.5,407.7,273.9,407.5,274.1z M388,258.3c-1,0-2.1-0.5-2.1-1.8c0-2.4,1.4-7,4.5-7c1.6,0,2.2,1.9,2.2,3.3
			C392.6,255.4,390.7,258.3,388,258.3z"/>
		<path class="st0" d="M432.8,274.4c-2.5,5.5-10.9,14.1-17.2,14.1c-9.5,0-10.4-14-10.4-21c0-5.5,0.5-11,1.5-16.3
			c-1.2,0-7.5,0.1-7.9-1.3c0-1.8,7.1-1,8.4-1c0.9-3.7,4.8-16.1,9.5-16.1c3.2,0,3.5,6.9,3.5,9.2c0,2.3-0.1,4.7-0.7,7
			c3.1,0.1,7.1-0.1,10,0.6c0.2,0.1,0.6,0.3,0.6,0.6c0,1.5-9.3,0.8-11.1,0.8c-2.2,7.5-5.7,14.5-9.7,21.1c-0.4,0.6-0.7,1.3-0.7,2
			c0,4.3,3.5,11.1,8.3,11.1c7.9,0,14.4-12.4,15.6-12.9c0.5,0,0.6,0.8,0.6,1.1C433,273.7,432.8,274.3,432.8,274.4z M408.9,251.2
			c-0.9,4.2-1.6,8.5-1.6,12.9c0,2.2,0.1,4.3,0.5,6.5c3.8-5.6,6.4-12.9,8.4-19.4H408.9z M416,236.4c-2.4,0-5.9,10.6-6.4,12.4
			c2.5,0,4.8,0.1,7.3,0.1c0.6-1.9,1-4.1,1-6.1C417.8,240.7,417.4,236.4,416,236.4z"/>
		<path class="st0" d="M456,291.8c0.4,1.9,1.2,3.9,1.9,6c1.7,6.4,3.3,13.1,3.3,19.7c0,12.1-6.1,16.7-17.3,16.7
			c-8.5,0-17.8-3.3-17.8-13.6c0-13.1,16.5-23.6,25.7-29.4c0.4-0.3,0.6-0.6,0.6-1s-1.9-6.6-2-6.8c-0.2,0.1-0.6,0.4-0.9,0.6
			c-3.8,3.3-9.3,7.4-14.6,7.4c-3.7,0-6.8-2.7-6.8-6.6c0-4,5.2-20,9.2-20c0.5,0,0.7,0.4,0.7,0.8c0,1.3-1,1.4-1.5,2
			c-2.6,3.2-5.8,11.3-5.8,15.7c0,4,2.1,5.6,5.8,5.6c5.3,0,11-4.5,13.9-8.9c-0.1-1-0.1-1.9-0.1-2.9c0-2.5,1.4-14.3,5.1-14.3
			c1.1,0,1.2,2.8,1.2,3.6c0,5.4-3.2,10.8-3.2,13.6c0,1.8,0.9,7,1.9,8.7c4.3-1,15.6-11.3,18.2-15.5c0.2-0.4,0.5-0.9,1-0.9
			s0.6,0.6,0.6,1c0,4.2-15.1,14.9-18.3,17.2c-0.2,0.1-0.7,0.5-0.7,0.9v0.4H456z M453.2,292.6c-9.3,5.1-24.3,15.5-24.3,27.9
			c0,9.4,9,11.8,16.6,11.8c9.2,0,13.5-4,13.5-13.4C459,310.7,455.9,300.4,453.2,292.6z"/>
	</g>
	<g id="XMLID_1_">
		<path id="XMLID_6_" class="st0" d="M418.1,35.7c0,0-4.1-8.4-5.9-9.8c0,0-2.5-6.7,0-13.6c0,0,1-8.1,2.4-10.8c0,0,2.4-5.3,3.2-5.8
			c0,0,1.6,1-0.1,3.4c0,0-2,3.3-1.6,3.9c0,0-0.4,3,0.3,4.6c0,0,0,2,0.5,2.8c0,0,1.7-1.9,2.2-4.2c0,0,1-2.9,2.6-2.1c0,0,0.1,1,0,2.1
			c0,0-0.5,2.8-1.5,4.2c0,0,0.3,5.5-1.6,8.7c0,0-0.1,4-0.2,4.8c0,0,13.1,14.1,18.7,24.4c0,0,3.4,5.3,5.4,6.9
			c0,0,13.5,15.5,13.5,16.1c0,0,5.9,7,5.9,8.9c0,0,2.2,1.5,3.4-1.4c0,0,7-7,20.7-4.4c0,0,8,1.9,8.9,1.4c0.8-0.5,4.1-4,7-4.7
			c0,0,2.3-2.1,2.4-3.1c0,0,7-5.9,10.1-6.9c0,0,20.8-9.6,22.4-11.4c0,0,2.3-1.8,5-1.3c0,0,13.3,0.3,15,1.8c0,0,10.2,5,11,5
			c0,0,0.9,1.1,0,1.6c0,0-2.7,0.3-9.1-3c0,0-0.8,0.4,1.2,2.2c0,0,1.7,2.9,4.7,4.9c0,0,1.2,1.3-0.5,1.6c0,0,0.9,2.1,0.1,2.3
			c0,0-1.5,0.6-2.5-1.8c0,0-2.6-4.1-4.5-3.9c0,0,0,2.6-0.6,2.6c0,0-1.6,0.2-6-3.7c0,0-2.1-0.9-9.6-3.5c0,0-1.2-0.7-8,6.9
			c0,0-10.9,9.1-22,14.7c0,0-4,2.7-4.2,3.8c0,0,19.3,13.3,26.1,25.4c0,0,4.3,8,4.2,10.7c0,0,0.1,6.7,3.4,13.7c0,0,1.8,4.3,1.8,12.4
			l-0.5,24.6c0,0-0.8,3.7-1.1,5.1c-0.3,1.5,1,2.7,0.3,9.2c0,0,0.5,14.8,0.3,18.5c0,0,3.8,11.9,3.7,14.3c0,0,4.7,10.6,8.7,24.5
			c0,0,5.1,9.1,5.1,11.1c0,0,0.8-0.4,1.7,0c0,0,2.5,2.7,3.7,11.3c0,0,1.5,5.9,0.9,9c0,0,0,11.6-2.1,11.6c0,0-5.4,1.7-7-1
			c0,0,2.5-7.9,1-11.5c0,0-1.7-7.1-12.7-10.7c0,0-4.4-2.1-2.8-8.1c0,0,3.7-2.5,4.2-6.5c0,0-18.4-24.2-18.7-31.9
			c0,0-1.3-3.4-1.8-10.2c0,0-1.3-9.1-0.8-15.8c0,0-2.4-10.2-3.4-11.7c0,0-2.5-6.2-1.9-11.9c0,0-2-0.4-2.3,0c0,0-4.7,13.5-11.4,20.5
			c0,0,1.2,3.3-8,12.4c0,0-2.2,3.7-3.5,10.1c0,0-4.9,12.2-6.6,29.4c0,0-0.4,9.5-1.3,11c0,0,1.2,3.7,0.3,5.3c0,0-1.3,2.8-1,4.6
			c0,0-4.4,23.2-7.9,26.3c0,0-7.8,0.5-8.2-0.7c0,0-0.9-13.2,2.1-19.3c0,0,0.8-2.4-3.9-9c0,0,0.2-6.9,5.1-6.7c0,0,2.5-4.4,3.7-4.6
			c0,0,0.1-24.7,1.2-29.4c0,0-3.1-17.3,9.7-29.6c0,0,14.7-37.4,14.7-39.9c0,0,2.9-7.8-1.8-13.1c0,0-2-13.5,5.9-18.8
			c0,0-5.4-9-19.7-2.4c0,0-1.2,4.9-10.8,3.8c0,0-6.1-0.8-6.3,0c0,0-2.4,0.6-6.9,0.2c0,0-1.3,1.5,1,1.7c0,0,11.3,4.8,10.1,6.9
			c0,0,0.6,4,0.2,4.4c0,0,7.2,2.9,7.2,7c0,0-2,5.4-6,6.6c0,0-1.6,3.9-4.5,2.7c0,0-10,6.8-18.3,5.8c0,0-8.9,0.1-12.3-10.1
			c0,0-1.6-2.1-6.3-3.8c0,0-1.9-2.2,0.6-3.9c0,0,0-2.8-0.9-3.1c0,0-0.5-1.9,0.2-1.9c0,0-1.6-0.8-0.9-1.5c0,0,0-0.6,0.8-0.4
			c0,0,0.3-1.9-0.3-2.6c0,0-0.6-4.4,1.7-4.4c0,0,8.4-2.8,9.6-8.4c0,0,5.4-7.1,11.6-11.2c0,0-8.7-6.8-8.9-19c0,0-14.8-19.1-15-19.2
			c-0.1-0.1,0.1,0.1,0.1,0.1s-5.6-2.2-8.2-10.2C423.7,47.6,422,41.1,418.1,35.7z"/>
		<path id="XMLID_5_" class="st0" d="M421.6-3.1c0,0,1.7-0.7,1.8,0.5c0,0,0.2,0.7-1.8,2c0,0-2.4,2.1-2.4,2.5c0,0-0.2,2.8,0,3.2
			c0,0,0.3,4.8-2.4,5.4c0,0-2.6-7.9,0-9.9C416.8,0.6,419.7-2.2,421.6-3.1z"/>
	</g>
</g>
<g>
	<path class="st0" d="M92.5,123.7c-0.9,0-1.5-0.4-2.2-0.8c-1.6-0.9-4.3-0.9-6.2-0.9c-1.6,0-10.1,0-10.5,1.5
		c-3.6,12.9-4.7,30.3-4.7,43.7c0,6,0.2,12.1,1.2,18.1c4.1-0.9,8.2-1.3,12.3-1.3c1.6,0,8.9-0.3,8.9,2c0,1-1.1,1.8-2,1.8
		c-1.4,0-2.8-0.4-4.5-0.6c-1.5-0.4-3-0.6-4.6-0.6c-1.7,0-8.9,0-8.9,2.2v0.5c0,1-1.2,1.1-2,1.1c-1.2,0-1.6-0.5-1.7-1
		c-0.2-0.4-0.4-0.9-1.5-0.9c-0.2,0-0.6,0-0.9,0.1c-5.7,1.7-11.5,3.8-17.4,3.8c-3.2,0-6.7-0.9-6.7-5c0-0.8,0.1-2.7,1.1-2.7
		c0.6,0,1.1,1,1.2,1.5c1.1,3.1,3,3.8,6.1,3.8c2.5,0,16.7-2.8,16.7-4.8c0-4.3-0.6-8.8-0.6-13.3c0-10.8,1.1-21.8,2.6-32.5
		c0.5-4.1,2.2-12,2.2-15.7c0-0.9-0.4-0.8-1.1-0.8c-1.5,0-3.2,0.4-4.8,0.5c-3.3,0.4-6.8,0.6-10.1,0.6c-1.9,0-8.9,0.1-8.9-2.8
		c0-1.4,2.7-3.3,4-3.3c0.2,0,0.6,0.3,0.7,0.5c0,0.6-0.6,0.9-0.6,1.5c0,1.8,5.6,1.8,6.7,1.8c4.3,0,9.2-0.3,13.4-1.1
		c3-0.6,1.1-7.1,4.3-7.1c0.5,0,0.9,0.3,0.9,0.8c0,1.7-0.5,3.2-0.5,4.7c0,0.6,0,1,0.7,1c3.6,0,7.2-0.6,10.8-0.6
		c1.9,0,8.3-0.3,8.3,2.5C94.2,123.1,93.3,123.7,92.5,123.7z"/>
	<path class="st0" d="M143.3,186.9c-10.9,0-6.4-22.7-11.4-22.7c-4.8,0-12.4,13.6-14.2,17.3c-0.5,1-1.1,4.6-2.2,4.6
		c-0.7,0-1.2-0.4-1.2-1.1c0-1.7,2.7-8.7,2.7-13.8c0-2.9-0.6-6.8-4.2-6.8c-7.1,0-13.5,13-15.8,18.7c-0.5,1.1-0.9,5.1-2.5,5.1
		c-0.7,0-1.5-0.8-1.5-1.5c0-0.9,4.2-13.5,4.7-16.4c0.5-2.7,1.5-10.2,3.1-12.2c0.4-0.5,0.7-0.9,1.4-0.9c1.2,0,1.6,1.9,1.6,2.8
		c0,3.8-2.7,7.6-2.7,10.7c0,0.3,0,0.5,0.2,0.5c1.2-0.4,5.3-9.2,12.6-9.2c6.3,0,5.7,6.2,5.7,10.7c0,0.1,0,0.6,0.2,0.8
		c2.6-1.9,8-12.1,13.1-12.1c7.7,0,1.9,23.1,11.5,23.1c6.8,0,11.6-13.3,12.9-13.3c0.5,0,0.7,0.5,0.7,0.9
		C158,176.8,148.9,186.9,143.3,186.9z"/>
	<path class="st0" d="M198.1,175.1c-2.1,5.9-7.1,12.7-13.7,12.7c-4.3,0-7.1-3.4-8.4-7.4l-0.4-0.4l-0.5,0.4
		c-2.4,5-7.2,10.8-13.1,10.8c-5.1,0-8.9-4.1-8.9-9.3c0-8.8,10.6-24.3,19.9-24.3c1.9,0,5.1,1,5.1,3.3c0,0.6-0.4,1.7-1.1,1.7
		s-2.1-2.2-5.2-2.2c-7.1,0-16.1,13.9-16.1,20.9c0,4.2,2.7,7.4,6.9,7.4c6.9,0,12.3-9.2,12.3-15.5c0-1.4-0.4-2.8-0.4-4.2
		c0-1.5,0.4-5.2,2.4-5.2c0.9,0,1.5,0.8,1.5,1.7c0,2.7-0.7,5.1-0.7,7.8c0,4.6,1.7,12.4,7.4,12.4c6.7,0,10.9-9.3,12.9-14.7
		c0.1-0.4,0.4-0.6,0.7-0.6c0.5,0.1,0.5,0.8,0.5,1.1C199.1,171.9,198.4,174.6,198.1,175.1z"/>
	<path class="st0" d="M221.6,191.1c1,6.1,2.4,12.4,2.4,18.6c0,9.2-5,21.8-15.5,21.8c-6.7,0-12.7-7.3-12.7-14
		c0-11.8,15-21.8,23.5-27.4c-0.5-3.7-1.1-7.3-1.4-11c-3.6,2.9-8.3,5.7-13,5.7c-4.8,0-7.9-3.2-7.9-8.2c0-9.9,12.7-25.6,22.8-25.6
		c4.5,0,4.9,2.7,4.9,6.4c0,1.3,0.7,2.5,0.7,4.1c0,7-5,14.1-5,16.1c0,3.8,0.6,7.5,0.9,11.3c7.3-4.1,14.4-10.2,18.8-17.5
		c0.2-0.4,0.5-0.5,0.9-0.5s0.7,0.4,0.7,0.8C241.8,176.6,225.1,189,221.6,191.1z M219.5,192.5c-8.2,4.6-21.9,14-21.9,25
		c0,6.1,5.8,12.1,11.8,12.1c4.6,0,8.4-4.1,10.4-8c1.6-3.3,2-8,2-11.6C221.7,204.1,220.8,198.3,219.5,192.5z M219.1,153.3
		c-9.4,0-19.7,13.9-19.7,23.1c0,4.2,2.8,6.2,6.7,6.2c4.6,0,8.8-3.2,11.8-6.5c0-6.8,1.6-12,4.6-17.8c0.2-0.5,0.6-1.1,0.6-1.8
		C223.1,154,221.1,153.3,219.1,153.3z"/>
	<path class="st0" d="M262.5,172.4c-2.2,6.4-9.7,16.2-16.8,16.2c-5.3,0-6.3-5.4-6.3-9.8c0-2.9,0.7-17.5,4-17.5c0.6,0,1,0.6,1,1.3
		c0,0.3-0.1,0.5-0.1,0.8c-1,5-2.2,9.9-2.2,15c0,3.7,0.7,7.8,5.1,7.8c7.2,0,14.2-15.3,15.1-15.3c0.4,0,0.6,0.3,0.6,0.6
		C262.7,171.8,262.6,172.1,262.5,172.4z M242.9,156.6c-1,0-2.1-0.5-2.1-1.8c0-2.4,1.4-7,4.5-7c1.6,0,2.2,1.9,2.2,3.3
		C247.5,153.7,245.6,156.6,242.9,156.6z"/>
	<path class="st0" d="M303.7,172.9c-2,5.9-9,18.2-16,18.2c-12.5,0-4.7-22.3-11-22.3c-6.4,0-16.1,18-17.6,18.5
		c-0.7-0.1-1.2-1-1.2-1.7c0-0.4,0.1-0.6,0.4-0.9c2.1-2.8,2.4-9,2.4-12.5s-0.7-6.9-0.7-10.3c0-1.1,0.6-2.5,2-2.5c3,0,1.9,15,1.9,17.6
		c0,0.1,0.1,0.3,0.2,0.3c0.6,0,8.2-11.1,14.2-11.1c8.8,0,0,21.9,10.5,21.9c6.2,0,11.6-11.8,14-16.6l0.5-0.4c0.5,0,0.7,0.5,0.7,0.9
		C303.9,172.3,303.8,172.6,303.7,172.9z"/>
	<path class="st0" d="M344.4,175.1c-2.1,5.9-7.1,12.7-13.7,12.7c-4.3,0-7.1-3.4-8.4-7.4l-0.4-0.4l-0.5,0.4
		c-2.4,5-7.2,10.8-13.1,10.8c-5.1,0-8.9-4.1-8.9-9.3c0-8.8,10.6-24.3,19.9-24.3c1.9,0,5.1,1,5.1,3.3c0,0.6-0.4,1.7-1.1,1.7
		s-2.1-2.2-5.2-2.2c-7.1,0-16.1,13.9-16.1,20.9c0,4.2,2.7,7.4,6.9,7.4c6.9,0,12.3-9.2,12.3-15.5c0-1.4-0.4-2.8-0.4-4.2
		c0-1.5,0.4-5.2,2.4-5.2c0.9,0,1.5,0.8,1.5,1.7c0,2.7-0.7,5.1-0.7,7.8c0,4.6,1.7,12.4,7.4,12.4c6.7,0,10.9-9.3,12.9-14.7
		c0.1-0.4,0.4-0.6,0.7-0.6c0.5,0.1,0.5,0.8,0.5,1.1C345.4,171.9,344.6,174.6,344.4,175.1z"/>
	<path class="st0" d="M370.7,172.6c-2.5,5.5-10.9,14.1-17.2,14.1c-9.5,0-10.4-14-10.4-21c0-5.5,0.5-11,1.5-16.3
		c-1.2,0-7.5,0.1-7.9-1.3c0-1.8,7.1-1,8.4-1c0.9-3.7,4.8-16.1,9.5-16.1c3.2,0,3.5,6.9,3.5,9.2c0,2.3-0.1,4.7-0.7,7
		c3.1,0.1,7.1-0.1,10,0.6c0.2,0.1,0.6,0.3,0.6,0.6c0,1.5-9.3,0.8-11.1,0.8c-2.2,7.5-5.7,14.5-9.7,21.1c-0.4,0.6-0.7,1.3-0.7,2
		c0,4.3,3.5,11.1,8.3,11.1c7.9,0,14.4-12.4,15.6-12.9c0.5,0,0.6,0.8,0.6,1.1C371,172,370.7,172.5,370.7,172.6z M346.9,149.5
		c-0.9,4.2-1.6,8.5-1.6,12.9c0,2.2,0.1,4.3,0.5,6.5c3.8-5.6,6.4-12.9,8.4-19.4L346.9,149.5L346.9,149.5z M353.9,134.7
		c-2.4,0-5.9,10.6-6.4,12.4c2.5,0,4.8,0.1,7.3,0.1c0.6-1.9,1-4.1,1-6.1C355.8,139,355.4,134.7,353.9,134.7z"/>
	<path class="st0" d="M391.8,172.4c-2.2,6.4-9.7,16.2-16.8,16.2c-5.3,0-6.3-5.4-6.3-9.8c0-2.9,0.7-17.5,4-17.5c0.6,0,1,0.6,1,1.3
		c0,0.3-0.1,0.5-0.1,0.8c-1,5-2.2,9.9-2.2,15c0,3.7,0.7,7.8,5.1,7.8c7.2,0,14.2-15.3,15.1-15.3c0.4,0,0.6,0.3,0.6,0.6
		C392,171.8,391.9,172.1,391.8,172.4z M372.2,156.6c-1,0-2.1-0.5-2.1-1.8c0-2.4,1.4-7,4.5-7c1.6,0,2.2,1.9,2.2,3.3
		C376.8,153.7,374.9,156.6,372.2,156.6z"/>
	<path class="st0" d="M433.5,172.3c-1.1,5.5-10,7.1-14.4,6.5c-2.7,6.8-11,11.8-17.9,11.8c-7.1,0-12.1-6-12.1-13.1
		c0-10.1,9.5-17.6,18.8-17.6c1.5,0,3.2,0.1,4.6,0.5c1.4,0.4,0.6,0.8,1.5,1.3s1.9,0,2.6,0.5c2.8,1.7,4.3,6.4,4.3,9.6
		c0,1.8-0.4,3.4-1,5.1c0.9,0.1,1.7,0.3,2.6,0.3c7.1,0,9-5.2,10.6-5.7c0.1,0,0.4,0.3,0.4,0.4L433.5,172.3L433.5,172.3z M408.2,166.9
		c0-2.7,1.7-4.8,1.7-5c0-0.1-0.1-0.1-0.2-0.1c-0.6-0.1-1.4-0.1-2.1-0.1c-8.7,0-15.5,6.4-15.5,15.4c0,6.1,4,11.8,10.3,11.8
		c5.8,0,12-5.5,14.2-10.8C412.6,175.8,408.2,172.1,408.2,166.9z M413.3,164.4c-1.9,0-2.6,1.9-2.6,3.6c0,3.8,3.5,6.8,6.6,8.2
		c0.6-1.4,1-3.1,1-4.6C418.3,168.9,416.3,164.4,413.3,164.4z"/>
	<path class="st0" d="M474.9,172.9c-2,5.9-9,18.2-16,18.2c-12.5,0-4.7-22.3-11-22.3c-6.4,0-16.1,18-17.6,18.5
		c-0.7-0.1-1.2-1-1.2-1.7c0-0.4,0.1-0.6,0.4-0.9c2.1-2.8,2.4-9,2.4-12.5s-0.7-6.9-0.7-10.3c0-1.1,0.6-2.5,2-2.5c3,0,1.9,15,1.9,17.6
		c0,0.1,0.1,0.3,0.2,0.3c0.6,0,8.2-11.1,14.2-11.1c8.8,0,0,21.9,10.5,21.9c6.2,0,11.6-11.8,14-16.6l0.5-0.4c0.5,0,0.7,0.5,0.7,0.9
		C475.2,172.3,475.1,172.6,474.9,172.9z"/>
</g>
</svg>
