<?xml version="1.0" encoding="utf-8"?>
<!-- Generator: Adobe Illustrator 19.1.0, SVG Export Plug-In . SVG Version: 6.00 Build 0)  -->
<!DOCTYPE svg PUBLIC "-//W3C//DTD SVG 1.1//EN" "http://www.w3.org/Graphics/SVG/1.1/DTD/svg11.dtd">
<svg version="1.1" xmlns="http://www.w3.org/2000/svg" xmlns:xlink="http://www.w3.org/1999/xlink" x="0px" y="0px" width="359.7px"
	 height="360px" viewBox="0 0 359.7 360" style="enable-background:new 0 0 359.7 360;" xml:space="preserve">
<style type="text/css">
	.st0{fill:#FFFFFF;}
	.st1{opacity:0.85;}
	.st2{fill:#D1FFFF;}
	.st3{fill:#EDFFFF;}
	.st4{fill:#B8FFFF;}
	.st5{fill:#9FFFFF;}
	.st6{fill:#46FFFF;}
	.st7{fill:#8CFFFF;}
	.st8{fill:#76FFFF;}
	.st9{fill:#60FFFF;}
</style>
<g id="Layer_1">
</g>
<g id="Layer_2">
	<g>
		<path class="st0" d="M156.8,258.7v-82h-18v-29h19l0.5-25.5c0,0,1-19.7,17.5-27.2c0,0,6.5-3.3,18.4-3.3h23.6v28l-19.7,0.5
			c0,0-5.3,0.9-6.3,5.9v21.6h27l-2.4,29h-23.6l-0.4,75.9C192.4,252.6,184.8,258.7,156.8,258.7z"/>
		<g>
			<g>
				<g>
					<g class="st1">
						<g class="st1">
							<g>
								<path class="st2" d="M320.5,168.8c-0.2-0.3-0.3-0.9-0.5-1.2c-0.1-1.1-0.1-2.3-0.3-3.4l-0.4-3.4c-0.8-1.5-1.5-3-2.4-4.4
									c-0.5-1.7-1-3.7-1.6-5.3c-0.4-1-0.8-2.3-1.1-3.9c-0.2-0.8-0.4-1.6-0.6-2.6c-0.2-0.9-0.5-1.9-0.8-2.9c-0.6-1.5-1-2.8-1.5-4.1
									c-0.5-1.2-1-2.3-1.4-3.4c-0.4-1-0.8-2-1.3-2.8c-0.4-0.9-0.9-1.7-1.3-2.4c-0.2,0.5-0.7,0-1.2-1c-0.3-0.5-0.6-1.2-0.9-2
									c-0.4-0.8-0.8-1.7-1.2-2.7c-0.4-1-0.9-2-1.3-3.1c-0.5-1.1-1-2.1-1.5-3.2c-0.5-1.1-1-2.1-1.6-3.1c-0.6-1-1.1-1.9-1.6-2.7
									c-0.6,0.2-1.2,0.3-1.7,0.5c-0.5-0.9-0.9-1.7-1.3-2.4c-0.5-0.7-1-1.4-1.5-2.1c-1-1.4-2.1-3-3.7-5.4c-1-0.8-2-1.7-2.9-2.6
									c-1-0.9-1.9-1.8-2.8-2.8c-1.8-2-3.6-3.9-5.5-6.1c-0.8-0.8-1.5-1.3-2.2-1.8c-1.4-1.6-2.7-3.3-4.2-4.9
									c-3.9-3.1-2.4-0.3-3.8-0.7c-2.6-2.6-5.2-5.3-8.2-7.9c-0.5-0.6-0.9-1.3-1.4-1.9c0.6-0.2,1.5-0.2,2.1-0.3
									c1.4,0.6,2.7,1.3,4.1,1.9c4.3,3.5,5.7,4.5,5.5,4c1.5,0.5,0.4-0.8-1.4-2.4c-0.9-0.8-2-1.8-3.1-2.7c-1.1-0.9-2.2-1.7-3-2.4
									c0-0.3-0.3-0.8-0.3-1.1l3.1,1.8c1,0.6,2.1,1.2,3,1.8c3,2.4,4.3,3,5.5,3.8c0.6,0.4,1.2,0.8,2,1.6c0.8,0.7,1.9,1.7,3.2,3.3
									c0.4,0.1,1.1,0.3,1.5,0.4c0.7,0.7,1.4,1.3,2.1,2c0.7,0.6,1.4,1.3,2.1,2.1c0.5,0.7,0.9,1.4,1.5,2c-0.5-0.1-1.2-0.3-1.9-0.6
									c-0.6-0.3-2.2-1.7-4.9-4.8c0,1.1-0.7,1.3-1.8,1c-1.1-0.3-2.5-1.1-3.9-2c0.3,0.5,0.7,1,1.1,1.4c0.4,0.4,0.9,0.9,1.3,1.3
									c1,0.9,2,1.8,3.1,3.1c0.9,0.9,1.7,1.9,2.7,2.9c0.9,1,1.9,2,2.7,3.1c0.8-0.4,1-0.5,1.2-0.6c1.5,2,3.3,4.2,4.4,6.3
									c2.8,3.2,4,5.4,5.9,7.7c1.3,0.1,2.7,3.2,3.5,4.4c4.6,5,8.7,12.4,12,22.1c-0.1,0.4,0.2,1.6,0.6,3c0.4,1.4,0.7,3.1,1,4.6
									c0.4,0.9,0.8,1.7,1.2,2.5c0.3,0.8,0.6,1.5,0.9,2c0.5,1.1,1,1.6,1.3,1c-0.2-1.1-0.3-2-0.4-2.8c-0.5-2.2-1.1-4.4-1.7-6.7
									c-0.6-2.2-1.4-4.4-2-6.6c-0.6-1.6-1.5-3.5-2.2-5.1c-0.4-0.6-0.9-1.3-1.3-1.9l-1.4-1.9c-0.4-1.6-1.3-4.2-2.6-6.8
									c-0.6-1.3-1.2-2.7-1.9-4.1c-0.7-1.3-1.4-2.6-2-3.9c-0.6-1.6-1.4-3.4-2-4.9c0.6,0.8,1.3,1.6,2,2.6c0.6,1,1.3,2,1.9,3.1
									c0.6,1.1,1.3,2.3,2,3.5c0.6,1.2,1.3,2.5,1.9,3.8c0.3,0.7,0.6,1.3,0.9,1.9c0.3,0.7,0.5,1.3,0.8,2c0.5,1.3,1.1,2.6,1.6,3.9
									c1,2.6,1.9,5.2,2.8,7.7c0.7,1.9,1.4,3.9,2.2,5.9c0.6,2,1.3,4,1.9,6c1,4.1,2.1,7.7,2.8,10.9c0.8,3.2,1.1,6,0.9,8.2
									c0.2,2.6,0.2,4.6,0.2,6.8L320.5,168.8z"/>
							</g>
							<g>
								<path class="st3" d="M313.6,141.6c-0.3-1.5-0.7-3.2-1-4.6c-0.4-1.4-0.6-2.6-0.6-3c-3.3-9.7-7.5-17.1-12-22.1
									c-0.8-1.2-2.2-4.2-3.5-4.4c-1.8-2.2-3.1-4.4-5.9-7.7c-1.2-2.2-2.9-4.3-4.4-6.3c-0.2,0.1-0.4,0.2-1.2,0.6
									c-0.8-1.1-1.8-2.1-2.7-3.1c-0.9-1-1.8-2-2.7-2.9c-1-1.3-2.1-2.2-3.1-3.1c-0.5-0.4-0.9-0.9-1.3-1.3c-0.4-0.4-0.8-0.9-1.1-1.4
									c1.4,0.8,2.8,1.7,3.9,2c1.1,0.3,1.9,0.1,1.8-1c2.8,3.1,4.4,4.5,4.9,4.8c0.7,0.3,1.4,0.5,1.9,0.6c0.9,1.1,1.8,2.1,2.6,3.2
									c0.8,1.1,1.7,2.1,2.5,3.3c0.8,1.2,1.6,2.3,2.4,3.4c0.8,1.1,1.6,2.2,2.3,3.4c0.4-0.1,1.8,2,3,3.8c1.2,1.8,2.1,3.3,1.9,1.6
									c0.6,1.2,1.3,2.5,2,3.9c0.7,1.3,1.3,2.8,1.9,4.1c1.3,2.7,2.2,5.2,2.6,6.8l1.4,1.9c0.5,0.6,0.9,1.3,1.3,1.9
									c0.7,1.6,1.6,3.5,2.2,5.1c0.7,2.2,1.4,4.4,2,6.6c0.6,2.2,1.2,4.4,1.7,6.7c0.1,0.8,0.2,1.7,0.4,2.8c-0.3,0.5-0.7,0-1.3-1
									c-0.3-0.5-0.6-1.2-0.9-2C314.4,143.3,314,142.5,313.6,141.6z"/>
							</g>
							<g>
								<path class="st4" d="M301.4,107.4c0.2,1.7-0.7,0.2-1.9-1.6c-1.2-1.8-2.6-4-3-3.8c-0.7-1.2-1.5-2.3-2.3-3.4
									c-0.8-1.1-1.6-2.2-2.4-3.4c-0.9-1.1-1.7-2.2-2.5-3.3c-0.8-1.1-1.7-2.2-2.6-3.2c-0.5-0.7-1-1.4-1.5-2
									c-0.7-0.7-1.4-1.4-2.1-2.1c-0.7-0.6-1.4-1.3-2.1-2c-0.4-0.1-1.1-0.3-1.5-0.4c-1.3-1.6-2.4-2.6-3.2-3.3
									c-0.8-0.7-1.4-1.2-2-1.6c-1.2-0.8-2.5-1.4-5.5-3.8c-1-0.7-2-1.2-3-1.8l-3.1-1.8c0,0.3,0.3,0.8,0.3,1.1
									c0.8,0.7,1.9,1.5,3,2.4c1.1,0.9,2.2,1.9,3.1,2.7c1.9,1.7,2.9,2.9,1.4,2.4c0.2,0.5-1.2-0.5-5.5-4c-1.4-0.6-2.7-1.3-4.1-1.9
									c-0.6,0.1-1.5,0.1-2.1,0.3c-1.7-1.1-3.4-2.2-5-3.3c-1.7-1-3.4-2-5.2-3c-0.7-0.5-1.4-0.8-2.1-1.2c-1.5-0.7-3.2-1.6-4.7-2.2
									c-0.9-1-1.8-1.9-2.7-2.9c-1.9-1.3-2.5-1.3-3.2-1.2c-0.7,0-1.3,0.1-3.3-0.7c-3.7-2-7.6-3.8-11.5-5.4
									c-0.7-0.2-1.5-0.5-2.1-0.7c-0.7-0.2-1.3-0.4-1.9-0.6c-1.2-0.4-2.3-0.8-3.3-1.2c-2-0.7-3.7-1.4-5.5-2.1
									c-1.7-0.7-3.5-1.2-5.6-1.7c-2.1-0.6-4.6-0.8-7.7-1c-1.9-0.4-3.7-0.6-5.6-0.9c-1-0.1-1.9-0.3-2.9-0.4c-1-0.1-2-0.2-3-0.2
									c-1.3,0-2.6,0-4,0.1l-4,0.3c-2.6,0.1-5.2,0.5-7.9,0.8c-1.8,0.1-3.5,0.4-5.3,0.6l-2.6,0.3c-0.9,0.1-1.8,0.3-2.6,0.4
									c0.6-0.3-0.5-0.2-1.3-0.2c-1.3,0.2-2.3,0.5-3.1,0.8c-0.9,0.3-1.7,0.7-2.6,1.1c-1,0.4-2.1,0.8-3.6,1.2
									c-1.5,0.5-3.3,1-5.8,1.6c-2.1,0.6-4.2,1.2-6.2,1.8c-2.1,0.8-4.1,1.6-6.1,2.5c-2,0.9-4,1.8-6,2.7c-2.2,1.1-4.3,2.2-6.5,3.2
									c-2.1,1.2-4.2,2.3-6.3,3.6c-0.7,0.4-1.4,0.9-2.3,1.5c-2.7,1.6-3.2,1.6-3.4,1.4c-0.2-0.2-0.1-0.7-1.5,0.1
									c-0.9,0.6-2,1.3-3,2.1c-1.1,0.8-2.1,1.6-3.1,2.4c-1,0.8-2,1.5-2.8,2c-0.8,0.5-1.4,0.9-1.9,0.9c-3,2.4-6.1,5.2-8.9,7.8
									c-1.9,2.1-3,3.5-4,4.9c-1,1.4-2,2.7-3.7,4.4c-0.9,1.1-1.7,2.1-2.5,3.1c-0.8,1-1.7,2-2.4,3.2c-0.5,0.7-1,1.3-1.6,2.2
									c-0.3,1.7-2.7,5-4,6.7c-0.8,1.3-1.5,2.7-2.3,4.1c-0.8,1.4-1.6,2.8-2.2,4.2c-0.5,0.1-1.4,1.8-2.4,3.7c-1,2-1.9,4.2-2.8,5.2
									c-0.7,1.2-1.2,2.5-1.7,3.7c-0.5,1.2-1.1,2.4-1.6,3.7c-0.5,1.2-1,2.5-1.4,3.7c-0.5,1.2-1,2.5-1.4,3.7
									c-0.4,1.7-0.6,3.5-0.9,5.1c-0.1,1.6-0.3,3.1-0.4,4.3c-0.3,2.5-0.5,4.1-1.3,4c-0.6,2.4-1,5-1.2,7.9c-0.1,1.4-0.3,2.9-0.5,4.4
									c-0.1,1.5-0.3,3.1-0.6,4.7c-0.1,0.7-0.1,1.3-0.2,2c0,0.7-0.1,1.3-0.1,2c-0.1,1.3-0.2,2.7-0.2,4c-0.1,2.7-0.1,5.4-0.1,8
									c0.2,1.3,0.4,2.6,0.6,4c0.2,1.4,0.4,2.8,0.7,4.2c0.3,2.5,0.6,5.3,1,7.7c0.3,1.4,0.5,2.7,0.8,4.1c0.3,1.3,0.6,2.6,0.9,3.8
									c0.4,1.1,0.8,2.3,1.2,3.4c0.4,1.2,0.8,2.3,1.1,3.3c0.3,1,0.5,1.9,0.6,2.6c0.1,0.7,0.1,1.1-0.2,1.2c0.3,0.8,0.5,1.6,0.8,2.4
									c0.7,0.5,1.2,1.9,1.7,3.2c0.6,1.3,1,2.6,1.4,3c0.3,0.4,0.9,1.8,1.5,3.3c0.6,1.5,1.2,3.2,1.4,4.1c0.3,0.8,0.7,1.5,1.2,2.5
									c0.7,1.3,1.4,2.7,2.1,4c0.7,1.4,1.6,2.6,2.3,4c0.8,0.6,1.6,1.8,2.5,3.1c0.8,1.3,1.6,2.6,2.1,3.6c0.6,0.9,1.2,1.8,1.9,2.7
									l2,2.7c1.3,1.8,2.7,3.5,4.1,5.2c2.5,2.9,5.2,6.1,8,8.8c1-0.2,7.1,6.2,10.2,10.3c1.3,1.1,2.8,2.3,4.1,3.3
									c0.7,0.3,1.3,0.7,2,1c0.7,0.3,1.3,0.6,2,0.9c1.5,1.1,3.6,2.6,5.4,3.8c1.9,1.2,3.4,2.4,4.1,3.1c1.4,0.8,3.1,1.8,4.5,2.6
									c2.2,0.8,3.3,1.3,4.2,1.9c0.9,0.6,1.6,1.1,3,1.7c0.3,0.1,0.8,0.3,1.3,0.6l1-1.2c3.9,0.6,6.1,2.9,9.3,4.4
									c1.2,0.5,1.9,0.6,2.7,0.7c0.2-0.4,0.9-0.3,1.8,0c0.9,0.3,2,0.8,3.3,1.3c1.3,0.5,2.7,1,4,1.4c1.3,0.4,2.7,0.6,3.8,0.5
									c3.7,0.8,1.5,1.9,8.4,2.6c0.3-0.1,0.8-0.2,1.4-0.2c0.6,0,1.3,0,2.1,0c1.6,0.1,3.7,0.4,5.9,0.6c2.2,0.2,4.5,0.6,6.8,0.7
									c2.3,0.2,4.4,0.4,6.3,0.4c1.8-0.5,3.8-1,5.5-1.4c1.9,0.1,3.6,0,5.3,0c0.8,0,1.6-0.1,2.4-0.2c0.8-0.1,1.6-0.2,2.3-0.3
									c1.5-0.2,3-0.5,4.4-0.8c1.4-0.4,2.8-0.8,4.2-1.2c5.6-1.7,11.4-3.6,19.5-6.2c1.4-0.2,2.7-0.7,4-1.2c1.3-0.5,2.6-1,3.9-1.7
									c2.5-1.3,5-2.4,7.5-3.3c0.6-1.9,6.5-4.7,11.8-8.2c0.7-0.4,1.3-0.8,2-1.3c0.6-0.4,1.3-0.9,1.9-1.3c1.2-0.9,2.3-1.7,3.3-2.5
									c1.8-1.6,3-2.9,2.8-3.7c4.9-4,11-9,13.8-13.2c2.9-1.7,3.3-2,4-2.8c1.4-2.1,0.2-1.5,0.1-2.1c0.9-0.9,1.7-1.9,2.5-2.9
									c0.8-1,1.6-1.9,2.5-2.9c-0.7,2.4,2.6-2.1,3.8-3.1c0.6-1.5,1.3-2.9,2.2-4.3c0.5-0.7,1-1.4,1.5-2c0.5-0.7,1-1.4,1.6-2.1
									c2.2-2.8,4.6-6,6.4-9.9c2.3-6.1-1-4.1,3.5-12.9c0.5-4.8,1-6,3.1-12.5c1.6-2.6,2.8-7.8,4.1-13.2c0.4-0.1,0.7-0.5,1.2-0.7
									c0.3-1.3,0.8-2.5,1.1-3.8c0.7-1.3,1.4-2.1,1.9-3.2c0.6-1.1,1.1-2.5,1.4-4.9c0.3,0.4,0.7,1,1,1.4c0,3-0.1,4.8,0,6.2
									c0,0.7,0,1.3,0,1.8c0,0.6-0.1,1.1-0.1,1.6c-0.7,1.5-1.5,3.2-2.2,4.6c-0.1,1.6-0.3,3.2-0.4,4.8c-0.1,0.8-0.2,1.6-0.2,2.4
									c-0.1,0.8-0.2,1.6-0.3,2.4c-0.4,1.5-0.7,3-1.1,4.5l-1.3,4.4c0,1.6,0,3.1-0.2,4.7c-0.2,0.9-0.4,1.7-0.6,2.5
									c-0.4,1-0.8,1.9-1.3,2.8c-0.4,0.9-0.9,1.8-1.3,2.7c-0.8,1.8-1.8,3.5-2.8,5.4c-0.6,0.9-1.2,1.7-1.8,2.6
									c-0.6,0.8-1.3,1.7-2,2.7c-0.2-0.2-0.4-0.4-0.8-0.7c-0.6,1-1.1,2.1-1.7,3.1c-0.6,1-1.2,2-1.9,3.1c-1.2,2.1-2.6,4-3.9,6
									c-1.1,1.7-2.4,3.3-3.5,4.9c-0.6,0.8-1.2,1.6-1.8,2.4c-0.6,0.8-1.3,1.5-1.9,2.3c-0.9,0.6-1.9,1.5-2.9,2.3
									c-0.7,1.2-1.5,2.5-2,3.6c-1,1.3-2.1,2.2-3,3c-0.9,0.8-1.8,1.6-2.5,2.7c1.1-0.5,0.6,0.4-1.1,2c-0.8,0.8-1.9,1.8-3.1,3
									c-1.3,1.1-2.7,2.4-4.2,3.7c-1.5,1.1-2.9,2-4.5,3c-1.7,1.7-2.4,2.4-2.7,2.9c-0.3,0.5-0.4,0.8-1,1.4c-0.9,0.7-1.8,1.4-2.7,2.1
									l-2.7,2c1.9-0.3-2.3,2.4-4.2,3.8c-1.5,0.7-2.7,1.4-3.7,2c-1,0.6-1.9,1.2-2.8,1.7c-0.9,0.6-1.8,1.2-2.8,1.7
									c-1.1,0.5-2.3,1.1-3.9,1.6c-2.5,1.4,0.4,0.9-2.1,2.1c-1.1,0.4-1.8,0.7-2.6,1c-0.8-0.1-1.7-0.1-2.8-0.1
									c-1,0.4-2.4,0.8-7.4,3.2c-0.6-0.3-1.1-0.6-1.4-1c-2.7,0.7-5.1,1.3-7.8,1.8c-0.8,0.3-1.6,0.6-2.7,1c-1.3,0.3-2.6,0.6-3.9,0.8
									l-3.9,0.7c-2.6,0.4-5.3,0.8-7.9,1c0.5-0.9-2-0.5-4.6-0.2c-1.3,0.2-2.6,0.2-3.5,0.2c-0.9-0.1-1.4-0.3-1.1-0.7
									c-0.8,0-1.7,0-2.5,0c-0.6,1.2,1.9,1.4,0.5,2.4c-0.6,0-1.3,0-1.9,0c-0.7,0-1.3-0.1-2-0.1c-1.3-0.1-2.6-0.2-3.9-0.2
									c0.1-0.4,0.3-0.8,0.4-1.3c-1.9-0.3-3-0.5-3.8-0.5c-0.7,0-1.1,0.1-1.4,0.3c-0.5,0.3-0.8,0.8-3.3,0.6c-2.7-0.5-5.1-1-7.8-1.7
									c-0.7-0.4-2.4-0.7-3.7-0.9c-2.6-0.2-1.4,0.5-1.8,0.7c-2.2-0.5-4.4-1-6.5-1.5c-4.7-1-2.2,0.6-5.8-0.3c-2-1.1-3.3-2-4.4-2.8
									c-1.1-0.8-2-1.6-3-2.6c-1.8-0.2-3.9-0.5-5.8-0.7c-1-0.2-2.3-0.8-3.6-1.3c-1.3-0.6-2.7-1.3-4-1.9c-0.9-1-2.6-2.4-1.3-2.6
									c-0.9-0.6-2.1-1.3-3.3-2c-1.5-0.4-2.9-0.9-4.1-1.2c-1.9-1.1-3.8-2.4-5.5-3.7c-1.6-0.9-3-2-4.5-3c-1.5-1-3-2-4.4-3.2
									c-2.9-2.5-6-5.3-8.7-8c-1.4-1.2-2.8-2.3-4.2-3.4c-1.3-1.2-2.6-2.4-4-3.6l-1-1l-0.9-1l-1.9-2c-0.6-0.7-1.3-1.3-1.9-2
									l-1.8-2.1c-3.6-4.9-6.8-10.1-9.8-15.7c-0.4-0.7-0.8-1.4-1.4-2.4c-0.2,0-0.4,0.1-0.6,0.2c-1.1-1.4-2-2.8-3.1-4.6
									c-0.6-1-1.2-2-1.7-3c-0.5-1-1.1-2-1.6-3c-1.1-2.3-2.1-4.9-3.1-7.5c-0.6-1.6-1.1-3.2-1.8-5c-0.7-2.9-1-4.6-1.4-5.9
									c-0.3-1.2-0.6-2-0.8-3c-1-3.3-1.3-1.9-2.1-4.1c-0.2-0.8-0.4-1.7-0.6-2.6c-0.2-0.9-0.3-1.8-0.5-2.6
									c-0.5-8.5-1.3-12.5-1.5-18.6c0-2.8-0.2-5.3-0.1-8.1c-0.3-1.5-0.6-3-0.9-4.2l-0.2-1.8l-0.1-1.8l-0.2-3.6
									c0-1.4,0.2-2.9,0.3-4.3c0.1-1.4,0.2-2.8,0.3-4.1c0.6-2.2,1.2-4.3,1.9-6.4c0.4-1.8,1-3.5,1.4-5.3c0.4-1.7,1-3.4,1.5-5
									c0.5-1,0.8-1.7,1.2-2.5c0.2-1.8,0.7-3.8,1-5.6c0.2-0.8,0.4-1.6,0.6-2.4c0.3-0.8,0.5-1.6,0.8-2.4c0.5-1.6,1-3.2,1.6-4.7
									c0.1-0.2,0.4-0.8,0.6-1.3c0.8-0.8,1.8-1.8,2.7-2.8c0.3-0.8,0.7-1.5,1.3-2.5c0.4-2.6-0.9-0.4-1-0.9c0.3-0.8,0.6-1.7,0.9-2.6
									c1-2.1,1.9-3.2,2.5-4c0.6-0.8,1.1-1.2,1.5-1.6c0.4-0.4,0.8-0.8,1.4-1.6c0.6-0.8,1.3-1.9,2.4-3.8c0.1-0.7,0.1-1.5,0-2
									c1.3-1.9,2.7-3.7,4-5.6c2.4-2.7,4.8-5.5,7.2-7.8c3.8-4.1,7.8-7.8,11.8-11.3c1.7-2,1-1.6-0.2-0.8c-1.2,0.8-2.7,2-2.6,1.4
									c1.4-2,2.1-2.8,2.2-3.1c0.1-0.3-0.2-0.1-0.6,0.2c-2.7,2.1-2.7,3.2-4.8,5.1c-0.3,0.1-0.7,0.5-1.1,0.8
									c-0.3-0.4-0.5-0.9-0.8-1.4c0.7-1.1,1.2-1.9,1.7-2.8c0.2-0.2,0.6-0.7,1-1.2c0.7-0.6,1.4-1.2,2.1-1.9c0.7-0.6,1.4-1.2,2.1-1.7
									c1.4-1.1,2.8-2.4,4.3-3.5c-0.1,0.4,0.6-0.1,1.3-0.5c2.9-1.9,3-3,5.5-4.6c1.1-0.6,2.3-1.3,3.5-1.9c1.2-0.6,2.5-1.3,3.8-1.9
									c2.5-1.4,4.1-2.4,5.5-3.5c0.7-0.5,1.4-1.1,2.3-1.7c0.8-0.5,1.8-1.1,3-1.6c1.3-0.6,2.3-1.2,3.7-1.8c2.1-0.9,4.3-1.8,6.4-2.6
									c2-0.9,4.3-1.9,6.7-2.8c1.2-0.4,2.5-0.9,3.8-1.3c1.3-0.4,2.6-0.9,4-1.2c2.7-0.8,5.5-1.5,8.3-2.1c1.4-0.3,2.8-0.6,4.1-0.9
									c1.4-0.2,2.7-0.5,4.1-0.7c2.7-0.6,5.4-0.5,7.9-0.7c0.6,0,1.2-0.1,1.8-0.1c0.6,0,1.2,0,1.8-0.1c1.2-0.1,2.3-0.3,3.5-0.6
									c4.9-0.2,10.5-0.3,15.6-0.2c5.1,0.2,9.5,0.7,12,1.6c2.9,0,6.8,0.6,10.9,1.3c2,0.4,4.1,0.8,6,1.2c1.9,0.4,3.8,0.9,5.4,1.2
									c2.1,0.7,4,1.5,5.9,2.3c0.9,0.4,1.9,0.8,2.8,1.2c0.9,0.4,1.8,0.9,2.7,1.3c1,0.4,2,0.7,3,1.1c1,0.4,2,0.9,3,1.3
									c2,0.9,4.1,1.8,6.1,2.8c3.9,1.8,7.4,3.8,9.9,4.7c1.3,0.9,2.6,1.9,3.9,2.9c0.7,0.5,1.3,1,2,1.5c0.6,0.5,1.2,1,1.9,1.5
									c1.2,0.8,2.4,1.7,3.6,2.6c1.1,0.9,2.2,1.6,3.1,2.2c0.8,0.7,1.6,1.4,2.4,2c0.8,0.7,1.5,1.4,2.2,2c1.4,1.3,2.7,2.4,3.6,3.5
									c2,2.1,3.2,3.7,2.9,4.5c0.6,0.6,1.3,1.2,2.2,2c1.2,1.3,2.6,2.7,3.7,4c0.2,0.2,0.6,0.7,0.9,1.1l2.5,2.5
									c0.8,0.8,1.6,1.7,2.4,2.6c0.7,0.9,1.6,2,2.5,3.2c0.9,1.1,1.8,2.3,2.5,3.2c1.2,1.6,2.2,3.1,3.4,4.7
									C300,104.1,300.8,105.8,301.4,107.4z"/>
							</g>
							<g>
								<path class="st2" d="M226.9,57.9c-0.8-0.3-1.6-0.5-2.4-0.8c-0.8-0.3-1.7-0.5-2.4-0.7c-1.2-0.5-2.4-0.9-3.6-1.3
									c-1.2-0.4-2.4-0.8-3.6-1.2c-1.3-0.4-2.5-0.8-3.6-1c-4.4-1.5-8.7-2.7-13.4-3.8c-0.5-0.1-0.8-0.1-1.3-0.2l-3.2-0.3
									c-1.1-0.1-2.2-0.1-3.2-0.1l-3.2-0.1c-1.1,0-2.2,0-3.2,0c-1.6,0-3.5-0.2-5.1-0.1c-0.7-0.5-1.4-1-2.3-1.5l-3.2,0.1l-3.2,0.2
									l-3.2,0.2c-1.1,0.1-2.1,0.2-3.2,0.2c-0.9,0.5-1.7,0.9-2.5,1.4c-2,0.3-4.6,0.7-6.8,1.1c-2.2,0.4-4.1,1-4.8,1.5
									c-0.9,0.6-0.1,0.7,1.3,0.5c1.4-0.2,3.4-0.6,5-0.9c4.7-1.1,4.4-0.3,6.2-0.1c-1.6,0.5-3.2,1.1-5,1.7c-0.7,0.1-1.6,0.2-2.5,0.4
									c-0.9,0.2-2,0.4-3,0.7c-1.1,0.3-2.2,0.5-3.3,0.8c-1.1,0.3-2.1,0.6-3.1,0.9c-4,1-6.7,1.9-5.2,0.3c-2.4,0.8-4.8,1.6-7.3,2.6
									c-1.2,0.5-2.6,0.9-3.9,1.4c-1.3,0.5-2.7,1.1-4.2,1.7c0.3,0.3,0.9,0.4,1.2,0.7c1.1-0.3,3.4-1.4,5.3-2
									c1.8-0.6,3.1-0.9,1.9,0.1c-4.6,1.7-9.1,3.9-13.5,6.1c-1.2,0.5-2.3,1.1-3.5,1.6c-1.1,0.5-2.3,1-3.3,1.5
									c0.7-1-1.5,0.2-2.6,0.2l-2.6,1.9l-2.5,2c-0.8,0.7-1.7,1.3-2.5,2l-2.4,2.1c-2.6,2.9-1.8,2.8-4.1,5.5L94,84.6L92.4,86
									c-1,1-2.1,1.9-3.1,2.9c-5.5,4.6-1.1-1.3-2.4-1.5c-0.6,0.5-1.3,0.9-2.1,1.5c-4.4,5.1-8.7,10.6-12.4,16.5
									c-0.5,1.2-1.3,2.7-2.4,4.3c-1.1,1.6-2.1,3.5-3.2,5.2c-0.5,0.9-1,1.7-1.4,2.5c-0.4,0.8-0.8,1.6-1.1,2.3
									c-0.6,1.4-0.9,2.4-0.7,2.9c-1,2-2.1,4.3-3,6.6c-0.9,2.3-1.7,4.5-2,6.2c0,3,0.8,1.9,1.6,0c0.9-1.9,2-4.5,2.5-4.6
									c0,1.2-0.5,2.7-1,4.1c-0.5,1.4-0.8,2.7-0.7,3.5c-0.3,1.2-0.8,2.6-1.2,4c-0.4,1.4-0.8,3-1.2,4.5c-0.4,1.6-0.7,3.2-1,4.8
									c-0.4,1.6-0.6,3.2-0.8,4.7c-0.1,0.5-0.1,0.7-0.2,1.2c-0.1,0.8-0.3,1.5-0.4,2.5c-0.1,1.6-0.1,3.2-0.2,4.9
									c-0.1,1.6,0,3.3-0.1,5c0,1.3,0,2.3,0,3.6c-0.3,2-0.6,3.9-0.8,5.9c0.4,3,0.3,5.8,0.4,8.6c0.1,1.4,0,2.8,0.1,4.2
									c0.1,1.4,0.2,2.8,0.3,4.2c-0.7-0.6-1.5-2.6-2.1-5.3c-0.5-2.7-0.9-6.2-0.7-9.5c-1.3,0-0.3-9.1-0.5-12.6
									c-0.5-0.5-0.9,0.2-1.2,1.4c-0.2,0.6-0.4,1.4-0.5,2.2c-0.1,0.8-0.3,1.7-0.4,2.6c-0.6,3.5-0.9,6.9-2.1,5.5
									c-0.4-1.4-0.6-3.1-0.7-4.7c-0.1-1.7-0.2-3.3-0.2-4.7c0-2.9-0.1-4.8-0.9-4.1c0.3-6.3,1.9-8.3,2.8-15.4l-1-0.5
									c-1.6,7.6-2.7,15.3-3.1,22.4c-0.1,1.8-0.2,3.5-0.2,5.3c0,1.7,0.1,3.4,0.1,5c0,1.6,0.2,3.2,0.3,4.7c0.2,1.5,0.3,3,0.5,4.4
									c0.3-1.7,0.6-1.7,0.8-0.9c0.2,0.8,0.5,2.4,0.8,4c0.5,3.2,1.2,6.2,1.4,2.3c-0.3-2.9-0.6-5.8-0.8-9.1c0.3,0.9,0.5,1.8,0.7,2.6
									c0.2,0.8,0.4,1.6,0.5,2.4c0.3,1.5,0.4,2.9,0.4,4.2c0.6,1.6,1.3,3.5,1.9,5.1c0.4,1.4,0.8,2.6,1.1,3.8c0.4,1.2,0.7,2.3,1,3.4
									c0.3,1.1,0.7,2.3,1.1,3.5c0.4,1.2,0.8,2.6,1.4,4.1c0.4-0.2,1,0.7,1.6,2.2c0.3,0.7,0.6,1.6,0.9,2.5c0.4,0.9,0.7,1.8,1.1,2.7
									c1.4,3.5,2.8,6.2,2.7,2.9c0.3-1.1,0.9,0.2,1.6,2c0.4,0.9,0.8,2,1.2,3.1c0.5,1,0.9,2,1.4,2.8c-0.3,1.1,3.1,6.5,5,9.8
									c1.2,0.9,3.4,4.1,3.3,2.5c-1.6-2.4-1.5-2.7-1.4-3.1c0-0.2,0-0.4-0.2-0.9c-0.2-0.5-0.7-1.2-1.4-2.5c0.6,0.5,0.7-0.3,1-0.5
									c0.3-0.2,0.8,0.3,2.4,3.3c0.1-0.9,0.6-0.8,1.4-0.2c0.8,0.7,1.8,2,3,3.4c2.3,2.9,5.2,6.2,6.7,7.1c2.9,2,7.5,7.4,12.2,11.7
									c1.4,0.7,3,1.6,4.8,2.8c0.9,0.6,1.9,1.2,2.9,1.9c1,0.7,2,1.4,3.2,2.1c4.4,2.9,9.5,5.9,14.6,8.3l0.7-0.8
									c0.2,0.1,0.6,0.3,0.8,0.4c1.2,0.9,2.3,1.6,3.3,2.2c1,0.5,1.8,1,2.5,1.4c1.2-0.1,2.2-0.2,3.2-0.4c1.4,0,2.5,0,3.9-0.1
									c0.6,0.2,1.2,0.5,1.8,0.7c0.6,0.2,1.2,0.4,1.9,0.7c1.3,0.4,2.5,0.9,3.7,1.3c2.1,1.4,0.7,1.6-1.4,1.4c-2.2-0.3-5.2-0.9-6.6-1
									c-1.9-0.6-3.8-1-5.6-1.7c-1.3-0.2-2.6-0.4-3.7-0.5c-1.2-0.2-3.4-1.4-5.3-2.3c-1.8-0.9-3.2-1.6-2.9-0.6
									c-1.2-0.8-2.2-1.3-3.1-1.7c-0.8-0.5-1.5-0.8-2.2-1c-1.2-0.5-2.3-0.7-3.6-1.3c-1.1-0.3-0.7,0.4,0.3,1.3
									c1,0.9,2.6,2.1,3.7,2.9c2.4,1.1,4.3,2.1,5.7,3.1c1.5,0.9,2.7,1.7,3.8,2.5c1.1,0.8,2.2,1.5,3.5,2c1.3,0.6,2.9,1.2,5,1.5
									c2.8,1.6,7,3.2,10.9,4.4c1,0.3,1.9,0.6,2.9,0.9c0.9,0.3,1.8,0.6,2.6,0.8c1.6,0.5,2.9,1,3.7,1.5c2.7,1.2,4.9,1.7,5.3,2.6
									c1.3,0.2,2.6,0.2,4.1,0.3c1.4,0,2.9,0.1,4.4,0.1c1.5,0,3.1,0,4.8,0.1c1.7,0.1,3.4,0.2,5.2,0.5c1.6,0.2,2.1,0.8,3.3,1.1
									c0.6,0.2,1.4,0.4,2.5,0.5c1.1,0.1,2.7,0.2,4.8-0.1c0.8-0.5,1.7-1,2.5-1.5c1.4-0.2,2.7-0.3,3.8-0.4c1.1-0.1,2-0.1,2.7,0
									c1.3,0.1,1.4,0.5-0.6,1.1c-1.5,0.2-3.8,0.3-6.2,0.9c1.2,0.2,2.5,0.4,3.7,0.5c1.9-0.1,3.7-0.3,5.6-0.7
									c1.8-0.4,3.7-0.9,5.5-1.4c1.8-0.6,3.6-1.2,5.4-1.8c1.8-0.6,3.5-1.2,5.3-1.7c0.3,0.8,3.5,0.3,8.5-1.4c0.7-0.5,1.6-1,2.7-1.5
									c1-0.5,2.2-1,3.3-1.5c2.2-1,4.4-1.7,5.5-1.8c3.7-2.1,7.2-4.4,10.7-6.8c1.2-1.2,0.6-1.4,0.7-1.9c6-3.6,12.2-8.8,17.7-14
									c1.3-1.3,2.7-2.5,3.9-3.8c1.2-1.3,2.5-2.4,3.6-3.5c2.2-2.3,4.5-4.2,6.3-5.7c1.8-2.2,1.2-2.3,0.9-2.5
									c-0.4-0.2-0.4-0.5,1.9-3.5c2.4-3.1,2.7-2.3,3.4-2.1c0.3,0.1,0.7,0,1.5-0.9c0.4-0.4,0.9-1.1,1.5-1.9c0.3-0.4,0.6-1,1-1.5
									c0.3-0.6,0.7-1.3,1.1-2.1c-0.7-0.6-0.8-0.8-1-0.9c0.6-1,1.4-2.4,2.1-3.7c0.7-1.3,1.4-2.4,1.8-2.5c1-2,1.3-3.2,1.5-3.9
									c0.1-0.8,0-1.1-0.1-1.5c-0.1-0.4-0.1-0.7,0.1-1.5c0.1-0.4,0.3-0.9,0.6-1.5c0.3-0.7,0.7-1.5,1.2-2.5c0.1-1.5,0.2-2.6,0.6-5.2
									c0.5-1.6,1.1-3.1,1.5-4.7c0.4-1.6,0.8-3.1,1.2-4.6c0.3,0.5,0.6,1.1,0.9,1.6c0.8-1.3,1.5-2.9,2.2-4.2c0.2-0.9,0.5-1.9,0.7-3
									c0.2-1.1,0.4-2.3,0.6-3.4c0.4-2.2,0.8-4,1.2-4.3c0.9-1,1.8-2,2.7-2.8c0.7-2.2,1.1-3.9,1.7-5.9c0.4-1.2,1-2.4,1.3-3.7
									c0.1-1.6,0.1-3.5,0.2-5.1c0.1,0,0.2,0,0.2,0.1c0.3,0.4,0.7,1,1,1.6c0.5,1.8,0.7-2.8,1.1-2.4c0.6,1.5,1.2,3.1,1.8,4.6
									c-0.6,2.2-1.1,3.5-1.6,4.7c-0.4,1.2-0.8,2.1-1.3,3.6c-0.2-0.1-0.3-0.1-0.4-0.2c-0.3,1.3-0.8,2.5-1.1,3.8
									c-0.4,0.1-0.8,0.5-1.2,0.7c-1.3,5.3-2.4,10.5-4.1,13.2c-2.1,6.5-2.6,7.6-3.1,12.5c-4.4,8.8-1.1,6.7-3.5,12.9
									c-1.8,3.9-4.1,7.1-6.4,9.9c-0.5,0.7-1.1,1.4-1.6,2.1c-0.5,0.7-1,1.4-1.5,2c-0.9,1.4-1.6,2.8-2.2,4.3c-1.2,1-4.5,5.5-3.8,3.1
									c-0.8,1-1.7,1.9-2.5,2.9c-0.8,0.9-1.6,1.9-2.5,2.9c0.1,0.6,1.3,0-0.1,2.1c-0.7,0.8-1.1,1.2-4,2.8
									c-2.8,4.2-8.9,9.2-13.8,13.2c0.1,0.8-1,2.1-2.8,3.7c-0.9,0.8-2.1,1.6-3.3,2.5c-0.6,0.4-1.2,0.9-1.9,1.3
									c-0.7,0.4-1.3,0.8-2,1.3c-5.3,3.5-11.2,6.3-11.8,8.2c-2.5,0.9-5,2.1-7.5,3.3c-1.3,0.6-2.6,1.1-3.9,1.7c-1.3,0.5-2.6,1-4,1.2
									c-8.1,2.5-13.9,4.5-19.5,6.2c-1.4,0.4-2.8,0.8-4.2,1.2c-1.4,0.3-2.9,0.6-4.4,0.8c-0.8,0.1-1.5,0.2-2.3,0.3
									c-0.8,0.1-1.6,0.1-2.4,0.2c-1.7,0.1-3.4,0.2-5.3,0c-1.7,0.4-3.7,0.9-5.5,1.4c-1.8-0.1-4-0.3-6.3-0.4
									c-2.3-0.2-4.6-0.5-6.8-0.7c-2.2-0.2-4.2-0.6-5.9-0.6c-0.8-0.1-1.5,0-2.1,0c-0.6,0-1.1,0.1-1.4,0.2c-7-0.7-4.7-1.8-8.4-2.6
									c-1.1,0.1-2.4-0.1-3.8-0.5c-1.3-0.4-2.7-0.9-4-1.4c-1.3-0.5-2.4-1-3.3-1.3c-0.9-0.3-1.5-0.3-1.8,0c-0.8-0.1-1.5-0.2-2.7-0.7
									c-3.2-1.4-5.4-3.8-9.3-4.4l-1,1.2c-0.5-0.2-1-0.5-1.3-0.6c-1.4-0.6-2.1-1.2-3-1.7c-0.9-0.6-2-1.1-4.2-1.9
									c-1.4-0.8-3.1-1.8-4.5-2.6c-0.6-0.7-2.2-1.8-4.1-3.1c-1.9-1.2-3.9-2.6-5.4-3.8c-0.7-0.3-1.3-0.6-2-0.9c-0.7-0.3-1.3-0.7-2-1
									c-1.3-1-2.8-2.2-4.1-3.3c-3.1-4-9.2-10.5-10.2-10.3c-2.8-2.7-5.5-5.8-8-8.8c-1.4-1.7-2.8-3.4-4.1-5.2l-2-2.7
									c-0.7-0.9-1.3-1.8-1.9-2.7c-0.5-1-1.3-2.3-2.1-3.6c-0.8-1.3-1.6-2.5-2.5-3.1c-0.8-1.3-1.6-2.6-2.3-4c-0.7-1.4-1.4-2.7-2.1-4
									c-0.5-1-0.8-1.8-1.2-2.5c-0.1-0.9-0.7-2.6-1.4-4.1c-0.6-1.5-1.2-2.9-1.5-3.3c-0.4-0.4-0.9-1.6-1.4-3
									c-0.5-1.3-1.1-2.7-1.7-3.2c-0.3-0.8-0.5-1.6-0.8-2.4c0.2-0.1,0.3-0.5,0.2-1.2c-0.1-0.7-0.3-1.6-0.6-2.6
									c-0.3-1-0.7-2.2-1.1-3.3c-0.4-1.2-0.8-2.3-1.2-3.4c-0.3-1.2-0.6-2.5-0.9-3.8c-0.3-1.3-0.5-2.7-0.8-4.1
									c-0.5-2.4-0.7-5.2-1-7.7c-0.3-1.4-0.5-2.8-0.7-4.2c-0.2-1.4-0.4-2.7-0.6-4c0.1-2.6,0-5.3,0.1-8c0.1-1.3,0.2-2.7,0.2-4
									c0-0.7,0.1-1.3,0.1-2c0.1-0.7,0.1-1.3,0.2-2c0.3-1.6,0.4-3.2,0.6-4.7c0.2-1.5,0.4-3,0.5-4.4c0.2-2.9,0.7-5.5,1.2-7.9
									c0.8,0.1,1-1.5,1.3-4c0.1-1.2,0.2-2.7,0.4-4.3c0.2-1.6,0.5-3.3,0.9-5.1c0.4-1.3,0.9-2.5,1.4-3.7c0.5-1.2,1-2.5,1.4-3.7
									c0.5-1.2,1.1-2.4,1.6-3.7c0.6-1.2,1.1-2.5,1.7-3.7c0.9-1,1.9-3.2,2.8-5.2c1-1.9,1.9-3.6,2.4-3.7c0.7-1.4,1.4-2.8,2.2-4.2
									c0.8-1.4,1.5-2.8,2.3-4.1c1.3-1.7,3.7-5,4-6.7c0.6-0.9,1.1-1.6,1.6-2.2c0.8-1.1,1.6-2.1,2.4-3.2c0.8-1,1.6-2.1,2.5-3.1
									c1.7-1.8,2.7-3,3.7-4.4c1-1.4,2.1-2.8,4-4.9c2.8-2.6,5.9-5.4,8.9-7.8c0.4,0,1.1-0.4,1.9-0.9c0.8-0.5,1.8-1.2,2.8-2
									c1-0.8,2.1-1.7,3.1-2.4c1.1-0.8,2.1-1.5,3-2.1c1.4-0.8,1.3-0.3,1.5-0.1c0.2,0.2,0.7,0.2,3.4-1.4c0.9-0.6,1.6-1,2.3-1.5
									c2.1-1.3,4.2-2.4,6.3-3.6c2.1-1.1,4.2-2.2,6.5-3.2c2-0.9,4-1.9,6-2.7c2-0.8,4-1.7,6.1-2.5c2.1-0.6,4.1-1.2,6.2-1.8
									c2.5-0.6,4.4-1.1,5.8-1.6c1.5-0.4,2.6-0.8,3.6-1.2c1-0.4,1.8-0.7,2.6-1.1c0.9-0.3,1.9-0.6,3.1-0.8c0.8,0,1.9-0.1,1.3,0.2
									c0.9-0.1,1.7-0.3,2.6-0.4l2.6-0.3c1.8-0.2,3.5-0.5,5.3-0.6c2.6-0.3,5.2-0.7,7.9-0.8l4-0.3c1.3-0.1,2.6-0.1,4-0.1
									c1,0.1,2,0.2,3,0.2c1,0.1,1.9,0.3,2.9,0.4c1.9,0.3,3.8,0.5,5.6,0.9c3.1,0.2,5.6,0.5,7.7,1c2.1,0.5,3.9,1,5.6,1.7
									c1.7,0.7,3.4,1.3,5.5,2.1c1,0.4,2.1,0.8,3.3,1.2c0.6,0.2,1.3,0.4,1.9,0.6c0.7,0.2,1.4,0.4,2.1,0.7c3.9,1.6,7.8,3.4,11.5,5.4
									c-0.1,0.1-0.1,0.1-0.1,0.2C230.7,58.3,228.7,58.1,226.9,57.9z"/>
							</g>
							<g>
								<path class="st5" d="M80.9,74.4c-0.4,0.5-0.8,1-1,1.2c-0.5,0.9-1,1.7-1.7,2.8c0.3,0.5,0.5,0.9,0.8,1.4
									c0.4-0.3,0.9-0.7,1.1-0.8c2.1-1.9,2.1-3,4.8-5.1c0.4-0.2,0.7-0.4,0.6-0.2c-0.1,0.3-0.7,1.1-2.2,3.1
									c-0.1,0.7,1.4-0.5,2.6-1.4c1.2-0.8,2-1.2,0.2,0.8c-4,3.5-8,7.2-11.8,11.3c-2.4,2.3-4.8,5.1-7.2,7.8c-1.3,1.8-2.7,3.7-4,5.6
									c0.1,0.5,0,1.3,0,2c-1.1,1.9-1.8,3-2.4,3.8c-0.6,0.8-1,1.2-1.4,1.6c-0.4,0.4-0.9,0.8-1.5,1.6c-0.6,0.8-1.5,2-2.5,4
									c-0.3,0.9-0.6,1.7-0.9,2.6c0.1,0.5,1.4-1.7,1,0.9c-0.5,1-0.9,1.7-1.3,2.5c-1,1.3-2.2,2.8-3.3,4c-0.6,1.5-1,3.1-1.6,4.7
									c-0.3,0.8-0.5,1.6-0.8,2.4c-0.2,0.8-0.4,1.6-0.6,2.4c-0.3,1.8-0.8,3.8-1,5.6c-0.4,0.8-0.7,1.5-1.2,2.5
									c-0.5,1.6-1.1,3.3-1.5,5c-0.5,1.7-1,3.5-1.4,5.3c-0.6,2.1-1.3,4.3-1.9,6.4c-0.1,1.3-0.2,2.7-0.3,4.1
									c-0.1,1.4-0.3,2.8-0.3,4.3l0.2,3.6l0.1,1.8l0.2,1.8c0.3,1.2,0.6,2.7,0.9,4.2c-0.1,2.8,0.1,5.3,0.1,8.1
									c0.2,6.1,1,10.1,1.5,18.6c0.1,0.8,0.3,1.7,0.5,2.6c0.2,0.9,0.4,1.8,0.6,2.6c0.8,2.2,1,0.9,2.1,4.1c0.2,1.1,0.5,1.8,0.8,3
									c0.3,1.2,0.7,2.9,1.4,5.9c0.6,1.9,1.1,3.5,1.8,5c1,2.6,2,5.3,3.1,7.5c0.5,1,1.1,2,1.6,3c0.5,1,1.2,2,1.7,3
									c1.1,1.7,2,3.2,3.1,4.6c0.2-0.1,0.4-0.1,0.6-0.2c0.6,1,1,1.7,1.4,2.4c3.1,5.6,6.2,10.8,9.8,15.7l1.8,2.1
									c0.6,0.7,1.2,1.4,1.9,2l1.9,2l0.9,1l1,1c1.4,1.2,2.7,2.4,4,3.6c1.4,1.1,2.7,2.3,4.2,3.4c2.7,2.7,5.8,5.5,8.7,8
									c1.4,1.1,2.9,2.1,4.4,3.2c1.5,1,3,2.1,4.5,3c1.7,1.4,3.5,2.6,5.5,3.7c1.2,0.3,2.7,0.7,4.1,1.2c1.2,0.7,2.4,1.4,3.3,2
									c-1.3,0.2,0.4,1.6,1.3,2.6c1.3,0.6,2.7,1.3,4,1.9c1.3,0.6,2.5,1.2,3.6,1.3c1.9,0.2,4,0.5,5.8,0.7c0.5,0.2,0.8,0.3,1.3,0.5
									c0.5,0.7,0.9,1.5,1.4,2.3c1,0.5,3.1,1.7,4.8,2.7c3.6,0.9,1.1-0.7,5.8,0.3c2.2,0.5,4.4,1.1,6.5,1.5c0.4-0.3-0.7-1,1.8-0.7
									c1.4,0.3,3,0.5,3.7,0.9c2.7,0.7,5.1,1.2,7.8,1.7c2.5,0.2,2.8-0.3,3.3-0.6c0.3-0.2,0.6-0.3,1.4-0.3c0.7,0,1.9,0.2,3.8,0.5
									c-0.1,0.4-0.3,0.9-0.4,1.3c1.3,0.1,2.6,0.2,3.9,0.2c0.7,0,1.3,0.1,2,0.1c0.7,0,1.3,0,1.9,0c1.3-1-1.1-1.1-0.5-2.4
									c0.8,0,1.7,0,2.5,0c-0.3,0.5,0.2,0.7,1.1,0.7c0.9,0.1,2.2,0,3.5-0.2c2.6-0.3,5.2-0.6,4.6,0.2c2.6-0.3,5.3-0.7,7.9-1l3.9-0.7
									c1.3-0.2,2.6-0.5,3.9-0.8c1.1-0.4,1.9-0.7,2.7-1c2.7-0.5,5.1-1.2,7.8-1.8c1.2-0.2,2.2-0.4,2.9-0.6c0.8-0.2,1.3-0.3,1.8-0.4
									c0.9-0.2,1.3-0.3,1.7-0.3c1.3-0.5,2.1-0.8,2.6-1c0.5-0.2,0.7-0.1,0.9-0.1c0.3,0.2,0.3,0.5,1.6,0.3c0.8-0.3,1.6-0.6,2.6-1
									c2.6-1.2-0.4-0.7,2.1-2.1c1.6-0.6,2.8-1.1,3.9-1.6c1-0.6,1.9-1.2,2.8-1.7c0.9-0.6,1.8-1.1,2.8-1.7c1-0.6,2.2-1.3,3.7-2
									c1.9-1.3,6.1-4.1,4.2-3.8l2.7-2c0.9-0.7,1.8-1.4,2.7-2.1c0.6-0.6,0.7-0.9,1-1.4c0.3-0.5,1-1.2,2.7-2.9c1.6-1.1,3-1.9,4.5-3
									c1.5-1.4,2.9-2.6,4.2-3.7c1.2-1.2,2.3-2.2,3.1-3c1.6-1.6,2.2-2.4,1.1-2c0.7-1.1,1.5-1.9,2.5-2.7c0.9-0.8,2-1.7,3-3
									c0.6-1,1.3-2.3,2-3.6c1.1-0.8,2.1-1.6,2.9-2.3c0.7-0.8,1.3-1.6,1.9-2.3c0.6-0.8,1.2-1.6,1.8-2.4c1.2-1.6,2.4-3.1,3.5-4.9
									c1.3-1.9,2.7-3.9,3.9-6c0.6-1,1.2-2,1.9-3.1c0.6-1,1.1-2.1,1.7-3.1c0.4,0.3,0.6,0.5,0.8,0.7c0.7-1,1.4-1.8,2-2.7
									c0.6-0.8,1.2-1.7,1.8-2.6c0.2,0.5,0.3,1.3,0.6,1.9c-0.8,1.8-1.6,3.4-2.4,5.2c-2,4.4-4.6,8.9-7.1,13.1l0.3,0.3
									c-1.2,1.8-2.5,3.4-3.7,5c-1.2,1.7-2.6,3.2-3.9,4.8c0.1,0.6,0,1.4,0.1,1.9c-1,1-2,2-2.9,3c-1,1-1.9,2-2.8,2.8
									c-1.7,2-0.2,1.2-0.4,2c-0.6,0.6-1.2,1.2-2,2.1c-0.8,0.8-1.9,1.8-2.9,2.8c-0.1-0.2-0.2-0.3-0.2-0.4c-0.2-0.4-0.4-0.8-0.7-1.2
									c0.6-0.6,1.2-1.3,1.9-2c0.6-0.7,1.2-1.4,1.8-2.1c-0.9,0.1-1.8,0.2-2.7,0.3c-6.7,7.8-12.9,12.4-14.4,15c-1.8,1.4-3.8,3-6,4.5
									c-1.1,0.7-2.2,1.4-3.3,2.1c-0.5,0.3-1.1,0.7-1.6,1c-0.5,0.3-1.1,0.6-1.6,0.9c-4.2,2.5-8.1,4.5-9.6,5.9
									c3.8-1.7,5.2-2.4,6.2-2.9c2,0-1.3,2.6-8.2,5.5c1.8,0.2-1.3,2.2-1,2.5c-1.6,0.5-2.8,0.9-3.8,1.3c-1,0.4-1.9,0.8-2.7,1.3
									c-0.8,0.4-1.7,0.9-2.7,1.4c-1,0.4-2.3,0.9-3.9,1.4c0,0.4,0,0.7,0.1,1.1c-0.8,0.4-1.7,0.9-2.8,1.3c-1.2,0.3-2.4,0.6-3.7,1
									c-1.2,0.3-2.5,0.7-3.7,0.9c-1.3,0.3-2.5,0.5-3.8,0.8c-0.6,0.1-1.2,0.3-1.9,0.4c-0.6,0.1-1.2,0.2-1.9,0.3
									c-1.7,0.3-3.3,0.6-5,0.9c-1.7,0.2-3.3,0.4-5,0.6l-2.5,0.3c-0.8,0.1-1.7,0.1-2.5,0.2c-1.7,0.1-3.3,0.2-5,0.3
									c-2.5,0-5-0.1-7.6-0.1c-2.5-0.2-5.1-0.3-7.6-0.5c-2.3-0.3-4.6-0.6-6.9-1c-5.9-1.2-7.8-1.2-9.1-1.1c-1.3,0.1-1.9,0.4-5.2-0.3
									c-2.5-0.7-5-1.4-7.4-2.1c-2.4-0.8-4.8-1.6-7.3-2.5c-2.3-0.9-4.3-1.7-6.2-2.4c-1.8-0.8-3.4-1.4-4.7-2c-1.3-0.5-2.3-1.1-3-1.5
									c-0.7-0.4-1.1-0.8-1.2-1.1c-0.9-0.2-2-0.5-3-0.9c-1-0.4-2-0.9-3-1.4c-1.9-1-3.6-1.8-4.5-2.1C101,299.8,93,293.6,83.9,286
									c-1.7-1.4-3.4-3.1-5.2-4.7c-1.8-1.6-3.4-3.4-5.1-5c-0.8-0.9-1.7-2-2.7-3.1c-0.3-0.8-0.6-1.6-1.1-2.6
									c-1.6-2.1-2.6-3.4-3.5-4.3c-0.8-0.9-1.4-1.4-1.9-2c-1.3-1.6-2.8-3.6-4.2-5.8c-0.7-1.1-1.5-2.3-2.2-3.5
									c-0.4-0.6-0.8-1.2-1.1-1.8c-0.4-0.6-0.7-1.3-1.1-1.9c-0.7-1.3-1.4-2.6-2.2-3.8c-0.7-1.3-1.3-2.6-2-3.9
									c-1.3-2.5-2.4-5.1-3.4-7.4c-0.3-0.2-0.8-0.7-1.2-1.2c-0.7-2.2-1.3-4.1-2.1-6.6c-0.8-2.5-1.8-5.3-2.5-7.8
									c-1.2-2.8-2.5-5.6-3.5-8.3c-0.6-2.3-1.2-4.6-1.6-6.9c0.2-0.6,0.4-0.8,0.6-1.4c-0.9-2.9-1.3-5.6-1.6-8
									c-0.3-2.4-0.3-4.7-0.4-7c0-1.1-0.1-2.2,0-3.4c0-1.1,0-2.3,0-3.5c0-1.2-0.1-2.4-0.1-3.7c0-1.3,0-2.6-0.1-4.1
									c0.3,1,0.6-0.2,0.7-1.9c0.1-1.7,0.3-3.9,0.2-5c0.2-1.4,0.3-2.6,0.5-4c0.7-0.6,1.3-1.3,2.1-2.2c0.2-1.2,0.4-2.4,0.6-3.6
									c0.2-1.2,0.5-2.4,0.8-3.7c0.3-1.2,0.5-2.4,0.8-3.7c0.3-1.2,0.6-2.4,0.9-3.6c0.7-3.4,1.6-6.5,2.4-9.5
									c0.2-1.7,0.4-3.5,0.7-5.2c0.2-1.8,0.5-3.6,0.8-5.3c-0.8,1.2-1.6,2.3-2.3,3.6c1.1-4.8,2.5-8.1,3.9-11c0.6-1,1.2-2.3,1.9-3.6
									c0.9-2.2,1.8-4.5,2.8-6.7c0.9-1.2,1.7-2.3,2.4-3.3l1.1-2.1l1.2-2l2.4-4l2.6-3.9c0.4-0.6,0.9-1.3,1.3-1.9l1.4-1.9
									c1.1-1.1,2.3-2.2,3.4-3.3l3.6-3.1c1.4-1.7,3-3.2,4.4-4.7C77.8,77.4,79.3,75.9,80.9,74.4z"/>
							</g>
							<g>
								<path class="st3" d="M59.4,119.2c2.8-3.7,3-3,2.3-1.4c-0.7,1.6-2.1,4.2-2.6,4.3C59.2,121.1,59.3,120.2,59.4,119.2z"/>
							</g>
							<g>
								<path class="st4" d="M317.9,165.8c0-1.5-0.3-3.1-0.4-4.8c-0.2-1.6-0.3-3.2-0.6-4.8c0.9,1.5,1.6,2.9,2.4,4.4l0.4,3.4
									c0.1,1.1,0.2,2.3,0.3,3.4c-0.3,1.1-0.5,2.4-0.8,3.8C318.8,169.6,318.3,167.5,317.9,165.8z"/>
							</g>
							<g>
								<path class="st4" d="M274.5,87.8c-0.3,0-1-0.5-2-1.3c-1-0.8-2.2-1.7-3.4-2.6c-1.4-1-3-2-4.4-2.9c-1.1-1.1-2.3-2.4-3.5-3.5
									c-1.4-0.9-2.9-2-4.3-2.9c-0.6-0.8-1.1-1.4-1.5-2.1c1.2,0.6,2.5,1.3,3.5,1.8c0.5,0.2,1.1,0.5,1.4,0.5c3,2.6,5.6,5.2,8.2,7.9
									c1.4,0.3-0.1-2.5,3.8,0.7c1.5,1.6,2.8,3.2,4.2,4.9C275.8,88.3,275.2,88.1,274.5,87.8z"/>
							</g>
							<g>
								<path class="st4" d="M238.7,66.7c-0.9-0.7-2-1.3-3.2-1.9c-1.2-0.6-2.4-1.1-3.6-1.5c-1.2-0.5-2.3-1-3.2-1.4
									c-0.9-0.4-1.7-0.8-2.1-1.3c0.1-0.2,0.3-0.4,0.4-0.5c2.4,0.5,5,1.4,7.6,2.2c2,0.8,3.9,1.8,5.8,2.7c0.2,0.1,0.7,0.4,0.9,0.5
									c0.9,1,0.7,1.1,0.6,1.3C240.8,66.6,239.7,66.7,238.7,66.7z"/>
							</g>
							<g>
								<path class="st4" d="M214.4,59.7c-0.8-0.5-1.4-1-2-1.5c0.7-0.2,1.1-0.4,1.8-0.6c1.5,0.3,3.4,0.7,4.9,1.1
									c1,0.7,2,1.5,2.8,2.1c0.1,0.5-1.1,0.3-2.7-0.1c-0.8-0.2-1.7-0.4-2.5-0.6C215.8,59.9,215,59.7,214.4,59.7z"/>
							</g>
							<g>
								<path class="st4" d="M214.1,55.1c-1.9-0.8-3.9-1.3-5.9-2c-1-0.1-1.9-0.2-2.8-0.3c-0.9-0.1-1.6-0.2-2.3-0.3
									c-1.4-0.3-2.6-0.5-3.8-0.7c-3.1-0.3-6.5-0.8-10-0.9c-1.3-0.1-2.5-0.3-3.8-0.3c-1.2,0-2.5-0.1-3.8-0.1
									c-2.1-0.2-4.2-0.1-6.2-0.2c-2.9-0.2-10.8,1-13.8,0.6c-1.8-0.2-1.5-1-6.2,0.1c-1.6,0.3-3.6,0.7-5,0.9
									c-1.4,0.2-2.2,0.1-1.3-0.5c0.7-0.5,2.5-1.1,4.8-1.5c2.2-0.4,4.8-0.8,6.8-1.1c0.8-0.5,1.7-0.9,2.5-1.4
									c1.1-0.1,2.1-0.2,3.2-0.2l3.2-0.2l3.2-0.2l3.2-0.1c1,0.5,1.6,1,2.3,1.5c1.6-0.1,3.5,0.1,5.1,0.1c1.1,0,2.2-0.1,3.2,0
									l3.2,0.1c1.1,0,2.2,0.1,3.2,0.1l3.2,0.3c0.5,0.1,0.8,0.1,1.3,0.2c4.6,1.1,8.9,2.3,13.4,3.8c1,0.2,2.3,0.6,3.6,1
									C214.5,54.4,214.3,54.7,214.1,55.1z"/>
							</g>
							<g>
								<path class="st4" d="M186.2,61.4c-0.2-0.1-0.7-0.2-1.1-0.3c0.2-0.6,0.4-1.3,0.5-1.9c2,0,3.4-0.3,6,0c1,0.8,2,1.6,3,2.3
									c-0.9-0.2-1.7-0.3-2.4-0.3c-0.7,0-1.3,0.1-1.9,0.1C189.1,61.5,187.9,61.6,186.2,61.4z"/>
							</g>
							<g>
								<path class="st4" d="M54.2,98.8c-1.7,3-3.2,6.4-4.7,9.4c-0.1,0.3-0.4,0.8-0.7,1.3c0,0-0.1-0.1-0.2-0.2
									c0-0.8,0.1-1.6-0.1-2.1c0.2-0.9,1.1-2.9,2.3-4.8c1.1-1.9,2.5-3.6,3.1-4C54.1,98.7,54.1,98.7,54.2,98.8z"/>
							</g>
							<g>
								<path class="st4" d="M46,130.2c-1.2,3.6-0.6,4-0.7,5.9c-0.2,0.5-0.4,0.7-0.6,1.3c-0.8,3.1-1.7,6.1-2.4,9.5
									c-0.3,1.2-0.6,2.4-0.9,3.6c-0.3,1.2-0.5,2.4-0.8,3.7c-0.3,1.2-0.5,2.4-0.8,3.7c-0.2,1.2-0.4,2.4-0.6,3.6
									c-0.7,0.9-1.4,1.6-2.1,2.2c0.1-1.8,0.1-3.9,0.1-5.8c0.3-2.3,0.8-4.6,1.2-6.9c0.7-1.7,1.1-3,1.3-4.3c0.2-1.3,0.3-2.5,0.7-4
									c2.5-7.4,1.2-5.9,2.1-8.4c0.5-1.4,0.9-2.5,1.3-3.9c0.7-1.2,1.5-2.4,2.3-3.6C46,128.1,46,129.2,46,130.2z"/>
							</g>
							<g>
								<path class="st4" d="M35.7,219.3c-0.6-0.9-1.2-1.8-1.9-3c-1-2.9-1.2-3.9-1.1-4.8c0.1-0.9,0.3-1.6,0.3-3.8
									c0.2,1,0.4,1.9,0.6,2.9l0.6,2.9l0.7,2.9L35.7,219.3z"/>
							</g>
							<g>
								<path class="st4" d="M51.7,255.2c0.9,1.7,2,3.4,3,5.1c0.5,0.8,1,1.7,1.5,2.5l1.6,2.4c0.2,0.2,0.5,0.7,0.9,1.2
									c1.2,1.8,2.5,3.4,3.8,5.1c0.7,0.9,1.3,1.7,2,2.6c0.7,0.8,1.4,1.7,2.2,2.6l2.3,2.8l2.4,2.7l2.5,2.7l2.6,2.6
									c0.6,0.8,1.8,2.1,3.1,3.2c1.3,1.1,2.5,2.3,2.9,3.1c-4.2-2.7-7.7-5.9-11-9.2c-3.3-3.4-6.4-6.9-9.8-10.4
									c-2.4-3.2-2.5-4.7-5-8.5c-0.8-1-1.6-1.9-2.3-3l-2.2-3.1c-2.1-2.8-2.5-4-2.5-4.7c0-0.7,0.4-1,0.3-2
									C50.7,253.7,51.3,254.4,51.7,255.2z"/>
							</g>
							<g>
								<path class="st6" d="M54.6,257.4c0.8,1.3,1.6,2.5,2.3,3.7c0.8,1.2,1.6,2.4,2.5,3.6c1.1,1.1,1.9,2.1,3.1,3.2
									c1.2,1.7,2.2,3.1,3,4.2c0.8,1.2,1.5,2,2.1,2.7c1.1,1.5,1.8,2.3,2.5,3.3c1.5,1.5,2.8,2.8,4.3,4.3c1.8,1.8,3.8,3.6,5.8,5.4
									c2,1.7,4,3.4,6,5c2.5,2.3,4.5,4,5.9,5c1.4,1,2.1,1.4,2.2,1.2c1,0.7,1.9,1.4,2.9,2.1l3,2c0.2-0.4,1.4,0.4,2.9,1.4
									c1.5,1,3.4,2.2,4.6,3c1.4,0.8,2.8,1.5,4.2,2.2c1.4,0.7,2.8,1.4,4.2,2.1c1.4,0.6,2.8,1.3,4.2,1.9c0.7,0.3,1.4,0.6,2.1,0.9
									c0.7,0.3,1.4,0.5,2.1,0.8c1.4,0.6,2.8,1.1,4.2,1.7c0.3,0.1,0.8,0.3,1.1,0.4c1.2,0.8,2.4,1.6,3.6,2.4c1.7,0.4,3.7,1,5.7,1.5
									c1,0.3,2,0.5,3,0.7c0.9,0.2,1.9,0.3,2.6,0.4c0.6,0.1,1.2,0.3,1.5,0.3c1,0.2,2.1,0.5,3.1,0.7c1.1,0.2,2.1,0.4,3.2,0.6
									c2.1,0.4,4.3,0.8,6.4,1.1c1.2,0.2,2.1,0.3,3,0.4c1,0.1,1.9,0.3,2.8,0.4c0.9,0.1,1.9,0.2,2.8,0.3c1.9,0.2,3.7,0.4,5.7,0.5
									c1.4,0.3,2.8,0.6,4.3,1c-0.7,0.3-1.4,0.7-1.8,1c-10.4-0.3-20.5-1.6-30.6-3.9c-3-0.7-5.6-1.5-8.6-2.3
									c-1.3-0.3-2.5-0.8-3.8-1.2c-1.3-0.4-2.6-0.8-3.8-1.3c-2.6-0.9-5.1-1.9-7.7-2.9c-2-0.8-4-1.7-6-2.5c-2-0.9-4-1.9-6.1-2.9
									c-2.3-1.2-4.6-2.6-6.9-4c-2.3-1.4-4.6-3-6.9-4.5c-2.6-1.1-4.3-2.5-6.1-4.1c-0.9-0.8-1.7-1.7-2.8-2.6c-1-0.9-2.3-1.9-3.7-3
									c-0.4-0.8-1.6-1.9-2.9-3.1c-1.3-1.1-2.5-2.4-3.1-3.2l-2.6-2.6l-2.5-2.7l-2.4-2.7l-2.3-2.8c-0.7-0.9-1.5-1.7-2.2-2.6
									c-0.7-0.9-1.4-1.7-2-2.6c-1.3-1.7-2.7-3.4-3.8-5.1c-0.4-0.5-0.7-1-0.9-1.2l-1.6-2.4c-0.5-0.8-1-1.7-1.5-2.5
									c-1-1.7-2.1-3.3-3-5.1C52.8,256.2,53.7,256.8,54.6,257.4z"/>
							</g>
							<g>
								<path class="st4" d="M109.1,311.9c2.1,1,4.1,2,6.1,2.9c2,0.8,4,1.7,6,2.5l-0.4,0.5c-1.9-0.9-3.8-1.9-5.8-2.8
									C113.1,314.1,111.2,313,109.1,311.9z"/>
							</g>
							<g>
								<path class="st4" d="M136.6,322.8c2.9,0.8,5.6,1.7,8.6,2.3c-3.3,0.5-5.3-1-8.8-2L136.6,322.8z"/>
							</g>
							<g>
								<path class="st4" d="M220.9,323.2c0.3-0.2,0.9-0.5,1.2-0.7l2-0.6l1.9-0.7c1.3-0.5,2.6-0.9,3.9-1.3c2.6-0.9,5-2,7.4-2.9
									c1.1-0.3,2-0.6,2.9-0.8c-1.6,1.1-3.1,1.9-4.5,2.7c-1.4,0.8-2.7,1.5-4.2,2.1c-1.4,0.6-2.9,1.2-4.7,1.7
									c-1.7,0.6-3.7,1.1-6,1.6L220.9,323.2z"/>
							</g>
							<g>
								<path class="st2" d="M317.7,172.4c-0.3-4.2-0.3-5.6,0.2-6.6c0.4,1.8,0.9,3.8,1.3,5.5c0,0.8-0.1,1.7-0.1,2.8
									C318.6,173.4,318.2,172.8,317.7,172.4z"/>
							</g>
							<g>
								<path class="st2" d="M264.6,81c-0.8-0.3-1.6-0.8-2.4-1.4c-0.8-0.6-1.8-1.1-2.6-1.8c-0.9-0.6-1.7-1.3-2.4-1.9
									c-0.7-0.6-1.4-1.2-2-1.6c0.4,0,1,0.2,1.6,0.3c1.4,0.8,2.9,2,4.3,2.9C262.2,78.5,263.5,79.9,264.6,81z"/>
							</g>
							<g>
								<path class="st2" d="M186.2,61.4c-1.6,0.6-3.7,0.8-5.6,0.8c-1.9,0-3.7,0-4.9-0.1c-0.6-0.3-1.3-0.7-2.2-1
									c1.6-0.3,3.9-0.5,6.2-0.6c2.2,0,4.3,0.2,5.4,0.6C185.5,61.2,186,61.2,186.2,61.4z"/>
							</g>
							<g>
								<path class="st2" d="M121.3,317.4c2.6,1,5.1,2,7.7,2.9c1.3,0.4,2.6,0.9,3.8,1.3c1.3,0.4,2.5,0.8,3.8,1.2l-0.2,0.4
									c-1,1-3.5-0.1-4.8-0.2c-2.9-1-4.1-1.6-5.3-2.4c-1.2-0.7-2.4-1.4-5.4-2.6L121.3,317.4z"/>
							</g>
							<g>
								<path class="st2" d="M177.6,328c1.8,0.1,3.9,0,5.8,0c3.9,0.2,7.5,0.1,11.4,0l-0.1,0.7c-3.7,0.3-7,1-10.2,1.1
									c-1.6,0.1-3.1,0.1-4.5,0c-1.5-0.1-2.8-0.4-4.2-0.8C176.2,328.7,176.9,328.3,177.6,328z"/>
							</g>
							<g>
								<path class="st2" d="M212.3,325.3c1.3-0.3,2.8-0.6,4.2-0.9c1.5-0.3,2.9-0.8,4.4-1.2l0,1.1c-1.5,0.3-3,0.7-4.4,1
									c-1.5,0.3-2.9,0.5-4.2,0.7L212.3,325.3z"/>
							</g>
							<g>
								<path class="st5" d="M319,174.1c0-1.1,0.1-2,0.1-2.8c0.3-1.3,0.5-2.7,0.8-3.8c0.2,0.3,0.3,0.9,0.5,1.2
									c0.3,2.9,0.3,5.7,0.3,8.3C319.7,181.6,319.2,178.7,319,174.1z"/>
							</g>
							<g>
								<path class="st5" d="M293.5,94.5c-0.9-1.2-1.8-2.3-2.5-3.2c-0.8-0.9-1.6-1.7-2.4-2.6l-2.5-2.5c-0.4-0.4-0.7-0.9-0.9-1.1
									c-1.1-1.3-2.5-2.7-3.7-4c-0.9-0.8-1.5-1.4-2.2-2c0.2-0.8-0.9-2.4-2.9-4.5c-1-1.1-2.3-2.2-3.6-3.5c-0.7-0.6-1.4-1.3-2.2-2
									c-0.8-0.7-1.6-1.3-2.4-2c-0.9-0.5-2-1.3-3.1-2.2c-1.2-0.8-2.4-1.7-3.6-2.6c-0.6-0.5-1.2-1-1.9-1.5c-0.7-0.5-1.3-1-2-1.5
									c-1.3-1-2.7-2-3.9-2.9c-0.2-0.2-0.6-0.6-0.9-1.1c4.1,2.3,8.1,4.8,12,7.5c0.3-0.2,0.5-0.4,0.7-0.6c1.9,1.4,3.8,2.9,5.6,4.3
									c1.9,1.5,3.6,3,5.4,4.6c2.1,2.7,5,5.6,8.2,9.4c3.2,3.4,6.4,7.3,9,10.8c1.4,1.8,1.7,2.6,1.7,3.3c0.1,0.7,0,1.3,0.5,3.1
									C295.2,96.8,294.4,95.7,293.5,94.5z"/>
							</g>
							<g>
								<path class="st5" d="M255.2,74.3c-0.6-0.5-1.3-0.9-2.1-1.5c-3-0.7-7.5-4.1-11.3-6.1c0.1-0.2,0.3-0.3-0.6-1.3
									c1.2,0.6,2.4,1.2,3.6,1.7c1.2,0.6,2.4,1.1,3.4,1.7c1.1,0.4,1.9,0.6,2.9,0.8c1.4,0.8,2.9,1.9,4.2,2.9
									c0.4,0.7,0.8,1.3,1.5,2.1C256.2,74.5,255.6,74.3,255.2,74.3z"/>
							</g>
							<g>
								<path class="st5" d="M240.3,62.9c-1.3-0.7-2.6-1.5-3.9-2.2c-1.4-0.7-2.7-1.4-4-2.1c0.1-0.1,0.1-0.1,0.1-0.2
									c2,0.8,2.7,0.7,3.3,0.7c0.7,0,1.3,0,3.2,1.2c0.9,1,1.8,1.9,2.7,2.9C241.2,63.1,240.7,62.9,240.3,62.9z"/>
							</g>
							<g>
								<path class="st5" d="M221.3,57.4c-1.3-0.3-2.5-0.8-3.8-1.1c-1-0.4-2.2-0.8-3.4-1.2c0.2-0.4,0.4-0.8,0.8-1.4
									c1.2,0.4,2.4,0.8,3.6,1.2c1.2,0.4,2.3,0.9,3.6,1.3C221.7,56.8,221.5,57.1,221.3,57.4z"/>
							</g>
							<g>
								<path class="st5" d="M164.2,41.3c-1.8,1-0.5,1.3-2.7,1.4c-3.5,0.6-4.4,0.5-4.4,0.1c0.1-0.4,1.2-1.2,1.7-1.3
									C160.6,41.5,162.5,41.4,164.2,41.3z"/>
							</g>
							<g>
								<path class="st5" d="M150.9,42c1.2-1.1,2-1.3,2.9-1.6c4.6-1.1,3,0.1,3.8,0.9C155.3,41.6,153.1,41.8,150.9,42z"/>
							</g>
							<g>
								<path class="st5" d="M142.9,44.6c0.5,0.3,0.1,0.8-1,1.4c-1.1,0.6-3,1.1-5.4,1.8c0.5-0.4-1.1-0.1-2.5,0.4
									c-0.7,0.2-1.4,0.4-1.9,0.6c-0.5,0.2-1,0.4-1.4,0.6c-0.8,0.4-1.5,0.7-2.1,1.1c-0.6,0.4-1.3,0.7-2.2,1.2c-0.9,0.4-2,1-3.5,1.7
									c0.6,0.3,0.1,0.7-0.9,1.3c-0.5,0.3-1.1,0.6-1.8,0.9c-0.7,0.3-1.4,0.7-2.2,1.1c-1.1,0.6-2.3,1.2-3.5,1.8
									c-1.2,0.7-2.3,1.3-3.4,1.9c-1,0.6-1.9,1.2-2.9,1.8c-0.9,0.6-1.9,1.3-2.8,1.9c-0.6-0.1-1.2-0.2-1.6-0.5
									c-0.7,0.4-1.5,0.8-2.4,1.4l-3.8,2.8c-1.3,0.9-2.4,1.9-3.7,2.9c-6.8,3.7,6.9-6.2,0.1-2.5c0.4-0.3,1.1-0.9,1.9-1.7
									c0.8-0.7,1.8-1.5,2.7-2.2c0.9-0.7,1.7-1.3,2.4-1.7c0.6-0.3,1.1-0.3,1.1,0.2c1.2-0.7,2.4-1.4,3.4-1.9c2.2-1.6,3-2.2,3.2-2.6
									c0.2-0.3-0.1-0.4,0.1-0.7c1.6-1,3-1.8,4.2-2.4c1.2-0.6,2.3-1.1,3.4-1.6c2.1-1,4.2-1.7,7.1-2.9c0.3,0.3,1.3,0.1,2.6-0.3
									c1.4-0.4,3.1-1,5-1.8c1.9-0.7,4.1-1.4,6.1-2.1C139.2,45.5,141.2,45,142.9,44.6z"/>
							</g>
							<g>
								<path class="st5" d="M96.2,62.3c-2.4,1.6-2.6,2.7-5.5,4.6c-0.7,0.4-1.5,0.9-1.3,0.5c-1.5,1.1-2.9,2.3-4.3,3.5
									c-0.7,0.6-1.4,1.2-2.1,1.7c-0.7,0.6-1.4,1.2-2.1,1.9c0.5-0.9,1.2-2,2.2-3.1c1-1.1,2.2-2.2,3.4-3.3c1.2-1.1,2.5-2.1,3.7-3
									c1.2-0.9,2.3-1.7,3.1-2.2c0.5-0.3,1-0.7,1.2-0.8c1.4-1.1,3-2.5,4.5-3.6c1-0.6,1.7-1.1,2.5-1.6c1.2-0.6,2.4-1.2,3.7-1.8
									c1.3-0.6,2.6-1.2,3.9-1.7c0.8-0.5,1.4-0.9,1.9-1.1c0.5-0.2,0.9-0.3,1.2-0.4c0.7-0.1,1.1,0,2-0.2c-1.2,0.6-2.1,1.1-3,1.6
									c-0.8,0.6-1.5,1.1-2.3,1.7c-1.5,1.1-3,2.1-5.5,3.5c-1.3,0.6-2.5,1.3-3.8,1.9C98.5,61,97.3,61.7,96.2,62.3z"/>
							</g>
							<g>
								<path class="st5" d="M42.5,134.3c0.1,1.6-0.2,2.9-0.6,4.2c-0.4,1.3-1,2.6-1.5,4.2c-0.4,1.4-0.4,2.7-0.7,4
									c-0.2,1.3-0.6,2.6-1.3,4.3c-0.1-1.6,0-3.2,0-4.8c0.2-0.9,0.4-1.7,0.6-2.6c0.3-1.5,0.7-2.9,1-4.4
									C40.8,137.6,41.6,135.8,42.5,134.3z"/>
							</g>
							<g>
								<path class="st5" d="M194.8,328c2.5-0.5,4.9-1.2,7.4-1.7c2.1-0.4,3.9-0.7,5.7-1l2.2,0l2.2-0.1l0,0.7
									c-0.7,0.2-1.4,0.3-2.1,0.5c-0.7,0.1-1.5,0.3-2.2,0.4c-1.5,0.3-2.9,0.5-4.4,0.8c-3,0.4-5.9,0.8-8.8,1.1L194.8,328z"/>
							</g>
							<g>
								<path class="st7" d="M224.7,316.6c0-0.4,0-0.7-0.1-1.1c1.6-0.5,2.8-1,3.9-1.4c1-0.4,1.9-1,2.7-1.4c0.8-0.4,1.7-0.9,2.7-1.3
									c1-0.4,2.2-0.8,3.8-1.3c-0.3-0.4,2.8-2.3,1-2.5c6.9-2.9,10.2-5.5,8.2-5.5c-1,0.6-2.3,1.2-6.2,2.9c1.5-1.4,5.4-3.4,9.6-5.9
									c0.5-0.3,1.1-0.6,1.6-0.9c0.5-0.3,1.1-0.7,1.6-1c1.1-0.7,2.2-1.4,3.3-2.1c2.1-1.5,4.2-3,6-4.5c1.6-2.6,7.7-7.2,14.4-15
									c0.9-0.1,1.8-0.2,2.7-0.3c-0.6,0.7-1.2,1.4-1.8,2.1c-0.6,0.7-1.3,1.4-1.9,2c0.2,0.4,0.5,0.8,0.7,1.2
									c0.1,0.1,0.1,0.2,0.2,0.4c1-1,2.1-1.9,2.9-2.8c0.8-0.8,1.4-1.4,2-2.1c0.2-0.7-1.3,0.1,0.4-2c0.9-0.8,1.9-1.8,2.8-2.8
									c1-1,1.9-2,2.9-3c-0.1-0.6,0-1.4-0.1-1.9c1.3-1.7,2.7-3.2,3.9-4.8c1.2-1.7,2.5-3.3,3.7-5l-0.3-0.3c2.5-4.2,5-8.7,7.1-13.1
									c0.9-1.8,1.6-3.3,2.4-5.2c-0.2-0.5-0.4-1.4-0.6-1.9c1-1.8,2-3.6,2.8-5.4c0.4-0.9,0.9-1.8,1.3-2.7c0.5-0.9,0.9-1.8,1.3-2.8
									c0.2-0.8,0.4-1.7,0.6-2.5c0.1-1.6,0.2-3.1,0.2-4.7l1.3-4.4c0.4-1.5,0.7-3,1.1-4.5c0.1-0.8,0.2-1.6,0.3-2.4
									c0.1-0.8,0.2-1.6,0.2-2.4c0.1-1.6,0.3-3.3,0.4-4.8c0.7-1.5,1.5-3.2,2.2-4.6c0.4,0.5,0.8,1.2,1.2,1.9l0.6-3.3
									c0.1-1.1,0.3-2.2,0.4-3.4c0.3-0.5,0.7-0.9,0.9-1.1c0.2-0.8,0.4-1.7,0.7-2.6c0.2-0.9,0.4-1.8,0.5-2.6c0.4,1.6,0.8,2.8,1,4.4
									c0.9-0.6,1.7-1.2,2.5-1.9c-0.1,1.2-0.2,2.6-0.3,4.1c-0.7,1.6-1.4,3.4-2.2,4.9c-0.1-1-0.2-1.9-0.3-2.8
									c-0.2,0.8-0.4,1.6-0.7,2.4c-0.5,2.8-0.8,5.4-1.4,8.2c-0.3-0.2-1.1,2.6-1.7,3.5c-0.1,1.5-0.2,3-0.4,4.5
									c-0.4,1.7-0.9,3.6-1.4,5.3c0,1.6,0.1,3.3,0.2,4.7c-0.2,0.6-0.4,1.1-0.5,1.4l0.9,0.6c-0.6,1.7-1.2,3.6-1.8,5.3
									c-0.5,0.5-1,1.5-1.6,3.1c-0.5,1.6-1.1,3.7-1.9,6.4c-1.5,3.5-3.2,6.6-5,10c-0.7,1.3-1.5,2.5-2.2,3.8
									c-0.7,1.2-1.4,2.4-2.2,3.5c-1.3,2.4,0.1,1.4,0.1,2.2c-0.1,0.3-0.4,0.9-0.6,1.4c-0.8,1.4-1.7,2.8-2.6,4.2
									c-0.9,1.4-1.8,2.8-2.7,4.1c-3.3,4.2-6.4,8.2-10.1,12.1c-0.9,0.9-1.9,1.9-2.8,2.8c-0.9,0.9-1.9,1.8-2.9,2.6
									c-1,0.9-1.9,1.8-2.9,2.6c-1,0.8-2,1.7-3,2.5c-2.3,1.9-4.5,3.4-6.8,5.1c-0.8,0.3-1.6,0.6-2.4,1l-2.9,1.9
									c-1,0.6-1.9,1.3-3,1.9c-0.6,0-1.2,0-2.8,0.5c-1.8,1.6-3.8,3.1-5.7,4.6c1.1-0.1,0.3,0.7-0.7,1.6c-1,0.9-2.1,1.8-1.3,1.9
									c-0.3,0.2-0.8,0.5-1,0.8c-1.9,0.8-3.5,1.6-5.4,2.4c-2.2,0.7-4.2,1.2-6.7,2c-1.7,0.6-3.4,1.1-5.2,1.7
									C228.4,315.6,226.6,316.1,224.7,316.6z"/>
							</g>
							<g>
								<path class="st5" d="M316.3,194.8c0.1-0.6,0.1-1.1,0.1-1.6c0-0.6,0-1.1,0-1.8c0-1.4,0-3.3,0-6.2c0.5-6.3,1.1-1.9,1.6-2.1
									c0.1,1.2,0.3,2.2,0.4,3.3c0.1,1.1,0.1,2.3,0,3.7c-0.1,1.1-0.2,2.2-0.4,3.4l-0.6,3.3C317.1,195.9,316.7,195.2,316.3,194.8z"
									/>
							</g>
							<g>
								<path class="st8" d="M248.3,68.8c-1.1-0.6-2.2-1.1-3.4-1.7c-1.2-0.6-2.4-1.1-3.6-1.7c-0.2-0.1-0.7-0.4-0.9-0.5
									c-0.1-0.7-0.1-1.4,0-2c0.3,0,0.9,0.2,1.5,0.3c1.5,0.7,3.2,1.5,4.7,2.2c0.7,0.4,1.4,0.8,2.1,1.2c0.9,1,1.7,2,2.6,2.9
									C250.3,69.4,249.4,69.2,248.3,68.8z"/>
							</g>
							<g>
								<path class="st7" d="M264.7,63c-1.8-1.1-3.6-2.3-5.5-3.4c-1.9-1-3.8-2.1-5.6-3.1c-0.2-0.2-0.6-0.6-0.9-1.1
									c-1.3-0.9-2.7-1.7-4-2.6c-1.4-0.8-2.8-1.6-4.1-2.4c-2.6-0.5-6.7-2.6-9.4-3.8c-3-1.2-5.9-2.6-9.1-3.7
									c-1.8-0.4-3.5-0.9-5.5-1.3c-1.3-0.6-2.3-1.1-3.6-1.7c-2.2-0.7-4.5-1.2-6.7-1.8c-1.5-0.4-3.2-0.7-4.8-1.1
									c-1.6-0.3-3.3-0.7-4.9-0.9c0.7-0.2,1.4-0.4,1.8-0.6c1.4,0.4,2.8,0.7,4.1,1.1c1.3,0.4,2.7,0.7,4,1.2c-0.2-1.4-4.8-2-7.9-2.6
									c0.1-0.2,0.2-0.4,0.3-0.6c2,0.2,4,0.4,5.9,0.6c1.9,0.2,3.8,0.6,5.7,0.8c0.8,0.3,1.7,0.5,2.5,0.8c0.8,0.3,1.6,0.6,2.4,0.9
									c1.6,0.6,3.1,1.1,4.6,1.7c2.2,0.8,4.4,1.7,6.6,2.5c2.2,0.9,4.3,1.9,6.5,2.8c-1.7-0.2-3.3-0.4-4.7-0.5c1,0.6,2.3,1.2,3.5,1.9
									c1.4,0.6,2.7,1.1,4,1.6c1.3,0.5,2.7,1,4,1.7c0.4-0.1,1.2,0,1.9,0c1.4,0.8,2.9,1.5,4.2,2.4l4.1,2.5c2,1.2,3.9,2.6,5.8,4
									c1.9,1.3,3.7,2.8,5.6,4.2C265.2,62.6,265,62.7,264.7,63z"/>
							</g>
							<g>
								<path class="st8" d="M243.7,49.2c-1.4-0.6-2.7-1.1-4-1.7c-1.3-0.5-2.6-1.1-4-1.6c-1.3-0.7-2.6-1.3-3.5-1.9
									c1.3,0.1,3,0.3,4.7,0.5c2.9,1.5,6,3,8.8,4.7C244.9,49.2,244.2,49.2,243.7,49.2z"/>
							</g>
							<g>
								<path class="st8" d="M210.4,37.6c-1.4-0.5-2.7-0.8-4-1.2c-1.3-0.3-2.7-0.7-4.1-1.1c-0.4,0.2-1.1,0.4-1.8,0.6l-4.8-0.6
									c-1.6-0.2-3.2-0.3-4.8-0.5c-1.1-0.1-2.2-0.2-3.3-0.3c-1.1-0.1-2.1-0.1-3.2-0.1c-2.1,0-4.3-0.2-6.5-0.1
									c-1.3-0.1-2.5-0.3-3.6-0.4c-1.2-0.1-2.2-0.2-3.3-0.1c-2.4,0.3-4.5,0.4-7.1,0.8c-9.7,1.2-19.6,3.4-28.9,6.5
									c-0.6,0.2-1.1,0.4-1.4,0.5c-1.5,0.3-2.7,0.6-3.8,0.8c-1,0.3-1.9,0.6-2.7,0.8c-1.6,0.5-2.8,1-4.5,1.7c0,0.2,0.1,0.5,0.1,0.7
									c-0.8,0.4-1.6,0.7-2.4,1.1c-1.2,0.5-2.3,0.9-3.2,1.2c-0.9,0.3-1.6,0.7-2.3,0.9c-1.2,0.5-2,0.7-2.4,0.7
									c-0.6,0.6-1.3,1.1-2.1,1.7c-0.7,0.5-1.5,1.1-2.3,1.5c-1.6,0.9-3.2,1.7-4.3,2.3c-0.7,0.6-1.4,1.2-2.1,1.9
									c-0.7,0.5-1.5,0.9-2.5,1.6c-1.4,1.1-3.1,2.4-4.5,3.6c-0.2,0.2-0.7,0.5-1.2,0.8c-1.3,0.5-2.4,0.8-3.8,1.3
									c0.2-0.2,0.7-0.7,1.1-1.1c1.8-1.5,3.9-2.8,5.8-4.2c-0.1-0.3-0.2-0.6-0.3-0.9c1.1-0.9,2.2-1.7,3.4-2.6
									c1.2-0.9,2.3-1.7,3.5-2.6c1.1-0.5,1.9-0.9,2.7-1.3c0.5-0.3,0.8-0.4,1.3-0.7c2.2-1.6,4.1-2.6,5.7-3.5c1.6-0.8,2.9-1.5,4.1-2
									c1.2-0.5,2.3-0.8,3.4-1.2c1.1-0.4,2.2-0.8,3.6-1.3l4.4-1.8c1.5-0.6,3-1.1,4.5-1.6c3-1.1,6-1.9,9.1-2.8
									c1.9,0.3,3.4,0.1,4.9-0.3c1.5-0.4,3-1.1,4.7-1.4c1.6-0.3,3.3-0.7,5-1c1.7-0.3,3.4-0.5,5.1-0.8c1.1-0.2,2.2-0.4,3.3-0.6
									c1.1-0.1,2.2-0.2,3.3-0.3c2.2-0.2,4.4-0.3,6.6-0.2c4.4,0,8.9,0.3,13.8,0.6c2.4,0.2,4.8,0.3,7.1,0.6c2.4,0.3,4.7,0.6,7.1,1
									c-0.1,0.2-0.2,0.4-0.3,0.6C205.6,35.6,210.1,36.2,210.4,37.6z"/>
							</g>
							<g>
								<path class="st8" d="M64.4,89.3c0.2,0.3,0.4,0.5,0.6,0.7l-1.4,1.9c-0.5,0.6-0.9,1.3-1.3,1.9l-2.6,3.9l-2.4,4l-1.2,2
									l-1.1,2.1c-0.7,0.9-1.5,2.1-2.4,3.3c-1,1-1.9,2.1-2.8,2.9c-0.6,1.4-1.3,2.8-1.8,4.1c-0.6,1.4-1.1,2.7-1.6,4
									c-0.4,0.9-0.9,1.7-1.3,2.6l-1.2,2.6c-0.8,1.8-1.6,3.5-2.3,5.3c-0.1,1.5-0.7,3.6-1.1,5.4c-0.3,1.8-0.6,3.2-0.3,3.2
									c-0.3,1.5-0.7,2.9-1,4.4c-0.2,0.9-0.4,1.7-0.6,2.6c-0.4,1.1-0.7,2.2-1.1,3.3c-0.3,1.1-0.6,2.2-0.9,3.4
									c-0.1,1-0.2,2.1-0.4,3.3c-0.2,1.2-0.3,2.5-0.5,3.8c-0.2,1.3-0.4,2.6-0.5,3.8c-0.1,1.2-0.1,2.4-0.1,3.4
									c-0.4,2.3-0.8,4.6-1.1,6.9c-0.2,2-0.1,3.8-0.1,5.4c0.1,1.6,0.2,3.1-0.2,4.6c0,2.4,0.2,4.8,0.4,7.1c0.1,1.2,0.1,2.4,0.3,3.6
									l0.4,3.6c0.2,1.2,0.4,2.4,0.7,3.6c0.3,1.2,0.6,2.4,0.9,3.5c0.1,0.9,0.1,1.7,0.2,2.6c0.5,1.8,1,3.4,1.4,5.1
									c0.2,0.8,0.5,1.6,0.7,2.4c0.3,0.8,0.5,1.6,0.8,2.4c0.4,1.7,0.7,3.7,1.1,5.4c1.2,2.8,2.3,5.4,3.7,8.1c0.6,2.2,1.2,4.5,2,6.7
									c0.9,1.5,1.7,3.1,2.6,4.7c0.9,1.6,1.9,3.3,2.8,5c0.9,1.7,2,3.2,2.9,4.8c0.9,1.5,1.9,2.9,2.9,4.1c0.2,0.2,0.7,0.9,1.3,1.8
									c0.3,0.4,0.6,0.9,1,1.4c0.4,0.5,0.7,1,1.1,1.5c1.4,2,2.6,3.9,2,3.6c0.3,0.8,1.2,1.9,2.1,3.1c0.9,1.2,2,2.6,3,3.7
									c2,2.3,3.4,4.1,1.9,3.6c-1.4-1.6-2.5-2.7-3.2-3.4c-0.7-0.8-1.2-1.2-1.5-1.5c-0.7-0.6-1.1-0.9-2.5-2.7
									c-2.8-4.2-4.7-7.1-6-9.3c-1.4-2.2-2.5-3.6-3.4-4.9c-0.9-1.3-1.8-2.5-2.6-3.8c-0.9-1.2-1.6-2.5-2.4-3.7
									c-0.5-1.4-1.1-2.7-1.5-4c-0.4-1.3-0.9-2.6-1.3-4c-0.9-2-1.7-4.2-2.6-6.2c-0.4-1-0.9-2-1.3-3c-0.4-1-0.9-1.9-1.4-2.9l0.8,3.5
									c0.3,1.1,0.6,2.3,1,3.4l1,3.4c0.3,1.1,0.7,2.2,1.1,3.4c-1.5-1.3-1.7-1.2-1.9-1.2c-2.5-6.8-4.6-12.9-6.2-19.3l-0.8-2.9
									l-0.7-2.9l-0.6-2.9c-0.2-1-0.4-1.9-0.6-2.9c-0.3-2.2-0.8-4.6-1.1-7.1c-0.2-2.4-0.6-4.9-0.7-7.3c0-0.3-0.1-0.9-0.1-1.2
									c-0.2-1.2-0.3-2.3-0.5-3.5c-0.2-1.1-0.3-2.2-0.3-3.4c-0.1-2.2-0.3-4.4-0.2-6.8c0.1-2.4,0.2-4.9,0.4-7.6
									c0.2-1.4,0.3-2.8,0.5-4.4c0.1-0.8,0.2-1.6,0.3-2.4c0.1-0.8,0.3-1.7,0.5-2.5c0.2-1.4,0.4-2.8,0.7-4.2
									c0.2-1.4,0.6-2.8,0.8-4.2c0.3-1.4,0.6-2.8,0.9-4.3c0.4-1.4,0.7-2.9,1.1-4.3c-0.2,2.5-0.5,5-0.6,7.6c0.3-0.8,0.5-1.7,0.8-2.6
									c0.3-0.9,0.7-1.8,1-2.6c0.6-2.6,0.8-4.7,1.1-6.8c0.1-1,0.3-2,0.4-3.1c0.2-1,0.4-2.1,0.7-3.3c0.2-1.5,0.6-3.5,1.2-5.6
									c0.6-2.1,1.4-4.4,2.3-6.7c0.9-2.3,2-4.5,3-6.6c1.1-2,2.2-3.9,3.2-5.4c0.4-0.5,0.7-0.9,0.9-1.2c1.2-1.7,2.3-3.1,3.4-4.5
									c0.8-1.4,1.7-2.8,2.5-4c0.8-1.2,1.6-2.2,2.5-3.1c1.4-2,2.7-4,4.1-6c0.7-0.9,1.3-1.6,1.9-2.3C64,88.8,64.2,89.1,64.4,89.3z"
									/>
							</g>
							<g>
								<path class="st8" d="M74.6,279c1,1.1,1.8,2.2,2.8,3.2c1,1,1.9,2,2.9,3.1c0.5,0.6,0.9,1.1,1.3,1.6c0.4,0.5,0.9,1,1.4,1.5
									c1,0.7,1.8,1.2,2.6,1.7c0.5,0.4,1,0.9,1.5,1.3c0.5,0.4,1,0.8,1.5,1.2c1,0.8,2,1.6,3.1,2.4c2,1.6,4.2,3.1,6.3,4.6
									c0.3-0.7,4.6,2.8,6.4,3.5c2.3,1.3,3.1,2,3.9,2.7c0.8,0.7,1.6,1.5,3.9,2.7c1.8,0.2,1.9,0,2.1-0.1c0.7,0.4,1.5,0.8,2.2,1.1
									c0.8,0.4,1.6,0.7,2.4,1.1c0.8,0.4,1.7,0.8,2.6,1.2c0.9,0.4,1.9,0.9,2.9,1.3c2,0.4,3.8,0.8,5.3,1.3c1.4,0.4,2.5,0.8,3.1,1.2
									c0.4,0.4,0.8,0.9,0.9,1.2c1,0.4,1.9,0.7,2.8,1.1c0.9,0.3,1.8,0.5,2.6,0.8c1.6,0.5,3.1,0.9,4.4,1.2c2.7,0.5,4.9,0.9,7,1.1
									l4.8,0.9l2.4,0.4l2.4,0.3c2,0.5,3.6,1,5.3,1.3c2.2-0.3,4.1-0.5,6.3-0.8c1.7,0.4,3.6,0.7,5.3,1c0.9,0,1.9,0.1,3,0.1
									c1.1,0,2.5,0,4.1-0.1c0.9-0.2,1.9-0.5,2.8-0.7c1.7-0.1,3.4-0.2,5-0.3c0.8-0.1,1.7-0.1,2.5-0.2l2.5-0.3
									c1.6-0.2,3.3-0.4,5-0.6c1.6-0.3,3.3-0.6,5-0.9c1.1,0.6,2.5,1.2,3.9,1.6c-1.2,0.2-2.3,0.4-3.5,0.6l-3.5,0.5
									c-7.9,0.3-10.4,1.1-11.3,1.6c-2.1,0.4-3.7,0.4-5,0.4c-1.3-0.1-2.4-0.4-3.5-0.6l-3.6,0.3c-1.2,0.1-2.4,0.1-3.7,0.2
									c-1.6-0.2-3.3-0.3-5-0.5c-1.7-0.2-3.3-0.5-4.9-0.7c-0.7,0-1.4,0.1-2.1,0.1c-0.7,0-1.5,0-2.2,0c-1.5,0-3.1-0.1-4.6-0.1
									c-5.5-1.2-7-1.4-11.5-1.6c-0.3-0.1-0.9-0.2-1.5-0.3c-0.8-0.1-1.7-0.2-2.6-0.4c-0.9-0.2-2-0.5-3-0.7c-2-0.5-4.1-1.1-5.7-1.5
									c-1.2-0.8-2.4-1.6-3.6-2.4c-0.3-0.1-0.9-0.3-1.1-0.4c-1.4-0.6-2.8-1.1-4.2-1.7c-0.7-0.3-1.4-0.5-2.1-0.8
									c-0.7-0.3-1.4-0.6-2.1-0.9c-1.4-0.6-2.8-1.3-4.2-1.9c-1.4-0.7-2.8-1.4-4.2-2.1c-1.4-0.7-2.8-1.4-4.2-2.2
									c-1.2-0.8-3.1-2-4.6-3c-1.5-1-2.8-1.7-2.9-1.4l-3-2c-1-0.7-1.9-1.4-2.9-2.1c-0.1,0.2-0.8-0.2-2.2-1.2c-1.4-1-3.3-2.8-5.9-5
									c-2-1.6-4-3.3-6-5c-1.9-1.8-3.9-3.5-5.8-5.4c0.2-0.1,0.5-0.3,0.8-0.4c-1.3-1.6-2.4-2.9-3.7-4.5
									C72.6,278.1,73.7,278.5,74.6,279z"/>
							</g>
							<g>
								<path class="st9" d="M221.9,318c2-0.1,3.7-0.3,5.7-0.5c-2.2,1.8-3.9,2.9-1.3,2.3c2.3-0.6,2.9-1,3.4-1.4
									c0.6-0.4,1.1-0.8,3.4-1.5c1.4-0.5,2.6-0.8,4-1.3c0.1,0.5,0.1,0.9,0.2,1.3c-2.4,0.9-4.9,2-7.4,2.9c-1.3,0.4-2.6,0.9-3.9,1.3
									l-1.9,0.7l-2,0.6c-1.8,0.3-3.6,0.5-5.5,0.8c-1.9,0.2-3.8,0.4-5.7,0.6c0-0.3,0-0.6,0.1-0.9c-1.2,0.2-2.3,0.4-3.5,0.6
									l-3.5,0.5c1-0.9,1.9-1.8,3.1-2.7c0.6-0.1,1.2-0.2,1.9-0.3c0.6-0.1,1.2-0.3,1.9-0.4c1.3-0.3,2.5-0.5,3.8-0.8
									c1.3-0.2,2.5-0.6,3.7-0.9C219.5,318.6,220.7,318.3,221.9,318z"/>
							</g>
							<g>
								<path class="st8" d="M224.7,316.6c1.8-0.5,3.7-1,5.4-1.6c1.8-0.6,3.5-1.2,5.2-1.7c-1.1,0.6-2.1,1.3-3.1,1.9
									c-1.1,0.6-2.1,1.3-3.4,1.9c-0.3,0.1-0.9,0.3-1.1,0.4c-2,0.2-3.7,0.4-5.7,0.5C223.1,317.5,223.9,317,224.7,316.6z"/>
							</g>
							<g>
								<path class="st8" d="M248.4,308.1c-0.8-0.1,0.4-1,1.3-1.9c1-0.9,1.9-1.8,0.7-1.6c2-1.5,3.9-3,5.7-4.6
									c1.6-0.5,2.2-0.5,2.8-0.5c1-0.6,2-1.2,3-1.9l2.9-1.9c0.8-0.3,1.6-0.6,2.4-1c-1.3,1.4-2.9,2.8-4.3,4.1
									c-3.9,2.8-7.9,5.5-12,7.9C250.3,307.1,249.5,307.6,248.4,308.1z"/>
							</g>
							<g>
								<path class="st8" d="M301.8,257.2c-2.3,1.2,0.8-4.2,3-8.7c0.3-0.1,0.8-0.4,1.2-0.8c1.8-3.4,3.4-6.5,5-10
									c0.8-2.6,1.4-4.8,1.9-6.4c0.5-1.6,1-2.6,1.6-3.1c0.6-1.7,1.2-3.6,1.8-5.3l-0.9-0.6c0.1-0.3,0.3-0.8,0.5-1.4
									c0.6-1.6,1.3-3.5,1.9-5.1c0.3,0.2,0.6,0.3,1,0.6c-0.4,3.7-1.9,9.5-4.3,15.3c-0.3,1.2-0.6,2.4-1,3.6
									c-0.4,1.2-0.7,2.3-1.1,3.5c-1.8,3.4-3.7,6.3-5.7,9.4C305.2,251.2,303.5,254.4,301.8,257.2z"/>
							</g>
							<g>
								<path class="st8" d="M301,252.2c0.7-2.5,3-5.7,4.3-8.6c0.3,0.3,0.6,0.6,1,0.9c-0.7,1.3-1.2,2.3-1.9,3.6
									C303.3,249.3,302,250.9,301,252.2z"/>
							</g>
							<g>
								<path class="st8" d="M317,211.1c0.2-1.5,0.3-3,0.4-4.5c0.7-0.9,1.4-3.6,1.7-3.5c0.6-2.8,1-5.4,1.4-8.2
									c0.2-0.8,0.5-1.6,0.7-2.4c0.2,0.9,0.3,1.9,0.3,2.8c0.8-1.5,1.5-3.4,2.2-4.9c-0.1,1.2-0.1,2.4-0.2,3.6l-0.4,3.5
									c-0.5,0.7-1,1.4-1.6,2.4c-0.4,2.6-1,5.5-1.4,8.1c-0.7,1.2-1.3,2.5-2,3.7C317.8,211.5,317.4,211.3,317,211.1z"/>
							</g>
							<g>
								<path class="st7" d="M258.8,74.3c-1-0.5-2.3-1.2-3.5-1.8c-1.3-0.9-2.8-2-4.2-2.9c-0.9-1-1.7-2-2.6-2.9c1.8,1,3.5,2,5.2,3
									c1.7,1.1,3.3,2.1,5,3.3c0.5,0.6,0.9,1.3,1.4,1.9C259.9,74.8,259.3,74.6,258.8,74.3z"/>
							</g>
							<g>
								<path class="st7" d="M234.6,62.2c-2.6-0.8-5.2-1.6-7.6-2.2l-2.8-1.4c-0.9-0.4-1.9-0.8-2.8-1.2c0.2-0.3,0.4-0.6,0.7-1.1
									c0.8,0.2,1.6,0.5,2.4,0.7c0.8,0.3,1.6,0.6,2.4,0.8c1.8,0.2,3.8,0.4,5.6,0.7c1.3,0.7,2.6,1.4,4,2.1c1.3,0.8,2.6,1.5,3.9,2.2
									c-0.2,0.6-0.1,1.3,0,2C238.4,64,236.5,63,234.6,62.2z"/>
							</g>
							<g>
								<path class="st7" d="M177.8,34.4c-1.9,0.6-5.7,0.4-9.8,0.8c-1.1,0.1-2.2,0.2-3.5,0.4c-1.2,0.1-2.5,0.3-3.8,0.5
									c-2.6,0.2-5.4,0.7-8.1,1.1c-5.4,0.9-10.6,2.3-13.8,3.9c-2.5,0.9-2.8,0.8-3,0.6c-0.2-0.2-0.3-0.6-2.4,0
									c-3.7,1.1-7.2,2.6-10.8,4c0-0.2-0.1-0.5-0.1-0.7c2.1-0.7,4.1-1.4,6.1-2c2-0.7,4.1-1.2,6.2-1.8c9.3-3.1,19.2-5.3,28.9-6.5
									c2.6-0.3,4.7-0.5,7.1-0.8c1-0.1,2.1,0,3.3,0.1C175.3,34.1,176.6,34.2,177.8,34.4z"/>
							</g>
							<g>
								<path class="st7" d="M117.9,49.8c-1.3,0.6-2.4,1.2-3.7,1.8c-0.8,0.2-1.3,0.1-2,0.2c-0.3,0.1-0.7,0.2-1.2,0.4
									c-0.5,0.2-1.1,0.6-1.9,1.1c-1.3,0.6-2.6,1.2-3.9,1.7c-1.3,0.6-2.5,1.2-3.7,1.8c0.7-0.7,1.4-1.3,2.1-1.9
									c5.3-3.3,6.5-4.5,8.7-5.5c0.4,0,1.2-0.2,2.4-0.7c0.6-0.2,1.4-0.6,2.3-0.9c0.9-0.3,2-0.7,3.2-1.2
									C119.6,47.9,122.7,47.4,117.9,49.8z"/>
							</g>
							<g>
								<path class="st7" d="M80.9,74.4c-0.4,0.5-0.8,1-1,1.2c-0.7,0.6-1.4,1.3-2.1,1.9l-2,2c-1.3,1.3-2.7,2.6-4,4.1l-3.6,3.1
									c-1.2,1.1-2.3,2.2-3.4,3.3c-0.2-0.3-0.4-0.5-0.6-0.7c5.5-7,11.8-13.8,18.5-19.8c1.1-0.9,2.2-1.8,3.3-2.7
									c1.1-0.9,2.2-1.7,3.4-2.6c1.4-0.5,2.5-0.8,3.8-1.3c-0.9,0.6-1.9,1.3-3.1,2.2c-1.2,0.9-2.5,1.8-3.7,3
									c-1.2,1.1-2.4,2.2-3.4,3.3C82.2,72.4,81.4,73.5,80.9,74.4z"/>
							</g>
							<g>
								<path class="st7" d="M49.6,115.8c-0.7,1.3-1.4,2.6-1.9,3.6c-1.4,2.9-2.7,6.2-3.9,11c-0.5,1.4-0.9,2.5-1.3,3.9
									c-0.8,1.5-1.6,3.3-2.4,4.9c-0.3,0,0-1.4,0.3-3.2c0.4-1.8,0.9-3.9,1.1-5.4c0.7-1.8,1.5-3.5,2.3-5.3l1.2-2.6
									c0.4-0.9,0.8-1.7,1.3-2.6c0.5-1.3,1-2.6,1.6-4c0.6-1.4,1.2-2.7,1.8-4.1c0.9-0.8,1.7-1.9,2.8-2.9
									C51.4,111.3,50.5,113.6,49.6,115.8z"/>
							</g>
							<g>
								<path class="st7" d="M38.5,151c-0.4,2.3-0.9,4.6-1.2,6.9c0,1.8-0.1,4-0.1,5.8c-0.2,1.4-0.4,2.6-0.5,4c0.1,1.1-0.1,3.3-0.2,5
									c-0.1,1.7-0.4,2.9-0.7,1.9c0.1,1.4,0.1,2.8,0.1,4.1c0,1.3,0.1,2.5,0.1,3.7c0,1.2,0,2.3,0,3.5c0,1.1,0,2.2,0,3.4
									c0.1,2.2,0,4.5,0.4,7c0.3,2.4,0.7,5.1,1.6,8c-0.2,0.6-0.4,0.8-0.6,1.4c0.4,2.3,1,4.6,1.6,6.9c0.5,0.9,1,2,1.5,3.1
									c0.5,1,0.9,1.9,1.2,2.4c0.2,0.8,0.5,1.7,0.8,2.8c0.7,2.5,1.7,5.3,2.5,7.8c0.8,2.5,1.4,4.4,2.1,6.6c0.4,0.5,0.9,1,1.2,1.2
									c1,2.3,2.1,4.8,3.4,7.4c0.6,1.3,1.3,2.6,2,3.9c0.7,1.3,1.4,2.6,2.2,3.8c0.4,0.6,0.7,1.3,1.1,1.9c0.4,0.6,0.8,1.2,1.1,1.8
									c0.8,1.2,1.5,2.4,2.2,3.5c1.5,2.2,3,4.1,4.2,5.8c0.5,0.6,1.1,1.1,1.9,2c0.8,0.9,1.9,2.2,3.5,4.3c0.5,1,0.8,1.8,1.1,2.6
									c1,1.1,1.9,2.2,2.7,3.1c1.7,1.6,3.4,3.4,5.1,5c1.8,1.6,3.5,3.2,5.2,4.7c9.1,7.5,17.1,13.8,26.6,18.6
									c0.9,0.3,2.6,1.1,4.5,2.1c1,0.5,2,1,3,1.4c1,0.4,2,0.7,3,0.9c0.1,0.3,0.5,0.7,1.2,1.1c0.7,0.4,1.7,1,3,1.5
									c1.3,0.6,2.9,1.2,4.7,2c1.8,0.7,3.9,1.5,6.2,2.4c2.4,0.9,4.9,1.7,7.3,2.5c2.4,0.7,4.9,1.4,7.4,2.1c3.3,0.6,3.9,0.3,5.2,0.3
									c1.3-0.1,3.1,0,9.1,1.1c2.3,0.3,4.6,0.6,6.9,1c2.5,0.2,5,0.3,7.6,0.5c2.6,0,5.1,0.1,7.6,0.1c-0.9,0.2-1.9,0.5-2.8,0.7
									c-1.6,0-3,0.1-4.1,0.1c-1.1,0-2.1-0.1-3-0.1c-1.7-0.3-3.7-0.7-5.3-1c-2.2,0.3-4.1,0.5-6.3,0.8c-1.7-0.4-3.4-0.9-5.3-1.3
									l-2.4-0.3l-2.4-0.4l-4.8-0.9c-2.1-0.2-4.3-0.6-7-1.1c-1.3-0.3-2.8-0.7-4.4-1.2c-0.8-0.2-1.7-0.5-2.6-0.8
									c-0.9-0.3-1.8-0.7-2.8-1.1c-0.1-0.3-0.5-0.8-0.9-1.2c-0.6-0.4-1.7-0.8-3.1-1.2c-1.4-0.5-3.2-0.9-5.3-1.3
									c-1-0.4-2-0.8-2.9-1.3c-0.9-0.4-1.8-0.8-2.6-1.2c-0.8-0.4-1.6-0.7-2.4-1.1c-0.8-0.4-1.5-0.8-2.2-1.1
									c-0.2,0.2-0.3,0.3-2.1,0.1c-2.4-1.2-3.1-2-3.9-2.7c-0.8-0.7-1.6-1.4-3.9-2.7c-1.9-0.6-6.1-4.1-6.4-3.5
									c-2.2-1.6-4.3-3-6.3-4.6c-1-0.8-2-1.6-3.1-2.4c-0.5-0.4-1-0.8-1.5-1.2c-0.5-0.4-1-0.9-1.5-1.3c-0.8-0.5-1.6-1-2.6-1.7
									c-0.5-0.5-0.9-1-1.4-1.5c-0.4-0.5-0.8-1-1.3-1.6c-1-1.1-2-2.1-2.9-3.1c-0.9-1-1.8-2.1-2.8-3.2c-1-0.5-2-0.9-3.2-1.5
									c-0.6-0.7-1.2-1.4-1.7-2c1.5,0.5,0.1-1.2-1.9-3.6c-1-1.2-2-2.5-3-3.7c-0.9-1.2-1.8-2.3-2.1-3.1c0.6,0.2-0.6-1.6-2-3.6
									c-0.4-0.5-0.7-1-1.1-1.5c-0.3-0.5-0.7-1-1-1.4c-0.6-0.9-1.1-1.6-1.3-1.8c-1-1.2-2-2.6-2.9-4.1c-0.9-1.5-2-3.1-2.9-4.8
									c-0.9-1.7-1.8-3.4-2.8-5c-0.9-1.6-1.7-3.3-2.6-4.7c-0.8-2.2-1.4-4.5-2-6.7c-1.4-2.7-2.5-5.3-3.7-8.1
									c-0.4-1.7-0.8-3.7-1.1-5.4c-0.3-0.8-0.5-1.6-0.8-2.4c-0.2-0.8-0.5-1.6-0.7-2.4c-0.5-1.6-1-3.3-1.4-5.1
									c-0.1-0.9-0.2-1.8-0.2-2.6c-0.3-1.2-0.6-2.4-0.9-3.5c-0.3-1.2-0.4-2.4-0.7-3.6l-0.4-3.6c-0.2-1.2-0.2-2.4-0.3-3.6
									c-0.2-2.4-0.4-4.8-0.4-7.1c0.4-1.5,0.3-3,0.2-4.6c-0.1-1.6-0.2-3.4,0.1-5.4c0.3-2.3,0.7-4.6,1.1-6.9c0-1,0-2.1,0.1-3.4
									c0.1-1.2,0.3-2.5,0.5-3.8c0.2-1.3,0.3-2.6,0.5-3.8c0.2-1.2,0.4-2.3,0.4-3.3c0.3-1.1,0.6-2.2,0.9-3.4
									c0.4-1.1,0.7-2.2,1.1-3.3C38.5,147.8,38.4,149.4,38.5,151z"/>
							</g>
							<g>
								<path class="st7" d="M40.8,192.4c0.2,2.3,0.5,4.5,0.8,6.8c-0.5-0.1-1-0.1-1.6-0.2c-0.1-0.6-0.1-0.9-0.2-1.4
									c-0.1-1.7-0.4-3.7-0.4-5.4C40.1,192.2,40.5,192.3,40.8,192.4z"/>
							</g>
							<g>
								<path class="st7" d="M42,207.2c0.2,3.6,0.7,6.1,0.1,5.3c-0.3-1.4-0.6-2.7-0.9-4.1c-0.3-1.3-0.4-2.7-0.6-4.1
									C41.1,205.2,41.6,206.1,42,207.2z"/>
							</g>
							<g>
								<path class="st7" d="M65.4,261c1.7,1.4,3.6,4.2,5.4,6.5c1,1.4,2.4,2.8,3.5,4.2c0,0.6-0.1,1-0.1,1.6
									c-1.1-1.2-2.2-2.4-3.3-3.7c-1.1-1.3-2.1-2.6-3.1-3.8C66.4,263.9,66,262.5,65.4,261z"/>
							</g>
							<g>
								<path class="st7" d="M76,275.1l4,4l4.2,3.8c2.7,2.9,2.4,3.1,2.1,3.3c-4.1-3.7-7.5-6.9-11.1-10.6
									C75.6,275.3,75.8,275.2,76,275.1z"/>
							</g>
							<g>
								<path class="st7" d="M169,318.5c1.3,0.6,2.5,1.3,3.8,1.8c-1.6-0.1-3.2-0.3-4.9-0.4c-0.8-0.1-1.7-0.1-2.5-0.2
									c-0.8-0.1-1.6-0.2-2.4-0.3c-1.9-0.6-1.4-0.9,0-1c0.7-0.1,1.7,0,2.7,0C166.8,318.4,168,318.4,169,318.5z"/>
							</g>
							<g>
								<path class="st7" d="M183.9,319.8c1.1,0,2.3,0.1,3.4,0c1.1,0,2.3-0.1,3.4-0.1c0.2,0.5-1.2,1-3.1,1.1c-1.8,0.2-4-0.1-5.3-0.6
									C183,320.1,183.6,320,183.9,319.8z"/>
							</g>
							<g>
								<path class="st7" d="M219.3,314.3c2.5-0.7,0.8,0.3,1.4,0.5c-1.8,0.7-4.1,1.4-6.2,1.8c-2.1,0.4-3.9,0.5-4.7,0.5
									C207.6,316.1,216,315.6,219.3,314.3z"/>
							</g>
							<g>
								<path class="st7" d="M279.1,273.7c0.3-0.8,1.1-1.8,1.9-2.8c0.8-1,1.7-2.1,2.1-2.8c0.8-0.8,1.5-1.5,2.1-2.2
									c0.6-0.7,1.2-1.2,1.6-1.6c0.9-0.8,1.4-1,1.4-0.2l-1.9,2.9c-0.7,0.9-1.4,1.9-2.1,2.8l-2.5,2.1L279.1,273.7z"/>
							</g>
							<g>
								<path class="st9" d="M151.3,35c-1.8,0.3-3.2,1-4.7,1.4c-1.5,0.4-3,0.6-4.9,0.3c1.6-0.4,3.2-0.6,4.8-0.9
									C148.1,35.5,149.7,35.2,151.3,35z"/>
							</g>
							<g>
								<path class="st6" d="M96.2,58.1l-2.9,2.1l-1.5,1l-1.4,1.1c-4.9,4.1-6.3,5.8-7.5,7.2c-6.7,5.9-13,12.7-18.5,19.8
									c-0.2-0.3-0.4-0.6-0.7-0.9c-0.6,0.7-1.1,1.4-1.9,2.3c-0.2-0.2-0.3-0.4-0.5-0.7c2.3-3.3,4-5.9,5.5-7.7
									c1.5-1.8,2.6-3.1,3.6-3.7c2.1-2.2,4.1-4.4,6.3-6.5l3.3-3.1l3.4-3l1.7-1.5l1.8-1.4l3.6-2.8c1.2-0.9,2.5-1.8,3.7-2.6
									c1.2-0.9,2.5-1.8,3.7-2.6c3.2-2.4,3.4-1.7,5.1-2.2c-1.1,0.8-2.3,1.7-3.5,2.6C98.5,56.4,97.3,57.2,96.2,58.1z"/>
							</g>
							<g>
								<path class="st9" d="M96.5,59c-1.9,1.4-3.9,2.7-5.8,4.2c-0.5,0.4-0.9,0.9-1.1,1.1c-1.2,0.9-2.3,1.7-3.4,2.6
									c-1.1,0.9-2.2,1.8-3.3,2.7c1.2-1.4,2.6-3.1,7.5-7.2l1.4-1.1l1.5-1l2.9-2.1C96.3,58.4,96.4,58.7,96.5,59z"/>
							</g>
							<g>
								<path class="st9" d="M61.8,90.7c-1.4,2-2.7,4-4.1,6c-0.8,0.8-1.6,1.9-2.5,3.1c-0.8,1.2-1.7,2.5-2.5,4
									c-1.1,1.4-2.1,2.8-3.4,4.5c1.5-3.1,3-6.5,4.7-9.4c2.3-3.1,4.7-5.8,7.2-8.7C61.5,90.3,61.7,90.5,61.8,90.7z"/>
							</g>
							<g>
								<path class="st9" d="M38.9,133.6c-0.4,1.2-0.6,2.3-0.7,3.3c-0.2,1-0.3,2.1-0.4,3.1c-0.3,2-0.5,4.1-1.1,6.8
									c-0.3,0.8-0.6,1.7-1,2.6c-0.3,0.9-0.6,1.8-0.8,2.6c0.1-2.5,0.3-5,0.6-7.6c0.3-0.9,0.5-1.9,0.8-2.8c0.3-0.9,0.6-1.8,0.9-2.7
									c0.3-0.9,0.6-1.8,0.9-2.7c0.1-0.4,0.3-0.9,0.4-1.3C38.5,134.5,38.7,134.1,38.9,133.6z"/>
							</g>
							<g>
								<path class="st9" d="M40,226.2c0.5,0.9,0.9,1.9,1.4,2.9c0.4,1,0.9,2,1.3,3c0.9,2,1.6,4.1,2.6,6.2c0.5,1.4,0.9,2.7,1.3,4
									c0.4,1.3,1,2.6,1.5,4c0.8,1.2,1.5,2.4,2.4,3.7c0.9,1.2,1.7,2.5,2.6,3.8c0.9,1.3,2,2.7,3.4,4.9c1.4,2.2,3.3,5.1,6,9.3
									c-1.2-1.1-2-2-3.1-3.2c-0.9-1.2-1.7-2.4-2.5-3.6c-0.8-1.2-1.5-2.4-2.3-3.7c-0.9-0.6-1.8-1.3-2.9-2.2c-0.5-0.8-1-1.5-1.6-2.3
									c-1.5-2.6-2.6-5.1-3.9-7.8c-0.9-1.6-1.7-3.6-2.4-5.2c-0.4-1.1-0.8-2.2-1.1-3.4l-1-3.4c-0.3-1.1-0.7-2.3-1-3.4L40,226.2z"/>
							</g>
							<g>
								<path class="st9" d="M86.1,292.8c2.5,2.3,4.5,4,5.9,5c1.4,1,2.1,1.4,2.2,1.2c-0.1,0.2-0.8-0.2-2.2-1.2
									C90.6,296.8,88.7,295.1,86.1,292.8z"/>
							</g>
							<g>
								<path class="st9" d="M144.9,322.6c-0.8-0.1-1.7-0.2-2.6-0.4c-0.9-0.2-2-0.5-3-0.7c-2-0.5-4.1-1.1-5.7-1.5
									c-1.2-0.8-2.4-1.6-3.6-2.4c1.2,0.8,2.4,1.6,3.6,2.4c1.7,0.4,3.7,1,5.7,1.5c1,0.3,2,0.5,3,0.7
									C143.2,322.4,144.1,322.5,144.9,322.6z"/>
							</g>
							<g>
								<path class="st9" d="M192.5,325.6c1-0.5,3.5-1.3,11.3-1.6c-1.9,0.4-3.8,0.6-5.7,0.9C196.4,325.2,194.5,325.5,192.5,325.6z"
									/>
							</g>
							<g>
								<path class="st6" d="M228.8,317.1c1.4-0.3,2.8-0.7,4.3-1.1c1.5-0.7,3.1-1.4,4.5-2.3c1.5-0.8,3-1.6,4.4-2.4
									c1.9-0.8,3.5-1.6,5.4-2.4c0.3-0.2,0.8-0.6,1-0.8c1.1-0.5,1.8-1,2.6-1.4c2.7-1.1,5.2-1.9,7.8-3.1c0.8-0.5,1.5-1,2.3-1.4
									c1.5-1,2.9-2.2,4.2-3.2c1.4-1,2.7-2,4-3.1c0.5-0.2,0.8-0.3,1.4-0.5c1.1-0.7,2.3-1.4,3.5-2.2c1.2-0.8,2.4-1.7,3.6-2.5
									c-0.7,1.2-2.2,2.8-3.9,4.2c-1.7,1.4-3.5,2.9-4.9,4.2c-1.7,1.3-3.5,2.6-5.3,3.9c-1.8,1.3-3.7,2.5-5.5,3.6
									c-1.3,0.8-2.6,1.5-3.7,2.2c-0.6,0.1-1.2,0.2-1.5,0.1c-0.8,0.4-1.7,0.8-2.6,1.2c-0.9,0.4-1.8,0.8-2.6,1.1
									c-1,0.9-1.8,1.6-2.5,2.5c-1.6,0.9-3.6,1.8-5.2,2.6c-0.9,0.2-1.7,0.5-2.9,0.8c-0.1-0.5-0.1-0.9-0.2-1.3
									c-1.4,0.5-2.5,0.8-4,1.3c-2.3,0.7-2.8,1.1-3.4,1.5c-0.6,0.4-1.1,0.8-3.4,1.4c-2.6,0.6-0.9-0.5,1.3-2.3
									C227.9,317.4,228.5,317.2,228.8,317.1z"/>
							</g>
							<g>
								<path class="st9" d="M247.9,311.1c0.8-0.3,1.7-0.7,2.6-1.1c0.9-0.4,1.8-0.8,2.6-1.2c0.3,0.1,0.9,0,1.5-0.1
									c-1.5,0.8-3,1.7-4.5,2.5c-1.6,0.8-3.1,1.6-4.6,2.3C246.1,312.7,246.9,312,247.9,311.1z"/>
							</g>
							<g>
								<path class="st9" d="M251,306.7c1.3-1.1,3.2-2.2,5.3-3.6c1-0.7,2.1-1.4,3.3-2.1c0.6-0.4,1.1-0.7,1.7-1.1
									c0.6-0.4,1.1-0.8,1.7-1.2c1.4-1.3,3-2.7,4.3-4.1c2.3-1.8,4.5-3.3,6.8-5.1c1-0.9,2-1.7,3-2.5c1-0.8,1.9-1.7,2.9-2.6
									c0.9-0.9,1.9-1.7,2.9-2.6c0.9-0.9,1.8-1.8,2.8-2.8c-0.2,1.4-0.3,2.8-0.7,4.4c-1.1,1.2-2.3,2.4-3.5,3.6l-1.8,1.8l-1.8,1.7
									c-1.2,0.8-2.4,1.7-3.6,2.5c-1.2,0.8-2.4,1.5-3.5,2.2c-0.6,0.2-0.8,0.3-1.4,0.5c-1.3,1.1-2.6,2.1-4,3.1
									c-1.4,1-2.7,2.2-4.2,3.2c-0.8,0.5-1.5,1-2.3,1.4C256.2,304.8,253.7,305.6,251,306.7z"/>
							</g>
							<g>
								<path class="st6" d="M284.9,283.4c0.4-1.6,0.6-3,0.7-4.4c3.7-3.9,6.9-7.9,10.1-12.1c1-1.3,1.8-2.8,2.7-4.1
									c0.9-1.4,1.8-2.7,2.6-4.2c1.3-1.6,2.4-2.9,3.5-4.2c1.5-2.1,1.4-0.2,2,0c-0.6,1.9-1.8,3.6-2.7,5.2c-0.6,0.6-1.1,1.2-1.7,1.7
									c-0.6,0.6-1.2,1.1-1.7,1.7c-1.2,1.1-2.4,2.3-3.6,3.5c-0.3,1.5-0.9,3.2-1.4,4.9C292.1,275.7,288.7,279.5,284.9,283.4z"/>
							</g>
							<g>
								<path class="st9" d="M296.9,266.5c1.2-1.2,2.4-2.4,3.6-3.5c0.6-0.6,1.2-1.1,1.7-1.7c0.6-0.6,1.1-1.2,1.7-1.7
									c-1.3,2.1-2.7,4-4.1,6c-1.4,2-2.9,3.9-4.4,5.8C296,269.6,296.6,268,296.9,266.5z"/>
							</g>
							<g>
								<path class="st9" d="M301.8,257.2c1.7-2.8,3.4-6,4.9-8.9c2-3.2,3.9-6.1,5.7-9.4c-0.1,1-0.2,2.2-0.3,3.3
									c-0.1,1.1-0.3,2.2-0.5,3.3c-0.8,1.5-1.5,3-2.4,4.5c-0.9,1.5-1.7,3-2.6,4.4c-0.6-0.2-0.5-2.1-2,0c-1.1,1.3-2.2,2.7-3.5,4.2
									C301.4,258.1,301.7,257.5,301.8,257.2z"/>
							</g>
							<g>
								<path class="st9" d="M315.6,216.4c0.5-1.6,1-3.6,1.4-5.3c0.4,0.2,0.8,0.4,1.2,0.6c-0.1,1.5-0.2,2.8-0.4,4.3
									c-0.6,1.6-1.3,3.5-1.9,5.1C315.7,219.7,315.7,218,315.6,216.4z"/>
							</g>
							<g>
								<path class="st6" d="M312.4,238.9c0.3-1.6,1.1-3.2,1.7-5.6c0.1-0.6,0.3-1.2,0.4-1.5c0.3-1,0.6-2,1-3.1
									c0.3-1,0.6-2.1,0.9-3.1c0.3-1,0.6-2.1,0.9-3.1c0.3-1,0.5-2.1,0.7-3.1c0.3-1.1,0.6-2,0.8-2.8c-0.4-0.2-0.6-0.4-1-0.6
									c0.2-1.5,0.2-2.8,0.4-4.3c0.7-1.2,1.3-2.5,2-3.7c0.1,0.7,0.1,1.3,0.3,1.7l0.6-1.6l0.5-1.6l1.1-3.3c0.3-1.8,0.4-3.9,0.6-5.6
									l0.4-3.5c0.1-1.2,0.1-2.4,0.2-3.6c0.1-1.5,0.2-2.9,0.3-4.1c1.2-5.3,1.8-3.3,2.3-3.8c0.6,3.5-0.9,11,0,11.9
									c-0.3,2.2-0.6,4.6-0.9,7c-0.4,2.4-0.9,4.8-1.3,7.2c-0.8,3.5-1.7,7.3-2.8,11.1c-0.3,1.4-0.5,2.5-0.8,3.5
									c-0.3,1-0.5,1.8-0.7,2.6c-0.5,1.5-0.8,2.6-1.3,3.9c-1.1,2.6-2.1,5.3-3.2,7.9c-1.2,2.6-2.3,5.2-3.7,7.7
									c0.1-1.1,0.3-2.2,0.5-3.3C312.2,241,312.3,239.9,312.4,238.9z"/>
							</g>
							<g>
								<path class="st9" d="M320.2,208c0.5-2.6,1.1-5.5,1.4-8.1c0.6-1,1.1-1.7,1.6-2.4c-0.2,1.8-0.4,3.9-0.6,5.6l-1.1,3.3l-0.5,1.6
									l-0.6,1.6C320.3,209.3,320.2,208.6,320.2,208z"/>
							</g>
							<g>
								<path class="st6" d="M183.4,328c-0.9-1.1,1.4-1.4,3.9-1.5c2.5-0.3,5.3-0.4,5.2-0.8c2-0.1,3.8-0.4,5.7-0.7
									c1.9-0.3,3.7-0.5,5.7-0.9l3.5-0.5c1.2-0.2,2.4-0.3,3.5-0.6c0,0.3,0,0.6-0.1,0.9c1.9-0.2,3.8-0.4,5.7-0.6
									c1.9-0.3,3.7-0.5,5.5-0.8c-0.3,0.2-0.9,0.5-1.2,0.7c-1.5,0.4-2.9,0.8-4.4,1.2c-1.5,0.3-2.9,0.6-4.2,0.9l-2.2,0.1l-2.2,0
									c-1.8,0.3-3.6,0.6-5.7,1c-2.4,0.6-4.9,1.2-7.4,1.7C190.9,328.1,187.3,328.2,183.4,328z"/>
							</g>
							<g>
								<path class="st5" d="M253.7,56.5c-2.5-0.9-6-2.8-9.9-4.7c-1.9-1-4-1.9-6.1-2.8c-1-0.4-2-0.9-3-1.3c-1-0.4-2-0.7-3-1.1
									c-0.9-0.4-1.8-0.8-2.7-1.3c-0.9-0.4-1.9-0.8-2.8-1.2c-1.9-0.8-3.8-1.6-5.9-2.3c-1.6-0.3-3.5-0.7-5.4-1.2
									c-1.9-0.4-4-0.8-6-1.2c-4.1-0.7-8-1.4-10.9-1.3c-2.5-1-7-1.4-12-1.6c-5.1-0.1-10.7,0-15.6,0.2c-1.1,0.3-2.3,0.5-3.5,0.6
									c-0.6,0.1-1.2,0.1-1.8,0.1c-0.6,0-1.2,0.1-1.8,0.1c-2.5,0.1-5.1,0.1-7.9,0.7c-1.3,0.2-2.7,0.5-4.1,0.7
									c-1.4,0.3-2.8,0.6-4.1,0.9c-2.8,0.6-5.6,1.3-8.3,2.1c-1.4,0.4-2.7,0.8-4,1.2c-1.3,0.4-2.6,0.9-3.8,1.3
									c-2.4,0.9-4.7,1.9-6.7,2.8c-2.2,0.8-4.3,1.7-6.4,2.6c4.7-2.5,1.7-2,2.3-3.1c0.8-0.4,1.6-0.7,2.4-1.1c3.6-1.4,7.1-2.9,10.8-4
									c0.3-0.1,0.8-0.3,1.4-0.5c1.4-0.5,2.8-0.9,4.2-1.3c1.4-0.4,2.9-0.7,4.4-1.1c1.5-0.3,3-0.6,4.5-0.9c1.5-0.3,3-0.6,4.4-0.7
									c2.9-0.4,5.8-0.8,8.4-1.1c2.6-0.3,5.1-0.6,7.3-0.9c1.6-0.2,3.2-0.4,4.9-0.5l4.9-0.3c2.2-0.1,4.3,0.1,6.5,0.1
									c1.1,0,2.1,0.1,3.2,0.1c1.1,0.1,2.2,0.2,3.3,0.3c1.6,0.2,3.2,0.2,4.8,0.5l4.8,0.6c1.6,0.2,3.2,0.6,4.9,0.9
									c1.6,0.4,3.3,0.7,4.8,1.1c2.3,0.6,4.5,1.1,6.7,1.8c1.3,0.6,2.3,1.1,3.6,1.7c2.1,0.4,3.8,0.9,5.5,1.3
									c3.3,1.2,6.2,2.5,9.1,3.7c2.7,1.2,6.8,3.2,9.4,3.8c1.4,0.8,2.8,1.6,4.1,2.4c1.3,0.9,2.7,1.7,4,2.6
									C253.1,55.8,253.5,56.2,253.7,56.5z"/>
							</g>
							<g>
								<path class="st8" d="M243.7,49.2c0.1,0.3,0.5,0.8,0.8,1.2C244.2,50,243.9,49.5,243.7,49.2z"/>
							</g>
							<g>
								<path class="st7" d="M89.6,64.2c0.2-0.2,0.7-0.7,1.1-1.1C90.3,63.5,89.9,64,89.6,64.2z"/>
							</g>
							<g>
								<path class="st7" d="M306.1,247.7c-0.5,0.3-0.9,0.7-1.2,0.8C305.1,248.4,305.6,248,306.1,247.7z"/>
							</g>
							<g>
								<path class="st9" d="M34.8,152c-0.2,1.7-0.3,3.2-0.5,4.7c-0.1,1.5-0.2,3-0.4,4.4c-0.3,2.8-0.5,5.4-0.7,8
									c-0.3,2.5-0.3,5-0.4,7.4c-0.1,2.4,0,4.9,0.2,7.4c0,0.9-0.1,1.8-0.1,2.8c0,1,0,1.9,0,2.8c0.1,2.4,0.2,4.8,0.4,7.1
									c-0.7-1-1.4-2-2.1-3.3c0-0.3-0.1-0.9-0.1-1.2c0-2.2-0.1-4.4,0-6.6c0.1-2.2,0.2-4.3,0.3-6.5c0.1-2.7,0.1-5.7,0.3-8.4
									c0.3-1.9,0.3-3.4,0.3-4.7c0-0.7,0-1.3,0-2c0-0.7,0.1-1.4,0.1-2.1c0.4-1.6,0.8-3.2,1.2-4.9C33.8,155.2,34.3,153.6,34.8,152z"
									/>
							</g>
							<g>
								<path class="st9" d="M62.5,267.9c1.3,1.8,1.7,2,2.5,2.7c0.4,0.3,0.8,0.7,1.5,1.5c0.7,0.7,1.7,1.8,3.2,3.4
									c0.6,0.7,1.2,1.3,1.7,2c1.3,1.6,2.4,2.9,3.7,4.5c-0.2,0.1-0.5,0.3-0.8,0.4c-1.5-1.5-2.9-2.7-4.3-4.3c-0.7-1-1.4-1.8-2.5-3.3
									c-0.6-0.7-1.3-1.6-2.1-2.7C64.6,271,63.7,269.6,62.5,267.9z"/>
							</g>
							<g>
								<path class="st9" d="M146.4,322.9c4.5,0.2,6,0.4,11.5,1.6c1.6,0,3.1,0.1,4.6,0.1c0.8,0,1.5,0,2.2,0c0.7,0,1.4-0.1,2.1-0.1
									c1.6,0.2,3.3,0.5,4.9,0.7c1.7,0.2,3.4,0.3,5,0.5c1.2-0.1,2.4-0.1,3.7-0.2l3.6-0.3c1.1,0.3,2.2,0.5,3.5,0.6
									c1.3,0.1,2.9,0,5-0.4c0.1,0.4-2.7,0.6-5.2,0.8c-2.5,0.2-4.9,0.5-3.9,1.5c-1.8,0-3.9,0.1-5.8,0c-1.4-0.4-2.9-0.7-4.3-1
									c-1.9-0.1-3.8-0.4-5.7-0.5c-0.9-0.1-1.9-0.2-2.8-0.3c-0.9-0.1-1.9-0.3-2.8-0.4c-0.9-0.1-1.8-0.2-3-0.4
									c-2.1-0.2-4.2-0.7-6.4-1.1c-1.1-0.2-2.1-0.4-3.2-0.6C148.4,323.4,147.4,323.2,146.4,322.9z"/>
							</g>
							<g>
								<path class="st9" d="M144.9,322.6c0.6,0.1,1.2,0.3,1.5,0.3C146.1,322.9,145.5,322.7,144.9,322.6z"/>
							</g>
							<g>
								<path class="st9" d="M228.8,317.1c1.3-0.6,2.3-1.3,3.4-1.9c1-0.6,2.1-1.2,3.1-1.9c2.5-0.7,4.4-1.3,6.7-2
									c-1.5,0.8-2.9,1.6-4.4,2.4c-1.5,0.8-3,1.5-4.5,2.3C231.6,316.4,230.2,316.8,228.8,317.1z"/>
							</g>
							<g>
								<path class="st9" d="M227.7,317.5c0.3-0.1,0.8-0.3,1.1-0.4C228.5,317.2,227.9,317.4,227.7,317.5z"/>
							</g>
							<g>
								<path class="st6" d="M301.1,258.6c0.3-0.5,0.6-1.1,0.6-1.4C301.7,257.5,301.4,258.1,301.1,258.6z"/>
							</g>
						</g>
					</g>
				</g>
			</g>
		</g>
	</g>
	<g>
	</g>
	<g>
	</g>
	<g>
	</g>
	<g>
	</g>
	<g>
	</g>
	<g>
	</g>
	<g>
	</g>
	<g>
	</g>
	<g>
	</g>
	<g>
	</g>
	<g>
	</g>
	<g>
	</g>
	<g>
	</g>
	<g>
	</g>
	<g>
	</g>
</g>
</svg>
