<?xml version="1.0" encoding="utf-8"?>
<!-- Generator: Adobe Illustrator 19.1.0, SVG Export Plug-In . SVG Version: 6.00 Build 0)  -->
<!DOCTYPE svg PUBLIC "-//W3C//DTD SVG 1.1//EN" "http://www.w3.org/Graphics/SVG/1.1/DTD/svg11.dtd">
<svg version="1.1" id="Layer_1" xmlns="http://www.w3.org/2000/svg" xmlns:xlink="http://www.w3.org/1999/xlink" x="0px" y="0px"
	 width="360px" height="360px" viewBox="0 0 360 360" style="enable-background:new 0 0 360 360;" xml:space="preserve">
<style type="text/css">
	.st0{opacity:0.85;}
	.st1{fill:#D1FFFF;}
	.st2{fill:#EDFFFF;}
	.st3{fill:#B8FFFF;}
	.st4{fill:#9FFFFF;}
	.st5{fill:#46FFFF;}
	.st6{fill:#8CFFFF;}
	.st7{fill:#76FFFF;}
	.st8{fill:#60FFFF;}
	.st9{fill:#FFFFFF;}
</style>
<g>
	<g>
		<g>
			<g>
				<g class="st0">
					<g class="st0">
						<g>
							<path class="st1" d="M321.6,166.5c-0.2-0.3-0.3-0.9-0.5-1.2c-0.1-1.1-0.1-2.3-0.3-3.4l-0.4-3.4c-0.8-1.5-1.5-3-2.4-4.4
								c-0.5-1.7-1-3.7-1.6-5.3c-0.4-1-0.8-2.3-1.1-3.9c-0.2-0.8-0.4-1.6-0.6-2.6c-0.2-0.9-0.5-1.9-0.8-2.9c-0.6-1.5-1-2.8-1.5-4.1
								c-0.5-1.2-1-2.3-1.4-3.4c-0.4-1-0.8-2-1.3-2.8c-0.4-0.9-0.9-1.7-1.3-2.4c-0.2,0.5-0.7,0-1.2-1c-0.3-0.5-0.6-1.2-0.9-2
								c-0.4-0.8-0.8-1.7-1.2-2.7c-0.4-1-0.9-2-1.3-3.1c-0.5-1.1-1-2.1-1.5-3.2s-1-2.1-1.6-3.1s-1.1-1.9-1.6-2.7
								c-0.6,0.2-1.2,0.3-1.7,0.5c-0.5-0.9-0.9-1.7-1.3-2.4c-0.5-0.7-1-1.4-1.5-2.1c-1-1.4-2.1-3-3.7-5.4c-1-0.8-2-1.7-2.9-2.6
								c-1-0.9-1.9-1.8-2.8-2.8c-1.8-2-3.6-3.9-5.5-6.1c-0.8-0.8-1.5-1.3-2.2-1.8c-1.4-1.6-2.7-3.3-4.2-4.9
								c-3.9-3.1-2.4-0.3-3.8-0.7c-2.6-2.6-5.2-5.3-8.2-7.9c-0.5-0.6-0.9-1.3-1.4-1.9c0.6-0.2,1.5-0.2,2.1-0.3
								c1.4,0.6,2.7,1.3,4.1,1.9c4.3,3.5,5.7,4.5,5.5,4c1.5,0.5,0.4-0.8-1.4-2.4c-0.9-0.8-2-1.8-3.1-2.7c-1.1-0.9-2.2-1.7-3-2.4
								c0-0.3-0.3-0.8-0.3-1.1l3.1,1.8c1,0.6,2.1,1.2,3,1.8c3,2.4,4.3,3,5.5,3.8c0.6,0.4,1.2,0.8,2,1.6c0.8,0.7,1.9,1.7,3.2,3.3
								c0.4,0.1,1.1,0.3,1.5,0.4c0.7,0.7,1.4,1.3,2.1,2c0.7,0.6,1.4,1.3,2.1,2.1c0.5,0.7,0.9,1.4,1.5,2c-0.5-0.1-1.2-0.3-1.9-0.6
								c-0.6-0.3-2.2-1.7-4.9-4.8c0,1.1-0.7,1.3-1.8,1c-1.1-0.3-2.5-1.1-3.9-2c0.3,0.5,0.7,1,1.1,1.4s0.9,0.9,1.3,1.3
								c1,0.9,2,1.8,3.1,3.1c0.9,0.9,1.7,1.9,2.7,2.9c0.9,1,1.9,2,2.7,3.1c0.8-0.4,1-0.5,1.2-0.6c1.5,2,3.3,4.2,4.4,6.3
								c2.8,3.2,4,5.4,5.9,7.7c1.3,0.1,2.7,3.2,3.5,4.4c4.6,5,8.7,12.4,12,22.1c-0.1,0.4,0.2,1.6,0.6,3s0.7,3.1,1,4.6
								c0.4,0.9,0.8,1.7,1.2,2.5c0.3,0.8,0.6,1.5,0.9,2c0.5,1.1,1,1.6,1.3,1c-0.2-1.1-0.3-2-0.4-2.8c-0.5-2.2-1.1-4.4-1.7-6.7
								c-0.6-2.2-1.4-4.4-2-6.6c-0.6-1.6-1.5-3.5-2.2-5.1c-0.4-0.6-0.9-1.3-1.3-1.9l-1.4-1.9c-0.4-1.6-1.3-4.2-2.6-6.8
								c-0.6-1.3-1.2-2.7-1.9-4.1c-0.7-1.3-1.4-2.6-2-3.9c-0.6-1.6-1.4-3.4-2-4.9c0.6,0.8,1.3,1.6,2,2.6c0.6,1,1.3,2,1.9,3.1
								s1.3,2.3,2,3.5c0.6,1.2,1.3,2.5,1.9,3.8c0.3,0.7,0.6,1.3,0.9,1.9c0.3,0.7,0.5,1.3,0.8,2c0.5,1.3,1.1,2.6,1.6,3.9
								c1,2.6,1.9,5.2,2.8,7.7c0.7,1.9,1.4,3.9,2.2,5.9c0.6,2,1.3,4,1.9,6c1,4.1,2.1,7.7,2.8,10.9c0.8,3.2,1.1,6,0.9,8.2
								c0.2,2.6,0.2,4.6,0.2,6.8L321.6,166.5z"/>
						</g>
						<g>
							<path class="st2" d="M314.7,139.3c-0.3-1.5-0.7-3.2-1-4.6c-0.4-1.4-0.6-2.6-0.6-3c-3.3-9.7-7.5-17.1-12-22.1
								c-0.8-1.2-2.2-4.2-3.5-4.4c-1.8-2.2-3.1-4.4-5.9-7.7c-1.2-2.2-2.9-4.3-4.4-6.3c-0.2,0.1-0.4,0.2-1.2,0.6
								c-0.8-1.1-1.8-2.1-2.7-3.1c-0.9-1-1.8-2-2.7-2.9c-1-1.3-2.1-2.2-3.1-3.1c-0.5-0.4-0.9-0.9-1.3-1.3s-0.8-0.9-1.1-1.4
								c1.4,0.8,2.8,1.7,3.9,2s1.9,0.1,1.8-1c2.8,3.1,4.4,4.5,4.9,4.8c0.7,0.3,1.4,0.5,1.9,0.6c0.9,1.1,1.8,2.1,2.6,3.2
								c0.8,1.1,1.7,2.1,2.5,3.3c0.8,1.2,1.6,2.3,2.4,3.4s1.6,2.2,2.3,3.4c0.4-0.1,1.8,2,3,3.8s2.1,3.3,1.9,1.6
								c0.6,1.2,1.3,2.5,2,3.9c0.7,1.3,1.3,2.8,1.9,4.1c1.3,2.7,2.2,5.2,2.6,6.8l1.4,1.9c0.5,0.6,0.9,1.3,1.3,1.9
								c0.7,1.6,1.6,3.5,2.2,5.1c0.7,2.2,1.4,4.4,2,6.6c0.6,2.2,1.2,4.4,1.7,6.7c0.1,0.8,0.2,1.7,0.4,2.8c-0.3,0.5-0.7,0-1.3-1
								c-0.3-0.5-0.6-1.2-0.9-2C315.5,141,315.1,140.2,314.7,139.3z"/>
						</g>
						<g>
							<path class="st3" d="M302.5,105.1c0.2,1.7-0.7,0.2-1.9-1.6c-1.2-1.8-2.6-4-3-3.8c-0.7-1.2-1.5-2.3-2.3-3.4s-1.6-2.2-2.4-3.4
								c-0.9-1.1-1.7-2.2-2.5-3.3c-0.8-1.1-1.7-2.2-2.6-3.2c-0.5-0.7-1-1.4-1.5-2c-0.7-0.7-1.4-1.4-2.1-2.1c-0.7-0.6-1.4-1.3-2.1-2
								c-0.4-0.1-1.1-0.3-1.5-0.4c-1.3-1.6-2.4-2.6-3.2-3.3c-0.8-0.7-1.4-1.2-2-1.6c-1.2-0.8-2.5-1.4-5.5-3.8c-1-0.7-2-1.2-3-1.8
								l-3.1-1.8c0,0.3,0.3,0.8,0.3,1.1c0.8,0.7,1.9,1.5,3,2.4s2.2,1.9,3.1,2.7c1.9,1.7,2.9,2.9,1.4,2.4c0.2,0.5-1.2-0.5-5.5-4
								c-1.4-0.6-2.7-1.3-4.1-1.9c-0.6,0.1-1.5,0.1-2.1,0.3c-1.7-1.1-3.4-2.2-5-3.3c-1.7-1-3.4-2-5.2-3c-0.7-0.5-1.4-0.8-2.1-1.2
								c-1.5-0.7-3.2-1.6-4.7-2.2c-0.9-1-1.8-1.9-2.7-2.9c-1.9-1.3-2.5-1.3-3.2-1.2c-0.7,0-1.3,0.1-3.3-0.7c-3.7-2-7.6-3.8-11.5-5.4
								c-0.7-0.2-1.5-0.5-2.1-0.7c-0.7-0.2-1.3-0.4-1.9-0.6c-1.2-0.4-2.3-0.8-3.3-1.2c-2-0.7-3.7-1.4-5.5-2.1
								c-1.7-0.7-3.5-1.2-5.6-1.7c-2.1-0.6-4.6-0.8-7.7-1c-1.9-0.4-3.7-0.6-5.6-0.9c-1-0.1-1.9-0.3-2.9-0.4c-1-0.1-2-0.2-3-0.2
								c-1.3,0-2.6,0-4,0.1l-4,0.3c-2.6,0.1-5.2,0.5-7.9,0.8c-1.8,0.1-3.5,0.4-5.3,0.6l-2.6,0.3c-0.9,0.1-1.8,0.3-2.6,0.4
								c0.6-0.3-0.5-0.2-1.3-0.2c-1.3,0.2-2.3,0.5-3.1,0.8c-0.9,0.3-1.7,0.7-2.6,1.1c-1,0.4-2.1,0.8-3.6,1.2c-1.5,0.5-3.3,1-5.8,1.6
								c-2.1,0.6-4.2,1.2-6.2,1.8c-2.1,0.8-4.1,1.6-6.1,2.5c-2,0.9-4,1.8-6,2.7c-2.2,1.1-4.3,2.2-6.5,3.2c-2.1,1.2-4.2,2.3-6.3,3.6
								c-0.7,0.4-1.4,0.9-2.3,1.5c-2.7,1.6-3.2,1.6-3.4,1.4c-0.2-0.2-0.1-0.7-1.5,0.1c-0.9,0.6-2,1.3-3,2.1
								c-1.1,0.8-2.1,1.6-3.1,2.4s-2,1.5-2.8,2s-1.4,0.9-1.9,0.9c-3,2.4-6.1,5.2-8.9,7.8c-1.9,2.1-3,3.5-4,4.9s-2,2.7-3.7,4.4
								c-0.9,1.1-1.7,2.1-2.5,3.1s-1.7,2-2.4,3.2c-0.5,0.7-1,1.3-1.6,2.2c-0.3,1.7-2.7,5-4,6.7c-0.8,1.3-1.5,2.7-2.3,4.1
								c-0.8,1.4-1.6,2.8-2.2,4.2c-0.5,0.1-1.4,1.8-2.4,3.7c-1,2-1.9,4.2-2.8,5.2c-0.7,1.2-1.2,2.5-1.7,3.7
								c-0.5,1.2-1.1,2.4-1.6,3.7c-0.5,1.2-1,2.5-1.4,3.7c-0.5,1.2-1,2.5-1.4,3.7c-0.4,1.7-0.6,3.5-0.9,5.1
								c-0.1,1.6-0.3,3.1-0.4,4.3c-0.3,2.5-0.5,4.1-1.3,4c-0.6,2.4-1,5-1.2,7.9c-0.1,1.4-0.3,2.9-0.5,4.4c-0.1,1.5-0.3,3.1-0.6,4.7
								c-0.1,0.7-0.1,1.3-0.2,2c0,0.7-0.1,1.3-0.1,2c-0.1,1.3-0.2,2.7-0.2,4c-0.1,2.7-0.1,5.4-0.1,8c0.2,1.3,0.4,2.6,0.6,4
								c0.2,1.4,0.4,2.8,0.7,4.2c0.3,2.5,0.6,5.3,1,7.7c0.3,1.4,0.5,2.7,0.8,4.1c0.3,1.3,0.6,2.6,0.9,3.8c0.4,1.1,0.8,2.3,1.2,3.4
								c0.4,1.2,0.8,2.3,1.1,3.3s0.5,1.9,0.6,2.6c0.1,0.7,0.1,1.1-0.2,1.2c0.3,0.8,0.5,1.6,0.8,2.4c0.7,0.5,1.2,1.9,1.7,3.2
								c0.6,1.3,1,2.6,1.4,3c0.3,0.4,0.9,1.8,1.5,3.3s1.2,3.2,1.4,4.1c0.3,0.8,0.7,1.5,1.2,2.5c0.7,1.3,1.4,2.7,2.1,4
								c0.7,1.4,1.6,2.6,2.3,4c0.8,0.6,1.6,1.8,2.5,3.1c0.8,1.3,1.6,2.6,2.1,3.6c0.6,0.9,1.2,1.8,1.9,2.7l2,2.7
								c1.3,1.8,2.7,3.5,4.1,5.2c2.5,2.9,5.2,6.1,8,8.8c1-0.2,7.1,6.2,10.2,10.3c1.3,1.1,2.8,2.3,4.1,3.3c0.7,0.3,1.3,0.7,2,1
								s1.3,0.6,2,0.9c1.5,1.1,3.6,2.6,5.4,3.8c1.9,1.2,3.4,2.4,4.1,3.1c1.4,0.8,3.1,1.8,4.5,2.6c2.2,0.8,3.3,1.3,4.2,1.9
								c0.9,0.6,1.6,1.1,3,1.7c0.3,0.1,0.8,0.3,1.3,0.6l1-1.2c3.9,0.6,6.1,2.9,9.3,4.4c1.2,0.5,1.9,0.6,2.7,0.7
								c0.2-0.4,0.9-0.3,1.8,0c0.9,0.3,2,0.8,3.3,1.3s2.7,1,4,1.4s2.7,0.6,3.8,0.5c3.7,0.8,1.5,1.9,8.4,2.6c0.3-0.1,0.8-0.2,1.4-0.2
								c0.6,0,1.3,0,2.1,0c1.6,0.1,3.7,0.4,5.9,0.6s4.5,0.6,6.8,0.7c2.3,0.2,4.4,0.4,6.3,0.4c1.8-0.5,3.8-1,5.5-1.4
								c1.9,0.1,3.6,0,5.3,0c0.8,0,1.6-0.1,2.4-0.2c0.8-0.1,1.6-0.2,2.3-0.3c1.5-0.2,3-0.5,4.4-0.8c1.4-0.4,2.8-0.8,4.2-1.2
								c5.6-1.7,11.4-3.6,19.5-6.2c1.4-0.2,2.7-0.7,4-1.2s2.6-1,3.9-1.7c2.5-1.3,5-2.4,7.5-3.3c0.6-1.9,6.5-4.7,11.8-8.2
								c0.7-0.4,1.3-0.8,2-1.3c0.6-0.4,1.3-0.9,1.9-1.3c1.2-0.9,2.3-1.7,3.3-2.5c1.8-1.6,3-2.9,2.8-3.7c4.9-4,11-9,13.8-13.2
								c2.9-1.7,3.3-2,4-2.8c1.4-2.1,0.2-1.5,0.1-2.1c0.9-0.9,1.7-1.9,2.5-2.9s1.6-1.9,2.5-2.9c-0.7,2.4,2.6-2.1,3.8-3.1
								c0.6-1.5,1.3-2.9,2.2-4.3c0.5-0.7,1-1.4,1.5-2c0.5-0.7,1-1.4,1.6-2.1c2.2-2.8,4.6-6,6.4-9.9c2.3-6.1-1-4.1,3.5-12.9
								c0.5-4.8,1-6,3.1-12.5c1.6-2.6,2.8-7.8,4.1-13.2c0.4-0.1,0.7-0.5,1.2-0.7c0.3-1.3,0.8-2.5,1.1-3.8c0.7-1.3,1.4-2.1,1.9-3.2
								c0.6-1.1,1.1-2.5,1.4-4.9c0.3,0.4,0.7,1,1,1.4c0,3-0.1,4.8,0,6.2c0,0.7,0,1.3,0,1.8c0,0.6-0.1,1.1-0.1,1.6
								c-0.7,1.5-1.5,3.2-2.2,4.6c-0.1,1.6-0.3,3.2-0.4,4.8c-0.1,0.8-0.2,1.6-0.2,2.4c-0.1,0.8-0.2,1.6-0.3,2.4
								c-0.4,1.5-0.7,3-1.1,4.5l-1.3,4.4c0,1.6,0,3.1-0.2,4.7c-0.2,0.9-0.4,1.7-0.6,2.5c-0.4,1-0.8,1.9-1.3,2.8
								c-0.4,0.9-0.9,1.8-1.3,2.7c-0.8,1.8-1.8,3.5-2.8,5.4c-0.6,0.9-1.2,1.7-1.8,2.6c-0.6,0.8-1.3,1.7-2,2.7
								c-0.2-0.2-0.4-0.4-0.8-0.7c-0.6,1-1.1,2.1-1.7,3.1s-1.2,2-1.9,3.1c-1.2,2.1-2.6,4-3.9,6c-1.1,1.7-2.4,3.3-3.5,4.9
								c-0.6,0.8-1.2,1.6-1.8,2.4c-0.6,0.8-1.3,1.5-1.9,2.3c-0.9,0.6-1.9,1.5-2.9,2.3c-0.7,1.2-1.5,2.5-2,3.6c-1,1.3-2.1,2.2-3,3
								s-1.8,1.6-2.5,2.7c1.1-0.5,0.6,0.4-1.1,2c-0.8,0.8-1.9,1.8-3.1,3c-1.3,1.1-2.7,2.4-4.2,3.7c-1.5,1.1-2.9,2-4.5,3
								c-1.7,1.7-2.4,2.4-2.7,2.9c-0.3,0.5-0.4,0.8-1,1.4c-0.9,0.7-1.8,1.4-2.7,2.1l-2.7,2c1.9-0.3-2.3,2.4-4.2,3.8
								c-1.5,0.7-2.7,1.4-3.7,2s-1.9,1.2-2.8,1.7c-0.9,0.6-1.8,1.2-2.8,1.7c-1.1,0.5-2.3,1.1-3.9,1.6c-2.5,1.4,0.4,0.9-2.1,2.1
								c-1.1,0.4-1.8,0.7-2.6,1c-0.8-0.1-1.7-0.1-2.8-0.1c-1,0.4-2.4,0.8-7.4,3.2c-0.6-0.3-1.1-0.6-1.4-1c-2.7,0.7-5.1,1.3-7.8,1.8
								c-0.8,0.3-1.6,0.6-2.7,1c-1.3,0.3-2.6,0.6-3.9,0.8l-3.9,0.7c-2.6,0.4-5.3,0.8-7.9,1c0.5-0.9-2-0.5-4.6-0.2
								c-1.3,0.2-2.6,0.2-3.5,0.2c-0.9-0.1-1.4-0.3-1.1-0.7c-0.8,0-1.7,0-2.5,0c-0.6,1.2,1.9,1.4,0.5,2.4c-0.6,0-1.3,0-1.9,0
								c-0.7,0-1.3-0.1-2-0.1c-1.3-0.1-2.6-0.2-3.9-0.2c0.1-0.4,0.3-0.8,0.4-1.3c-1.9-0.3-3-0.5-3.8-0.5c-0.7,0-1.1,0.1-1.4,0.3
								c-0.5,0.3-0.8,0.8-3.3,0.6c-2.7-0.5-5.1-1-7.8-1.7c-0.7-0.4-2.4-0.7-3.7-0.9c-2.6-0.2-1.4,0.5-1.8,0.7
								c-2.2-0.5-4.4-1-6.5-1.5c-4.7-1-2.2,0.6-5.8-0.3c-2-1.1-3.3-2-4.4-2.8c-1.1-0.8-2-1.6-3-2.6c-1.8-0.2-3.9-0.5-5.8-0.7
								c-1-0.2-2.3-0.8-3.6-1.3c-1.3-0.6-2.7-1.3-4-1.9c-0.9-1-2.6-2.4-1.3-2.6c-0.9-0.6-2.1-1.3-3.3-2c-1.5-0.4-2.9-0.9-4.1-1.2
								c-1.9-1.1-3.8-2.4-5.5-3.7c-1.6-0.9-3-2-4.5-3s-3-2-4.4-3.2c-2.9-2.5-6-5.3-8.7-8c-1.4-1.2-2.8-2.3-4.2-3.4
								c-1.3-1.2-2.6-2.4-4-3.6l-1-1l-0.9-1l-1.9-2c-0.6-0.7-1.3-1.3-1.9-2l-1.8-2.1c-3.6-4.9-6.8-10.1-9.8-15.7
								c-0.4-0.7-0.8-1.4-1.4-2.4c-0.2,0-0.4,0.1-0.6,0.2c-1.1-1.4-2-2.8-3.1-4.6c-0.6-1-1.2-2-1.7-3s-1.1-2-1.6-3
								c-1.1-2.3-2.1-4.9-3.1-7.5c-0.6-1.6-1.1-3.2-1.8-5c-0.7-2.9-1-4.6-1.4-5.9c-0.3-1.2-0.6-2-0.8-3c-1-3.3-1.3-1.9-2.1-4.1
								c-0.2-0.8-0.4-1.7-0.6-2.6c-0.2-0.9-0.3-1.8-0.5-2.6c-0.5-8.5-1.3-12.5-1.5-18.6c0-2.8-0.2-5.3-0.1-8.1
								c-0.3-1.5-0.6-3-0.9-4.2l-0.2-1.8l-0.1-1.8l-0.2-3.6c0-1.4,0.2-2.9,0.3-4.3c0.1-1.4,0.2-2.8,0.3-4.1c0.6-2.2,1.2-4.3,1.9-6.4
								c0.4-1.8,1-3.5,1.4-5.3c0.4-1.7,1-3.4,1.5-5c0.5-1,0.8-1.7,1.2-2.5c0.2-1.8,0.7-3.8,1-5.6c0.2-0.8,0.4-1.6,0.6-2.4
								c0.3-0.8,0.5-1.6,0.8-2.4c0.5-1.6,1-3.2,1.6-4.7c0.1-0.2,0.4-0.8,0.6-1.3c0.8-0.8,1.8-1.8,2.7-2.8c0.3-0.8,0.7-1.5,1.3-2.5
								c0.4-2.6-0.9-0.4-1-0.9c0.3-0.8,0.6-1.7,0.9-2.6c1-2.1,1.9-3.2,2.5-4s1.1-1.2,1.5-1.6s0.8-0.8,1.4-1.6
								c0.6-0.8,1.3-1.9,2.4-3.8c0.1-0.7,0.1-1.5,0-2c1.3-1.9,2.7-3.7,4-5.6c2.4-2.7,4.8-5.5,7.2-7.8c3.8-4.1,7.8-7.8,11.8-11.3
								c1.7-2,1-1.6-0.2-0.8c-1.2,0.8-2.7,2-2.6,1.4c1.4-2,2.1-2.8,2.2-3.1c0.1-0.3-0.2-0.1-0.6,0.2c-2.7,2.1-2.7,3.2-4.8,5.1
								c-0.3,0.1-0.7,0.5-1.1,0.8c-0.3-0.4-0.5-0.9-0.8-1.4c0.7-1.1,1.2-1.9,1.7-2.8c0.2-0.2,0.6-0.7,1-1.2c0.7-0.6,1.4-1.2,2.1-1.9
								c0.7-0.6,1.4-1.2,2.1-1.7c1.4-1.1,2.8-2.4,4.3-3.5c-0.1,0.4,0.6-0.1,1.3-0.5c2.9-1.9,3-3,5.5-4.6c1.1-0.6,2.3-1.3,3.5-1.9
								c1.2-0.6,2.5-1.3,3.8-1.9c2.5-1.4,4.1-2.4,5.5-3.5c0.7-0.5,1.4-1.1,2.3-1.7c0.8-0.5,1.8-1.1,3-1.6c1.3-0.6,2.3-1.2,3.7-1.8
								c2.1-0.9,4.3-1.8,6.4-2.6c2-0.9,4.3-1.9,6.7-2.8c1.2-0.4,2.5-0.9,3.8-1.3c1.3-0.4,2.6-0.9,4-1.2c2.7-0.8,5.5-1.5,8.3-2.1
								c1.4-0.3,2.8-0.6,4.1-0.9c1.4-0.2,2.7-0.5,4.1-0.7c2.7-0.6,5.4-0.5,7.9-0.7c0.6,0,1.2-0.1,1.8-0.1s1.2,0,1.8-0.1
								c1.2-0.1,2.3-0.3,3.5-0.6c4.9-0.2,10.5-0.3,15.6-0.2c5.1,0.2,9.5,0.7,12,1.6c2.9,0,6.8,0.6,10.9,1.3c2,0.4,4.1,0.8,6,1.2
								s3.8,0.9,5.4,1.2c2.1,0.7,4,1.5,5.9,2.3c0.9,0.4,1.9,0.8,2.8,1.2c0.9,0.4,1.8,0.9,2.7,1.3c1,0.4,2,0.7,3,1.1
								c1,0.4,2,0.9,3,1.3c2,0.9,4.1,1.8,6.1,2.8c3.9,1.8,7.4,3.8,9.9,4.7c1.3,0.9,2.6,1.9,3.9,2.9c0.7,0.5,1.3,1,2,1.5
								c0.6,0.5,1.2,1,1.9,1.5c1.2,0.8,2.4,1.7,3.6,2.6c1.1,0.9,2.2,1.6,3.1,2.2c0.8,0.7,1.6,1.4,2.4,2c0.8,0.7,1.5,1.4,2.2,2
								c1.4,1.3,2.7,2.4,3.6,3.5c2,2.1,3.2,3.7,2.9,4.5c0.6,0.6,1.3,1.2,2.2,2c1.2,1.3,2.6,2.7,3.7,4c0.2,0.2,0.6,0.7,0.9,1.1
								l2.5,2.5c0.8,0.8,1.6,1.7,2.4,2.6c0.7,0.9,1.6,2,2.5,3.2c0.9,1.1,1.8,2.3,2.5,3.2c1.2,1.6,2.2,3.1,3.4,4.7
								C301.1,101.8,301.9,103.5,302.5,105.1z"/>
						</g>
						<g>
							<path class="st1" d="M228,55.6c-0.8-0.3-1.6-0.5-2.4-0.8c-0.8-0.3-1.7-0.5-2.4-0.7c-1.2-0.5-2.4-0.9-3.6-1.3
								c-1.2-0.4-2.4-0.8-3.6-1.2c-1.3-0.4-2.5-0.8-3.6-1c-4.4-1.5-8.7-2.7-13.4-3.8c-0.5-0.1-0.8-0.1-1.3-0.2l-3.2-0.3
								c-1.1-0.1-2.2-0.1-3.2-0.1l-3.2-0.1c-1.1,0-2.2,0-3.2,0c-1.6,0-3.5-0.2-5.1-0.1c-0.7-0.5-1.4-1-2.3-1.5l-3.2,0.1l-3.2,0.2
								l-3.2,0.2c-1.1,0.1-2.1,0.2-3.2,0.2c-0.9,0.5-1.7,0.9-2.5,1.4c-2,0.3-4.6,0.7-6.8,1.1c-2.2,0.4-4.1,1-4.8,1.5
								c-0.9,0.6-0.1,0.7,1.3,0.5c1.4-0.2,3.4-0.6,5-0.9c4.7-1.1,4.4-0.3,6.2-0.1c-1.6,0.5-3.2,1.1-5,1.7c-0.7,0.1-1.6,0.2-2.5,0.4
								s-2,0.4-3,0.7c-1.1,0.3-2.2,0.5-3.3,0.8s-2.1,0.6-3.1,0.9c-4,1-6.7,1.9-5.2,0.3c-2.4,0.8-4.8,1.6-7.3,2.6
								c-1.2,0.5-2.6,0.9-3.9,1.4c-1.3,0.5-2.7,1.1-4.2,1.7c0.3,0.3,0.9,0.4,1.2,0.7c1.1-0.3,3.4-1.4,5.3-2c1.8-0.6,3.1-0.9,1.9,0.1
								c-4.6,1.7-9.1,3.9-13.5,6.1c-1.2,0.5-2.3,1.1-3.5,1.6c-1.1,0.5-2.3,1-3.3,1.5c0.7-1-1.5,0.2-2.6,0.2l-2.6,1.9l-2.5,2
								c-0.8,0.7-1.7,1.3-2.5,2l-2.4,2.1c-2.6,2.9-1.8,2.8-4.1,5.5l-1.9,1.4l-1.6,1.4c-1,1-2.1,1.9-3.1,2.9
								c-5.5,4.6-1.1-1.3-2.4-1.5c-0.6,0.5-1.3,0.9-2.1,1.5c-4.4,5.1-8.7,10.6-12.4,16.5c-0.5,1.2-1.3,2.7-2.4,4.3
								c-1.1,1.6-2.1,3.5-3.2,5.2c-0.5,0.9-1,1.7-1.4,2.5s-0.8,1.6-1.1,2.3c-0.6,1.4-0.9,2.4-0.7,2.9c-1,2-2.1,4.3-3,6.6
								c-0.9,2.3-1.7,4.5-2,6.2c0,3,0.8,1.9,1.6,0c0.9-1.9,2-4.5,2.5-4.6c0,1.2-0.5,2.7-1,4.1c-0.5,1.4-0.8,2.7-0.7,3.5
								c-0.3,1.2-0.8,2.6-1.2,4s-0.8,3-1.2,4.5c-0.4,1.6-0.7,3.2-1,4.8c-0.4,1.6-0.6,3.2-0.8,4.7c-0.1,0.5-0.1,0.7-0.2,1.2
								c-0.1,0.8-0.3,1.5-0.4,2.5c-0.1,1.6-0.1,3.2-0.2,4.9c-0.1,1.6,0,3.3-0.1,5c0,1.3,0,2.3,0,3.6c-0.3,2-0.6,3.9-0.8,5.9
								c0.4,3,0.3,5.8,0.4,8.6c0.1,1.4,0,2.8,0.1,4.2s0.2,2.8,0.3,4.2c-0.7-0.6-1.5-2.6-2.1-5.3c-0.5-2.7-0.9-6.2-0.7-9.5
								c-1.3,0-0.3-9.1-0.5-12.6c-0.5-0.5-0.9,0.2-1.2,1.4c-0.2,0.6-0.4,1.4-0.5,2.2s-0.3,1.7-0.4,2.6c-0.6,3.5-0.9,6.9-2.1,5.5
								c-0.4-1.4-0.6-3.1-0.7-4.7c-0.1-1.7-0.2-3.3-0.2-4.7c0-2.9-0.1-4.8-0.9-4.1c0.3-6.3,1.9-8.3,2.8-15.4l-1-0.5
								c-1.6,7.6-2.7,15.3-3.1,22.4c-0.1,1.8-0.2,3.5-0.2,5.3c0,1.7,0.1,3.4,0.1,5s0.2,3.2,0.3,4.7c0.2,1.5,0.3,3,0.5,4.4
								c0.3-1.7,0.6-1.7,0.8-0.9s0.5,2.4,0.8,4c0.5,3.2,1.2,6.2,1.4,2.3c-0.3-2.9-0.6-5.8-0.8-9.1c0.3,0.9,0.5,1.8,0.7,2.6
								s0.4,1.6,0.5,2.4c0.3,1.5,0.4,2.9,0.4,4.2c0.6,1.6,1.3,3.5,1.9,5.1c0.4,1.4,0.8,2.6,1.1,3.8c0.4,1.2,0.7,2.3,1,3.4
								c0.3,1.1,0.7,2.3,1.1,3.5c0.4,1.2,0.8,2.6,1.4,4.1c0.4-0.2,1,0.7,1.6,2.2c0.3,0.7,0.6,1.6,0.9,2.5c0.4,0.9,0.7,1.8,1.1,2.7
								c1.4,3.5,2.8,6.2,2.7,2.9c0.3-1.1,0.9,0.2,1.6,2c0.4,0.9,0.8,2,1.2,3.1c0.5,1,0.9,2,1.4,2.8c-0.3,1.1,3.1,6.5,5,9.8
								c1.2,0.9,3.4,4.1,3.3,2.5c-1.6-2.4-1.5-2.7-1.4-3.1c0-0.2,0-0.4-0.2-0.9s-0.7-1.2-1.4-2.5c0.6,0.5,0.7-0.3,1-0.5
								s0.8,0.3,2.4,3.3c0.1-0.9,0.6-0.8,1.4-0.2c0.8,0.7,1.8,2,3,3.4c2.3,2.9,5.2,6.2,6.7,7.1c2.9,2,7.5,7.4,12.2,11.7
								c1.4,0.7,3,1.6,4.8,2.8c0.9,0.6,1.9,1.2,2.9,1.9c1,0.7,2,1.4,3.2,2.1c4.4,2.9,9.5,5.9,14.6,8.3l0.7-0.8
								c0.2,0.1,0.6,0.3,0.8,0.4c1.2,0.9,2.3,1.6,3.3,2.2c1,0.5,1.8,1,2.5,1.4c1.2-0.1,2.2-0.2,3.2-0.4c1.4,0,2.5,0,3.9-0.1
								c0.6,0.2,1.2,0.5,1.8,0.7s1.2,0.4,1.9,0.7c1.3,0.4,2.5,0.9,3.7,1.3c2.1,1.4,0.7,1.6-1.4,1.4c-2.2-0.3-5.2-0.9-6.6-1
								c-1.9-0.6-3.8-1-5.6-1.7c-1.3-0.2-2.6-0.4-3.7-0.5c-1.2-0.2-3.4-1.4-5.3-2.3c-1.8-0.9-3.2-1.6-2.9-0.6
								c-1.2-0.8-2.2-1.3-3.1-1.7c-0.8-0.5-1.5-0.8-2.2-1c-1.2-0.5-2.3-0.7-3.6-1.3c-1.1-0.3-0.7,0.4,0.3,1.3s2.6,2.1,3.7,2.9
								c2.4,1.1,4.3,2.1,5.7,3.1c1.5,0.9,2.7,1.7,3.8,2.5c1.1,0.8,2.2,1.5,3.5,2c1.3,0.6,2.9,1.2,5,1.5c2.8,1.6,7,3.2,10.9,4.4
								c1,0.3,1.9,0.6,2.9,0.9c0.9,0.3,1.8,0.6,2.6,0.8c1.6,0.5,2.9,1,3.7,1.5c2.7,1.2,4.9,1.7,5.3,2.6c1.3,0.2,2.6,0.2,4.1,0.3
								c1.4,0,2.9,0.1,4.4,0.1s3.1,0,4.8,0.1s3.4,0.2,5.2,0.5c1.6,0.2,2.1,0.8,3.3,1.1c0.6,0.2,1.4,0.4,2.5,0.5s2.7,0.2,4.8-0.1
								c0.8-0.5,1.7-1,2.5-1.5c1.4-0.2,2.7-0.3,3.8-0.4s2-0.1,2.7,0c1.3,0.1,1.4,0.5-0.6,1.1c-1.5,0.2-3.8,0.3-6.2,0.9
								c1.2,0.2,2.5,0.4,3.7,0.5c1.9-0.1,3.7-0.3,5.6-0.7c1.8-0.4,3.7-0.9,5.5-1.4c1.8-0.6,3.6-1.2,5.4-1.8c1.8-0.6,3.5-1.2,5.3-1.7
								c0.3,0.8,3.5,0.3,8.5-1.4c0.7-0.5,1.6-1,2.7-1.5c1-0.5,2.2-1,3.3-1.5c2.2-1,4.4-1.7,5.5-1.8c3.7-2.1,7.2-4.4,10.7-6.8
								c1.2-1.2,0.6-1.4,0.7-1.9c6-3.6,12.2-8.8,17.7-14c1.3-1.3,2.7-2.5,3.9-3.8c1.2-1.3,2.5-2.4,3.6-3.5c2.2-2.3,4.5-4.2,6.3-5.7
								c1.8-2.2,1.2-2.3,0.9-2.5c-0.4-0.2-0.4-0.5,1.9-3.5c2.4-3.1,2.7-2.3,3.4-2.1c0.3,0.1,0.7,0,1.5-0.9c0.4-0.4,0.9-1.1,1.5-1.9
								c0.3-0.4,0.6-1,1-1.5c0.3-0.6,0.7-1.3,1.1-2.1c-0.7-0.6-0.8-0.8-1-0.9c0.6-1,1.4-2.4,2.1-3.7s1.4-2.4,1.8-2.5
								c1-2,1.3-3.2,1.5-3.9c0.1-0.8,0-1.1-0.1-1.5s-0.1-0.7,0.1-1.5c0.1-0.4,0.3-0.9,0.6-1.5c0.3-0.7,0.7-1.5,1.2-2.5
								c0.1-1.5,0.2-2.6,0.6-5.2c0.5-1.6,1.1-3.1,1.5-4.7c0.4-1.6,0.8-3.1,1.2-4.6c0.3,0.5,0.6,1.1,0.9,1.6c0.8-1.3,1.5-2.9,2.2-4.2
								c0.2-0.9,0.5-1.9,0.7-3s0.4-2.3,0.6-3.4c0.4-2.2,0.8-4,1.2-4.3c0.9-1,1.8-2,2.7-2.8c0.7-2.2,1.1-3.9,1.7-5.9
								c0.4-1.2,1-2.4,1.3-3.7c0.1-1.6,0.1-3.5,0.2-5.1c0.1,0,0.2,0,0.2,0.1c0.3,0.4,0.7,1,1,1.6c0.5,1.8,0.7-2.8,1.1-2.4
								c0.6,1.5,1.2,3.1,1.8,4.6c-0.6,2.2-1.1,3.5-1.6,4.7c-0.4,1.2-0.8,2.1-1.3,3.6c-0.2-0.1-0.3-0.1-0.4-0.2
								c-0.3,1.3-0.8,2.5-1.1,3.8c-0.4,0.1-0.8,0.5-1.2,0.7c-1.3,5.3-2.4,10.5-4.1,13.2c-2.1,6.5-2.6,7.6-3.1,12.5
								c-4.4,8.8-1.1,6.7-3.5,12.9c-1.8,3.9-4.1,7.1-6.4,9.9c-0.5,0.7-1.1,1.4-1.6,2.1c-0.5,0.7-1,1.4-1.5,2
								c-0.9,1.4-1.6,2.8-2.2,4.3c-1.2,1-4.5,5.5-3.8,3.1c-0.8,1-1.7,1.9-2.5,2.9c-0.8,0.9-1.6,1.9-2.5,2.9c0.1,0.6,1.3,0-0.1,2.1
								c-0.7,0.8-1.1,1.2-4,2.8c-2.8,4.2-8.9,9.2-13.8,13.2c0.1,0.8-1,2.1-2.8,3.7c-0.9,0.8-2.1,1.6-3.3,2.5
								c-0.6,0.4-1.2,0.9-1.9,1.3s-1.3,0.8-2,1.3c-5.3,3.5-11.2,6.3-11.8,8.2c-2.5,0.9-5,2.1-7.5,3.3c-1.3,0.6-2.6,1.1-3.9,1.7
								c-1.3,0.5-2.6,1-4,1.2c-8.1,2.5-13.9,4.5-19.5,6.2c-1.4,0.4-2.8,0.8-4.2,1.2c-1.4,0.3-2.9,0.6-4.4,0.8
								c-0.8,0.1-1.5,0.2-2.3,0.3c-0.8,0.1-1.6,0.1-2.4,0.2c-1.7,0.1-3.4,0.2-5.3,0c-1.7,0.4-3.7,0.9-5.5,1.4
								c-1.8-0.1-4-0.3-6.3-0.4c-2.3-0.2-4.6-0.5-6.8-0.7s-4.2-0.6-5.9-0.6c-0.8-0.1-1.5,0-2.1,0s-1.1,0.1-1.4,0.2
								c-7-0.7-4.7-1.8-8.4-2.6c-1.1,0.1-2.4-0.1-3.8-0.5c-1.3-0.4-2.7-0.9-4-1.4s-2.4-1-3.3-1.3c-0.9-0.3-1.5-0.3-1.8,0
								c-0.8-0.1-1.5-0.2-2.7-0.7c-3.2-1.4-5.4-3.8-9.3-4.4l-1,1.2c-0.5-0.2-1-0.5-1.3-0.6c-1.4-0.6-2.1-1.2-3-1.7
								c-0.9-0.6-2-1.1-4.2-1.9c-1.4-0.8-3.1-1.8-4.5-2.6c-0.6-0.7-2.2-1.8-4.1-3.1c-1.9-1.2-3.9-2.6-5.4-3.8
								c-0.7-0.3-1.3-0.6-2-0.9s-1.3-0.7-2-1c-1.3-1-2.8-2.2-4.1-3.3c-3.1-4-9.2-10.5-10.2-10.3c-2.8-2.7-5.5-5.8-8-8.8
								c-1.4-1.7-2.8-3.4-4.1-5.2l-2-2.7c-0.7-0.9-1.3-1.8-1.9-2.7c-0.5-1-1.3-2.3-2.1-3.6c-0.8-1.3-1.6-2.5-2.5-3.1
								c-0.8-1.3-1.6-2.6-2.3-4s-1.4-2.7-2.1-4c-0.5-1-0.8-1.8-1.2-2.5c-0.1-0.9-0.7-2.6-1.4-4.1c-0.6-1.5-1.2-2.9-1.5-3.3
								c-0.4-0.4-0.9-1.6-1.4-3c-0.5-1.3-1.1-2.7-1.7-3.2c-0.3-0.8-0.5-1.6-0.8-2.4c0.2-0.1,0.3-0.5,0.2-1.2s-0.3-1.6-0.6-2.6
								s-0.7-2.2-1.1-3.3c-0.4-1.2-0.8-2.3-1.2-3.4c-0.3-1.2-0.6-2.5-0.9-3.8c-0.3-1.3-0.5-2.7-0.8-4.1c-0.5-2.4-0.7-5.2-1-7.7
								c-0.3-1.4-0.5-2.8-0.7-4.2s-0.4-2.7-0.6-4c0.1-2.6,0-5.3,0.1-8c0.1-1.3,0.2-2.7,0.2-4c0-0.7,0.1-1.3,0.1-2
								c0.1-0.7,0.1-1.3,0.2-2c0.3-1.6,0.4-3.2,0.6-4.7c0.2-1.5,0.4-3,0.5-4.4c0.2-2.9,0.7-5.5,1.2-7.9c0.8,0.1,1-1.5,1.3-4
								c0.1-1.2,0.2-2.7,0.4-4.3s0.5-3.3,0.9-5.1c0.4-1.3,0.9-2.5,1.4-3.7s1-2.5,1.4-3.7c0.5-1.2,1.1-2.4,1.6-3.7
								c0.6-1.2,1.1-2.5,1.7-3.7c0.9-1,1.9-3.2,2.8-5.2c1-1.9,1.9-3.6,2.4-3.7c0.7-1.4,1.4-2.8,2.2-4.2c0.8-1.4,1.5-2.8,2.3-4.1
								c1.3-1.7,3.7-5,4-6.7c0.6-0.9,1.1-1.6,1.6-2.2c0.8-1.1,1.6-2.1,2.4-3.2c0.8-1,1.6-2.1,2.5-3.1c1.7-1.8,2.7-3,3.7-4.4
								s2.1-2.8,4-4.9c2.8-2.6,5.9-5.4,8.9-7.8c0.4,0,1.1-0.4,1.9-0.9s1.8-1.2,2.8-2s2.1-1.7,3.1-2.4c1.1-0.8,2.1-1.5,3-2.1
								c1.4-0.8,1.3-0.3,1.5-0.1c0.2,0.2,0.7,0.2,3.4-1.4c0.9-0.6,1.6-1,2.3-1.5c2.1-1.3,4.2-2.4,6.3-3.6c2.1-1.1,4.2-2.2,6.5-3.2
								c2-0.9,4-1.9,6-2.7c2-0.8,4-1.7,6.1-2.5c2.1-0.6,4.1-1.2,6.2-1.8c2.5-0.6,4.4-1.1,5.8-1.6c1.5-0.4,2.6-0.8,3.6-1.2
								s1.8-0.7,2.6-1.1c0.9-0.3,1.9-0.6,3.1-0.8c0.8,0,1.9-0.1,1.3,0.2c0.9-0.1,1.7-0.3,2.6-0.4l2.6-0.3c1.8-0.2,3.5-0.5,5.3-0.6
								c2.6-0.3,5.2-0.7,7.9-0.8l4-0.3c1.3-0.1,2.6-0.1,4-0.1c1,0.1,2,0.2,3,0.2c1,0.1,1.9,0.3,2.9,0.4c1.9,0.3,3.8,0.5,5.6,0.9
								c3.1,0.2,5.6,0.5,7.7,1c2.1,0.5,3.9,1,5.6,1.7c1.7,0.7,3.4,1.3,5.5,2.1c1,0.4,2.1,0.8,3.3,1.2c0.6,0.2,1.3,0.4,1.9,0.6
								c0.7,0.2,1.4,0.4,2.1,0.7c3.9,1.6,7.8,3.4,11.5,5.4c-0.1,0.1-0.1,0.1-0.1,0.2C231.8,56,229.8,55.8,228,55.6z"/>
						</g>
						<g>
							<path class="st4" d="M82,72.1c-0.4,0.5-0.8,1-1,1.2c-0.5,0.9-1,1.7-1.7,2.8c0.3,0.5,0.5,0.9,0.8,1.4c0.4-0.3,0.9-0.7,1.1-0.8
								c2.1-1.9,2.1-3,4.8-5.1c0.4-0.2,0.7-0.4,0.6-0.2c-0.1,0.3-0.7,1.1-2.2,3.1c-0.1,0.7,1.4-0.5,2.6-1.4c1.2-0.8,2-1.2,0.2,0.8
								c-4,3.5-8,7.2-11.8,11.3c-2.4,2.3-4.8,5.1-7.2,7.8c-1.3,1.8-2.7,3.7-4,5.6c0.1,0.5,0,1.3,0,2c-1.1,1.9-1.8,3-2.4,3.8
								c-0.6,0.8-1,1.2-1.4,1.6s-0.9,0.8-1.5,1.6c-0.6,0.8-1.5,2-2.5,4c-0.3,0.9-0.6,1.7-0.9,2.6c0.1,0.5,1.4-1.7,1,0.9
								c-0.5,1-0.9,1.7-1.3,2.5c-1,1.3-2.2,2.8-3.3,4c-0.6,1.5-1,3.1-1.6,4.7c-0.3,0.8-0.5,1.6-0.8,2.4c-0.2,0.8-0.4,1.6-0.6,2.4
								c-0.3,1.8-0.8,3.8-1,5.6c-0.4,0.8-0.7,1.5-1.2,2.5c-0.5,1.6-1.1,3.3-1.5,5c-0.5,1.7-1,3.5-1.4,5.3c-0.6,2.1-1.3,4.3-1.9,6.4
								c-0.1,1.3-0.2,2.7-0.3,4.1c-0.1,1.4-0.3,2.8-0.3,4.3l0.2,3.6l0.1,1.8l0.2,1.8c0.3,1.2,0.6,2.7,0.9,4.2
								c-0.1,2.8,0.1,5.3,0.1,8.1c0.2,6.1,1,10.1,1.5,18.6c0.1,0.8,0.3,1.7,0.5,2.6c0.2,0.9,0.4,1.8,0.6,2.6c0.8,2.2,1,0.9,2.1,4.1
								c0.2,1.1,0.5,1.8,0.8,3s0.7,2.9,1.4,5.9c0.6,1.9,1.1,3.5,1.8,5c1,2.6,2,5.3,3.1,7.5c0.5,1,1.1,2,1.6,3s1.2,2,1.7,3
								c1.1,1.7,2,3.2,3.1,4.6c0.2-0.1,0.4-0.1,0.6-0.2c0.6,1,1,1.7,1.4,2.4c3.1,5.6,6.2,10.8,9.8,15.7l1.8,2.1
								c0.6,0.7,1.2,1.4,1.9,2l1.9,2l0.9,1l1,1c1.4,1.2,2.7,2.4,4,3.6c1.4,1.1,2.7,2.3,4.2,3.4c2.7,2.7,5.8,5.5,8.7,8
								c1.4,1.1,2.9,2.1,4.4,3.2c1.5,1,3,2.1,4.5,3c1.7,1.4,3.5,2.6,5.5,3.7c1.2,0.3,2.7,0.7,4.1,1.2c1.2,0.7,2.4,1.4,3.3,2
								c-1.3,0.2,0.4,1.6,1.3,2.6c1.3,0.6,2.7,1.3,4,1.9s2.5,1.2,3.6,1.3c1.9,0.2,4,0.5,5.8,0.7c0.5,0.2,0.8,0.3,1.3,0.5
								c0.5,0.7,0.9,1.5,1.4,2.3c1,0.5,3.1,1.7,4.8,2.7c3.6,0.9,1.1-0.7,5.8,0.3c2.2,0.5,4.4,1.1,6.5,1.5c0.4-0.3-0.7-1,1.8-0.7
								c1.4,0.3,3,0.5,3.7,0.9c2.7,0.7,5.1,1.2,7.8,1.7c2.5,0.2,2.8-0.3,3.3-0.6c0.3-0.2,0.6-0.3,1.4-0.3c0.7,0,1.9,0.2,3.8,0.5
								c-0.1,0.4-0.3,0.9-0.4,1.3c1.3,0.1,2.6,0.2,3.9,0.2c0.7,0,1.3,0.1,2,0.1s1.3,0,1.9,0c1.3-1-1.1-1.1-0.5-2.4
								c0.8,0,1.7,0,2.5,0c-0.3,0.5,0.2,0.7,1.1,0.7c0.9,0.1,2.2,0,3.5-0.2c2.6-0.3,5.2-0.6,4.6,0.2c2.6-0.3,5.3-0.7,7.9-1l3.9-0.7
								c1.3-0.2,2.6-0.5,3.9-0.8c1.1-0.4,1.9-0.7,2.7-1c2.7-0.5,5.1-1.2,7.8-1.8c1.2-0.2,2.2-0.4,2.9-0.6c0.8-0.2,1.3-0.3,1.8-0.4
								c0.9-0.2,1.3-0.3,1.7-0.3c1.3-0.5,2.1-0.8,2.6-1s0.7-0.1,0.9-0.1c0.3,0.2,0.3,0.5,1.6,0.3c0.8-0.3,1.6-0.6,2.6-1
								c2.6-1.2-0.4-0.7,2.1-2.1c1.6-0.6,2.8-1.1,3.9-1.6c1-0.6,1.9-1.2,2.8-1.7c0.9-0.6,1.8-1.1,2.8-1.7s2.2-1.3,3.7-2
								c1.9-1.3,6.1-4.1,4.2-3.8l2.7-2c0.9-0.7,1.8-1.4,2.7-2.1c0.6-0.6,0.7-0.9,1-1.4s1-1.2,2.7-2.9c1.6-1.1,3-1.9,4.5-3
								c1.5-1.4,2.9-2.6,4.2-3.7c1.2-1.2,2.3-2.2,3.1-3c1.6-1.6,2.2-2.4,1.1-2c0.7-1.1,1.5-1.9,2.5-2.7c0.9-0.8,2-1.7,3-3
								c0.6-1,1.3-2.3,2-3.6c1.1-0.8,2.1-1.6,2.9-2.3c0.7-0.8,1.3-1.6,1.9-2.3c0.6-0.8,1.2-1.6,1.8-2.4c1.2-1.6,2.4-3.1,3.5-4.9
								c1.3-1.9,2.7-3.9,3.9-6c0.6-1,1.2-2,1.9-3.1c0.6-1,1.1-2.1,1.7-3.1c0.4,0.3,0.6,0.5,0.8,0.7c0.7-1,1.4-1.8,2-2.7
								c0.6-0.8,1.2-1.7,1.8-2.6c0.2,0.5,0.3,1.3,0.6,1.9c-0.8,1.8-1.6,3.4-2.4,5.2c-2,4.4-4.6,8.9-7.1,13.1l0.3,0.3
								c-1.2,1.8-2.5,3.4-3.7,5c-1.2,1.7-2.6,3.2-3.9,4.8c0.1,0.6,0,1.4,0.1,1.9c-1,1-2,2-2.9,3c-1,1-1.9,2-2.8,2.8
								c-1.7,2-0.2,1.2-0.4,2c-0.6,0.6-1.2,1.2-2,2.1c-0.8,0.8-1.9,1.8-2.9,2.8c-0.1-0.2-0.2-0.3-0.2-0.4c-0.2-0.4-0.4-0.8-0.7-1.2
								c0.6-0.6,1.2-1.3,1.9-2c0.6-0.7,1.2-1.4,1.8-2.1c-0.9,0.1-1.8,0.2-2.7,0.3c-6.7,7.8-12.9,12.4-14.4,15c-1.8,1.4-3.8,3-6,4.5
								c-1.1,0.7-2.2,1.4-3.3,2.1c-0.5,0.3-1.1,0.7-1.6,1s-1.1,0.6-1.6,0.9c-4.2,2.5-8.1,4.5-9.6,5.9c3.8-1.7,5.2-2.4,6.2-2.9
								c2,0-1.3,2.6-8.2,5.5c1.8,0.2-1.3,2.2-1,2.5c-1.6,0.5-2.8,0.9-3.8,1.3s-1.9,0.8-2.7,1.3c-0.8,0.4-1.7,0.9-2.7,1.4
								c-1,0.4-2.3,0.9-3.9,1.4c0,0.4,0,0.7,0.1,1.1c-0.8,0.4-1.7,0.9-2.8,1.3c-1.2,0.3-2.4,0.6-3.7,1c-1.2,0.3-2.5,0.7-3.7,0.9
								c-1.3,0.3-2.5,0.5-3.8,0.8c-0.6,0.1-1.2,0.3-1.9,0.4c-0.6,0.1-1.2,0.2-1.9,0.3c-1.7,0.3-3.3,0.6-5,0.9
								c-1.7,0.2-3.3,0.4-5,0.6l-2.5,0.3c-0.8,0.1-1.7,0.1-2.5,0.2c-1.7,0.1-3.3,0.2-5,0.3c-2.5,0-5-0.1-7.6-0.1
								c-2.5-0.2-5.1-0.3-7.6-0.5c-2.3-0.3-4.6-0.6-6.9-1c-5.9-1.2-7.8-1.2-9.1-1.1s-1.9,0.4-5.2-0.3c-2.5-0.7-5-1.4-7.4-2.1
								c-2.4-0.8-4.8-1.6-7.3-2.5c-2.3-0.9-4.3-1.7-6.2-2.4c-1.8-0.8-3.4-1.4-4.7-2c-1.3-0.5-2.3-1.1-3-1.5s-1.1-0.8-1.2-1.1
								c-0.9-0.2-2-0.5-3-0.9s-2-0.9-3-1.4c-1.9-1-3.6-1.8-4.5-2.1c-9.3-4.6-17.3-10.8-26.4-18.4c-1.7-1.4-3.4-3.1-5.2-4.7
								c-1.8-1.6-3.4-3.4-5.1-5c-0.8-0.9-1.7-2-2.7-3.1c-0.3-0.8-0.6-1.6-1.1-2.6c-1.6-2.1-2.6-3.4-3.5-4.3c-0.8-0.9-1.4-1.4-1.9-2
								c-1.3-1.6-2.8-3.6-4.2-5.8c-0.7-1.1-1.5-2.3-2.2-3.5c-0.4-0.6-0.8-1.2-1.1-1.8c-0.4-0.6-0.7-1.3-1.1-1.9
								c-0.7-1.3-1.4-2.6-2.2-3.8c-0.7-1.3-1.3-2.6-2-3.9c-1.3-2.5-2.4-5.1-3.4-7.4c-0.3-0.2-0.8-0.7-1.2-1.2
								c-0.7-2.2-1.3-4.1-2.1-6.6s-1.8-5.3-2.5-7.8c-1.2-2.8-2.5-5.6-3.5-8.3c-0.6-2.3-1.2-4.6-1.6-6.9c0.2-0.6,0.4-0.8,0.6-1.4
								c-0.9-2.9-1.3-5.6-1.6-8s-0.3-4.7-0.4-7c0-1.1-0.1-2.2,0-3.4c0-1.1,0-2.3,0-3.5s-0.1-2.4-0.1-3.7s0-2.6-0.1-4.1
								c0.3,1,0.6-0.2,0.7-1.9c0.1-1.7,0.3-3.9,0.2-5c0.2-1.4,0.3-2.6,0.5-4c0.7-0.6,1.3-1.3,2.1-2.2c0.2-1.2,0.4-2.4,0.6-3.6
								c0.2-1.2,0.5-2.4,0.8-3.7c0.3-1.2,0.5-2.4,0.8-3.7c0.3-1.2,0.6-2.4,0.9-3.6c0.7-3.4,1.6-6.5,2.4-9.5c0.2-1.7,0.4-3.5,0.7-5.2
								c0.2-1.8,0.5-3.6,0.8-5.3c-0.8,1.2-1.6,2.3-2.3,3.6c1.1-4.8,2.5-8.1,3.9-11c0.6-1,1.2-2.3,1.9-3.6c0.9-2.2,1.8-4.5,2.8-6.7
								c0.9-1.2,1.7-2.3,2.4-3.3l1.1-2.1l1.2-2l2.4-4l2.6-3.9c0.4-0.6,0.9-1.3,1.3-1.9l1.4-1.9c1.1-1.1,2.3-2.2,3.4-3.3l3.6-3.1
								c1.4-1.7,3-3.2,4.4-4.7C78.9,75.1,80.4,73.6,82,72.1z"/>
						</g>
						<g>
							<path class="st2" d="M60.5,116.9c2.8-3.7,3-3,2.3-1.4s-2.1,4.2-2.6,4.3C60.3,118.8,60.4,117.9,60.5,116.9z"/>
						</g>
						<g>
							<path class="st3" d="M319,163.5c0-1.5-0.3-3.1-0.4-4.8c-0.2-1.6-0.3-3.2-0.6-4.8c0.9,1.5,1.6,2.9,2.4,4.4l0.4,3.4
								c0.1,1.1,0.2,2.3,0.3,3.4c-0.3,1.1-0.5,2.4-0.8,3.8C319.9,167.3,319.4,165.2,319,163.5z"/>
						</g>
						<g>
							<path class="st3" d="M275.6,85.5c-0.3,0-1-0.5-2-1.3s-2.2-1.7-3.4-2.6c-1.4-1-3-2-4.4-2.9c-1.1-1.1-2.3-2.4-3.5-3.5
								c-1.4-0.9-2.9-2-4.3-2.9c-0.6-0.8-1.1-1.4-1.5-2.1c1.2,0.6,2.5,1.3,3.5,1.8c0.5,0.2,1.1,0.5,1.4,0.5c3,2.6,5.6,5.2,8.2,7.9
								c1.4,0.3-0.1-2.5,3.8,0.7c1.5,1.6,2.8,3.2,4.2,4.9C276.9,86,276.3,85.8,275.6,85.5z"/>
						</g>
						<g>
							<path class="st3" d="M239.8,64.4c-0.9-0.7-2-1.3-3.2-1.9s-2.4-1.1-3.6-1.5c-1.2-0.5-2.3-1-3.2-1.4s-1.7-0.8-2.1-1.3
								c0.1-0.2,0.3-0.4,0.4-0.5c2.4,0.5,5,1.4,7.6,2.2c2,0.8,3.9,1.8,5.8,2.7c0.2,0.1,0.7,0.4,0.9,0.5c0.9,1,0.7,1.1,0.6,1.3
								C241.9,64.3,240.8,64.4,239.8,64.4z"/>
						</g>
						<g>
							<path class="st3" d="M215.5,57.4c-0.8-0.5-1.4-1-2-1.5c0.7-0.2,1.1-0.4,1.8-0.6c1.5,0.3,3.4,0.7,4.9,1.1c1,0.7,2,1.5,2.8,2.1
								c0.1,0.5-1.1,0.3-2.7-0.1c-0.8-0.2-1.7-0.4-2.5-0.6C216.9,57.6,216.1,57.4,215.5,57.4z"/>
						</g>
						<g>
							<path class="st3" d="M215.2,52.8c-1.9-0.8-3.9-1.3-5.9-2c-1-0.1-1.9-0.2-2.8-0.3c-0.9-0.1-1.6-0.2-2.3-0.3
								c-1.4-0.3-2.6-0.5-3.8-0.7c-3.1-0.3-6.5-0.8-10-0.9c-1.3-0.1-2.5-0.3-3.8-0.3c-1.2,0-2.5-0.1-3.8-0.1
								c-2.1-0.2-4.2-0.1-6.2-0.2c-2.9-0.2-10.8,1-13.8,0.6c-1.8-0.2-1.5-1-6.2,0.1c-1.6,0.3-3.6,0.7-5,0.9s-2.2,0.1-1.3-0.5
								c0.7-0.5,2.5-1.1,4.8-1.5c2.2-0.4,4.8-0.8,6.8-1.1c0.8-0.5,1.7-0.9,2.5-1.4c1.1-0.1,2.1-0.2,3.2-0.2l3.2-0.2l3.2-0.2l3.2-0.1
								c1,0.5,1.6,1,2.3,1.5c1.6-0.1,3.5,0.1,5.1,0.1c1.1,0,2.2-0.1,3.2,0l3.2,0.1c1.1,0,2.2,0.1,3.2,0.1l3.2,0.3
								c0.5,0.1,0.8,0.1,1.3,0.2c4.6,1.1,8.9,2.3,13.4,3.8c1,0.2,2.3,0.6,3.6,1C215.6,52.1,215.4,52.4,215.2,52.8z"/>
						</g>
						<g>
							<path class="st3" d="M187.3,59.1c-0.2-0.1-0.7-0.2-1.1-0.3c0.2-0.6,0.4-1.3,0.5-1.9c2,0,3.4-0.3,6,0c1,0.8,2,1.6,3,2.3
								c-0.9-0.2-1.7-0.3-2.4-0.3S192,59,191.4,59C190.2,59.2,189,59.3,187.3,59.1z"/>
						</g>
						<g>
							<path class="st3" d="M55.3,96.5c-1.7,3-3.2,6.4-4.7,9.4c-0.1,0.3-0.4,0.8-0.7,1.3c0,0-0.1-0.1-0.2-0.2c0-0.8,0.1-1.6-0.1-2.1
								c0.2-0.9,1.1-2.9,2.3-4.8c1.1-1.9,2.5-3.6,3.1-4C55.2,96.4,55.2,96.4,55.3,96.5z"/>
						</g>
						<g>
							<path class="st3" d="M47.1,127.9c-1.2,3.6-0.6,4-0.7,5.9c-0.2,0.5-0.4,0.7-0.6,1.3c-0.8,3.1-1.7,6.1-2.4,9.5
								c-0.3,1.2-0.6,2.4-0.9,3.6c-0.3,1.2-0.5,2.4-0.8,3.7c-0.3,1.2-0.5,2.4-0.8,3.7c-0.2,1.2-0.4,2.4-0.6,3.6
								c-0.7,0.9-1.4,1.6-2.1,2.2c0.1-1.8,0.1-3.9,0.1-5.8c0.3-2.3,0.8-4.6,1.2-6.9c0.7-1.7,1.1-3,1.3-4.3s0.3-2.5,0.7-4
								c2.5-7.4,1.2-5.9,2.1-8.4c0.5-1.4,0.9-2.5,1.3-3.9c0.7-1.2,1.5-2.4,2.3-3.6C47.1,125.8,47.1,126.9,47.1,127.9z"/>
						</g>
						<g>
							<path class="st3" d="M36.8,217c-0.6-0.9-1.2-1.8-1.9-3c-1-2.9-1.2-3.9-1.1-4.8c0.1-0.9,0.3-1.6,0.3-3.8
								c0.2,1,0.4,1.9,0.6,2.9l0.6,2.9l0.7,2.9L36.8,217z"/>
						</g>
						<g>
							<path class="st3" d="M52.8,252.9c0.9,1.7,2,3.4,3,5.1c0.5,0.8,1,1.7,1.5,2.5l1.6,2.4c0.2,0.2,0.5,0.7,0.9,1.2
								c1.2,1.8,2.5,3.4,3.8,5.1c0.7,0.9,1.3,1.7,2,2.6c0.7,0.8,1.4,1.7,2.2,2.6l2.3,2.8l2.4,2.7l2.5,2.7l2.6,2.6
								c0.6,0.8,1.8,2.1,3.1,3.2c1.3,1.1,2.5,2.3,2.9,3.1c-4.2-2.7-7.7-5.9-11-9.2c-3.3-3.4-6.4-6.9-9.8-10.4
								c-2.4-3.2-2.5-4.7-5-8.5c-0.8-1-1.6-1.9-2.3-3l-2.2-3.1c-2.1-2.8-2.5-4-2.5-4.7s0.4-1,0.3-2
								C51.8,251.4,52.4,252.1,52.8,252.9z"/>
						</g>
						<g>
							<path class="st5" d="M55.7,255.1c0.8,1.3,1.6,2.5,2.3,3.7c0.8,1.2,1.6,2.4,2.5,3.6c1.1,1.1,1.9,2.1,3.1,3.2
								c1.2,1.7,2.2,3.1,3,4.2c0.8,1.2,1.5,2,2.1,2.7c1.1,1.5,1.8,2.3,2.5,3.3c1.5,1.5,2.8,2.8,4.3,4.3c1.8,1.8,3.8,3.6,5.8,5.4
								c2,1.7,4,3.4,6,5c2.5,2.3,4.5,4,5.9,5s2.1,1.4,2.2,1.2c1,0.7,1.9,1.4,2.9,2.1l3,2c0.2-0.4,1.4,0.4,2.9,1.4s3.4,2.2,4.6,3
								c1.4,0.8,2.8,1.5,4.2,2.2c1.4,0.7,2.8,1.4,4.2,2.1c1.4,0.6,2.8,1.3,4.2,1.9c0.7,0.3,1.4,0.6,2.1,0.9s1.4,0.5,2.1,0.8
								c1.4,0.6,2.8,1.1,4.2,1.7c0.3,0.1,0.8,0.3,1.1,0.4c1.2,0.8,2.4,1.6,3.6,2.4c1.7,0.4,3.7,1,5.7,1.5c1,0.3,2,0.5,3,0.7
								c0.9,0.2,1.9,0.3,2.6,0.4c0.6,0.1,1.2,0.3,1.5,0.3c1,0.2,2.1,0.5,3.1,0.7c1.1,0.2,2.1,0.4,3.2,0.6c2.1,0.4,4.3,0.8,6.4,1.1
								c1.2,0.2,2.1,0.3,3,0.4c1,0.1,1.9,0.3,2.8,0.4c0.9,0.1,1.9,0.2,2.8,0.3c1.9,0.2,3.7,0.4,5.7,0.5c1.4,0.3,2.8,0.6,4.3,1
								c-0.7,0.3-1.4,0.7-1.8,1c-10.4-0.3-20.5-1.6-30.6-3.9c-3-0.7-5.6-1.5-8.6-2.3c-1.3-0.3-2.5-0.8-3.8-1.2
								c-1.3-0.4-2.6-0.8-3.8-1.3c-2.6-0.9-5.1-1.9-7.7-2.9c-2-0.8-4-1.7-6-2.5c-2-0.9-4-1.9-6.1-2.9c-2.3-1.2-4.6-2.6-6.9-4
								s-4.6-3-6.9-4.5c-2.6-1.1-4.3-2.5-6.1-4.1c-0.9-0.8-1.7-1.7-2.8-2.6c-1-0.9-2.3-1.9-3.7-3c-0.4-0.8-1.6-1.9-2.9-3.1
								c-1.3-1.1-2.5-2.4-3.1-3.2l-2.6-2.6l-2.5-2.7l-2.4-2.7l-2.3-2.8c-0.7-0.9-1.5-1.7-2.2-2.6c-0.7-0.9-1.4-1.7-2-2.6
								c-1.3-1.7-2.7-3.4-3.8-5.1c-0.4-0.5-0.7-1-0.9-1.2l-1.6-2.4c-0.5-0.8-1-1.7-1.5-2.5c-1-1.7-2.1-3.3-3-5.1
								C53.9,253.9,54.8,254.5,55.7,255.1z"/>
						</g>
						<g>
							<path class="st3" d="M110.2,309.6c2.1,1,4.1,2,6.1,2.9c2,0.8,4,1.7,6,2.5l-0.4,0.5c-1.9-0.9-3.8-1.9-5.8-2.8
								C114.2,311.8,112.3,310.7,110.2,309.6z"/>
						</g>
						<g>
							<path class="st3" d="M137.7,320.5c2.9,0.8,5.6,1.7,8.6,2.3c-3.3,0.5-5.3-1-8.8-2L137.7,320.5z"/>
						</g>
						<g>
							<path class="st3" d="M222,320.9c0.3-0.2,0.9-0.5,1.2-0.7l2-0.6l1.9-0.7c1.3-0.5,2.6-0.9,3.9-1.3c2.6-0.9,5-2,7.4-2.9
								c1.1-0.3,2-0.6,2.9-0.8c-1.6,1.1-3.1,1.9-4.5,2.7c-1.4,0.8-2.7,1.5-4.2,2.1c-1.4,0.6-2.9,1.2-4.7,1.7c-1.7,0.6-3.7,1.1-6,1.6
								L222,320.9z"/>
						</g>
						<g>
							<path class="st1" d="M318.8,170.1c-0.3-4.2-0.3-5.6,0.2-6.6c0.4,1.8,0.9,3.8,1.3,5.5c0,0.8-0.1,1.7-0.1,2.8
								C319.7,171.1,319.3,170.5,318.8,170.1z"/>
						</g>
						<g>
							<path class="st1" d="M265.7,78.7c-0.8-0.3-1.6-0.8-2.4-1.4s-1.8-1.1-2.6-1.8c-0.9-0.6-1.7-1.3-2.4-1.9
								c-0.7-0.6-1.4-1.2-2-1.6c0.4,0,1,0.2,1.6,0.3c1.4,0.8,2.9,2,4.3,2.9C263.3,76.2,264.6,77.6,265.7,78.7z"/>
						</g>
						<g>
							<path class="st1" d="M187.3,59.1c-1.6,0.6-3.7,0.8-5.6,0.8c-1.9,0-3.7,0-4.9-0.1c-0.6-0.3-1.3-0.7-2.2-1
								c1.6-0.3,3.9-0.5,6.2-0.6c2.2,0,4.3,0.2,5.4,0.6C186.6,58.9,187.1,58.9,187.3,59.1z"/>
						</g>
						<g>
							<path class="st1" d="M122.4,315.1c2.6,1,5.1,2,7.7,2.9c1.3,0.4,2.6,0.9,3.8,1.3c1.3,0.4,2.5,0.8,3.8,1.2l-0.2,0.4
								c-1,1-3.5-0.1-4.8-0.2c-2.9-1-4.1-1.6-5.3-2.4c-1.2-0.7-2.4-1.4-5.4-2.6L122.4,315.1z"/>
						</g>
						<g>
							<path class="st1" d="M178.7,325.7c1.8,0.1,3.9,0,5.8,0c3.9,0.2,7.5,0.1,11.4,0l-0.1,0.7c-3.7,0.3-7,1-10.2,1.1
								c-1.6,0.1-3.1,0.1-4.5,0c-1.5-0.1-2.8-0.4-4.2-0.8C177.3,326.4,178,326,178.7,325.7z"/>
						</g>
						<g>
							<path class="st1" d="M213.4,323c1.3-0.3,2.8-0.6,4.2-0.9c1.5-0.3,2.9-0.8,4.4-1.2v1.1c-1.5,0.3-3,0.7-4.4,1
								c-1.5,0.3-2.9,0.5-4.2,0.7V323z"/>
						</g>
						<g>
							<path class="st4" d="M320.1,171.8c0-1.1,0.1-2,0.1-2.8c0.3-1.3,0.5-2.7,0.8-3.8c0.2,0.3,0.3,0.9,0.5,1.2
								c0.3,2.9,0.3,5.7,0.3,8.3C320.8,179.3,320.3,176.4,320.1,171.8z"/>
						</g>
						<g>
							<path class="st4" d="M294.6,92.2c-0.9-1.2-1.8-2.3-2.5-3.2c-0.8-0.9-1.6-1.7-2.4-2.6l-2.5-2.5c-0.4-0.4-0.7-0.9-0.9-1.1
								c-1.1-1.3-2.5-2.7-3.7-4c-0.9-0.8-1.5-1.4-2.2-2c0.2-0.8-0.9-2.4-2.9-4.5c-1-1.1-2.3-2.2-3.6-3.5c-0.7-0.6-1.4-1.3-2.2-2
								c-0.8-0.7-1.6-1.3-2.4-2c-0.9-0.5-2-1.3-3.1-2.2c-1.2-0.8-2.4-1.7-3.6-2.6c-0.6-0.5-1.2-1-1.9-1.5c-0.7-0.5-1.3-1-2-1.5
								c-1.3-1-2.7-2-3.9-2.9c-0.2-0.2-0.6-0.6-0.9-1.1c4.1,2.3,8.1,4.8,12,7.5c0.3-0.2,0.5-0.4,0.7-0.6c1.9,1.4,3.8,2.9,5.6,4.3
								c1.9,1.5,3.6,3,5.4,4.6c2.1,2.7,5,5.6,8.2,9.4c3.2,3.4,6.4,7.3,9,10.8c1.4,1.8,1.7,2.6,1.7,3.3c0.1,0.7,0,1.3,0.5,3.1
								C296.3,94.5,295.5,93.4,294.6,92.2z"/>
						</g>
						<g>
							<path class="st4" d="M256.3,72c-0.6-0.5-1.3-0.9-2.1-1.5c-3-0.7-7.5-4.1-11.3-6.1c0.1-0.2,0.3-0.3-0.6-1.3
								c1.2,0.6,2.4,1.2,3.6,1.7c1.2,0.6,2.4,1.1,3.4,1.7c1.1,0.4,1.9,0.6,2.9,0.8c1.4,0.8,2.9,1.9,4.2,2.9c0.4,0.7,0.8,1.3,1.5,2.1
								C257.3,72.2,256.7,72,256.3,72z"/>
						</g>
						<g>
							<path class="st4" d="M241.4,60.6c-1.3-0.7-2.6-1.5-3.9-2.2c-1.4-0.7-2.7-1.4-4-2.1c0.1-0.1,0.1-0.1,0.1-0.2
								c2,0.8,2.7,0.7,3.3,0.7c0.7,0,1.3,0,3.2,1.2c0.9,1,1.8,1.9,2.7,2.9C242.3,60.8,241.8,60.6,241.4,60.6z"/>
						</g>
						<g>
							<path class="st4" d="M222.4,55.1c-1.3-0.3-2.5-0.8-3.8-1.1c-1-0.4-2.2-0.8-3.4-1.2c0.2-0.4,0.4-0.8,0.8-1.4
								c1.2,0.4,2.4,0.8,3.6,1.2c1.2,0.4,2.3,0.9,3.6,1.3C222.8,54.5,222.6,54.8,222.4,55.1z"/>
						</g>
						<g>
							<path class="st4" d="M165.3,39c-1.8,1-0.5,1.3-2.7,1.4c-3.5,0.6-4.4,0.5-4.4,0.1c0.1-0.4,1.2-1.2,1.7-1.3
								C161.7,39.2,163.6,39.1,165.3,39z"/>
						</g>
						<g>
							<path class="st4" d="M152,39.7c1.2-1.1,2-1.3,2.9-1.6c4.6-1.1,3,0.1,3.8,0.9C156.4,39.3,154.2,39.5,152,39.7z"/>
						</g>
						<g>
							<path class="st4" d="M144,42.3c0.5,0.3,0.1,0.8-1,1.4c-1.1,0.6-3,1.1-5.4,1.8c0.5-0.4-1.1-0.1-2.5,0.4
								c-0.7,0.2-1.4,0.4-1.9,0.6c-0.5,0.2-1,0.4-1.4,0.6c-0.8,0.4-1.5,0.7-2.1,1.1c-0.6,0.4-1.3,0.7-2.2,1.2c-0.9,0.4-2,1-3.5,1.7
								c0.6,0.3,0.1,0.7-0.9,1.3c-0.5,0.3-1.1,0.6-1.8,0.9c-0.7,0.3-1.4,0.7-2.2,1.1c-1.1,0.6-2.3,1.2-3.5,1.8
								c-1.2,0.7-2.3,1.3-3.4,1.9c-1,0.6-1.9,1.2-2.9,1.8c-0.9,0.6-1.9,1.3-2.8,1.9c-0.6-0.1-1.2-0.2-1.6-0.5
								c-0.7,0.4-1.5,0.8-2.4,1.4l-3.8,2.8c-1.3,0.9-2.4,1.9-3.7,2.9c-6.8,3.7,6.9-6.2,0.1-2.5c0.4-0.3,1.1-0.9,1.9-1.7
								c0.8-0.7,1.8-1.5,2.7-2.2c0.9-0.7,1.7-1.3,2.4-1.7c0.6-0.3,1.1-0.3,1.1,0.2c1.2-0.7,2.4-1.4,3.4-1.9c2.2-1.6,3-2.2,3.2-2.6
								c0.2-0.3-0.1-0.4,0.1-0.7c1.6-1,3-1.8,4.2-2.4c1.2-0.6,2.3-1.1,3.4-1.6c2.1-1,4.2-1.7,7.1-2.9c0.3,0.3,1.3,0.1,2.6-0.3
								c1.4-0.4,3.1-1,5-1.8c1.9-0.7,4.1-1.4,6.1-2.1C140.3,43.2,142.3,42.7,144,42.3z"/>
						</g>
						<g>
							<path class="st4" d="M97.3,60c-2.4,1.6-2.6,2.7-5.5,4.6c-0.7,0.4-1.5,0.9-1.3,0.5c-1.5,1.1-2.9,2.3-4.3,3.5
								c-0.7,0.6-1.4,1.2-2.1,1.7c-0.7,0.6-1.4,1.2-2.1,1.9c0.5-0.9,1.2-2,2.2-3.1s2.2-2.2,3.4-3.3c1.2-1.1,2.5-2.1,3.7-3
								s2.3-1.7,3.1-2.2c0.5-0.3,1-0.7,1.2-0.8c1.4-1.1,3-2.5,4.5-3.6c1-0.6,1.7-1.1,2.5-1.6c1.2-0.6,2.4-1.2,3.7-1.8
								c1.3-0.6,2.6-1.2,3.9-1.7c0.8-0.5,1.4-0.9,1.9-1.1c0.5-0.2,0.9-0.3,1.2-0.4c0.7-0.1,1.1,0,2-0.2c-1.2,0.6-2.1,1.1-3,1.6
								c-0.8,0.6-1.5,1.1-2.3,1.7c-1.5,1.1-3,2.1-5.5,3.5c-1.3,0.6-2.5,1.3-3.8,1.9C99.6,58.7,98.4,59.4,97.3,60z"/>
						</g>
						<g>
							<path class="st4" d="M43.6,132c0.1,1.6-0.2,2.9-0.6,4.2c-0.4,1.3-1,2.6-1.5,4.2c-0.4,1.4-0.4,2.7-0.7,4
								c-0.2,1.3-0.6,2.6-1.3,4.3c-0.1-1.6,0-3.2,0-4.8c0.2-0.9,0.4-1.7,0.6-2.6c0.3-1.5,0.7-2.9,1-4.4
								C41.9,135.3,42.7,133.5,43.6,132z"/>
						</g>
						<g>
							<path class="st4" d="M195.9,325.7c2.5-0.5,4.9-1.2,7.4-1.7c2.1-0.4,3.9-0.7,5.7-1h2.2l2.2-0.1v0.7c-0.7,0.2-1.4,0.3-2.1,0.5
								c-0.7,0.1-1.5,0.3-2.2,0.4c-1.5,0.3-2.9,0.5-4.4,0.8c-3,0.4-5.9,0.8-8.8,1.1L195.9,325.7z"/>
						</g>
						<g>
							<path class="st6" d="M225.8,314.3c0-0.4,0-0.7-0.1-1.1c1.6-0.5,2.8-1,3.9-1.4c1-0.4,1.9-1,2.7-1.4s1.7-0.9,2.7-1.3
								s2.2-0.8,3.8-1.3c-0.3-0.4,2.8-2.3,1-2.5c6.9-2.9,10.2-5.5,8.2-5.5c-1,0.6-2.3,1.2-6.2,2.9c1.5-1.4,5.4-3.4,9.6-5.9
								c0.5-0.3,1.1-0.6,1.6-0.9s1.1-0.7,1.6-1c1.1-0.7,2.2-1.4,3.3-2.1c2.1-1.5,4.2-3,6-4.5c1.6-2.6,7.7-7.2,14.4-15
								c0.9-0.1,1.8-0.2,2.7-0.3c-0.6,0.7-1.2,1.4-1.8,2.1c-0.6,0.7-1.3,1.4-1.9,2c0.2,0.4,0.5,0.8,0.7,1.2c0.1,0.1,0.1,0.2,0.2,0.4
								c1-1,2.1-1.9,2.9-2.8c0.8-0.8,1.4-1.4,2-2.1c0.2-0.7-1.3,0.1,0.4-2c0.9-0.8,1.9-1.8,2.8-2.8c1-1,1.9-2,2.9-3
								c-0.1-0.6,0-1.4-0.1-1.9c1.3-1.7,2.7-3.2,3.9-4.8c1.2-1.7,2.5-3.3,3.7-5l-0.3-0.3c2.5-4.2,5-8.7,7.1-13.1
								c0.9-1.8,1.6-3.3,2.4-5.2c-0.2-0.5-0.4-1.4-0.6-1.9c1-1.8,2-3.6,2.8-5.4c0.4-0.9,0.9-1.8,1.3-2.7c0.5-0.9,0.9-1.8,1.3-2.8
								c0.2-0.8,0.4-1.7,0.6-2.5c0.1-1.6,0.2-3.1,0.2-4.7l1.3-4.4c0.4-1.5,0.7-3,1.1-4.5c0.1-0.8,0.2-1.6,0.3-2.4
								c0.1-0.8,0.2-1.6,0.2-2.4c0.1-1.6,0.3-3.3,0.4-4.8c0.7-1.5,1.5-3.2,2.2-4.6c0.4,0.5,0.8,1.2,1.2,1.9l0.6-3.3
								c0.1-1.1,0.3-2.2,0.4-3.4c0.3-0.5,0.7-0.9,0.9-1.1c0.2-0.8,0.4-1.7,0.7-2.6c0.2-0.9,0.4-1.8,0.5-2.6c0.4,1.6,0.8,2.8,1,4.4
								c0.9-0.6,1.7-1.2,2.5-1.9c-0.1,1.2-0.2,2.6-0.3,4.1c-0.7,1.6-1.4,3.4-2.2,4.9c-0.1-1-0.2-1.9-0.3-2.8
								c-0.2,0.8-0.4,1.6-0.7,2.4c-0.5,2.8-0.8,5.4-1.4,8.2c-0.3-0.2-1.1,2.6-1.7,3.5c-0.1,1.5-0.2,3-0.4,4.5
								c-0.4,1.7-0.9,3.6-1.4,5.3c0,1.6,0.1,3.3,0.2,4.7c-0.2,0.6-0.4,1.1-0.5,1.4l0.9,0.6c-0.6,1.7-1.2,3.6-1.8,5.3
								c-0.5,0.5-1,1.5-1.6,3.1c-0.5,1.6-1.1,3.7-1.9,6.4c-1.5,3.5-3.2,6.6-5,10c-0.7,1.3-1.5,2.5-2.2,3.8c-0.7,1.2-1.4,2.4-2.2,3.5
								c-1.3,2.4,0.1,1.4,0.1,2.2c-0.1,0.3-0.4,0.9-0.6,1.4c-0.8,1.4-1.7,2.8-2.6,4.2c-0.9,1.4-1.8,2.8-2.7,4.1
								c-3.3,4.2-6.4,8.2-10.1,12.1c-0.9,0.9-1.9,1.9-2.8,2.8s-1.9,1.8-2.9,2.6c-1,0.9-1.9,1.8-2.9,2.6c-1,0.8-2,1.7-3,2.5
								c-2.3,1.9-4.5,3.4-6.8,5.1c-0.8,0.3-1.6,0.6-2.4,1l-2.9,1.9c-1,0.6-1.9,1.3-3,1.9c-0.6,0-1.2,0-2.8,0.5
								c-1.8,1.6-3.8,3.1-5.7,4.6c1.1-0.1,0.3,0.7-0.7,1.6s-2.1,1.8-1.3,1.9c-0.3,0.2-0.8,0.5-1,0.8c-1.9,0.8-3.5,1.6-5.4,2.4
								c-2.2,0.7-4.2,1.2-6.7,2c-1.7,0.6-3.4,1.1-5.2,1.7C229.5,313.3,227.7,313.8,225.8,314.3z"/>
						</g>
						<g>
							<path class="st4" d="M317.4,192.5c0.1-0.6,0.1-1.1,0.1-1.6c0-0.6,0-1.1,0-1.8c0-1.4,0-3.3,0-6.2c0.5-6.3,1.1-1.9,1.6-2.1
								c0.1,1.2,0.3,2.2,0.4,3.3s0.1,2.3,0,3.7c-0.1,1.1-0.2,2.2-0.4,3.4l-0.6,3.3C318.2,193.6,317.8,192.9,317.4,192.5z"/>
						</g>
						<g>
							<path class="st7" d="M249.4,66.5c-1.1-0.6-2.2-1.1-3.4-1.7s-2.4-1.1-3.6-1.7c-0.2-0.1-0.7-0.4-0.9-0.5c-0.1-0.7-0.1-1.4,0-2
								c0.3,0,0.9,0.2,1.5,0.3c1.5,0.7,3.2,1.5,4.7,2.2c0.7,0.4,1.4,0.8,2.1,1.2c0.9,1,1.7,2,2.6,2.9
								C251.4,67.1,250.5,66.9,249.4,66.5z"/>
						</g>
						<g>
							<path class="st6" d="M265.8,60.7c-1.8-1.1-3.6-2.3-5.5-3.4c-1.9-1-3.8-2.1-5.6-3.1c-0.2-0.2-0.6-0.6-0.9-1.1
								c-1.3-0.9-2.7-1.7-4-2.6c-1.4-0.8-2.8-1.6-4.1-2.4c-2.6-0.5-6.7-2.6-9.4-3.8c-3-1.2-5.9-2.6-9.1-3.7
								c-1.8-0.4-3.5-0.9-5.5-1.3c-1.3-0.6-2.3-1.1-3.6-1.7c-2.2-0.7-4.5-1.2-6.7-1.8c-1.5-0.4-3.2-0.7-4.8-1.1
								c-1.6-0.3-3.3-0.7-4.9-0.9c0.7-0.2,1.4-0.4,1.8-0.6c1.4,0.4,2.8,0.7,4.1,1.1c1.3,0.4,2.7,0.7,4,1.2c-0.2-1.4-4.8-2-7.9-2.6
								c0.1-0.2,0.2-0.4,0.3-0.6c2,0.2,4,0.4,5.9,0.6c1.9,0.2,3.8,0.6,5.7,0.8c0.8,0.3,1.7,0.5,2.5,0.8s1.6,0.6,2.4,0.9
								c1.6,0.6,3.1,1.1,4.6,1.7c2.2,0.8,4.4,1.7,6.6,2.5c2.2,0.9,4.3,1.9,6.5,2.8c-1.7-0.2-3.3-0.4-4.7-0.5c1,0.6,2.3,1.2,3.5,1.9
								c1.4,0.6,2.7,1.1,4,1.6s2.7,1,4,1.7c0.4-0.1,1.2,0,1.9,0c1.4,0.8,2.9,1.5,4.2,2.4l4.1,2.5c2,1.2,3.9,2.6,5.8,4
								c1.9,1.3,3.7,2.8,5.6,4.2C266.3,60.3,266.1,60.4,265.8,60.7z"/>
						</g>
						<g>
							<path class="st7" d="M244.8,46.9c-1.4-0.6-2.7-1.1-4-1.7c-1.3-0.5-2.6-1.1-4-1.6c-1.3-0.7-2.6-1.3-3.5-1.9
								c1.3,0.1,3,0.3,4.7,0.5c2.9,1.5,6,3,8.8,4.7C246,46.9,245.3,46.9,244.8,46.9z"/>
						</g>
						<g>
							<path class="st7" d="M211.5,35.3c-1.4-0.5-2.7-0.8-4-1.2c-1.3-0.3-2.7-0.7-4.1-1.1c-0.4,0.2-1.1,0.4-1.8,0.6l-4.8-0.6
								c-1.6-0.2-3.2-0.3-4.8-0.5c-1.1-0.1-2.2-0.2-3.3-0.3s-2.1-0.1-3.2-0.1c-2.1,0-4.3-0.2-6.5-0.1c-1.3-0.1-2.5-0.3-3.6-0.4
								c-1.2-0.1-2.2-0.2-3.3-0.1c-2.4,0.3-4.5,0.4-7.1,0.8c-9.7,1.2-19.6,3.4-28.9,6.5c-0.6,0.2-1.1,0.4-1.4,0.5
								c-1.5,0.3-2.7,0.6-3.8,0.8c-1,0.3-1.9,0.6-2.7,0.8c-1.6,0.5-2.8,1-4.5,1.7c0,0.2,0.1,0.5,0.1,0.7c-0.8,0.4-1.6,0.7-2.4,1.1
								c-1.2,0.5-2.3,0.9-3.2,1.2c-0.9,0.3-1.6,0.7-2.3,0.9c-1.2,0.5-2,0.7-2.4,0.7c-0.6,0.6-1.3,1.1-2.1,1.7
								c-0.7,0.5-1.5,1.1-2.3,1.5c-1.6,0.9-3.2,1.7-4.3,2.3c-0.7,0.6-1.4,1.2-2.1,1.9c-0.7,0.5-1.5,0.9-2.5,1.6
								c-1.4,1.1-3.1,2.4-4.5,3.6c-0.2,0.2-0.7,0.5-1.2,0.8c-1.3,0.5-2.4,0.8-3.8,1.3c0.2-0.2,0.7-0.7,1.1-1.1
								c1.8-1.5,3.9-2.8,5.8-4.2c-0.1-0.3-0.2-0.6-0.3-0.9c1.1-0.9,2.2-1.7,3.4-2.6c1.2-0.9,2.3-1.7,3.5-2.6
								c1.1-0.5,1.9-0.9,2.7-1.3c0.5-0.3,0.8-0.4,1.3-0.7c2.2-1.6,4.1-2.6,5.7-3.5c1.6-0.8,2.9-1.5,4.1-2s2.3-0.8,3.4-1.2
								s2.2-0.8,3.6-1.3l4.4-1.8c1.5-0.6,3-1.1,4.5-1.6c3-1.1,6-1.9,9.1-2.8c1.9,0.3,3.4,0.1,4.9-0.3c1.5-0.4,3-1.1,4.7-1.4
								c1.6-0.3,3.3-0.7,5-1s3.4-0.5,5.1-0.8c1.1-0.2,2.2-0.4,3.3-0.6c1.1-0.1,2.2-0.2,3.3-0.3c2.2-0.2,4.4-0.3,6.6-0.2
								c4.4,0,8.9,0.3,13.8,0.6c2.4,0.2,4.8,0.3,7.1,0.6c2.4,0.3,4.7,0.6,7.1,1c-0.1,0.2-0.2,0.4-0.3,0.6
								C206.7,33.3,211.2,33.9,211.5,35.3z"/>
						</g>
						<g>
							<path class="st7" d="M65.5,87c0.2,0.3,0.4,0.5,0.6,0.7l-1.4,1.9c-0.5,0.6-0.9,1.3-1.3,1.9l-2.6,3.9l-2.4,4l-1.2,2l-1.1,2.1
								c-0.7,0.9-1.5,2.1-2.4,3.3c-1,1-1.9,2.1-2.8,2.9c-0.6,1.4-1.3,2.8-1.8,4.1c-0.6,1.4-1.1,2.7-1.6,4c-0.4,0.9-0.9,1.7-1.3,2.6
								L45,123c-0.8,1.8-1.6,3.5-2.3,5.3c-0.1,1.5-0.7,3.6-1.1,5.4c-0.3,1.8-0.6,3.2-0.3,3.2c-0.3,1.5-0.7,2.9-1,4.4
								c-0.2,0.9-0.4,1.7-0.6,2.6c-0.4,1.1-0.7,2.2-1.1,3.3c-0.3,1.1-0.6,2.2-0.9,3.4c-0.1,1-0.2,2.1-0.4,3.3s-0.3,2.5-0.5,3.8
								s-0.4,2.6-0.5,3.8s-0.1,2.4-0.1,3.4c-0.4,2.3-0.8,4.6-1.1,6.9c-0.2,2-0.1,3.8-0.1,5.4c0.1,1.6,0.2,3.1-0.2,4.6
								c0,2.4,0.2,4.8,0.4,7.1c0.1,1.2,0.1,2.4,0.3,3.6l0.4,3.6c0.2,1.2,0.4,2.4,0.7,3.6c0.3,1.2,0.6,2.4,0.9,3.5
								c0.1,0.9,0.1,1.7,0.2,2.6c0.5,1.8,1,3.4,1.4,5.1c0.2,0.8,0.5,1.6,0.7,2.4c0.3,0.8,0.5,1.6,0.8,2.4c0.4,1.7,0.7,3.7,1.1,5.4
								c1.2,2.8,2.3,5.4,3.7,8.1c0.6,2.2,1.2,4.5,2,6.7c0.9,1.5,1.7,3.1,2.6,4.7c0.9,1.6,1.9,3.3,2.8,5c0.9,1.7,2,3.2,2.9,4.8
								c0.9,1.5,1.9,2.9,2.9,4.1c0.2,0.2,0.7,0.9,1.3,1.8c0.3,0.4,0.6,0.9,1,1.4s0.7,1,1.1,1.5c1.4,2,2.6,3.9,2,3.6
								c0.3,0.8,1.2,1.9,2.1,3.1s2,2.6,3,3.7c2,2.3,3.4,4.1,1.9,3.6c-1.4-1.6-2.5-2.7-3.2-3.4c-0.7-0.8-1.2-1.2-1.5-1.5
								c-0.7-0.6-1.1-0.9-2.5-2.7c-2.8-4.2-4.7-7.1-6-9.3c-1.4-2.2-2.5-3.6-3.4-4.9c-0.9-1.3-1.8-2.5-2.6-3.8
								c-0.9-1.2-1.6-2.5-2.4-3.7c-0.5-1.4-1.1-2.7-1.5-4s-0.9-2.6-1.3-4c-0.9-2-1.7-4.2-2.6-6.2c-0.4-1-0.9-2-1.3-3
								c-0.4-1-0.9-1.9-1.4-2.9l0.8,3.5c0.3,1.1,0.6,2.3,1,3.4l1,3.4c0.3,1.1,0.7,2.2,1.1,3.4c-1.5-1.3-1.7-1.2-1.9-1.2
								c-2.5-6.8-4.6-12.9-6.2-19.3l-0.8-2.9l-0.7-2.9l-0.6-2.9c-0.2-1-0.4-1.9-0.6-2.9c-0.3-2.2-0.8-4.6-1.1-7.1
								c-0.2-2.4-0.6-4.9-0.7-7.3c0-0.3-0.1-0.9-0.1-1.2c-0.2-1.2-0.3-2.3-0.5-3.5c-0.2-1.1-0.3-2.2-0.3-3.4
								c-0.1-2.2-0.3-4.4-0.2-6.8c0.1-2.4,0.2-4.9,0.4-7.6c0.2-1.4,0.3-2.8,0.5-4.4c0.1-0.8,0.2-1.6,0.3-2.4
								c0.1-0.8,0.3-1.7,0.5-2.5c0.2-1.4,0.4-2.8,0.7-4.2c0.2-1.4,0.6-2.8,0.8-4.2c0.3-1.4,0.6-2.8,0.9-4.3c0.4-1.4,0.7-2.9,1.1-4.3
								c-0.2,2.5-0.5,5-0.6,7.6c0.3-0.8,0.5-1.7,0.8-2.6c0.3-0.9,0.7-1.8,1-2.6c0.6-2.6,0.8-4.7,1.1-6.8c0.1-1,0.3-2,0.4-3.1
								c0.2-1,0.4-2.1,0.7-3.3c0.2-1.5,0.6-3.5,1.2-5.6c0.6-2.1,1.4-4.4,2.3-6.7c0.9-2.3,2-4.5,3-6.6c1.1-2,2.2-3.9,3.2-5.4
								c0.4-0.5,0.7-0.9,0.9-1.2c1.2-1.7,2.3-3.1,3.4-4.5c0.8-1.4,1.7-2.8,2.5-4s1.6-2.2,2.5-3.1c1.4-2,2.7-4,4.1-6
								c0.7-0.9,1.3-1.6,1.9-2.3C65.1,86.5,65.3,86.8,65.5,87z"/>
						</g>
						<g>
							<path class="st7" d="M75.7,276.7c1,1.1,1.8,2.2,2.8,3.2s1.9,2,2.9,3.1c0.5,0.6,0.9,1.1,1.3,1.6s0.9,1,1.4,1.5
								c1,0.7,1.8,1.2,2.6,1.7c0.5,0.4,1,0.9,1.5,1.3s1,0.8,1.5,1.2c1,0.8,2,1.6,3.1,2.4c2,1.6,4.2,3.1,6.3,4.6
								c0.3-0.7,4.6,2.8,6.4,3.5c2.3,1.3,3.1,2,3.9,2.7s1.6,1.5,3.9,2.7c1.8,0.2,1.9,0,2.1-0.1c0.7,0.4,1.5,0.8,2.2,1.1
								c0.8,0.4,1.6,0.7,2.4,1.1s1.7,0.8,2.6,1.2c0.9,0.4,1.9,0.9,2.9,1.3c2,0.4,3.8,0.8,5.3,1.3c1.4,0.4,2.5,0.8,3.1,1.2
								c0.4,0.4,0.8,0.9,0.9,1.2c1,0.4,1.9,0.7,2.8,1.1c0.9,0.3,1.8,0.5,2.6,0.8c1.6,0.5,3.1,0.9,4.4,1.2c2.7,0.5,4.9,0.9,7,1.1
								l4.8,0.9l2.4,0.4l2.4,0.3c2,0.5,3.6,1,5.3,1.3c2.2-0.3,4.1-0.5,6.3-0.8c1.7,0.4,3.6,0.7,5.3,1c0.9,0,1.9,0.1,3,0.1
								s2.5,0,4.1-0.1c0.9-0.2,1.9-0.5,2.8-0.7c1.7-0.1,3.4-0.2,5-0.3c0.8-0.1,1.7-0.1,2.5-0.2l2.5-0.3c1.6-0.2,3.3-0.4,5-0.6
								c1.6-0.3,3.3-0.6,5-0.9c1.1,0.6,2.5,1.2,3.9,1.6c-1.2,0.2-2.3,0.4-3.5,0.6l-3.5,0.5c-7.9,0.3-10.4,1.1-11.3,1.6
								c-2.1,0.4-3.7,0.4-5,0.4c-1.3-0.1-2.4-0.4-3.5-0.6l-3.6,0.3c-1.2,0.1-2.4,0.1-3.7,0.2c-1.6-0.2-3.3-0.3-5-0.5
								s-3.3-0.5-4.9-0.7c-0.7,0-1.4,0.1-2.1,0.1c-0.7,0-1.5,0-2.2,0c-1.5,0-3.1-0.1-4.6-0.1c-5.5-1.2-7-1.4-11.5-1.6
								c-0.3-0.1-0.9-0.2-1.5-0.3c-0.8-0.1-1.7-0.2-2.6-0.4c-0.9-0.2-2-0.5-3-0.7c-2-0.5-4.1-1.1-5.7-1.5c-1.2-0.8-2.4-1.6-3.6-2.4
								c-0.3-0.1-0.9-0.3-1.1-0.4c-1.4-0.6-2.8-1.1-4.2-1.7c-0.7-0.3-1.4-0.5-2.1-0.8s-1.4-0.6-2.1-0.9c-1.4-0.6-2.8-1.3-4.2-1.9
								c-1.4-0.7-2.8-1.4-4.2-2.1c-1.4-0.7-2.8-1.4-4.2-2.2c-1.2-0.8-3.1-2-4.6-3s-2.8-1.7-2.9-1.4l-3-2c-1-0.7-1.9-1.4-2.9-2.1
								c-0.1,0.2-0.8-0.2-2.2-1.2c-1.4-1-3.3-2.8-5.9-5c-2-1.6-4-3.3-6-5c-1.9-1.8-3.9-3.5-5.8-5.4c0.2-0.1,0.5-0.3,0.8-0.4
								c-1.3-1.6-2.4-2.9-3.7-4.5C73.7,275.8,74.8,276.2,75.7,276.7z"/>
						</g>
						<g>
							<path class="st8" d="M223,315.7c2-0.1,3.7-0.3,5.7-0.5c-2.2,1.8-3.9,2.9-1.3,2.3c2.3-0.6,2.9-1,3.4-1.4
								c0.6-0.4,1.1-0.8,3.4-1.5c1.4-0.5,2.6-0.8,4-1.3c0.1,0.5,0.1,0.9,0.2,1.3c-2.4,0.9-4.9,2-7.4,2.9c-1.3,0.4-2.6,0.9-3.9,1.3
								l-1.9,0.7l-2,0.6c-1.8,0.3-3.6,0.5-5.5,0.8c-1.9,0.2-3.8,0.4-5.7,0.6c0-0.3,0-0.6,0.1-0.9c-1.2,0.2-2.3,0.4-3.5,0.6l-3.5,0.5
								c1-0.9,1.9-1.8,3.1-2.7c0.6-0.1,1.2-0.2,1.9-0.3c0.6-0.1,1.2-0.3,1.9-0.4c1.3-0.3,2.5-0.5,3.8-0.8c1.3-0.2,2.5-0.6,3.7-0.9
								C220.6,316.3,221.8,316,223,315.7z"/>
						</g>
						<g>
							<path class="st7" d="M225.8,314.3c1.8-0.5,3.7-1,5.4-1.6c1.8-0.6,3.5-1.2,5.2-1.7c-1.1,0.6-2.1,1.3-3.1,1.9
								c-1.1,0.6-2.1,1.3-3.4,1.9c-0.3,0.1-0.9,0.3-1.1,0.4c-2,0.2-3.7,0.4-5.7,0.5C224.2,315.2,225,314.7,225.8,314.3z"/>
						</g>
						<g>
							<path class="st7" d="M249.5,305.8c-0.8-0.1,0.4-1,1.3-1.9c1-0.9,1.9-1.8,0.7-1.6c2-1.5,3.9-3,5.7-4.6
								c1.6-0.5,2.2-0.5,2.8-0.5c1-0.6,2-1.2,3-1.9l2.9-1.9c0.8-0.3,1.6-0.6,2.4-1c-1.3,1.4-2.9,2.8-4.3,4.1
								c-3.9,2.8-7.9,5.5-12,7.9C251.4,304.8,250.6,305.3,249.5,305.8z"/>
						</g>
						<g>
							<path class="st7" d="M302.9,254.9c-2.3,1.2,0.8-4.2,3-8.7c0.3-0.1,0.8-0.4,1.2-0.8c1.8-3.4,3.4-6.5,5-10
								c0.8-2.6,1.4-4.8,1.9-6.4c0.5-1.6,1-2.6,1.6-3.1c0.6-1.7,1.2-3.6,1.8-5.3l-0.9-0.6c0.1-0.3,0.3-0.8,0.5-1.4
								c0.6-1.6,1.3-3.5,1.9-5.1c0.3,0.2,0.6,0.3,1,0.6c-0.4,3.7-1.9,9.5-4.3,15.3c-0.3,1.2-0.6,2.4-1,3.6c-0.4,1.2-0.7,2.3-1.1,3.5
								c-1.8,3.4-3.7,6.3-5.7,9.4C306.3,248.9,304.6,252.1,302.9,254.9z"/>
						</g>
						<g>
							<path class="st7" d="M302.1,249.9c0.7-2.5,3-5.7,4.3-8.6c0.3,0.3,0.6,0.6,1,0.9c-0.7,1.3-1.2,2.3-1.9,3.6
								C304.4,247,303.1,248.6,302.1,249.9z"/>
						</g>
						<g>
							<path class="st7" d="M318.1,208.8c0.2-1.5,0.3-3,0.4-4.5c0.7-0.9,1.4-3.6,1.7-3.5c0.6-2.8,1-5.4,1.4-8.2
								c0.2-0.8,0.5-1.6,0.7-2.4c0.2,0.9,0.3,1.9,0.3,2.8c0.8-1.5,1.5-3.4,2.2-4.9c-0.1,1.2-0.1,2.4-0.2,3.6l-0.4,3.5
								c-0.5,0.7-1,1.4-1.6,2.4c-0.4,2.6-1,5.5-1.4,8.1c-0.7,1.2-1.3,2.5-2,3.7C318.9,209.2,318.5,209,318.1,208.8z"/>
						</g>
						<g>
							<path class="st6" d="M259.9,72c-1-0.5-2.3-1.2-3.5-1.8c-1.3-0.9-2.8-2-4.2-2.9c-0.9-1-1.7-2-2.6-2.9c1.8,1,3.5,2,5.2,3
								c1.7,1.1,3.3,2.1,5,3.3c0.5,0.6,0.9,1.3,1.4,1.9C261,72.5,260.4,72.3,259.9,72z"/>
						</g>
						<g>
							<path class="st6" d="M235.7,59.9c-2.6-0.8-5.2-1.6-7.6-2.2l-2.8-1.4c-0.9-0.4-1.9-0.8-2.8-1.2c0.2-0.3,0.4-0.6,0.7-1.1
								c0.8,0.2,1.6,0.5,2.4,0.7c0.8,0.3,1.6,0.6,2.4,0.8c1.8,0.2,3.8,0.4,5.6,0.7c1.3,0.7,2.6,1.4,4,2.1c1.3,0.8,2.6,1.5,3.9,2.2
								c-0.2,0.6-0.1,1.3,0,2C239.5,61.7,237.6,60.7,235.7,59.9z"/>
						</g>
						<g>
							<path class="st6" d="M178.9,32.1c-1.9,0.6-5.7,0.4-9.8,0.8c-1.1,0.1-2.2,0.2-3.5,0.4c-1.2,0.1-2.5,0.3-3.8,0.5
								c-2.6,0.2-5.4,0.7-8.1,1.1c-5.4,0.9-10.6,2.3-13.8,3.9c-2.5,0.9-2.8,0.8-3,0.6s-0.3-0.6-2.4,0c-3.7,1.1-7.2,2.6-10.8,4
								c0-0.2-0.1-0.5-0.1-0.7c2.1-0.7,4.1-1.4,6.1-2c2-0.7,4.1-1.2,6.2-1.8c9.3-3.1,19.2-5.3,28.9-6.5c2.6-0.3,4.7-0.5,7.1-0.8
								c1-0.1,2.1,0,3.3,0.1C176.4,31.8,177.7,31.9,178.9,32.1z"/>
						</g>
						<g>
							<path class="st6" d="M119,47.5c-1.3,0.6-2.4,1.2-3.7,1.8c-0.8,0.2-1.3,0.1-2,0.2c-0.3,0.1-0.7,0.2-1.2,0.4s-1.1,0.6-1.9,1.1
								c-1.3,0.6-2.6,1.2-3.9,1.7c-1.3,0.6-2.5,1.2-3.7,1.8c0.7-0.7,1.4-1.3,2.1-1.9c5.3-3.3,6.5-4.5,8.7-5.5c0.4,0,1.2-0.2,2.4-0.7
								c0.6-0.2,1.4-0.6,2.3-0.9c0.9-0.3,2-0.7,3.2-1.2C120.7,45.6,123.8,45.1,119,47.5z"/>
						</g>
						<g>
							<path class="st6" d="M82,72.1c-0.4,0.5-0.8,1-1,1.2c-0.7,0.6-1.4,1.3-2.1,1.9l-2,2c-1.3,1.3-2.7,2.6-4,4.1l-3.6,3.1
								c-1.2,1.1-2.3,2.2-3.4,3.3c-0.2-0.3-0.4-0.5-0.6-0.7c5.5-7,11.8-13.8,18.5-19.8c1.1-0.9,2.2-1.8,3.3-2.7
								c1.1-0.9,2.2-1.7,3.4-2.6c1.4-0.5,2.5-0.8,3.8-1.3c-0.9,0.6-1.9,1.3-3.1,2.2s-2.5,1.8-3.7,3c-1.2,1.1-2.4,2.2-3.4,3.3
								C83.3,70.1,82.5,71.2,82,72.1z"/>
						</g>
						<g>
							<path class="st6" d="M50.7,113.5c-0.7,1.3-1.4,2.6-1.9,3.6c-1.4,2.9-2.7,6.2-3.9,11c-0.5,1.4-0.9,2.5-1.3,3.9
								c-0.8,1.5-1.6,3.3-2.4,4.9c-0.3,0,0-1.4,0.3-3.2c0.4-1.8,0.9-3.9,1.1-5.4c0.7-1.8,1.5-3.5,2.3-5.3l1.2-2.6
								c0.4-0.9,0.8-1.7,1.3-2.6c0.5-1.3,1-2.6,1.6-4s1.2-2.7,1.8-4.1c0.9-0.8,1.7-1.9,2.8-2.9C52.5,109,51.6,111.3,50.7,113.5z"/>
						</g>
						<g>
							<path class="st6" d="M39.6,148.7c-0.4,2.3-0.9,4.6-1.2,6.9c0,1.8-0.1,4-0.1,5.8c-0.2,1.4-0.4,2.6-0.5,4
								c0.1,1.1-0.1,3.3-0.2,5c-0.1,1.7-0.4,2.9-0.7,1.9c0.1,1.4,0.1,2.8,0.1,4.1s0.1,2.5,0.1,3.7s0,2.3,0,3.5c0,1.1,0,2.2,0,3.4
								c0.1,2.2,0,4.5,0.4,7c0.3,2.4,0.7,5.1,1.6,8c-0.2,0.6-0.4,0.8-0.6,1.4c0.4,2.3,1,4.6,1.6,6.9c0.5,0.9,1,2,1.5,3.1
								c0.5,1,0.9,1.9,1.2,2.4c0.2,0.8,0.5,1.7,0.8,2.8c0.7,2.5,1.7,5.3,2.5,7.8s1.4,4.4,2.1,6.6c0.4,0.5,0.9,1,1.2,1.2
								c1,2.3,2.1,4.8,3.4,7.4c0.6,1.3,1.3,2.6,2,3.9c0.7,1.3,1.4,2.6,2.2,3.8c0.4,0.6,0.7,1.3,1.1,1.9c0.4,0.6,0.8,1.2,1.1,1.8
								c0.8,1.2,1.5,2.4,2.2,3.5c1.5,2.2,3,4.1,4.2,5.8c0.5,0.6,1.1,1.1,1.9,2s1.9,2.2,3.5,4.3c0.5,1,0.8,1.8,1.1,2.6
								c1,1.1,1.9,2.2,2.7,3.1c1.7,1.6,3.4,3.4,5.1,5c1.8,1.6,3.5,3.2,5.2,4.7c9.1,7.5,17.1,13.8,26.6,18.6c0.9,0.3,2.6,1.1,4.5,2.1
								c1,0.5,2,1,3,1.4s2,0.7,3,0.9c0.1,0.3,0.5,0.7,1.2,1.1s1.7,1,3,1.5c1.3,0.6,2.9,1.2,4.7,2c1.8,0.7,3.9,1.5,6.2,2.4
								c2.4,0.9,4.9,1.7,7.3,2.5c2.4,0.7,4.9,1.4,7.4,2.1c3.3,0.6,3.9,0.3,5.2,0.3c1.3-0.1,3.1,0,9.1,1.1c2.3,0.3,4.6,0.6,6.9,1
								c2.5,0.2,5,0.3,7.6,0.5c2.6,0,5.1,0.1,7.6,0.1c-0.9,0.2-1.9,0.5-2.8,0.7c-1.6,0-3,0.1-4.1,0.1s-2.1-0.1-3-0.1
								c-1.7-0.3-3.7-0.7-5.3-1c-2.2,0.3-4.1,0.5-6.3,0.8c-1.7-0.4-3.4-0.9-5.3-1.3l-2.4-0.3l-2.4-0.4l-4.8-0.9
								c-2.1-0.2-4.3-0.6-7-1.1c-1.3-0.3-2.8-0.7-4.4-1.2c-0.8-0.2-1.7-0.5-2.6-0.8c-0.9-0.3-1.8-0.7-2.8-1.1
								c-0.1-0.3-0.5-0.8-0.9-1.2c-0.6-0.4-1.7-0.8-3.1-1.2c-1.4-0.5-3.2-0.9-5.3-1.3c-1-0.4-2-0.8-2.9-1.3
								c-0.9-0.4-1.8-0.8-2.6-1.2c-0.8-0.4-1.6-0.7-2.4-1.1s-1.5-0.8-2.2-1.1c-0.2,0.2-0.3,0.3-2.1,0.1c-2.4-1.2-3.1-2-3.9-2.7
								s-1.6-1.4-3.9-2.7c-1.9-0.6-6.1-4.1-6.4-3.5c-2.2-1.6-4.3-3-6.3-4.6c-1-0.8-2-1.6-3.1-2.4c-0.5-0.4-1-0.8-1.5-1.2
								c-0.5-0.4-1-0.9-1.5-1.3c-0.8-0.5-1.6-1-2.6-1.7c-0.5-0.5-0.9-1-1.4-1.5c-0.4-0.5-0.8-1-1.3-1.6c-1-1.1-2-2.1-2.9-3.1
								s-1.8-2.1-2.8-3.2c-1-0.5-2-0.9-3.2-1.5c-0.6-0.7-1.2-1.4-1.7-2c1.5,0.5,0.1-1.2-1.9-3.6c-1-1.2-2-2.5-3-3.7
								c-0.9-1.2-1.8-2.3-2.1-3.1c0.6,0.2-0.6-1.6-2-3.6c-0.4-0.5-0.7-1-1.1-1.5c-0.3-0.5-0.7-1-1-1.4c-0.6-0.9-1.1-1.6-1.3-1.8
								c-1-1.2-2-2.6-2.9-4.1s-2-3.1-2.9-4.8s-1.8-3.4-2.8-5c-0.9-1.6-1.7-3.3-2.6-4.7c-0.8-2.2-1.4-4.5-2-6.7
								c-1.4-2.7-2.5-5.3-3.7-8.1c-0.4-1.7-0.8-3.7-1.1-5.4c-0.3-0.8-0.5-1.6-0.8-2.4c-0.2-0.8-0.5-1.6-0.7-2.4
								c-0.5-1.6-1-3.3-1.4-5.1c-0.1-0.9-0.2-1.8-0.2-2.6c-0.3-1.2-0.6-2.4-0.9-3.5c-0.3-1.2-0.4-2.4-0.7-3.6l-0.4-3.6
								c-0.2-1.2-0.2-2.4-0.3-3.6c-0.2-2.4-0.4-4.8-0.4-7.1c0.4-1.5,0.3-3,0.2-4.6s-0.2-3.4,0.1-5.4c0.3-2.3,0.7-4.6,1.1-6.9
								c0-1,0-2.1,0.1-3.4c0.1-1.2,0.3-2.5,0.5-3.8s0.3-2.6,0.5-3.8s0.4-2.3,0.4-3.3c0.3-1.1,0.6-2.2,0.9-3.4
								c0.4-1.1,0.7-2.2,1.1-3.3C39.6,145.5,39.5,147.1,39.6,148.7z"/>
						</g>
						<g>
							<path class="st6" d="M41.9,190.1c0.2,2.3,0.5,4.5,0.8,6.8c-0.5-0.1-1-0.1-1.6-0.2c-0.1-0.6-0.1-0.9-0.2-1.4
								c-0.1-1.7-0.4-3.7-0.4-5.4C41.2,189.9,41.6,190,41.9,190.1z"/>
						</g>
						<g>
							<path class="st6" d="M43.1,204.9c0.2,3.6,0.7,6.1,0.1,5.3c-0.3-1.4-0.6-2.7-0.9-4.1c-0.3-1.3-0.4-2.7-0.6-4.1
								C42.2,202.9,42.7,203.8,43.1,204.9z"/>
						</g>
						<g>
							<path class="st6" d="M66.5,258.7c1.7,1.4,3.6,4.2,5.4,6.5c1,1.4,2.4,2.8,3.5,4.2c0,0.6-0.1,1-0.1,1.6
								c-1.1-1.2-2.2-2.4-3.3-3.7c-1.1-1.3-2.1-2.6-3.1-3.8C67.5,261.6,67.1,260.2,66.5,258.7z"/>
						</g>
						<g>
							<path class="st6" d="M77.1,272.8l4,4l4.2,3.8c2.7,2.9,2.4,3.1,2.1,3.3c-4.1-3.7-7.5-6.9-11.1-10.6
								C76.7,273,76.9,272.9,77.1,272.8z"/>
						</g>
						<g>
							<path class="st6" d="M170.1,316.2c1.3,0.6,2.5,1.3,3.8,1.8c-1.6-0.1-3.2-0.3-4.9-0.4c-0.8-0.1-1.7-0.1-2.5-0.2
								s-1.6-0.2-2.4-0.3c-1.9-0.6-1.4-0.9,0-1c0.7-0.1,1.7,0,2.7,0C167.9,316.1,169.1,316.1,170.1,316.2z"/>
						</g>
						<g>
							<path class="st6" d="M185,317.5c1.1,0,2.3,0.1,3.4,0c1.1,0,2.3-0.1,3.4-0.1c0.2,0.5-1.2,1-3.1,1.1c-1.8,0.2-4-0.1-5.3-0.6
								C184.1,317.8,184.7,317.7,185,317.5z"/>
						</g>
						<g>
							<path class="st6" d="M220.4,312c2.5-0.7,0.8,0.3,1.4,0.5c-1.8,0.7-4.1,1.4-6.2,1.8c-2.1,0.4-3.9,0.5-4.7,0.5
								C208.7,313.8,217.1,313.3,220.4,312z"/>
						</g>
						<g>
							<path class="st6" d="M280.2,271.4c0.3-0.8,1.1-1.8,1.9-2.8s1.7-2.1,2.1-2.8c0.8-0.8,1.5-1.5,2.1-2.2s1.2-1.2,1.6-1.6
								c0.9-0.8,1.4-1,1.4-0.2l-1.9,2.9c-0.7,0.9-1.4,1.9-2.1,2.8l-2.5,2.1L280.2,271.4z"/>
						</g>
						<g>
							<path class="st8" d="M152.4,32.7c-1.8,0.3-3.2,1-4.7,1.4s-3,0.6-4.9,0.3c1.6-0.4,3.2-0.6,4.8-0.9
								C149.2,33.2,150.8,32.9,152.4,32.7z"/>
						</g>
						<g>
							<path class="st5" d="M97.3,55.8l-2.9,2.1l-1.5,1L91.5,60c-4.9,4.1-6.3,5.8-7.5,7.2C77.3,73.1,71,79.9,65.5,87
								c-0.2-0.3-0.4-0.6-0.7-0.9c-0.6,0.7-1.1,1.4-1.9,2.3c-0.2-0.2-0.3-0.4-0.5-0.7c2.3-3.3,4-5.9,5.5-7.7
								c1.5-1.8,2.6-3.1,3.6-3.7c2.1-2.2,4.1-4.4,6.3-6.5l3.3-3.1l3.4-3l1.7-1.5l1.8-1.4l3.6-2.8c1.2-0.9,2.5-1.8,3.7-2.6
								c1.2-0.9,2.5-1.8,3.7-2.6c3.2-2.4,3.4-1.7,5.1-2.2c-1.1,0.8-2.3,1.7-3.5,2.6C99.6,54.1,98.4,54.9,97.3,55.8z"/>
						</g>
						<g>
							<path class="st8" d="M97.6,56.7c-1.9,1.4-3.9,2.7-5.8,4.2c-0.5,0.4-0.9,0.9-1.1,1.1c-1.2,0.9-2.3,1.7-3.4,2.6
								c-1.1,0.9-2.2,1.8-3.3,2.7c1.2-1.4,2.6-3.1,7.5-7.2l1.4-1.1l1.5-1l2.9-2.1C97.4,56.1,97.5,56.4,97.6,56.7z"/>
						</g>
						<g>
							<path class="st8" d="M62.9,88.4c-1.4,2-2.7,4-4.1,6c-0.8,0.8-1.6,1.9-2.5,3.1c-0.8,1.2-1.7,2.5-2.5,4
								c-1.1,1.4-2.1,2.8-3.4,4.5c1.5-3.1,3-6.5,4.7-9.4c2.3-3.1,4.7-5.8,7.2-8.7C62.6,88,62.8,88.2,62.9,88.4z"/>
						</g>
						<g>
							<path class="st8" d="M40,131.3c-0.4,1.2-0.6,2.3-0.7,3.3c-0.2,1-0.3,2.1-0.4,3.1c-0.3,2-0.5,4.1-1.1,6.8
								c-0.3,0.8-0.6,1.7-1,2.6c-0.3,0.9-0.6,1.8-0.8,2.6c0.1-2.5,0.3-5,0.6-7.6c0.3-0.9,0.5-1.9,0.8-2.8c0.3-0.9,0.6-1.8,0.9-2.7
								c0.3-0.9,0.6-1.8,0.9-2.7c0.1-0.4,0.3-0.9,0.4-1.3C39.6,132.2,39.8,131.8,40,131.3z"/>
						</g>
						<g>
							<path class="st8" d="M41.1,223.9c0.5,0.9,0.9,1.9,1.4,2.9c0.4,1,0.9,2,1.3,3c0.9,2,1.6,4.1,2.6,6.2c0.5,1.4,0.9,2.7,1.3,4
								c0.4,1.3,1,2.6,1.5,4c0.8,1.2,1.5,2.4,2.4,3.7c0.9,1.2,1.7,2.5,2.6,3.8c0.9,1.3,2,2.7,3.4,4.9c1.4,2.2,3.3,5.1,6,9.3
								c-1.2-1.1-2-2-3.1-3.2c-0.9-1.2-1.7-2.4-2.5-3.6s-1.5-2.4-2.3-3.7c-0.9-0.6-1.8-1.3-2.9-2.2c-0.5-0.8-1-1.5-1.6-2.3
								c-1.5-2.6-2.6-5.1-3.9-7.8c-0.9-1.6-1.7-3.6-2.4-5.2c-0.4-1.1-0.8-2.2-1.1-3.4l-1-3.4c-0.3-1.1-0.7-2.3-1-3.4L41.1,223.9z"/>
						</g>
						<g>
							<path class="st8" d="M87.2,290.5c2.5,2.3,4.5,4,5.9,5s2.1,1.4,2.2,1.2c-0.1,0.2-0.8-0.2-2.2-1.2
								C91.7,294.5,89.8,292.8,87.2,290.5z"/>
						</g>
						<g>
							<path class="st8" d="M146,320.3c-0.8-0.1-1.7-0.2-2.6-0.4c-0.9-0.2-2-0.5-3-0.7c-2-0.5-4.1-1.1-5.7-1.5
								c-1.2-0.8-2.4-1.6-3.6-2.4c1.2,0.8,2.4,1.6,3.6,2.4c1.7,0.4,3.7,1,5.7,1.5c1,0.3,2,0.5,3,0.7
								C144.3,320.1,145.2,320.2,146,320.3z"/>
						</g>
						<g>
							<path class="st8" d="M193.6,323.3c1-0.5,3.5-1.3,11.3-1.6c-1.9,0.4-3.8,0.6-5.7,0.9C197.5,322.9,195.6,323.2,193.6,323.3z"/>
						</g>
						<g>
							<path class="st5" d="M229.9,314.8c1.4-0.3,2.8-0.7,4.3-1.1c1.5-0.7,3.1-1.4,4.5-2.3c1.5-0.8,3-1.6,4.4-2.4
								c1.9-0.8,3.5-1.6,5.4-2.4c0.3-0.2,0.8-0.6,1-0.8c1.1-0.5,1.8-1,2.6-1.4c2.7-1.1,5.2-1.9,7.8-3.1c0.8-0.5,1.5-1,2.3-1.4
								c1.5-1,2.9-2.2,4.2-3.2c1.4-1,2.7-2,4-3.1c0.5-0.2,0.8-0.3,1.4-0.5c1.1-0.7,2.3-1.4,3.5-2.2c1.2-0.8,2.4-1.7,3.6-2.5
								c-0.7,1.2-2.2,2.8-3.9,4.2c-1.7,1.4-3.5,2.9-4.9,4.2c-1.7,1.3-3.5,2.6-5.3,3.9s-3.7,2.5-5.5,3.6c-1.3,0.8-2.6,1.5-3.7,2.2
								c-0.6,0.1-1.2,0.2-1.5,0.1c-0.8,0.4-1.7,0.8-2.6,1.2c-0.9,0.4-1.8,0.8-2.6,1.1c-1,0.9-1.8,1.6-2.5,2.5
								c-1.6,0.9-3.6,1.8-5.2,2.6c-0.9,0.2-1.7,0.5-2.9,0.8c-0.1-0.5-0.1-0.9-0.2-1.3c-1.4,0.5-2.5,0.8-4,1.3
								c-2.3,0.7-2.8,1.1-3.4,1.5c-0.6,0.4-1.1,0.8-3.4,1.4c-2.6,0.6-0.9-0.5,1.3-2.3C229,315.1,229.6,314.9,229.9,314.8z"/>
						</g>
						<g>
							<path class="st8" d="M249,308.8c0.8-0.3,1.7-0.7,2.6-1.1c0.9-0.4,1.8-0.8,2.6-1.2c0.3,0.1,0.9,0,1.5-0.1
								c-1.5,0.8-3,1.7-4.5,2.5c-1.6,0.8-3.1,1.6-4.6,2.3C247.2,310.4,248,309.7,249,308.8z"/>
						</g>
						<g>
							<path class="st8" d="M252.1,304.4c1.3-1.1,3.2-2.2,5.3-3.6c1-0.7,2.1-1.4,3.3-2.1c0.6-0.4,1.1-0.7,1.7-1.1s1.1-0.8,1.7-1.2
								c1.4-1.3,3-2.7,4.3-4.1c2.3-1.8,4.5-3.3,6.8-5.1c1-0.9,2-1.7,3-2.5s1.9-1.7,2.9-2.6c0.9-0.9,1.9-1.7,2.9-2.6
								c0.9-0.9,1.8-1.8,2.8-2.8c-0.2,1.4-0.3,2.8-0.7,4.4c-1.1,1.2-2.3,2.4-3.5,3.6l-1.8,1.8l-1.8,1.7c-1.2,0.8-2.4,1.7-3.6,2.5
								s-2.4,1.5-3.5,2.2c-0.6,0.2-0.8,0.3-1.4,0.5c-1.3,1.1-2.6,2.1-4,3.1s-2.7,2.2-4.2,3.2c-0.8,0.5-1.5,1-2.3,1.4
								C257.3,302.5,254.8,303.3,252.1,304.4z"/>
						</g>
						<g>
							<path class="st5" d="M286,281.1c0.4-1.6,0.6-3,0.7-4.4c3.7-3.9,6.9-7.9,10.1-12.1c1-1.3,1.8-2.8,2.7-4.1
								c0.9-1.4,1.8-2.7,2.6-4.2c1.3-1.6,2.4-2.9,3.5-4.2c1.5-2.1,1.4-0.2,2,0c-0.6,1.9-1.8,3.6-2.7,5.2c-0.6,0.6-1.1,1.2-1.7,1.7
								c-0.6,0.6-1.2,1.1-1.7,1.7c-1.2,1.1-2.4,2.3-3.6,3.5c-0.3,1.5-0.9,3.2-1.4,4.9C293.2,273.4,289.8,277.2,286,281.1z"/>
						</g>
						<g>
							<path class="st8" d="M298,264.2c1.2-1.2,2.4-2.4,3.6-3.5c0.6-0.6,1.2-1.1,1.7-1.7c0.6-0.6,1.1-1.2,1.7-1.7
								c-1.3,2.1-2.7,4-4.1,6s-2.9,3.9-4.4,5.8C297.1,267.3,297.7,265.7,298,264.2z"/>
						</g>
						<g>
							<path class="st8" d="M302.9,254.9c1.7-2.8,3.4-6,4.9-8.9c2-3.2,3.9-6.1,5.7-9.4c-0.1,1-0.2,2.2-0.3,3.3
								c-0.1,1.1-0.3,2.2-0.5,3.3c-0.8,1.5-1.5,3-2.4,4.5s-1.7,3-2.6,4.4c-0.6-0.2-0.5-2.1-2,0c-1.1,1.3-2.2,2.7-3.5,4.2
								C302.5,255.8,302.8,255.2,302.9,254.9z"/>
						</g>
						<g>
							<path class="st8" d="M316.7,214.1c0.5-1.6,1-3.6,1.4-5.3c0.4,0.2,0.8,0.4,1.2,0.6c-0.1,1.5-0.2,2.8-0.4,4.3
								c-0.6,1.6-1.3,3.5-1.9,5.1C316.8,217.4,316.8,215.7,316.7,214.1z"/>
						</g>
						<g>
							<path class="st5" d="M313.5,236.6c0.3-1.6,1.1-3.2,1.7-5.6c0.1-0.6,0.3-1.2,0.4-1.5c0.3-1,0.6-2,1-3.1c0.3-1,0.6-2.1,0.9-3.1
								s0.6-2.1,0.9-3.1s0.5-2.1,0.7-3.1c0.3-1.1,0.6-2,0.8-2.8c-0.4-0.2-0.6-0.4-1-0.6c0.2-1.5,0.2-2.8,0.4-4.3
								c0.7-1.2,1.3-2.5,2-3.7c0.1,0.7,0.1,1.3,0.3,1.7l0.6-1.6l0.5-1.6l1.1-3.3c0.3-1.8,0.4-3.9,0.6-5.6l0.4-3.5
								c0.1-1.2,0.1-2.4,0.2-3.6c0.1-1.5,0.2-2.9,0.3-4.1c1.2-5.3,1.8-3.3,2.3-3.8c0.6,3.5-0.9,11,0,11.9c-0.3,2.2-0.6,4.6-0.9,7
								c-0.4,2.4-0.9,4.8-1.3,7.2c-0.8,3.5-1.7,7.3-2.8,11.1c-0.3,1.4-0.5,2.5-0.8,3.5s-0.5,1.8-0.7,2.6c-0.5,1.5-0.8,2.6-1.3,3.9
								c-1.1,2.6-2.1,5.3-3.2,7.9c-1.2,2.6-2.3,5.2-3.7,7.7c0.1-1.1,0.3-2.2,0.5-3.3C313.3,238.7,313.4,237.6,313.5,236.6z"/>
						</g>
						<g>
							<path class="st8" d="M321.3,205.7c0.5-2.6,1.1-5.5,1.4-8.1c0.6-1,1.1-1.7,1.6-2.4c-0.2,1.8-0.4,3.9-0.6,5.6l-1.1,3.3
								l-0.5,1.6l-0.6,1.6C321.4,207,321.3,206.3,321.3,205.7z"/>
						</g>
						<g>
							<path class="st5" d="M184.5,325.7c-0.9-1.1,1.4-1.4,3.9-1.5c2.5-0.3,5.3-0.4,5.2-0.8c2-0.1,3.8-0.4,5.7-0.7
								c1.9-0.3,3.7-0.5,5.7-0.9l3.5-0.5c1.2-0.2,2.4-0.3,3.5-0.6c0,0.3,0,0.6-0.1,0.9c1.9-0.2,3.8-0.4,5.7-0.6
								c1.9-0.3,3.7-0.5,5.5-0.8c-0.3,0.2-0.9,0.5-1.2,0.7c-1.5,0.4-2.9,0.8-4.4,1.2c-1.5,0.3-2.9,0.6-4.2,0.9l-2.2,0.1h-2.2
								c-1.8,0.3-3.6,0.6-5.7,1c-2.4,0.6-4.9,1.2-7.4,1.7C192,325.8,188.4,325.9,184.5,325.7z"/>
						</g>
						<g>
							<path class="st4" d="M254.8,54.2c-2.5-0.9-6-2.8-9.9-4.7c-1.9-1-4-1.9-6.1-2.8c-1-0.4-2-0.9-3-1.3c-1-0.4-2-0.7-3-1.1
								c-0.9-0.4-1.8-0.8-2.7-1.3c-0.9-0.4-1.9-0.8-2.8-1.2c-1.9-0.8-3.8-1.6-5.9-2.3c-1.6-0.3-3.5-0.7-5.4-1.2
								c-1.9-0.4-4-0.8-6-1.2c-4.1-0.7-8-1.4-10.9-1.3c-2.5-1-7-1.4-12-1.6c-5.1-0.1-10.7,0-15.6,0.2c-1.1,0.3-2.3,0.5-3.5,0.6
								c-0.6,0.1-1.2,0.1-1.8,0.1s-1.2,0.1-1.8,0.1c-2.5,0.1-5.1,0.1-7.9,0.7c-1.3,0.2-2.7,0.5-4.1,0.7c-1.4,0.3-2.8,0.6-4.1,0.9
								c-2.8,0.6-5.6,1.3-8.3,2.1c-1.4,0.4-2.7,0.8-4,1.2s-2.6,0.9-3.8,1.3c-2.4,0.9-4.7,1.9-6.7,2.8c-2.2,0.8-4.3,1.7-6.4,2.6
								c4.7-2.5,1.7-2,2.3-3.1c0.8-0.4,1.6-0.7,2.4-1.1c3.6-1.4,7.1-2.9,10.8-4c0.3-0.1,0.8-0.3,1.4-0.5c1.4-0.5,2.8-0.9,4.2-1.3
								c1.4-0.4,2.9-0.7,4.4-1.1c1.5-0.3,3-0.6,4.5-0.9c1.5-0.3,3-0.6,4.4-0.7c2.9-0.4,5.8-0.8,8.4-1.1c2.6-0.3,5.1-0.6,7.3-0.9
								c1.6-0.2,3.2-0.4,4.9-0.5L179,32c2.2-0.1,4.3,0.1,6.5,0.1c1.1,0,2.1,0.1,3.2,0.1c1.1,0.1,2.2,0.2,3.3,0.3
								c1.6,0.2,3.2,0.2,4.8,0.5l4.8,0.6c1.6,0.2,3.2,0.6,4.9,0.9c1.6,0.4,3.3,0.7,4.8,1.1c2.3,0.6,4.5,1.1,6.7,1.8
								c1.3,0.6,2.3,1.1,3.6,1.7c2.1,0.4,3.8,0.9,5.5,1.3c3.3,1.2,6.2,2.5,9.1,3.7c2.7,1.2,6.8,3.2,9.4,3.8c1.4,0.8,2.8,1.6,4.1,2.4
								c1.3,0.9,2.7,1.7,4,2.6C254.2,53.5,254.6,53.9,254.8,54.2z"/>
						</g>
						<g>
							<path class="st7" d="M244.8,46.9c0.1,0.3,0.5,0.8,0.8,1.2C245.3,47.7,245,47.2,244.8,46.9z"/>
						</g>
						<g>
							<path class="st6" d="M90.7,61.9c0.2-0.2,0.7-0.7,1.1-1.1C91.4,61.2,91,61.7,90.7,61.9z"/>
						</g>
						<g>
							<path class="st6" d="M307.2,245.4c-0.5,0.3-0.9,0.7-1.2,0.8C306.2,246.1,306.7,245.7,307.2,245.4z"/>
						</g>
						<g>
							<path class="st8" d="M35.9,149.7c-0.2,1.7-0.3,3.2-0.5,4.7c-0.1,1.5-0.2,3-0.4,4.4c-0.3,2.8-0.5,5.4-0.7,8
								c-0.3,2.5-0.3,5-0.4,7.4c-0.1,2.4,0,4.9,0.2,7.4c0,0.9-0.1,1.8-0.1,2.8s0,1.9,0,2.8c0.1,2.4,0.2,4.8,0.4,7.1
								c-0.7-1-1.4-2-2.1-3.3c0-0.3-0.1-0.9-0.1-1.2c0-2.2-0.1-4.4,0-6.6c0.1-2.2,0.2-4.3,0.3-6.5c0.1-2.7,0.1-5.7,0.3-8.4
								c0.3-1.9,0.3-3.4,0.3-4.7c0-0.7,0-1.3,0-2s0.1-1.4,0.1-2.1c0.4-1.6,0.8-3.2,1.2-4.9C34.9,152.9,35.4,151.3,35.9,149.7z"/>
						</g>
						<g>
							<path class="st8" d="M63.6,265.6c1.3,1.8,1.7,2,2.5,2.7c0.4,0.3,0.8,0.7,1.5,1.5c0.7,0.7,1.7,1.8,3.2,3.4
								c0.6,0.7,1.2,1.3,1.7,2c1.3,1.6,2.4,2.9,3.7,4.5c-0.2,0.1-0.5,0.3-0.8,0.4c-1.5-1.5-2.9-2.7-4.3-4.3c-0.7-1-1.4-1.8-2.5-3.3
								c-0.6-0.7-1.3-1.6-2.1-2.7C65.7,268.7,64.8,267.3,63.6,265.6z"/>
						</g>
						<g>
							<path class="st8" d="M147.5,320.6c4.5,0.2,6,0.4,11.5,1.6c1.6,0,3.1,0.1,4.6,0.1c0.8,0,1.5,0,2.2,0s1.4-0.1,2.1-0.1
								c1.6,0.2,3.3,0.5,4.9,0.7c1.7,0.2,3.4,0.3,5,0.5c1.2-0.1,2.4-0.1,3.7-0.2l3.6-0.3c1.1,0.3,2.2,0.5,3.5,0.6s2.9,0,5-0.4
								c0.1,0.4-2.7,0.6-5.2,0.8c-2.5,0.2-4.9,0.5-3.9,1.5c-1.8,0-3.9,0.1-5.8,0c-1.4-0.4-2.9-0.7-4.3-1c-1.9-0.1-3.8-0.4-5.7-0.5
								c-0.9-0.1-1.9-0.2-2.8-0.3c-0.9-0.1-1.9-0.3-2.8-0.4c-0.9-0.1-1.8-0.2-3-0.4c-2.1-0.2-4.2-0.7-6.4-1.1
								c-1.1-0.2-2.1-0.4-3.2-0.6C149.5,321.1,148.5,320.9,147.5,320.6z"/>
						</g>
						<g>
							<path class="st8" d="M146,320.3c0.6,0.1,1.2,0.3,1.5,0.3C147.2,320.6,146.6,320.4,146,320.3z"/>
						</g>
						<g>
							<path class="st8" d="M229.9,314.8c1.3-0.6,2.3-1.3,3.4-1.9c1-0.6,2.1-1.2,3.1-1.9c2.5-0.7,4.4-1.3,6.7-2
								c-1.5,0.8-2.9,1.6-4.4,2.4s-3,1.5-4.5,2.3C232.7,314.1,231.3,314.5,229.9,314.8z"/>
						</g>
						<g>
							<path class="st8" d="M228.8,315.2c0.3-0.1,0.8-0.3,1.1-0.4C229.6,314.9,229,315.1,228.8,315.2z"/>
						</g>
						<g>
							<path class="st5" d="M302.2,256.3c0.3-0.5,0.6-1.1,0.6-1.4C302.8,255.2,302.5,255.8,302.2,256.3z"/>
						</g>
					</g>
				</g>
			</g>
		</g>
	</g>
	<g>
		<path class="st9" d="M235.8,83h-96.1l0.1,42h-6.8l-0.3-42h-5.1l0.1,42H121l-0.1-40.4c-1.7,0.3-3.8,0.7-4.8,1.2V125h-7V89.1
			c-9,5.7-15,15.6-15,27V142h53.6c8.1-9,20-15.1,33.3-15.1s25.2,6.1,33.3,15.1H267v4.4l-49.1-0.2c4.5,6.9,7.1,15.1,7.1,24
			c0,24.4-19.7,44.1-44.1,44.1s-44.1-19.8-44.1-44.1c0-8.9,2.7-17.1,7.2-24L94,146.4v80.4c0,17.7,14.3,32.3,32.1,32.3h109.8
			c17.8,0,33.2-14.6,33.2-32.3V116.1C269,98.4,253.6,83,235.8,83z M252,120.6c0,1.9-1.5,3.4-3.4,3.4h-21.3c-1.9,0-3.4-1.5-3.4-3.4
			V98.4c0-1.9,1.5-3.4,3.4-3.4h21.3c1.9,0,3.4,1.5,3.4,3.4V120.6z"/>
		<circle class="st9" cx="181.5" cy="171" r="33.2"/>
	</g>
</g>
<g>
</g>
<g>
</g>
<g>
</g>
<g>
</g>
<g>
</g>
<g>
</g>
<g>
</g>
<g>
</g>
<g>
</g>
<g>
</g>
<g>
</g>
<g>
</g>
<g>
</g>
<g>
</g>
<g>
</g>
</svg>
