<?xml version="1.0" encoding="utf-8"?>
<!-- Generator: Adobe Illustrator 19.1.0, SVG Export Plug-In . SVG Version: 6.00 Build 0)  -->
<!DOCTYPE svg PUBLIC "-//W3C//DTD SVG 1.1//EN" "http://www.w3.org/Graphics/SVG/1.1/DTD/svg11.dtd">
<svg version="1.1" id="Logo" xmlns="http://www.w3.org/2000/svg" xmlns:xlink="http://www.w3.org/1999/xlink" x="0px" y="0px"
	 width="360px" height="360px" viewBox="0 0 360 360" style="enable-background:new 0 0 360 360;" xml:space="preserve">
<style type="text/css">
	.st0{opacity:0.85;}
	.st1{fill:#D1FFFF;}
	.st2{fill:#EDFFFF;}
	.st3{fill:#B8FFFF;}
	.st4{fill:#9FFFFF;}
	.st5{fill:#46FFFF;}
	.st6{fill:#8CFFFF;}
	.st7{fill:#76FFFF;}
	.st8{fill:#60FFFF;}
	.st9{fill:#FFFFFF;}
</style>
<g>
	<g>
		<g>
			<g>
				<g class="st0">
					<g class="st0">
						<g>
							<path class="st1" d="M324.6,166.5c-0.2-0.3-0.3-0.9-0.5-1.2c-0.1-1.1-0.1-2.3-0.3-3.4l-0.4-3.4c-0.8-1.5-1.5-3-2.4-4.4
								c-0.5-1.7-1-3.7-1.6-5.3c-0.4-1-0.8-2.3-1.1-3.9c-0.2-0.8-0.4-1.6-0.6-2.6c-0.2-0.9-0.5-1.9-0.8-2.9c-0.6-1.5-1-2.8-1.5-4.1
								c-0.5-1.2-1-2.3-1.4-3.4c-0.4-1-0.8-2-1.3-2.8c-0.4-0.9-0.9-1.7-1.3-2.4c-0.2,0.5-0.7,0-1.2-1c-0.3-0.5-0.6-1.2-0.9-2
								c-0.4-0.8-0.8-1.7-1.2-2.7c-0.4-1-0.9-2-1.3-3.1c-0.5-1.1-1-2.1-1.5-3.2s-1-2.1-1.6-3.1s-1.1-1.9-1.6-2.7
								c-0.6,0.2-1.2,0.3-1.7,0.5c-0.5-0.9-0.9-1.7-1.3-2.4c-0.5-0.7-1-1.4-1.5-2.1c-1-1.4-2.1-3-3.7-5.4c-1-0.8-2-1.7-2.9-2.6
								c-1-0.9-1.9-1.8-2.8-2.8c-1.8-2-3.6-3.9-5.5-6.1c-0.8-0.8-1.5-1.3-2.2-1.8c-1.4-1.6-2.7-3.3-4.2-4.9
								c-3.9-3.1-2.4-0.3-3.8-0.7c-2.6-2.6-5.2-5.3-8.2-7.9c-0.5-0.6-0.9-1.3-1.4-1.9c0.6-0.2,1.5-0.2,2.1-0.3
								c1.4,0.6,2.7,1.3,4.1,1.9c4.3,3.5,5.7,4.5,5.5,4c1.5,0.5,0.4-0.8-1.4-2.4c-0.9-0.8-2-1.8-3.1-2.7c-1.1-0.9-2.2-1.7-3-2.4
								c0-0.3-0.3-0.8-0.3-1.1l3.1,1.8c1,0.6,2.1,1.2,3,1.8c3,2.4,4.3,3,5.5,3.8c0.6,0.4,1.2,0.8,2,1.6c0.8,0.7,1.9,1.7,3.2,3.3
								c0.4,0.1,1.1,0.3,1.5,0.4c0.7,0.7,1.4,1.3,2.1,2c0.7,0.6,1.4,1.3,2.1,2.1c0.5,0.7,0.9,1.4,1.5,2c-0.5-0.1-1.2-0.3-1.9-0.6
								c-0.6-0.3-2.2-1.7-4.9-4.8c0,1.1-0.7,1.3-1.8,1c-1.1-0.3-2.5-1.1-3.9-2c0.3,0.5,0.7,1,1.1,1.4s0.9,0.9,1.3,1.3
								c1,0.9,2,1.8,3.1,3.1c0.9,0.9,1.7,1.9,2.7,2.9c0.9,1,1.9,2,2.7,3.1c0.8-0.4,1-0.5,1.2-0.6c1.5,2,3.3,4.2,4.4,6.3
								c2.8,3.2,4,5.4,5.9,7.7c1.3,0.1,2.7,3.2,3.5,4.4c4.6,5,8.7,12.4,12,22.1c-0.1,0.4,0.2,1.6,0.6,3s0.7,3.1,1,4.6
								c0.4,0.9,0.8,1.7,1.2,2.5c0.3,0.8,0.6,1.5,0.9,2c0.5,1.1,1,1.6,1.3,1c-0.2-1.1-0.3-2-0.4-2.8c-0.5-2.2-1.1-4.4-1.7-6.7
								c-0.6-2.2-1.4-4.4-2-6.6c-0.6-1.6-1.5-3.5-2.2-5.1c-0.4-0.6-0.9-1.3-1.3-1.9l-1.4-1.9c-0.4-1.6-1.3-4.2-2.6-6.8
								c-0.6-1.3-1.2-2.7-1.9-4.1c-0.7-1.3-1.4-2.6-2-3.9c-0.6-1.6-1.4-3.4-2-4.9c0.6,0.8,1.3,1.6,2,2.6c0.6,1,1.3,2,1.9,3.1
								s1.3,2.3,2,3.5c0.6,1.2,1.3,2.5,1.9,3.8c0.3,0.7,0.6,1.3,0.9,1.9c0.3,0.7,0.5,1.3,0.8,2c0.5,1.3,1.1,2.6,1.6,3.9
								c1,2.6,1.9,5.2,2.8,7.7c0.7,1.9,1.4,3.9,2.2,5.9c0.6,2,1.3,4,1.9,6c1,4.1,2.1,7.7,2.8,10.9c0.8,3.2,1.1,6,0.9,8.2
								c0.2,2.6,0.2,4.6,0.2,6.8L324.6,166.5z"/>
						</g>
						<g>
							<path class="st2" d="M317.7,139.3c-0.3-1.5-0.7-3.2-1-4.6c-0.4-1.4-0.6-2.6-0.6-3c-3.3-9.7-7.5-17.1-12-22.1
								c-0.8-1.2-2.2-4.2-3.5-4.4c-1.8-2.2-3.1-4.4-5.9-7.7c-1.2-2.2-2.9-4.3-4.4-6.3c-0.2,0.1-0.4,0.2-1.2,0.6
								c-0.8-1.1-1.8-2.1-2.7-3.1c-0.9-1-1.8-2-2.7-2.9c-1-1.3-2.1-2.2-3.1-3.1c-0.5-0.4-0.9-0.9-1.3-1.3s-0.8-0.9-1.1-1.4
								c1.4,0.8,2.8,1.7,3.9,2s1.9,0.1,1.8-1c2.8,3.1,4.4,4.5,4.9,4.8c0.7,0.3,1.4,0.5,1.9,0.6c0.9,1.1,1.8,2.1,2.6,3.2
								c0.8,1.1,1.7,2.1,2.5,3.3c0.8,1.2,1.6,2.3,2.4,3.4s1.6,2.2,2.3,3.4c0.4-0.1,1.8,2,3,3.8s2.1,3.3,1.9,1.6
								c0.6,1.2,1.3,2.5,2,3.9c0.7,1.3,1.3,2.8,1.9,4.1c1.3,2.7,2.2,5.2,2.6,6.8l1.4,1.9c0.5,0.6,0.9,1.3,1.3,1.9
								c0.7,1.6,1.6,3.5,2.2,5.1c0.7,2.2,1.4,4.4,2,6.6c0.6,2.2,1.2,4.4,1.7,6.7c0.1,0.8,0.2,1.7,0.4,2.8c-0.3,0.5-0.7,0-1.3-1
								c-0.3-0.5-0.6-1.2-0.9-2C318.5,141,318.1,140.2,317.7,139.3z"/>
						</g>
						<g>
							<path class="st3" d="M305.5,105.1c0.2,1.7-0.7,0.2-1.9-1.6c-1.2-1.8-2.6-4-3-3.8c-0.7-1.2-1.5-2.3-2.3-3.4s-1.6-2.2-2.4-3.4
								c-0.9-1.1-1.7-2.2-2.5-3.3c-0.8-1.1-1.7-2.2-2.6-3.2c-0.5-0.7-1-1.4-1.5-2c-0.7-0.7-1.4-1.4-2.1-2.1c-0.7-0.6-1.4-1.3-2.1-2
								c-0.4-0.1-1.1-0.3-1.5-0.4c-1.3-1.6-2.4-2.6-3.2-3.3c-0.8-0.7-1.4-1.2-2-1.6c-1.2-0.8-2.5-1.4-5.5-3.8c-1-0.7-2-1.2-3-1.8
								l-3.1-1.8c0,0.3,0.3,0.8,0.3,1.1c0.8,0.7,1.9,1.5,3,2.4s2.2,1.9,3.1,2.7c1.9,1.7,2.9,2.9,1.4,2.4c0.2,0.5-1.2-0.5-5.5-4
								c-1.4-0.6-2.7-1.3-4.1-1.9c-0.6,0.1-1.5,0.1-2.1,0.3c-1.7-1.1-3.4-2.2-5-3.3c-1.7-1-3.4-2-5.2-3c-0.7-0.5-1.4-0.8-2.1-1.2
								c-1.5-0.7-3.2-1.6-4.7-2.2c-0.9-1-1.8-1.9-2.7-2.9c-1.9-1.3-2.5-1.3-3.2-1.2c-0.7,0-1.3,0.1-3.3-0.7c-3.7-2-7.6-3.8-11.5-5.4
								c-0.7-0.2-1.5-0.5-2.1-0.7c-0.7-0.2-1.3-0.4-1.9-0.6c-1.2-0.4-2.3-0.8-3.3-1.2c-2-0.7-3.7-1.4-5.5-2.1
								c-1.7-0.7-3.5-1.2-5.6-1.7c-2.1-0.6-4.6-0.8-7.7-1c-1.9-0.4-3.7-0.6-5.6-0.9c-1-0.1-1.9-0.3-2.9-0.4c-1-0.1-2-0.2-3-0.2
								c-1.3,0-2.6,0-4,0.1l-4,0.3c-2.6,0.1-5.2,0.5-7.9,0.8c-1.8,0.1-3.5,0.4-5.3,0.6l-2.6,0.3c-0.9,0.1-1.8,0.3-2.6,0.4
								c0.6-0.3-0.5-0.2-1.3-0.2c-1.3,0.2-2.3,0.5-3.1,0.8c-0.9,0.3-1.7,0.7-2.6,1.1c-1,0.4-2.1,0.8-3.6,1.2c-1.5,0.5-3.3,1-5.8,1.6
								c-2.1,0.6-4.2,1.2-6.2,1.8c-2.1,0.8-4.1,1.6-6.1,2.5s-4,1.8-6,2.7c-2.2,1.1-4.3,2.2-6.5,3.2c-2.1,1.2-4.2,2.3-6.3,3.6
								c-0.7,0.4-1.4,0.9-2.3,1.5c-2.7,1.6-3.2,1.6-3.4,1.4c-0.2-0.2-0.1-0.7-1.5,0.1c-0.9,0.6-2,1.3-3,2.1
								c-1.1,0.8-2.1,1.6-3.1,2.4s-2,1.5-2.8,2s-1.4,0.9-1.9,0.9c-3,2.4-6.1,5.2-8.9,7.8c-1.9,2.1-3,3.5-4,4.9s-2,2.7-3.7,4.4
								c-0.9,1.1-1.7,2.1-2.5,3.1s-1.7,2-2.4,3.2c-0.5,0.7-1,1.3-1.6,2.2c-0.3,1.7-2.7,5-4,6.7c-0.8,1.3-1.5,2.7-2.3,4.1
								c-0.8,1.4-1.6,2.8-2.2,4.2c-0.5,0.1-1.4,1.8-2.4,3.7c-1,2-1.9,4.2-2.8,5.2c-0.7,1.2-1.2,2.5-1.7,3.7
								c-0.5,1.2-1.1,2.4-1.6,3.7c-0.5,1.2-1,2.5-1.4,3.7c-0.5,1.2-1,2.5-1.4,3.7c-0.4,1.7-0.6,3.5-0.9,5.1
								c-0.1,1.6-0.3,3.1-0.4,4.3c-0.3,2.5-0.5,4.1-1.3,4c-0.6,2.4-1,5-1.2,7.9c-0.1,1.4-0.3,2.9-0.5,4.4c-0.1,1.5-0.3,3.1-0.6,4.7
								c-0.1,0.7-0.1,1.3-0.2,2c0,0.7-0.1,1.3-0.1,2c-0.1,1.3-0.2,2.7-0.2,4c-0.1,2.7-0.1,5.4-0.1,8c0.2,1.3,0.4,2.6,0.6,4
								c0.2,1.4,0.4,2.8,0.7,4.2c0.3,2.5,0.6,5.3,1,7.7c0.3,1.4,0.5,2.7,0.8,4.1c0.3,1.3,0.6,2.6,0.9,3.8c0.4,1.1,0.8,2.3,1.2,3.4
								c0.4,1.2,0.8,2.3,1.1,3.3s0.5,1.9,0.6,2.6c0.1,0.7,0.1,1.1-0.2,1.2c0.3,0.8,0.5,1.6,0.8,2.4c0.7,0.5,1.2,1.9,1.7,3.2
								c0.6,1.3,1,2.6,1.4,3c0.3,0.4,0.9,1.8,1.5,3.3s1.2,3.2,1.4,4.1c0.3,0.8,0.7,1.5,1.2,2.5c0.7,1.3,1.4,2.7,2.1,4
								c0.7,1.4,1.6,2.6,2.3,4c0.8,0.6,1.6,1.8,2.5,3.1c0.8,1.3,1.6,2.6,2.1,3.6c0.6,0.9,1.2,1.8,1.9,2.7l2,2.7
								c1.3,1.8,2.7,3.5,4.1,5.2c2.5,2.9,5.2,6.1,8,8.8c1-0.2,7.1,6.2,10.2,10.3c1.3,1.1,2.8,2.3,4.1,3.3c0.7,0.3,1.3,0.7,2,1
								s1.3,0.6,2,0.9c1.5,1.1,3.6,2.6,5.4,3.8c1.9,1.2,3.4,2.4,4.1,3.1c1.4,0.8,3.1,1.8,4.5,2.6c2.2,0.8,3.3,1.3,4.2,1.9
								c0.9,0.6,1.6,1.1,3,1.7c0.3,0.1,0.8,0.3,1.3,0.6l1-1.2c3.9,0.6,6.1,2.9,9.3,4.4c1.2,0.5,1.9,0.6,2.7,0.7
								c0.2-0.4,0.9-0.3,1.8,0c0.9,0.3,2,0.8,3.3,1.3s2.7,1,4,1.4s2.7,0.6,3.8,0.5c3.7,0.8,1.5,1.9,8.4,2.6c0.3-0.1,0.8-0.2,1.4-0.2
								c0.6,0,1.3,0,2.1,0c1.6,0.1,3.7,0.4,5.9,0.6s4.5,0.6,6.8,0.7c2.3,0.2,4.4,0.4,6.3,0.4c1.8-0.5,3.8-1,5.5-1.4
								c1.9,0.1,3.6,0,5.3,0c0.8,0,1.6-0.1,2.4-0.2c0.8-0.1,1.6-0.2,2.3-0.3c1.5-0.2,3-0.5,4.4-0.8c1.4-0.4,2.8-0.8,4.2-1.2
								c5.6-1.7,11.4-3.6,19.5-6.2c1.4-0.2,2.7-0.7,4-1.2s2.6-1,3.9-1.7c2.5-1.3,5-2.4,7.5-3.3c0.6-1.9,6.5-4.7,11.8-8.2
								c0.7-0.4,1.3-0.8,2-1.3c0.6-0.4,1.3-0.9,1.9-1.3c1.2-0.9,2.3-1.7,3.3-2.5c1.8-1.6,3-2.9,2.8-3.7c4.9-4,11-9,13.8-13.2
								c2.9-1.7,3.3-2,4-2.8c1.4-2.1,0.2-1.5,0.1-2.1c0.9-0.9,1.7-1.9,2.5-2.9s1.6-1.9,2.5-2.9c-0.7,2.4,2.6-2.1,3.8-3.1
								c0.6-1.5,1.3-2.9,2.2-4.3c0.5-0.7,1-1.4,1.5-2c0.5-0.7,1-1.4,1.6-2.1c2.2-2.8,4.6-6,6.4-9.9c2.3-6.1-1-4.1,3.5-12.9
								c0.5-4.8,1-6,3.1-12.5c1.6-2.6,2.8-7.8,4.1-13.2c0.4-0.1,0.7-0.5,1.2-0.7c0.3-1.3,0.8-2.5,1.1-3.8c0.7-1.3,1.4-2.1,1.9-3.2
								c0.6-1.1,1.1-2.5,1.4-4.9c0.3,0.4,0.7,1,1,1.4c0,3-0.1,4.8,0,6.2c0,0.7,0,1.3,0,1.8c0,0.6-0.1,1.1-0.1,1.6
								c-0.7,1.5-1.5,3.2-2.2,4.6c-0.1,1.6-0.3,3.2-0.4,4.8c-0.1,0.8-0.2,1.6-0.2,2.4c-0.1,0.8-0.2,1.6-0.3,2.4
								c-0.4,1.5-0.7,3-1.1,4.5l-1.3,4.4c0,1.6,0,3.1-0.2,4.7c-0.2,0.9-0.4,1.7-0.6,2.5c-0.4,1-0.8,1.9-1.3,2.8
								c-0.4,0.9-0.9,1.8-1.3,2.7c-0.8,1.8-1.8,3.5-2.8,5.4c-0.6,0.9-1.2,1.7-1.8,2.6c-0.6,0.8-1.3,1.7-2,2.7
								c-0.2-0.2-0.4-0.4-0.8-0.7c-0.6,1-1.1,2.1-1.7,3.1s-1.2,2-1.9,3.1c-1.2,2.1-2.6,4-3.9,6c-1.1,1.7-2.4,3.3-3.5,4.9
								c-0.6,0.8-1.2,1.6-1.8,2.4c-0.6,0.8-1.3,1.5-1.9,2.3c-0.9,0.6-1.9,1.5-2.9,2.3c-0.7,1.2-1.5,2.5-2,3.6c-1,1.3-2.1,2.2-3,3
								s-1.8,1.6-2.5,2.7c1.1-0.5,0.6,0.4-1.1,2c-0.8,0.8-1.9,1.8-3.1,3c-1.3,1.1-2.7,2.4-4.2,3.7c-1.5,1.1-2.9,2-4.5,3
								c-1.7,1.7-2.4,2.4-2.7,2.9c-0.3,0.5-0.4,0.8-1,1.4c-0.9,0.7-1.8,1.4-2.7,2.1l-2.7,2c1.9-0.3-2.3,2.4-4.2,3.8
								c-1.5,0.7-2.7,1.4-3.7,2s-1.9,1.2-2.8,1.7c-0.9,0.6-1.8,1.2-2.8,1.7c-1.1,0.5-2.3,1.1-3.9,1.6c-2.5,1.4,0.4,0.9-2.1,2.1
								c-1.1,0.4-1.8,0.7-2.6,1c-0.8-0.1-1.7-0.1-2.8-0.1c-1,0.4-2.4,0.8-7.4,3.2c-0.6-0.3-1.1-0.6-1.4-1c-2.7,0.7-5.1,1.3-7.8,1.8
								c-0.8,0.3-1.6,0.6-2.7,1c-1.3,0.3-2.6,0.6-3.9,0.8l-3.9,0.7c-2.6,0.4-5.3,0.8-7.9,1c0.5-0.9-2-0.5-4.6-0.2
								c-1.3,0.2-2.6,0.2-3.5,0.2c-0.9-0.1-1.4-0.3-1.1-0.7c-0.8,0-1.7,0-2.5,0c-0.6,1.2,1.9,1.4,0.5,2.4c-0.6,0-1.3,0-1.9,0
								c-0.7,0-1.3-0.1-2-0.1c-1.3-0.1-2.6-0.2-3.9-0.2c0.1-0.4,0.3-0.8,0.4-1.3c-1.9-0.3-3-0.5-3.8-0.5c-0.7,0-1.1,0.1-1.4,0.3
								c-0.5,0.3-0.8,0.8-3.3,0.6c-2.7-0.5-5.1-1-7.8-1.7c-0.7-0.4-2.4-0.7-3.7-0.9c-2.6-0.2-1.4,0.5-1.8,0.7
								c-2.2-0.5-4.4-1-6.5-1.5c-4.7-1-2.2,0.6-5.8-0.3c-2-1.1-3.3-2-4.4-2.8c-1.1-0.8-2-1.6-3-2.6c-1.8-0.2-3.9-0.5-5.8-0.7
								c-1-0.2-2.3-0.8-3.6-1.3c-1.3-0.6-2.7-1.3-4-1.9c-0.9-1-2.6-2.4-1.3-2.6c-0.9-0.6-2.1-1.3-3.3-2c-1.5-0.4-2.9-0.9-4.1-1.2
								c-1.9-1.1-3.8-2.4-5.5-3.7c-1.6-0.9-3-2-4.5-3s-3-2-4.4-3.2c-2.9-2.5-6-5.3-8.7-8c-1.4-1.2-2.8-2.3-4.2-3.4
								c-1.3-1.2-2.6-2.4-4-3.6l-1-1l-0.9-1l-1.9-2c-0.6-0.7-1.3-1.3-1.9-2l-1.8-2.1c-3.6-4.9-6.8-10.1-9.8-15.7
								c-0.4-0.7-0.8-1.4-1.4-2.4c-0.2,0-0.4,0.1-0.6,0.2c-1.1-1.4-2-2.8-3.1-4.6c-0.6-1-1.2-2-1.7-3s-1.1-2-1.6-3
								c-1.1-2.3-2.1-4.9-3.1-7.5c-0.6-1.6-1.1-3.2-1.8-5c-0.7-2.9-1-4.6-1.4-5.9c-0.3-1.2-0.6-2-0.8-3c-1-3.3-1.3-1.9-2.1-4.1
								c-0.2-0.8-0.4-1.7-0.6-2.6c-0.2-0.9-0.3-1.8-0.5-2.6c-0.5-8.5-1.3-12.5-1.5-18.6c0-2.8-0.2-5.3-0.1-8.1
								c-0.3-1.5-0.6-3-0.9-4.2l-0.2-1.8l-0.1-1.8l-0.2-3.6c0-1.4,0.2-2.9,0.3-4.3c0.1-1.4,0.2-2.8,0.3-4.1c0.6-2.2,1.2-4.3,1.9-6.4
								c0.4-1.8,1-3.5,1.4-5.3c0.4-1.7,1-3.4,1.5-5c0.5-1,0.8-1.7,1.2-2.5c0.2-1.8,0.7-3.8,1-5.6c0.2-0.8,0.4-1.6,0.6-2.4
								c0.3-0.8,0.5-1.6,0.8-2.4c0.5-1.6,1-3.2,1.6-4.7c0.1-0.2,0.4-0.8,0.6-1.3c0.8-0.8,1.8-1.8,2.7-2.8c0.3-0.8,0.7-1.5,1.3-2.5
								c0.4-2.6-0.9-0.4-1-0.9c0.3-0.8,0.6-1.7,0.9-2.6c1-2.1,1.9-3.2,2.5-4s1.1-1.2,1.5-1.6c0.4-0.4,0.8-0.8,1.4-1.6
								c0.6-0.8,1.3-1.9,2.4-3.8c0.1-0.7,0.1-1.5,0-2c1.3-1.9,2.7-3.7,4-5.6c2.4-2.7,4.8-5.5,7.2-7.8c3.8-4.1,7.8-7.8,11.8-11.3
								c1.7-2,1-1.6-0.2-0.8c-1.2,0.8-2.7,2-2.6,1.4c1.4-2,2.1-2.8,2.2-3.1c0.1-0.3-0.2-0.1-0.6,0.2c-2.7,2.1-2.7,3.2-4.8,5.1
								c-0.3,0.1-0.7,0.5-1.1,0.8c-0.3-0.4-0.5-0.9-0.8-1.4c0.7-1.1,1.2-1.9,1.7-2.8c0.2-0.2,0.6-0.7,1-1.2c0.7-0.6,1.4-1.2,2.1-1.9
								c0.7-0.6,1.4-1.2,2.1-1.7c1.4-1.1,2.8-2.4,4.3-3.5c-0.1,0.4,0.6-0.1,1.3-0.5c2.9-1.9,3-3,5.5-4.6c1.1-0.6,2.3-1.3,3.5-1.9
								c1.2-0.6,2.5-1.3,3.8-1.9c2.5-1.4,4.1-2.4,5.5-3.5c0.7-0.5,1.4-1.1,2.3-1.7c0.8-0.5,1.8-1.1,3-1.6c1.3-0.6,2.3-1.2,3.7-1.8
								c2.1-0.9,4.3-1.8,6.4-2.6c2-0.9,4.3-1.9,6.7-2.8c1.2-0.4,2.5-0.9,3.8-1.3c1.3-0.4,2.6-0.9,4-1.2c2.7-0.8,5.5-1.5,8.3-2.1
								c1.4-0.3,2.8-0.6,4.1-0.9c1.4-0.2,2.7-0.5,4.1-0.7c2.7-0.6,5.4-0.5,7.9-0.7c0.6,0,1.2-0.1,1.8-0.1s1.2,0,1.8-0.1
								c1.2-0.1,2.3-0.3,3.5-0.6c4.9-0.2,10.5-0.3,15.6-0.2c5.1,0.2,9.5,0.7,12,1.6c2.9,0,6.8,0.6,10.9,1.3c2,0.4,4.1,0.8,6,1.2
								s3.8,0.9,5.4,1.2c2.1,0.7,4,1.5,5.9,2.3c0.9,0.4,1.9,0.8,2.8,1.2c0.9,0.4,1.8,0.9,2.7,1.3c1,0.4,2,0.7,3,1.1
								c1,0.4,2,0.9,3,1.3c2,0.9,4.1,1.8,6.1,2.8c3.9,1.8,7.4,3.8,9.9,4.7c1.3,0.9,2.6,1.9,3.9,2.9c0.7,0.5,1.3,1,2,1.5
								c0.6,0.5,1.2,1,1.9,1.5c1.2,0.8,2.4,1.7,3.6,2.6c1.1,0.9,2.2,1.6,3.1,2.2c0.8,0.7,1.6,1.4,2.4,2c0.8,0.7,1.5,1.4,2.2,2
								c1.4,1.3,2.7,2.4,3.6,3.5c2,2.1,3.2,3.7,2.9,4.5c0.6,0.6,1.3,1.2,2.2,2c1.2,1.3,2.6,2.7,3.7,4c0.2,0.2,0.6,0.7,0.9,1.1
								l2.5,2.5c0.8,0.8,1.6,1.7,2.4,2.6c0.7,0.9,1.6,2,2.5,3.2c0.9,1.1,1.8,2.3,2.5,3.2c1.2,1.6,2.2,3.1,3.4,4.7
								C304.1,101.8,304.9,103.5,305.5,105.1z"/>
						</g>
						<g>
							<path class="st1" d="M231,55.6c-0.8-0.3-1.6-0.5-2.4-0.8c-0.8-0.3-1.7-0.5-2.4-0.7c-1.2-0.5-2.4-0.9-3.6-1.3
								c-1.2-0.4-2.4-0.8-3.6-1.2c-1.3-0.4-2.5-0.8-3.6-1c-4.4-1.5-8.7-2.7-13.4-3.8c-0.5-0.1-0.8-0.1-1.3-0.2l-3.2-0.3
								c-1.1-0.1-2.2-0.1-3.2-0.1l-3.2-0.1c-1.1,0-2.2,0-3.2,0c-1.6,0-3.5-0.2-5.1-0.1c-0.7-0.5-1.4-1-2.3-1.5l-3.2,0.1l-3.2,0.2
								l-3.2,0.2c-1.1,0.1-2.1,0.2-3.2,0.2c-0.9,0.5-1.7,0.9-2.5,1.4c-2,0.3-4.6,0.7-6.8,1.1c-2.2,0.4-4.1,1-4.8,1.5
								c-0.9,0.6-0.1,0.7,1.3,0.5c1.4-0.2,3.4-0.6,5-0.9c4.7-1.1,4.4-0.3,6.2-0.1c-1.6,0.5-3.2,1.1-5,1.7c-0.7,0.1-1.6,0.2-2.5,0.4
								s-2,0.4-3,0.7c-1.1,0.3-2.2,0.5-3.3,0.8s-2.1,0.6-3.1,0.9c-4,1-6.7,1.9-5.2,0.3c-2.4,0.8-4.8,1.6-7.3,2.6
								c-1.2,0.5-2.6,0.9-3.9,1.4c-1.3,0.5-2.7,1.1-4.2,1.7c0.3,0.3,0.9,0.4,1.2,0.7c1.1-0.3,3.4-1.4,5.3-2c1.8-0.6,3.1-0.9,1.9,0.1
								c-4.6,1.7-9.1,3.9-13.5,6.1c-1.2,0.5-2.3,1.1-3.5,1.6c-1.1,0.5-2.3,1-3.3,1.5c0.7-1-1.5,0.2-2.6,0.2l-2.6,1.9l-2.5,2
								c-0.8,0.7-1.7,1.3-2.5,2l-2.4,2.1c-2.6,2.9-1.8,2.8-4.1,5.5l-1.9,1.4l-1.6,1.4c-1,1-2.1,1.9-3.1,2.9
								c-5.5,4.6-1.1-1.3-2.4-1.5c-0.6,0.5-1.3,0.9-2.1,1.5c-4.4,5.1-8.7,10.6-12.4,16.5c-0.5,1.2-1.3,2.7-2.4,4.3
								c-1.1,1.6-2.1,3.5-3.2,5.2c-0.5,0.9-1,1.7-1.4,2.5s-0.8,1.6-1.1,2.3c-0.6,1.4-0.9,2.4-0.7,2.9c-1,2-2.1,4.3-3,6.6
								c-0.9,2.3-1.7,4.5-2,6.2c0,3,0.8,1.9,1.6,0c0.9-1.9,2-4.5,2.5-4.6c0,1.2-0.5,2.7-1,4.1c-0.5,1.4-0.8,2.7-0.7,3.5
								c-0.3,1.2-0.8,2.6-1.2,4s-0.8,3-1.2,4.5c-0.4,1.6-0.7,3.2-1,4.8c-0.4,1.6-0.6,3.2-0.8,4.7c-0.1,0.5-0.1,0.7-0.2,1.2
								c-0.1,0.8-0.3,1.5-0.4,2.5c-0.1,1.6-0.1,3.2-0.2,4.9c-0.1,1.6,0,3.3-0.1,5c0,1.3,0,2.3,0,3.6c-0.3,2-0.6,3.9-0.8,5.9
								c0.4,3,0.3,5.8,0.4,8.6c0.1,1.4,0,2.8,0.1,4.2s0.2,2.8,0.3,4.2c-0.7-0.6-1.5-2.6-2.1-5.3c-0.5-2.7-0.9-6.2-0.7-9.5
								c-1.3,0-0.3-9.1-0.5-12.6c-0.5-0.5-0.9,0.2-1.2,1.4c-0.2,0.6-0.4,1.4-0.5,2.2s-0.3,1.7-0.4,2.6c-0.6,3.5-0.9,6.9-2.1,5.5
								c-0.4-1.4-0.6-3.1-0.7-4.7c-0.1-1.7-0.2-3.3-0.2-4.7c0-2.9-0.1-4.8-0.9-4.1c0.3-6.3,1.9-8.3,2.8-15.4l-1-0.5
								c-1.6,7.6-2.7,15.3-3.1,22.4c-0.1,1.8-0.2,3.5-0.2,5.3c0,1.7,0.1,3.4,0.1,5s0.2,3.2,0.3,4.7c0.2,1.5,0.3,3,0.5,4.4
								c0.3-1.7,0.6-1.7,0.8-0.9s0.5,2.4,0.8,4c0.5,3.2,1.2,6.2,1.4,2.3c-0.3-2.9-0.6-5.8-0.8-9.1c0.3,0.9,0.5,1.8,0.7,2.6
								s0.4,1.6,0.5,2.4c0.3,1.5,0.4,2.9,0.4,4.2c0.6,1.6,1.3,3.5,1.9,5.1c0.4,1.4,0.8,2.6,1.1,3.8c0.4,1.2,0.7,2.3,1,3.4
								c0.3,1.1,0.7,2.3,1.1,3.5c0.4,1.2,0.8,2.6,1.4,4.1c0.4-0.2,1,0.7,1.6,2.2c0.3,0.7,0.6,1.6,0.9,2.5c0.4,0.9,0.7,1.8,1.1,2.7
								c1.4,3.5,2.8,6.2,2.7,2.9c0.3-1.1,0.9,0.2,1.6,2c0.4,0.9,0.8,2,1.2,3.1c0.5,1,0.9,2,1.4,2.8c-0.3,1.1,3.1,6.5,5,9.8
								c1.2,0.9,3.4,4.1,3.3,2.5c-1.6-2.4-1.5-2.7-1.4-3.1c0-0.2,0-0.4-0.2-0.9s-0.7-1.2-1.4-2.5c0.6,0.5,0.7-0.3,1-0.5
								s0.8,0.3,2.4,3.3c0.1-0.9,0.6-0.8,1.4-0.2c0.8,0.7,1.8,2,3,3.4c2.3,2.9,5.2,6.2,6.7,7.1c2.9,2,7.5,7.4,12.2,11.7
								c1.4,0.7,3,1.6,4.8,2.8c0.9,0.6,1.9,1.2,2.9,1.9c1,0.7,2,1.4,3.2,2.1c4.4,2.9,9.5,5.9,14.6,8.3l0.7-0.8
								c0.2,0.1,0.6,0.3,0.8,0.4c1.2,0.9,2.3,1.6,3.3,2.2c1,0.5,1.8,1,2.5,1.4c1.2-0.1,2.2-0.2,3.2-0.4c1.4,0,2.5,0,3.9-0.1
								c0.6,0.2,1.2,0.5,1.8,0.7s1.2,0.4,1.9,0.7c1.3,0.4,2.5,0.9,3.7,1.3c2.1,1.4,0.7,1.6-1.4,1.4c-2.2-0.3-5.2-0.9-6.6-1
								c-1.9-0.6-3.8-1-5.6-1.7c-1.3-0.2-2.6-0.4-3.7-0.5c-1.2-0.2-3.4-1.4-5.3-2.3c-1.8-0.9-3.2-1.6-2.9-0.6
								c-1.2-0.8-2.2-1.3-3.1-1.7c-0.8-0.5-1.5-0.8-2.2-1c-1.2-0.5-2.3-0.7-3.6-1.3c-1.1-0.3-0.7,0.4,0.3,1.3s2.6,2.1,3.7,2.9
								c2.4,1.1,4.3,2.1,5.7,3.1c1.5,0.9,2.7,1.7,3.8,2.5c1.1,0.8,2.2,1.5,3.5,2c1.3,0.6,2.9,1.2,5,1.5c2.8,1.6,7,3.2,10.9,4.4
								c1,0.3,1.9,0.6,2.9,0.9c0.9,0.3,1.8,0.6,2.6,0.8c1.6,0.5,2.9,1,3.7,1.5c2.7,1.2,4.9,1.7,5.3,2.6c1.3,0.2,2.6,0.2,4.1,0.3
								c1.4,0,2.9,0.1,4.4,0.1s3.1,0,4.8,0.1s3.4,0.2,5.2,0.5c1.6,0.2,2.1,0.8,3.3,1.1c0.6,0.2,1.4,0.4,2.5,0.5s2.7,0.2,4.8-0.1
								c0.8-0.5,1.7-1,2.5-1.5c1.4-0.2,2.7-0.3,3.8-0.4s2-0.1,2.7,0c1.3,0.1,1.4,0.5-0.6,1.1c-1.5,0.2-3.8,0.3-6.2,0.9
								c1.2,0.2,2.5,0.4,3.7,0.5c1.9-0.1,3.7-0.3,5.6-0.7c1.8-0.4,3.7-0.9,5.5-1.4c1.8-0.6,3.6-1.2,5.4-1.8c1.8-0.6,3.5-1.2,5.3-1.7
								c0.3,0.8,3.5,0.3,8.5-1.4c0.7-0.5,1.6-1,2.7-1.5c1-0.5,2.2-1,3.3-1.5c2.2-1,4.4-1.7,5.5-1.8c3.7-2.1,7.2-4.4,10.7-6.8
								c1.2-1.2,0.6-1.4,0.7-1.9c6-3.6,12.2-8.8,17.7-14c1.3-1.3,2.7-2.5,3.9-3.8c1.2-1.3,2.5-2.4,3.6-3.5c2.2-2.3,4.5-4.2,6.3-5.7
								c1.8-2.2,1.2-2.3,0.9-2.5c-0.4-0.2-0.4-0.5,1.9-3.5c2.4-3.1,2.7-2.3,3.4-2.1c0.3,0.1,0.7,0,1.5-0.9c0.4-0.4,0.9-1.1,1.5-1.9
								c0.3-0.4,0.6-1,1-1.5c0.3-0.6,0.7-1.3,1.1-2.1c-0.7-0.6-0.8-0.8-1-0.9c0.6-1,1.4-2.4,2.1-3.7s1.4-2.4,1.8-2.5
								c1-2,1.3-3.2,1.5-3.9c0.1-0.8,0-1.1-0.1-1.5s-0.1-0.7,0.1-1.5c0.1-0.4,0.3-0.9,0.6-1.5c0.3-0.7,0.7-1.5,1.2-2.5
								c0.1-1.5,0.2-2.6,0.6-5.2c0.5-1.6,1.1-3.1,1.5-4.7c0.4-1.6,0.8-3.1,1.2-4.6c0.3,0.5,0.6,1.1,0.9,1.6c0.8-1.3,1.5-2.9,2.2-4.2
								c0.2-0.9,0.5-1.9,0.7-3s0.4-2.3,0.6-3.4c0.4-2.2,0.8-4,1.2-4.3c0.9-1,1.8-2,2.7-2.8c0.7-2.2,1.1-3.9,1.7-5.9
								c0.4-1.2,1-2.4,1.3-3.7c0.1-1.6,0.1-3.5,0.2-5.1c0.1,0,0.2,0,0.2,0.1c0.3,0.4,0.7,1,1,1.6c0.5,1.8,0.7-2.8,1.1-2.4
								c0.6,1.5,1.2,3.1,1.8,4.6c-0.6,2.2-1.1,3.5-1.6,4.7c-0.4,1.2-0.8,2.1-1.3,3.6c-0.2-0.1-0.3-0.1-0.4-0.2
								c-0.3,1.3-0.8,2.5-1.1,3.8c-0.4,0.1-0.8,0.5-1.2,0.7c-1.3,5.3-2.4,10.5-4.1,13.2c-2.1,6.5-2.6,7.6-3.1,12.5
								c-4.4,8.8-1.1,6.7-3.5,12.9c-1.8,3.9-4.1,7.1-6.4,9.9c-0.5,0.7-1.1,1.4-1.6,2.1c-0.5,0.7-1,1.4-1.5,2
								c-0.9,1.4-1.6,2.8-2.2,4.3c-1.2,1-4.5,5.5-3.8,3.1c-0.8,1-1.7,1.9-2.5,2.9c-0.8,0.9-1.6,1.9-2.5,2.9c0.1,0.6,1.3,0-0.1,2.1
								c-0.7,0.8-1.1,1.2-4,2.8c-2.8,4.2-8.9,9.2-13.8,13.2c0.1,0.8-1,2.1-2.8,3.7c-0.9,0.8-2.1,1.6-3.3,2.5
								c-0.6,0.4-1.2,0.9-1.9,1.3c-0.7,0.4-1.3,0.8-2,1.3c-5.3,3.5-11.2,6.3-11.8,8.2c-2.5,0.9-5,2.1-7.5,3.3
								c-1.3,0.6-2.6,1.1-3.9,1.7c-1.3,0.5-2.6,1-4,1.2c-8.1,2.5-13.9,4.5-19.5,6.2c-1.4,0.4-2.8,0.8-4.2,1.2
								c-1.4,0.3-2.9,0.6-4.4,0.8c-0.8,0.1-1.5,0.2-2.3,0.3c-0.8,0.1-1.6,0.1-2.4,0.2c-1.7,0.1-3.4,0.2-5.3,0
								c-1.7,0.4-3.7,0.9-5.5,1.4c-1.8-0.1-4-0.3-6.3-0.4c-2.3-0.2-4.6-0.5-6.8-0.7s-4.2-0.6-5.9-0.6c-0.8-0.1-1.5,0-2.1,0
								s-1.1,0.1-1.4,0.2c-7-0.7-4.7-1.8-8.4-2.6c-1.1,0.1-2.4-0.1-3.8-0.5c-1.3-0.4-2.7-0.9-4-1.4s-2.4-1-3.3-1.3
								c-0.9-0.3-1.5-0.3-1.8,0c-0.8-0.1-1.5-0.2-2.7-0.7c-3.2-1.4-5.4-3.8-9.3-4.4l-1,1.2c-0.5-0.2-1-0.5-1.3-0.6
								c-1.4-0.6-2.1-1.2-3-1.7c-0.9-0.6-2-1.1-4.2-1.9c-1.4-0.8-3.1-1.8-4.5-2.6c-0.6-0.7-2.2-1.8-4.1-3.1
								c-1.9-1.2-3.9-2.6-5.4-3.8c-0.7-0.3-1.3-0.6-2-0.9s-1.3-0.7-2-1c-1.3-1-2.8-2.2-4.1-3.3c-3.1-4-9.2-10.5-10.2-10.3
								c-2.8-2.7-5.5-5.8-8-8.8c-1.4-1.7-2.8-3.4-4.1-5.2l-2-2.7c-0.7-0.9-1.3-1.8-1.9-2.7c-0.5-1-1.3-2.3-2.1-3.6
								c-0.8-1.3-1.6-2.5-2.5-3.1c-0.8-1.3-1.6-2.6-2.3-4c-0.7-1.4-1.4-2.7-2.1-4c-0.5-1-0.8-1.8-1.2-2.5c-0.1-0.9-0.7-2.6-1.4-4.1
								c-0.6-1.5-1.2-2.9-1.5-3.3c-0.4-0.4-0.9-1.6-1.4-3c-0.5-1.3-1.1-2.7-1.7-3.2c-0.3-0.8-0.5-1.6-0.8-2.4
								c0.2-0.1,0.3-0.5,0.2-1.2s-0.3-1.6-0.6-2.6s-0.7-2.2-1.1-3.3c-0.4-1.2-0.8-2.3-1.2-3.4c-0.3-1.2-0.6-2.5-0.9-3.8
								c-0.3-1.3-0.5-2.7-0.8-4.1c-0.5-2.4-0.7-5.2-1-7.7c-0.3-1.4-0.5-2.8-0.7-4.2s-0.4-2.7-0.6-4c0.1-2.6,0-5.3,0.1-8
								c0.1-1.3,0.2-2.7,0.2-4c0-0.7,0.1-1.3,0.1-2c0.1-0.7,0.1-1.3,0.2-2c0.3-1.6,0.4-3.2,0.6-4.7c0.2-1.5,0.4-3,0.5-4.4
								c0.2-2.9,0.7-5.5,1.2-7.9c0.8,0.1,1-1.5,1.3-4c0.1-1.2,0.2-2.7,0.4-4.3s0.5-3.3,0.9-5.1c0.4-1.3,0.9-2.5,1.4-3.7
								s1-2.5,1.4-3.7c0.5-1.2,1.1-2.4,1.6-3.7c0.6-1.2,1.1-2.5,1.7-3.7c0.9-1,1.9-3.2,2.8-5.2c1-1.9,1.9-3.6,2.4-3.7
								c0.7-1.4,1.4-2.8,2.2-4.2c0.8-1.4,1.5-2.8,2.3-4.1c1.3-1.7,3.7-5,4-6.7c0.6-0.9,1.1-1.6,1.6-2.2c0.8-1.1,1.6-2.1,2.4-3.2
								c0.8-1,1.6-2.1,2.5-3.1c1.7-1.8,2.7-3,3.7-4.4s2.1-2.8,4-4.9c2.8-2.6,5.9-5.4,8.9-7.8c0.4,0,1.1-0.4,1.9-0.9s1.8-1.2,2.8-2
								s2.1-1.7,3.1-2.4c1.1-0.8,2.1-1.5,3-2.1c1.4-0.8,1.3-0.3,1.5-0.1c0.2,0.2,0.7,0.2,3.4-1.4c0.9-0.6,1.6-1,2.3-1.5
								c2.1-1.3,4.2-2.4,6.3-3.6c2.1-1.1,4.2-2.2,6.5-3.2c2-0.9,4-1.9,6-2.7c2-0.8,4-1.7,6.1-2.5c2.1-0.6,4.1-1.2,6.2-1.8
								c2.5-0.6,4.4-1.1,5.8-1.6c1.5-0.4,2.6-0.8,3.6-1.2s1.8-0.7,2.6-1.1c0.9-0.3,1.9-0.6,3.1-0.8c0.8,0,1.9-0.1,1.3,0.2
								c0.9-0.1,1.7-0.3,2.6-0.4l2.6-0.3c1.8-0.2,3.5-0.5,5.3-0.6c2.6-0.3,5.2-0.7,7.9-0.8l4-0.3c1.3-0.1,2.6-0.1,4-0.1
								c1,0.1,2,0.2,3,0.2c1,0.1,1.9,0.3,2.9,0.4c1.9,0.3,3.8,0.5,5.6,0.9c3.1,0.2,5.6,0.5,7.7,1c2.1,0.5,3.9,1,5.6,1.7
								c1.7,0.7,3.4,1.3,5.5,2.1c1,0.4,2.1,0.8,3.3,1.2c0.6,0.2,1.3,0.4,1.9,0.6c0.7,0.2,1.4,0.4,2.1,0.7c3.9,1.6,7.8,3.4,11.5,5.4
								c-0.1,0.1-0.1,0.1-0.1,0.2C234.8,56,232.8,55.8,231,55.6z"/>
						</g>
						<g>
							<path class="st4" d="M85,72.1c-0.4,0.5-0.8,1-1,1.2c-0.5,0.9-1,1.7-1.7,2.8c0.3,0.5,0.5,0.9,0.8,1.4c0.4-0.3,0.9-0.7,1.1-0.8
								c2.1-1.9,2.1-3,4.8-5.1c0.4-0.2,0.7-0.4,0.6-0.2c-0.1,0.3-0.7,1.1-2.2,3.1c-0.1,0.7,1.4-0.5,2.6-1.4c1.2-0.8,2-1.2,0.2,0.8
								c-4,3.5-8,7.2-11.8,11.3c-2.4,2.3-4.8,5.1-7.2,7.8c-1.3,1.8-2.7,3.7-4,5.6c0.1,0.5,0,1.3,0,2c-1.1,1.9-1.8,3-2.4,3.8
								s-1,1.2-1.4,1.6s-0.9,0.8-1.5,1.6c-0.6,0.8-1.5,2-2.5,4c-0.3,0.9-0.6,1.7-0.9,2.6c0.1,0.5,1.4-1.7,1,0.9
								c-0.5,1-0.9,1.7-1.3,2.5c-1,1.3-2.2,2.8-3.3,4c-0.6,1.5-1,3.1-1.6,4.7c-0.3,0.8-0.5,1.6-0.8,2.4c-0.2,0.8-0.4,1.6-0.6,2.4
								c-0.3,1.8-0.8,3.8-1,5.6c-0.4,0.8-0.7,1.5-1.2,2.5c-0.5,1.6-1.1,3.3-1.5,5c-0.5,1.7-1,3.5-1.4,5.3c-0.6,2.1-1.3,4.3-1.9,6.4
								c-0.1,1.3-0.2,2.7-0.3,4.1c-0.1,1.4-0.3,2.8-0.3,4.3l0.2,3.6l0.1,1.8l0.2,1.8c0.3,1.2,0.6,2.7,0.9,4.2
								c-0.1,2.8,0.1,5.3,0.1,8.1c0.2,6.1,1,10.1,1.5,18.6c0.1,0.8,0.3,1.7,0.5,2.6c0.2,0.9,0.4,1.8,0.6,2.6c0.8,2.2,1,0.9,2.1,4.1
								c0.2,1.1,0.5,1.8,0.8,3s0.7,2.9,1.4,5.9c0.6,1.9,1.1,3.5,1.8,5c1,2.6,2,5.3,3.1,7.5c0.5,1,1.1,2,1.6,3s1.2,2,1.7,3
								c1.1,1.7,2,3.2,3.1,4.6c0.2-0.1,0.4-0.1,0.6-0.2c0.6,1,1,1.7,1.4,2.4c3.1,5.6,6.2,10.8,9.8,15.7l1.8,2.1
								c0.6,0.7,1.2,1.4,1.9,2l1.9,2l0.9,1l1,1c1.4,1.2,2.7,2.4,4,3.6c1.4,1.1,2.7,2.3,4.2,3.4c2.7,2.7,5.8,5.5,8.7,8
								c1.4,1.1,2.9,2.1,4.4,3.2c1.5,1,3,2.1,4.5,3c1.7,1.4,3.5,2.6,5.5,3.7c1.2,0.3,2.7,0.7,4.1,1.2c1.2,0.7,2.4,1.4,3.3,2
								c-1.3,0.2,0.4,1.6,1.3,2.6c1.3,0.6,2.7,1.3,4,1.9s2.5,1.2,3.6,1.3c1.9,0.2,4,0.5,5.8,0.7c0.5,0.2,0.8,0.3,1.3,0.5
								c0.5,0.7,0.9,1.5,1.4,2.3c1,0.5,3.1,1.7,4.8,2.7c3.6,0.9,1.1-0.7,5.8,0.3c2.2,0.5,4.4,1.1,6.5,1.5c0.4-0.3-0.7-1,1.8-0.7
								c1.4,0.3,3,0.5,3.7,0.9c2.7,0.7,5.1,1.2,7.8,1.7c2.5,0.2,2.8-0.3,3.3-0.6c0.3-0.2,0.6-0.3,1.4-0.3c0.7,0,1.9,0.2,3.8,0.5
								c-0.1,0.4-0.3,0.9-0.4,1.3c1.3,0.1,2.6,0.2,3.9,0.2c0.7,0,1.3,0.1,2,0.1s1.3,0,1.9,0c1.3-1-1.1-1.1-0.5-2.4
								c0.8,0,1.7,0,2.5,0c-0.3,0.5,0.2,0.7,1.1,0.7c0.9,0.1,2.2,0,3.5-0.2c2.6-0.3,5.2-0.6,4.6,0.2c2.6-0.3,5.3-0.7,7.9-1l3.9-0.7
								c1.3-0.2,2.6-0.5,3.9-0.8c1.1-0.4,1.9-0.7,2.7-1c2.7-0.5,5.1-1.2,7.8-1.8c1.2-0.2,2.2-0.4,2.9-0.6c0.8-0.2,1.3-0.3,1.8-0.4
								c0.9-0.2,1.3-0.3,1.7-0.3c1.3-0.5,2.1-0.8,2.6-1s0.7-0.1,0.9-0.1c0.3,0.2,0.3,0.5,1.6,0.3c0.8-0.3,1.6-0.6,2.6-1
								c2.6-1.2-0.4-0.7,2.1-2.1c1.6-0.6,2.8-1.1,3.9-1.6c1-0.6,1.9-1.2,2.8-1.7c0.9-0.6,1.8-1.1,2.8-1.7s2.2-1.3,3.7-2
								c1.9-1.3,6.1-4.1,4.2-3.8l2.7-2c0.9-0.7,1.8-1.4,2.7-2.1c0.6-0.6,0.7-0.9,1-1.4s1-1.2,2.7-2.9c1.6-1.1,3-1.9,4.5-3
								c1.5-1.4,2.9-2.6,4.2-3.7c1.2-1.2,2.3-2.2,3.1-3c1.6-1.6,2.2-2.4,1.1-2c0.7-1.1,1.5-1.9,2.5-2.7c0.9-0.8,2-1.7,3-3
								c0.6-1,1.3-2.3,2-3.6c1.1-0.8,2.1-1.6,2.9-2.3c0.7-0.8,1.3-1.6,1.9-2.3c0.6-0.8,1.2-1.6,1.8-2.4c1.2-1.6,2.4-3.1,3.5-4.9
								c1.3-1.9,2.7-3.9,3.9-6c0.6-1,1.2-2,1.9-3.1c0.6-1,1.1-2.1,1.7-3.1c0.4,0.3,0.6,0.5,0.8,0.7c0.7-1,1.4-1.8,2-2.7
								c0.6-0.8,1.2-1.7,1.8-2.6c0.2,0.5,0.3,1.3,0.6,1.9c-0.8,1.8-1.6,3.4-2.4,5.2c-2,4.4-4.6,8.9-7.1,13.1l0.3,0.3
								c-1.2,1.8-2.5,3.4-3.7,5c-1.2,1.7-2.6,3.2-3.9,4.8c0.1,0.6,0,1.4,0.1,1.9c-1,1-2,2-2.9,3c-1,1-1.9,2-2.8,2.8
								c-1.7,2-0.2,1.2-0.4,2c-0.6,0.6-1.2,1.2-2,2.1c-0.8,0.8-1.9,1.8-2.9,2.8c-0.1-0.2-0.2-0.3-0.2-0.4c-0.2-0.4-0.4-0.8-0.7-1.2
								c0.6-0.6,1.2-1.3,1.9-2c0.6-0.7,1.2-1.4,1.8-2.1c-0.9,0.1-1.8,0.2-2.7,0.3c-6.7,7.8-12.9,12.4-14.4,15c-1.8,1.4-3.8,3-6,4.5
								c-1.1,0.7-2.2,1.4-3.3,2.1c-0.5,0.3-1.1,0.7-1.6,1s-1.1,0.6-1.6,0.9c-4.2,2.5-8.1,4.5-9.6,5.9c3.8-1.7,5.2-2.4,6.2-2.9
								c2,0-1.3,2.6-8.2,5.5c1.8,0.2-1.3,2.2-1,2.5c-1.6,0.5-2.8,0.9-3.8,1.3s-1.9,0.8-2.7,1.3c-0.8,0.4-1.7,0.9-2.7,1.4
								c-1,0.4-2.3,0.9-3.9,1.4c0,0.4,0,0.7,0.1,1.1c-0.8,0.4-1.7,0.9-2.8,1.3c-1.2,0.3-2.4,0.6-3.7,1c-1.2,0.3-2.5,0.7-3.7,0.9
								c-1.3,0.3-2.5,0.5-3.8,0.8c-0.6,0.1-1.2,0.3-1.9,0.4c-0.6,0.1-1.2,0.2-1.9,0.3c-1.7,0.3-3.3,0.6-5,0.9
								c-1.7,0.2-3.3,0.4-5,0.6l-2.5,0.3c-0.8,0.1-1.7,0.1-2.5,0.2c-1.7,0.1-3.3,0.2-5,0.3c-2.5,0-5-0.1-7.6-0.1
								c-2.5-0.2-5.1-0.3-7.6-0.5c-2.3-0.3-4.6-0.6-6.9-1c-5.9-1.2-7.8-1.2-9.1-1.1s-1.9,0.4-5.2-0.3c-2.5-0.7-5-1.4-7.4-2.1
								c-2.4-0.8-4.8-1.6-7.3-2.5c-2.3-0.9-4.3-1.7-6.2-2.4c-1.8-0.8-3.4-1.4-4.7-2c-1.3-0.5-2.3-1.1-3-1.5s-1.1-0.8-1.2-1.1
								c-0.9-0.2-2-0.5-3-0.9s-2-0.9-3-1.4c-1.9-1-3.6-1.8-4.5-2.1c-9.3-4.6-17.3-10.8-26.4-18.4c-1.7-1.4-3.4-3.1-5.2-4.7
								c-1.8-1.6-3.4-3.4-5.1-5c-0.8-0.9-1.7-2-2.7-3.1c-0.3-0.8-0.6-1.6-1.1-2.6c-1.6-2.1-2.6-3.4-3.5-4.3c-0.8-0.9-1.4-1.4-1.9-2
								c-1.3-1.6-2.8-3.6-4.2-5.8c-0.7-1.1-1.5-2.3-2.2-3.5c-0.4-0.6-0.8-1.2-1.1-1.8c-0.4-0.6-0.7-1.3-1.1-1.9
								c-0.7-1.3-1.4-2.6-2.2-3.8c-0.7-1.3-1.3-2.6-2-3.9c-1.3-2.5-2.4-5.1-3.4-7.4c-0.3-0.2-0.8-0.7-1.2-1.2
								c-0.7-2.2-1.3-4.1-2.1-6.6s-1.8-5.3-2.5-7.8c-1.2-2.8-2.5-5.6-3.5-8.3c-0.6-2.3-1.2-4.6-1.6-6.9c0.2-0.6,0.4-0.8,0.6-1.4
								c-0.9-2.9-1.3-5.6-1.6-8s-0.3-4.7-0.4-7c0-1.1-0.1-2.2,0-3.4c0-1.1,0-2.3,0-3.5s-0.1-2.4-0.1-3.7s0-2.6-0.1-4.1
								c0.3,1,0.6-0.2,0.7-1.9c0.1-1.7,0.3-3.9,0.2-5c0.2-1.4,0.3-2.6,0.5-4c0.7-0.6,1.3-1.3,2.1-2.2c0.2-1.2,0.4-2.4,0.6-3.6
								c0.2-1.2,0.5-2.4,0.8-3.7c0.3-1.2,0.5-2.4,0.8-3.7c0.3-1.2,0.6-2.4,0.9-3.6c0.7-3.4,1.6-6.5,2.4-9.5c0.2-1.7,0.4-3.5,0.7-5.2
								c0.2-1.8,0.5-3.6,0.8-5.3c-0.8,1.2-1.6,2.3-2.3,3.6c1.1-4.8,2.5-8.1,3.9-11c0.6-1,1.2-2.3,1.9-3.6c0.9-2.2,1.8-4.5,2.8-6.7
								c0.9-1.2,1.7-2.3,2.4-3.3l1.1-2.1l1.2-2l2.4-4l2.6-3.9c0.4-0.6,0.9-1.3,1.3-1.9l1.4-1.9c1.1-1.1,2.3-2.2,3.4-3.3l3.6-3.1
								c1.4-1.7,3-3.2,4.4-4.7C81.9,75.1,83.4,73.6,85,72.1z"/>
						</g>
						<g>
							<path class="st2" d="M63.5,116.9c2.8-3.7,3-3,2.3-1.4c-0.7,1.6-2.1,4.2-2.6,4.3C63.3,118.8,63.4,117.9,63.5,116.9z"/>
						</g>
						<g>
							<path class="st3" d="M322,163.5c0-1.5-0.3-3.1-0.4-4.8c-0.2-1.6-0.3-3.2-0.6-4.8c0.9,1.5,1.6,2.9,2.4,4.4l0.4,3.4
								c0.1,1.1,0.2,2.3,0.3,3.4c-0.3,1.1-0.5,2.4-0.8,3.8C322.9,167.3,322.4,165.2,322,163.5z"/>
						</g>
						<g>
							<path class="st3" d="M278.6,85.5c-0.3,0-1-0.5-2-1.3s-2.2-1.7-3.4-2.6c-1.4-1-3-2-4.4-2.9c-1.1-1.1-2.3-2.4-3.5-3.5
								c-1.4-0.9-2.9-2-4.3-2.9c-0.6-0.8-1.1-1.4-1.5-2.1c1.2,0.6,2.5,1.3,3.5,1.8c0.5,0.2,1.1,0.5,1.4,0.5c3,2.6,5.6,5.2,8.2,7.9
								c1.4,0.3-0.1-2.5,3.8,0.7c1.5,1.6,2.8,3.2,4.2,4.9C279.9,86,279.3,85.8,278.6,85.5z"/>
						</g>
						<g>
							<path class="st3" d="M242.8,64.4c-0.9-0.7-2-1.3-3.2-1.9s-2.4-1.1-3.6-1.5c-1.2-0.5-2.3-1-3.2-1.4s-1.7-0.8-2.1-1.3
								c0.1-0.2,0.3-0.4,0.4-0.5c2.4,0.5,5,1.4,7.6,2.2c2,0.8,3.9,1.8,5.8,2.7c0.2,0.1,0.7,0.4,0.9,0.5c0.9,1,0.7,1.1,0.6,1.3
								C244.9,64.3,243.8,64.4,242.8,64.4z"/>
						</g>
						<g>
							<path class="st3" d="M218.5,57.4c-0.8-0.5-1.4-1-2-1.5c0.7-0.2,1.1-0.4,1.8-0.6c1.5,0.3,3.4,0.7,4.9,1.1c1,0.7,2,1.5,2.8,2.1
								c0.1,0.5-1.1,0.3-2.7-0.1c-0.8-0.2-1.7-0.4-2.5-0.6C219.9,57.6,219.1,57.4,218.5,57.4z"/>
						</g>
						<g>
							<path class="st3" d="M218.2,52.8c-1.9-0.8-3.9-1.3-5.9-2c-1-0.1-1.9-0.2-2.8-0.3c-0.9-0.1-1.6-0.2-2.3-0.3
								c-1.4-0.3-2.6-0.5-3.8-0.7c-3.1-0.3-6.5-0.8-10-0.9c-1.3-0.1-2.5-0.3-3.8-0.3c-1.2,0-2.5-0.1-3.8-0.1
								c-2.1-0.2-4.2-0.1-6.2-0.2c-2.9-0.2-10.8,1-13.8,0.6c-1.8-0.2-1.5-1-6.2,0.1c-1.6,0.3-3.6,0.7-5,0.9s-2.2,0.1-1.3-0.5
								c0.7-0.5,2.5-1.1,4.8-1.5c2.2-0.4,4.8-0.8,6.8-1.1c0.8-0.5,1.7-0.9,2.5-1.4c1.1-0.1,2.1-0.2,3.2-0.2l3.2-0.2l3.2-0.2l3.2-0.1
								c1,0.5,1.6,1,2.3,1.5c1.6-0.1,3.5,0.1,5.1,0.1c1.1,0,2.2-0.1,3.2,0l3.2,0.1c1.1,0,2.2,0.1,3.2,0.1l3.2,0.3
								c0.5,0.1,0.8,0.1,1.3,0.2c4.6,1.1,8.9,2.3,13.4,3.8c1,0.2,2.3,0.6,3.6,1C218.6,52.1,218.4,52.4,218.2,52.8z"/>
						</g>
						<g>
							<path class="st3" d="M190.3,59.1c-0.2-0.1-0.7-0.2-1.1-0.3c0.2-0.6,0.4-1.3,0.5-1.9c2,0,3.4-0.3,6,0c1,0.8,2,1.6,3,2.3
								c-0.9-0.2-1.7-0.3-2.4-0.3S195,59,194.4,59C193.2,59.2,192,59.3,190.3,59.1z"/>
						</g>
						<g>
							<path class="st3" d="M58.3,96.5c-1.7,3-3.2,6.4-4.7,9.4c-0.1,0.3-0.4,0.8-0.7,1.3c0,0-0.1-0.1-0.2-0.2c0-0.8,0.1-1.6-0.1-2.1
								c0.2-0.9,1.1-2.9,2.3-4.8c1.1-1.9,2.5-3.6,3.1-4C58.2,96.4,58.2,96.4,58.3,96.5z"/>
						</g>
						<g>
							<path class="st3" d="M50.1,127.9c-1.2,3.6-0.6,4-0.7,5.9c-0.2,0.5-0.4,0.7-0.6,1.3c-0.8,3.1-1.7,6.1-2.4,9.5
								c-0.3,1.2-0.6,2.4-0.9,3.6c-0.3,1.2-0.5,2.4-0.8,3.7c-0.3,1.2-0.5,2.4-0.8,3.7c-0.2,1.2-0.4,2.4-0.6,3.6
								c-0.7,0.9-1.4,1.6-2.1,2.2c0.1-1.8,0.1-3.9,0.1-5.8c0.3-2.3,0.8-4.6,1.2-6.9c0.7-1.7,1.1-3,1.3-4.3s0.3-2.5,0.7-4
								c2.5-7.4,1.2-5.9,2.1-8.4c0.5-1.4,0.9-2.5,1.3-3.9c0.7-1.2,1.5-2.4,2.3-3.6C50.1,125.8,50.1,126.9,50.1,127.9z"/>
						</g>
						<g>
							<path class="st3" d="M39.8,217c-0.6-0.9-1.2-1.8-1.9-3c-1-2.9-1.2-3.9-1.1-4.8c0.1-0.9,0.3-1.6,0.3-3.8
								c0.2,1,0.4,1.9,0.6,2.9l0.6,2.9l0.7,2.9L39.8,217z"/>
						</g>
						<g>
							<path class="st3" d="M55.8,252.9c0.9,1.7,2,3.4,3,5.1c0.5,0.8,1,1.7,1.5,2.5l1.6,2.4c0.2,0.2,0.5,0.7,0.9,1.2
								c1.2,1.8,2.5,3.4,3.8,5.1c0.7,0.9,1.3,1.7,2,2.6c0.7,0.8,1.4,1.7,2.2,2.6l2.3,2.8l2.4,2.7l2.5,2.7l2.6,2.6
								c0.6,0.8,1.8,2.1,3.1,3.2c1.3,1.1,2.5,2.3,2.9,3.1c-4.2-2.7-7.7-5.9-11-9.2c-3.3-3.4-6.4-6.9-9.8-10.4
								c-2.4-3.2-2.5-4.7-5-8.5c-0.8-1-1.6-1.9-2.3-3l-2.2-3.1c-2.1-2.8-2.5-4-2.5-4.7s0.4-1,0.3-2
								C54.8,251.4,55.4,252.1,55.8,252.9z"/>
						</g>
						<g>
							<path class="st5" d="M58.7,255.1c0.8,1.3,1.6,2.5,2.3,3.7c0.8,1.2,1.6,2.4,2.5,3.6c1.1,1.1,1.9,2.1,3.1,3.2
								c1.2,1.7,2.2,3.1,3,4.2c0.8,1.2,1.5,2,2.1,2.7c1.1,1.5,1.8,2.3,2.5,3.3c1.5,1.5,2.8,2.8,4.3,4.3c1.8,1.8,3.8,3.6,5.8,5.4
								c2,1.7,4,3.4,6,5c2.5,2.3,4.5,4,5.9,5s2.1,1.4,2.2,1.2c1,0.7,1.9,1.4,2.9,2.1l3,2c0.2-0.4,1.4,0.4,2.9,1.4s3.4,2.2,4.6,3
								c1.4,0.8,2.8,1.5,4.2,2.2c1.4,0.7,2.8,1.4,4.2,2.1c1.4,0.6,2.8,1.3,4.2,1.9c0.7,0.3,1.4,0.6,2.1,0.9s1.4,0.5,2.1,0.8
								c1.4,0.6,2.8,1.1,4.2,1.7c0.3,0.1,0.8,0.3,1.1,0.4c1.2,0.8,2.4,1.6,3.6,2.4c1.7,0.4,3.7,1,5.7,1.5c1,0.3,2,0.5,3,0.7
								c0.9,0.2,1.9,0.3,2.6,0.4c0.6,0.1,1.2,0.3,1.5,0.3c1,0.2,2.1,0.5,3.1,0.7c1.1,0.2,2.1,0.4,3.2,0.6c2.1,0.4,4.3,0.8,6.4,1.1
								c1.2,0.2,2.1,0.3,3,0.4c1,0.1,1.9,0.3,2.8,0.4c0.9,0.1,1.9,0.2,2.8,0.3c1.9,0.2,3.7,0.4,5.7,0.5c1.4,0.3,2.8,0.6,4.3,1
								c-0.7,0.3-1.4,0.7-1.8,1c-10.4-0.3-20.5-1.6-30.6-3.9c-3-0.7-5.6-1.5-8.6-2.3c-1.3-0.3-2.5-0.8-3.8-1.2
								c-1.3-0.4-2.6-0.8-3.8-1.3c-2.6-0.9-5.1-1.9-7.7-2.9c-2-0.8-4-1.7-6-2.5c-2-0.9-4-1.9-6.1-2.9c-2.3-1.2-4.6-2.6-6.9-4
								s-4.6-3-6.9-4.5c-2.6-1.1-4.3-2.5-6.1-4.1c-0.9-0.8-1.7-1.7-2.8-2.6c-1-0.9-2.3-1.9-3.7-3c-0.4-0.8-1.6-1.9-2.9-3.1
								c-1.3-1.1-2.5-2.4-3.1-3.2l-2.6-2.6l-2.5-2.7l-2.4-2.7l-2.3-2.8c-0.7-0.9-1.5-1.7-2.2-2.6c-0.7-0.9-1.4-1.7-2-2.6
								c-1.3-1.7-2.7-3.4-3.8-5.1c-0.4-0.5-0.7-1-0.9-1.2l-1.6-2.4c-0.5-0.8-1-1.7-1.5-2.5c-1-1.7-2.1-3.3-3-5.1
								C56.9,253.9,57.8,254.5,58.7,255.1z"/>
						</g>
						<g>
							<path class="st3" d="M113.2,309.6c2.1,1,4.1,2,6.1,2.9c2,0.8,4,1.7,6,2.5l-0.4,0.5c-1.9-0.9-3.8-1.9-5.8-2.8
								C117.2,311.8,115.3,310.7,113.2,309.6z"/>
						</g>
						<g>
							<path class="st3" d="M140.7,320.5c2.9,0.8,5.6,1.7,8.6,2.3c-3.3,0.5-5.3-1-8.8-2L140.7,320.5z"/>
						</g>
						<g>
							<path class="st3" d="M225,320.9c0.3-0.2,0.9-0.5,1.2-0.7l2-0.6l1.9-0.7c1.3-0.5,2.6-0.9,3.9-1.3c2.6-0.9,5-2,7.4-2.9
								c1.1-0.3,2-0.6,2.9-0.8c-1.6,1.1-3.1,1.9-4.5,2.7c-1.4,0.8-2.7,1.5-4.2,2.1c-1.4,0.6-2.9,1.2-4.7,1.7c-1.7,0.6-3.7,1.1-6,1.6
								L225,320.9z"/>
						</g>
						<g>
							<path class="st1" d="M321.8,170.1c-0.3-4.2-0.3-5.6,0.2-6.6c0.4,1.8,0.9,3.8,1.3,5.5c0,0.8-0.1,1.7-0.1,2.8
								C322.7,171.1,322.3,170.5,321.8,170.1z"/>
						</g>
						<g>
							<path class="st1" d="M268.7,78.7c-0.8-0.3-1.6-0.8-2.4-1.4s-1.8-1.1-2.6-1.8c-0.9-0.6-1.7-1.3-2.4-1.9
								c-0.7-0.6-1.4-1.2-2-1.6c0.4,0,1,0.2,1.6,0.3c1.4,0.8,2.9,2,4.3,2.9C266.3,76.2,267.6,77.6,268.7,78.7z"/>
						</g>
						<g>
							<path class="st1" d="M190.3,59.1c-1.6,0.6-3.7,0.8-5.6,0.8c-1.9,0-3.7,0-4.9-0.1c-0.6-0.3-1.3-0.7-2.2-1
								c1.6-0.3,3.9-0.5,6.2-0.6c2.2,0,4.3,0.2,5.4,0.6C189.6,58.9,190.1,58.9,190.3,59.1z"/>
						</g>
						<g>
							<path class="st1" d="M125.4,315.1c2.6,1,5.1,2,7.7,2.9c1.3,0.4,2.6,0.9,3.8,1.3c1.3,0.4,2.5,0.8,3.8,1.2l-0.2,0.4
								c-1,1-3.5-0.1-4.8-0.2c-2.9-1-4.1-1.6-5.3-2.4c-1.2-0.7-2.4-1.4-5.4-2.6L125.4,315.1z"/>
						</g>
						<g>
							<path class="st1" d="M181.7,325.7c1.8,0.1,3.9,0,5.8,0c3.9,0.2,7.5,0.1,11.4,0l-0.1,0.7c-3.7,0.3-7,1-10.2,1.1
								c-1.6,0.1-3.1,0.1-4.5,0c-1.5-0.1-2.8-0.4-4.2-0.8C180.3,326.4,181,326,181.7,325.7z"/>
						</g>
						<g>
							<path class="st1" d="M216.4,323c1.3-0.3,2.8-0.6,4.2-0.9c1.5-0.3,2.9-0.8,4.4-1.2v1.1c-1.5,0.3-3,0.7-4.4,1
								c-1.5,0.3-2.9,0.5-4.2,0.7V323z"/>
						</g>
						<g>
							<path class="st4" d="M323.1,171.8c0-1.1,0.1-2,0.1-2.8c0.3-1.3,0.5-2.7,0.8-3.8c0.2,0.3,0.3,0.9,0.5,1.2
								c0.3,2.9,0.3,5.7,0.3,8.3C323.8,179.3,323.3,176.4,323.1,171.8z"/>
						</g>
						<g>
							<path class="st4" d="M297.6,92.2c-0.9-1.2-1.8-2.3-2.5-3.2c-0.8-0.9-1.6-1.7-2.4-2.6l-2.5-2.5c-0.4-0.4-0.7-0.9-0.9-1.1
								c-1.1-1.3-2.5-2.7-3.7-4c-0.9-0.8-1.5-1.4-2.2-2c0.2-0.8-0.9-2.4-2.9-4.5c-1-1.1-2.3-2.2-3.6-3.5c-0.7-0.6-1.4-1.3-2.2-2
								c-0.8-0.7-1.6-1.3-2.4-2c-0.9-0.5-2-1.3-3.1-2.2c-1.2-0.8-2.4-1.7-3.6-2.6c-0.6-0.5-1.2-1-1.9-1.5c-0.7-0.5-1.3-1-2-1.5
								c-1.3-1-2.7-2-3.9-2.9c-0.2-0.2-0.6-0.6-0.9-1.1c4.1,2.3,8.1,4.8,12,7.5c0.3-0.2,0.5-0.4,0.7-0.6c1.9,1.4,3.8,2.9,5.6,4.3
								c1.9,1.5,3.6,3,5.4,4.6c2.1,2.7,5,5.6,8.2,9.4c3.2,3.4,6.4,7.3,9,10.8c1.4,1.8,1.7,2.6,1.7,3.3c0.1,0.7,0,1.3,0.5,3.1
								C299.3,94.5,298.5,93.4,297.6,92.2z"/>
						</g>
						<g>
							<path class="st4" d="M259.3,72c-0.6-0.5-1.3-0.9-2.1-1.5c-3-0.7-7.5-4.1-11.3-6.1c0.1-0.2,0.3-0.3-0.6-1.3
								c1.2,0.6,2.4,1.2,3.6,1.7c1.2,0.6,2.4,1.1,3.4,1.7c1.1,0.4,1.9,0.6,2.9,0.8c1.4,0.8,2.9,1.9,4.2,2.9c0.4,0.7,0.8,1.3,1.5,2.1
								C260.3,72.2,259.7,72,259.3,72z"/>
						</g>
						<g>
							<path class="st4" d="M244.4,60.6c-1.3-0.7-2.6-1.5-3.9-2.2c-1.4-0.7-2.7-1.4-4-2.1c0.1-0.1,0.1-0.1,0.1-0.2
								c2,0.8,2.7,0.7,3.3,0.7c0.7,0,1.3,0,3.2,1.2c0.9,1,1.8,1.9,2.7,2.9C245.3,60.8,244.8,60.6,244.4,60.6z"/>
						</g>
						<g>
							<path class="st4" d="M225.4,55.1c-1.3-0.3-2.5-0.8-3.8-1.1c-1-0.4-2.2-0.8-3.4-1.2c0.2-0.4,0.4-0.8,0.8-1.4
								c1.2,0.4,2.4,0.8,3.6,1.2c1.2,0.4,2.3,0.9,3.6,1.3C225.8,54.5,225.6,54.8,225.4,55.1z"/>
						</g>
						<g>
							<path class="st4" d="M168.3,39c-1.8,1-0.5,1.3-2.7,1.4c-3.5,0.6-4.4,0.5-4.4,0.1c0.1-0.4,1.2-1.2,1.7-1.3
								C164.7,39.2,166.6,39.1,168.3,39z"/>
						</g>
						<g>
							<path class="st4" d="M155,39.7c1.2-1.1,2-1.3,2.9-1.6c4.6-1.1,3,0.1,3.8,0.9C159.4,39.3,157.2,39.5,155,39.7z"/>
						</g>
						<g>
							<path class="st4" d="M147,42.3c0.5,0.3,0.1,0.8-1,1.4c-1.1,0.6-3,1.1-5.4,1.8c0.5-0.4-1.1-0.1-2.5,0.4
								c-0.7,0.2-1.4,0.4-1.9,0.6c-0.5,0.2-1,0.4-1.4,0.6c-0.8,0.4-1.5,0.7-2.1,1.1c-0.6,0.4-1.3,0.7-2.2,1.2c-0.9,0.4-2,1-3.5,1.7
								c0.6,0.3,0.1,0.7-0.9,1.3c-0.5,0.3-1.1,0.6-1.8,0.9c-0.7,0.3-1.4,0.7-2.2,1.1c-1.1,0.6-2.3,1.2-3.5,1.8
								c-1.2,0.7-2.3,1.3-3.4,1.9c-1,0.6-1.9,1.2-2.9,1.8c-0.9,0.6-1.9,1.3-2.8,1.9c-0.6-0.1-1.2-0.2-1.6-0.5
								c-0.7,0.4-1.5,0.8-2.4,1.4l-3.8,2.8c-1.3,0.9-2.4,1.9-3.7,2.9c-6.8,3.7,6.9-6.2,0.1-2.5c0.4-0.3,1.1-0.9,1.9-1.7
								c0.8-0.7,1.8-1.5,2.7-2.2c0.9-0.7,1.7-1.3,2.4-1.7c0.6-0.3,1.1-0.3,1.1,0.2c1.2-0.7,2.4-1.4,3.4-1.9c2.2-1.6,3-2.2,3.2-2.6
								c0.2-0.3-0.1-0.4,0.1-0.7c1.6-1,3-1.8,4.2-2.4c1.2-0.6,2.3-1.1,3.4-1.6c2.1-1,4.2-1.7,7.1-2.9c0.3,0.3,1.3,0.1,2.6-0.3
								c1.4-0.4,3.1-1,5-1.8c1.9-0.7,4.1-1.4,6.1-2.1C143.3,43.2,145.3,42.7,147,42.3z"/>
						</g>
						<g>
							<path class="st4" d="M100.3,60c-2.4,1.6-2.6,2.7-5.5,4.6c-0.7,0.4-1.5,0.9-1.3,0.5c-1.5,1.1-2.9,2.3-4.3,3.5
								c-0.7,0.6-1.4,1.2-2.1,1.7c-0.7,0.6-1.4,1.2-2.1,1.9c0.5-0.9,1.2-2,2.2-3.1s2.2-2.2,3.4-3.3c1.2-1.1,2.5-2.1,3.7-3
								s2.3-1.7,3.1-2.2c0.5-0.3,1-0.7,1.2-0.8c1.4-1.1,3-2.5,4.5-3.6c1-0.6,1.7-1.1,2.5-1.6c1.2-0.6,2.4-1.2,3.7-1.8
								c1.3-0.6,2.6-1.2,3.9-1.7c0.8-0.5,1.4-0.9,1.9-1.1c0.5-0.2,0.9-0.3,1.2-0.4c0.7-0.1,1.1,0,2-0.2c-1.2,0.6-2.1,1.1-3,1.6
								c-0.8,0.6-1.5,1.1-2.3,1.7c-1.5,1.1-3,2.1-5.5,3.5c-1.3,0.6-2.5,1.3-3.8,1.9C102.6,58.7,101.4,59.4,100.3,60z"/>
						</g>
						<g>
							<path class="st4" d="M46.6,132c0.1,1.6-0.2,2.9-0.6,4.2c-0.4,1.3-1,2.6-1.5,4.2c-0.4,1.4-0.4,2.7-0.7,4
								c-0.2,1.3-0.6,2.6-1.3,4.3c-0.1-1.6,0-3.2,0-4.8c0.2-0.9,0.4-1.7,0.6-2.6c0.3-1.5,0.7-2.9,1-4.4
								C44.9,135.3,45.7,133.5,46.6,132z"/>
						</g>
						<g>
							<path class="st4" d="M198.9,325.7c2.5-0.5,4.9-1.2,7.4-1.7c2.1-0.4,3.9-0.7,5.7-1h2.2l2.2-0.1v0.7c-0.7,0.2-1.4,0.3-2.1,0.5
								c-0.7,0.1-1.5,0.3-2.2,0.4c-1.5,0.3-2.9,0.5-4.4,0.8c-3,0.4-5.9,0.8-8.8,1.1L198.9,325.7z"/>
						</g>
						<g>
							<path class="st6" d="M228.8,314.3c0-0.4,0-0.7-0.1-1.1c1.6-0.5,2.8-1,3.9-1.4c1-0.4,1.9-1,2.7-1.4s1.7-0.9,2.7-1.3
								s2.2-0.8,3.8-1.3c-0.3-0.4,2.8-2.3,1-2.5c6.9-2.9,10.2-5.5,8.2-5.5c-1,0.6-2.3,1.2-6.2,2.9c1.5-1.4,5.4-3.4,9.6-5.9
								c0.5-0.3,1.1-0.6,1.6-0.9c0.5-0.3,1.1-0.7,1.6-1c1.1-0.7,2.2-1.4,3.3-2.1c2.1-1.5,4.2-3,6-4.5c1.6-2.6,7.7-7.2,14.4-15
								c0.9-0.1,1.8-0.2,2.7-0.3c-0.6,0.7-1.2,1.4-1.8,2.1c-0.6,0.7-1.3,1.4-1.9,2c0.2,0.4,0.5,0.8,0.7,1.2c0.1,0.1,0.1,0.2,0.2,0.4
								c1-1,2.1-1.9,2.9-2.8c0.8-0.8,1.4-1.4,2-2.1c0.2-0.7-1.3,0.1,0.4-2c0.9-0.8,1.9-1.8,2.8-2.8c1-1,1.9-2,2.9-3
								c-0.1-0.6,0-1.4-0.1-1.9c1.3-1.7,2.7-3.2,3.9-4.8c1.2-1.7,2.5-3.3,3.7-5l-0.3-0.3c2.5-4.2,5-8.7,7.1-13.1
								c0.9-1.8,1.6-3.3,2.4-5.2c-0.2-0.5-0.4-1.4-0.6-1.9c1-1.8,2-3.6,2.8-5.4c0.4-0.9,0.9-1.8,1.3-2.7c0.5-0.9,0.9-1.8,1.3-2.8
								c0.2-0.8,0.4-1.7,0.6-2.5c0.1-1.6,0.2-3.1,0.2-4.7l1.3-4.4c0.4-1.5,0.7-3,1.1-4.5c0.1-0.8,0.2-1.6,0.3-2.4
								c0.1-0.8,0.2-1.6,0.2-2.4c0.1-1.6,0.3-3.3,0.4-4.8c0.7-1.5,1.5-3.2,2.2-4.6c0.4,0.5,0.8,1.2,1.2,1.9l0.6-3.3
								c0.1-1.1,0.3-2.2,0.4-3.4c0.3-0.5,0.7-0.9,0.9-1.1c0.2-0.8,0.4-1.7,0.7-2.6c0.2-0.9,0.4-1.8,0.5-2.6c0.4,1.6,0.8,2.8,1,4.4
								c0.9-0.6,1.7-1.2,2.5-1.9c-0.1,1.2-0.2,2.6-0.3,4.1c-0.7,1.6-1.4,3.4-2.2,4.9c-0.1-1-0.2-1.9-0.3-2.8
								c-0.2,0.8-0.4,1.6-0.7,2.4c-0.5,2.8-0.8,5.4-1.4,8.2c-0.3-0.2-1.1,2.6-1.7,3.5c-0.1,1.5-0.2,3-0.4,4.5
								c-0.4,1.7-0.9,3.6-1.4,5.3c0,1.6,0.1,3.3,0.2,4.7c-0.2,0.6-0.4,1.1-0.5,1.4l0.9,0.6c-0.6,1.7-1.2,3.6-1.8,5.3
								c-0.5,0.5-1,1.5-1.6,3.1c-0.5,1.6-1.1,3.7-1.9,6.4c-1.5,3.5-3.2,6.6-5,10c-0.7,1.3-1.5,2.5-2.2,3.8c-0.7,1.2-1.4,2.4-2.2,3.5
								c-1.3,2.4,0.1,1.4,0.1,2.2c-0.1,0.3-0.4,0.9-0.6,1.4c-0.8,1.4-1.7,2.8-2.6,4.2c-0.9,1.4-1.8,2.8-2.7,4.1
								c-3.3,4.2-6.4,8.2-10.1,12.1c-0.9,0.9-1.9,1.9-2.8,2.8s-1.9,1.8-2.9,2.6c-1,0.9-1.9,1.8-2.9,2.6c-1,0.8-2,1.7-3,2.5
								c-2.3,1.9-4.5,3.4-6.8,5.1c-0.8,0.3-1.6,0.6-2.4,1l-2.9,1.9c-1,0.6-1.9,1.3-3,1.9c-0.6,0-1.2,0-2.8,0.5
								c-1.8,1.6-3.8,3.1-5.7,4.6c1.1-0.1,0.3,0.7-0.7,1.6s-2.1,1.8-1.3,1.9c-0.3,0.2-0.8,0.5-1,0.8c-1.9,0.8-3.5,1.6-5.4,2.4
								c-2.2,0.7-4.2,1.2-6.7,2c-1.7,0.6-3.4,1.1-5.2,1.7C232.5,313.3,230.7,313.8,228.8,314.3z"/>
						</g>
						<g>
							<path class="st4" d="M320.4,192.5c0.1-0.6,0.1-1.1,0.1-1.6c0-0.6,0-1.1,0-1.8c0-1.4,0-3.3,0-6.2c0.5-6.3,1.1-1.9,1.6-2.1
								c0.1,1.2,0.3,2.2,0.4,3.3s0.1,2.3,0,3.7c-0.1,1.1-0.2,2.2-0.4,3.4l-0.6,3.3C321.2,193.6,320.8,192.9,320.4,192.5z"/>
						</g>
						<g>
							<path class="st7" d="M252.4,66.5c-1.1-0.6-2.2-1.1-3.4-1.7s-2.4-1.1-3.6-1.7c-0.2-0.1-0.7-0.4-0.9-0.5c-0.1-0.7-0.1-1.4,0-2
								c0.3,0,0.9,0.2,1.5,0.3c1.5,0.7,3.2,1.5,4.7,2.2c0.7,0.4,1.4,0.8,2.1,1.2c0.9,1,1.7,2,2.6,2.9
								C254.4,67.1,253.5,66.9,252.4,66.5z"/>
						</g>
						<g>
							<path class="st6" d="M268.8,60.7c-1.8-1.1-3.6-2.3-5.5-3.4c-1.9-1-3.8-2.1-5.6-3.1c-0.2-0.2-0.6-0.6-0.9-1.1
								c-1.3-0.9-2.7-1.7-4-2.6c-1.4-0.8-2.8-1.6-4.1-2.4c-2.6-0.5-6.7-2.6-9.4-3.8c-3-1.2-5.9-2.6-9.1-3.7
								c-1.8-0.4-3.5-0.9-5.5-1.3c-1.3-0.6-2.3-1.1-3.6-1.7c-2.2-0.7-4.5-1.2-6.7-1.8c-1.5-0.4-3.2-0.7-4.8-1.1
								c-1.6-0.3-3.3-0.7-4.9-0.9c0.7-0.2,1.4-0.4,1.8-0.6c1.4,0.4,2.8,0.7,4.1,1.1c1.3,0.4,2.7,0.7,4,1.2c-0.2-1.4-4.8-2-7.9-2.6
								c0.1-0.2,0.2-0.4,0.3-0.6c2,0.2,4,0.4,5.9,0.6c1.9,0.2,3.8,0.6,5.7,0.8c0.8,0.3,1.7,0.5,2.5,0.8s1.6,0.6,2.4,0.9
								c1.6,0.6,3.1,1.1,4.6,1.7c2.2,0.8,4.4,1.7,6.6,2.5c2.2,0.9,4.3,1.9,6.5,2.8c-1.7-0.2-3.3-0.4-4.7-0.5c1,0.6,2.3,1.2,3.5,1.9
								c1.4,0.6,2.7,1.1,4,1.6s2.7,1,4,1.7c0.4-0.1,1.2,0,1.9,0c1.4,0.8,2.9,1.5,4.2,2.4l4.1,2.5c2,1.2,3.9,2.6,5.8,4
								c1.9,1.3,3.7,2.8,5.6,4.2C269.3,60.3,269.1,60.4,268.8,60.7z"/>
						</g>
						<g>
							<path class="st7" d="M247.8,46.9c-1.4-0.6-2.7-1.1-4-1.7c-1.3-0.5-2.6-1.1-4-1.6c-1.3-0.7-2.6-1.3-3.5-1.9
								c1.3,0.1,3,0.3,4.7,0.5c2.9,1.5,6,3,8.8,4.7C249,46.9,248.3,46.9,247.8,46.9z"/>
						</g>
						<g>
							<path class="st7" d="M214.5,35.3c-1.4-0.5-2.7-0.8-4-1.2c-1.3-0.3-2.7-0.7-4.1-1.1c-0.4,0.2-1.1,0.4-1.8,0.6l-4.8-0.6
								c-1.6-0.2-3.2-0.3-4.8-0.5c-1.1-0.1-2.2-0.2-3.3-0.3s-2.1-0.1-3.2-0.1c-2.1,0-4.3-0.2-6.5-0.1c-1.3-0.1-2.5-0.3-3.6-0.4
								c-1.2-0.1-2.2-0.2-3.3-0.1c-2.4,0.3-4.5,0.4-7.1,0.8c-9.7,1.2-19.6,3.4-28.9,6.5c-0.6,0.2-1.1,0.4-1.4,0.5
								c-1.5,0.3-2.7,0.6-3.8,0.8c-1,0.3-1.9,0.6-2.7,0.8c-1.6,0.5-2.8,1-4.5,1.7c0,0.2,0.1,0.5,0.1,0.7c-0.8,0.4-1.6,0.7-2.4,1.1
								c-1.2,0.5-2.3,0.9-3.2,1.2c-0.9,0.3-1.6,0.7-2.3,0.9c-1.2,0.5-2,0.7-2.4,0.7c-0.6,0.6-1.3,1.1-2.1,1.7
								c-0.7,0.5-1.5,1.1-2.3,1.5c-1.6,0.9-3.2,1.7-4.3,2.3c-0.7,0.6-1.4,1.2-2.1,1.9c-0.7,0.5-1.5,0.9-2.5,1.6
								c-1.4,1.1-3.1,2.4-4.5,3.6c-0.2,0.2-0.7,0.5-1.2,0.8c-1.3,0.5-2.4,0.8-3.8,1.3c0.2-0.2,0.7-0.7,1.1-1.1
								c1.8-1.5,3.9-2.8,5.8-4.2c-0.1-0.3-0.2-0.6-0.3-0.9c1.1-0.9,2.2-1.7,3.4-2.6c1.2-0.9,2.3-1.7,3.5-2.6
								c1.1-0.5,1.9-0.9,2.7-1.3c0.5-0.3,0.8-0.4,1.3-0.7c2.2-1.6,4.1-2.6,5.7-3.5c1.6-0.8,2.9-1.5,4.1-2s2.3-0.8,3.4-1.2
								s2.2-0.8,3.6-1.3l4.4-1.8c1.5-0.6,3-1.1,4.5-1.6c3-1.1,6-1.9,9.1-2.8c1.9,0.3,3.4,0.1,4.9-0.3c1.5-0.4,3-1.1,4.7-1.4
								c1.6-0.3,3.3-0.7,5-1s3.4-0.5,5.1-0.8c1.1-0.2,2.2-0.4,3.3-0.6c1.1-0.1,2.2-0.2,3.3-0.3c2.2-0.2,4.4-0.3,6.6-0.2
								c4.4,0,8.9,0.3,13.8,0.6c2.4,0.2,4.8,0.3,7.1,0.6c2.4,0.3,4.7,0.6,7.1,1c-0.1,0.2-0.2,0.4-0.3,0.6
								C209.7,33.3,214.2,33.9,214.5,35.3z"/>
						</g>
						<g>
							<path class="st7" d="M68.5,87c0.2,0.3,0.4,0.5,0.6,0.7l-1.4,1.9c-0.5,0.6-0.9,1.3-1.3,1.9l-2.6,3.9l-2.4,4l-1.2,2l-1.1,2.1
								c-0.7,0.9-1.5,2.1-2.4,3.3c-1,1-1.9,2.1-2.8,2.9c-0.6,1.4-1.3,2.8-1.8,4.1c-0.6,1.4-1.1,2.7-1.6,4c-0.4,0.9-0.9,1.7-1.3,2.6
								L48,123c-0.8,1.8-1.6,3.5-2.3,5.3c-0.1,1.5-0.7,3.6-1.1,5.4c-0.3,1.8-0.6,3.2-0.3,3.2c-0.3,1.5-0.7,2.9-1,4.4
								c-0.2,0.9-0.4,1.7-0.6,2.6c-0.4,1.1-0.7,2.2-1.1,3.3c-0.3,1.1-0.6,2.2-0.9,3.4c-0.1,1-0.2,2.1-0.4,3.3s-0.3,2.5-0.5,3.8
								s-0.4,2.6-0.5,3.8s-0.1,2.4-0.1,3.4c-0.4,2.3-0.8,4.6-1.1,6.9c-0.2,2-0.1,3.8-0.1,5.4c0.1,1.6,0.2,3.1-0.2,4.6
								c0,2.4,0.2,4.8,0.4,7.1c0.1,1.2,0.1,2.4,0.3,3.6l0.4,3.6c0.2,1.2,0.4,2.4,0.7,3.6c0.3,1.2,0.6,2.4,0.9,3.5
								c0.1,0.9,0.1,1.7,0.2,2.6c0.5,1.8,1,3.4,1.4,5.1c0.2,0.8,0.5,1.6,0.7,2.4c0.3,0.8,0.5,1.6,0.8,2.4c0.4,1.7,0.7,3.7,1.1,5.4
								c1.2,2.8,2.3,5.4,3.7,8.1c0.6,2.2,1.2,4.5,2,6.7c0.9,1.5,1.7,3.1,2.6,4.7c0.9,1.6,1.9,3.3,2.8,5c0.9,1.7,2,3.2,2.9,4.8
								c0.9,1.5,1.9,2.9,2.9,4.1c0.2,0.2,0.7,0.9,1.3,1.8c0.3,0.4,0.6,0.9,1,1.4s0.7,1,1.1,1.5c1.4,2,2.6,3.9,2,3.6
								c0.3,0.8,1.2,1.9,2.1,3.1s2,2.6,3,3.7c2,2.3,3.4,4.1,1.9,3.6c-1.4-1.6-2.5-2.7-3.2-3.4c-0.7-0.8-1.2-1.2-1.5-1.5
								c-0.7-0.6-1.1-0.9-2.5-2.7c-2.8-4.2-4.7-7.1-6-9.3c-1.4-2.2-2.5-3.6-3.4-4.9c-0.9-1.3-1.8-2.5-2.6-3.8
								c-0.9-1.2-1.6-2.5-2.4-3.7c-0.5-1.4-1.1-2.7-1.5-4s-0.9-2.6-1.3-4c-0.9-2-1.7-4.2-2.6-6.2c-0.4-1-0.9-2-1.3-3
								c-0.4-1-0.9-1.9-1.4-2.9l0.8,3.5c0.3,1.1,0.6,2.3,1,3.4l1,3.4c0.3,1.1,0.7,2.2,1.1,3.4c-1.5-1.3-1.7-1.2-1.9-1.2
								c-2.5-6.8-4.6-12.9-6.2-19.3l-0.8-2.9l-0.7-2.9l-0.6-2.9c-0.2-1-0.4-1.9-0.6-2.9c-0.3-2.2-0.8-4.6-1.1-7.1
								c-0.2-2.4-0.6-4.9-0.7-7.3c0-0.3-0.1-0.9-0.1-1.2c-0.2-1.2-0.3-2.3-0.5-3.5c-0.2-1.1-0.3-2.2-0.3-3.4
								c-0.1-2.2-0.3-4.4-0.2-6.8c0.1-2.4,0.2-4.9,0.4-7.6c0.2-1.4,0.3-2.8,0.5-4.4c0.1-0.8,0.2-1.6,0.3-2.4
								c0.1-0.8,0.3-1.7,0.5-2.5c0.2-1.4,0.4-2.8,0.7-4.2c0.2-1.4,0.6-2.8,0.8-4.2c0.3-1.4,0.6-2.8,0.9-4.3c0.4-1.4,0.7-2.9,1.1-4.3
								c-0.2,2.5-0.5,5-0.6,7.6c0.3-0.8,0.5-1.7,0.8-2.6c0.3-0.9,0.7-1.8,1-2.6c0.6-2.6,0.8-4.7,1.1-6.8c0.1-1,0.3-2,0.4-3.1
								c0.2-1,0.4-2.1,0.7-3.3c0.2-1.5,0.6-3.5,1.2-5.6c0.6-2.1,1.4-4.4,2.3-6.7c0.9-2.3,2-4.5,3-6.6c1.1-2,2.2-3.9,3.2-5.4
								c0.4-0.5,0.7-0.9,0.9-1.2c1.2-1.7,2.3-3.1,3.4-4.5c0.8-1.4,1.7-2.8,2.5-4s1.6-2.2,2.5-3.1c1.4-2,2.7-4,4.1-6
								c0.7-0.9,1.3-1.6,1.9-2.3C68.1,86.5,68.3,86.8,68.5,87z"/>
						</g>
						<g>
							<path class="st7" d="M78.7,276.7c1,1.1,1.8,2.2,2.8,3.2s1.9,2,2.9,3.1c0.5,0.6,0.9,1.1,1.3,1.6s0.9,1,1.4,1.5
								c1,0.7,1.8,1.2,2.6,1.7c0.5,0.4,1,0.9,1.5,1.3s1,0.8,1.5,1.2c1,0.8,2,1.6,3.1,2.4c2,1.6,4.2,3.1,6.3,4.6
								c0.3-0.7,4.6,2.8,6.4,3.5c2.3,1.3,3.1,2,3.9,2.7s1.6,1.5,3.9,2.7c1.8,0.2,1.9,0,2.1-0.1c0.7,0.4,1.5,0.8,2.2,1.1
								c0.8,0.4,1.6,0.7,2.4,1.1s1.7,0.8,2.6,1.2c0.9,0.4,1.9,0.9,2.9,1.3c2,0.4,3.8,0.8,5.3,1.3c1.4,0.4,2.5,0.8,3.1,1.2
								c0.4,0.4,0.8,0.9,0.9,1.2c1,0.4,1.9,0.7,2.8,1.1c0.9,0.3,1.8,0.5,2.6,0.8c1.6,0.5,3.1,0.9,4.4,1.2c2.7,0.5,4.9,0.9,7,1.1
								l4.8,0.9l2.4,0.4l2.4,0.3c2,0.5,3.6,1,5.3,1.3c2.2-0.3,4.1-0.5,6.3-0.8c1.7,0.4,3.6,0.7,5.3,1c0.9,0,1.9,0.1,3,0.1
								s2.5,0,4.1-0.1c0.9-0.2,1.9-0.5,2.8-0.7c1.7-0.1,3.4-0.2,5-0.3c0.8-0.1,1.7-0.1,2.5-0.2l2.5-0.3c1.6-0.2,3.3-0.4,5-0.6
								c1.6-0.3,3.3-0.6,5-0.9c1.1,0.6,2.5,1.2,3.9,1.6c-1.2,0.2-2.3,0.4-3.5,0.6l-3.5,0.5c-7.9,0.3-10.4,1.1-11.3,1.6
								c-2.1,0.4-3.7,0.4-5,0.4c-1.3-0.1-2.4-0.4-3.5-0.6l-3.6,0.3c-1.2,0.1-2.4,0.1-3.7,0.2c-1.6-0.2-3.3-0.3-5-0.5
								s-3.3-0.5-4.9-0.7c-0.7,0-1.4,0.1-2.1,0.1c-0.7,0-1.5,0-2.2,0c-1.5,0-3.1-0.1-4.6-0.1c-5.5-1.2-7-1.4-11.5-1.6
								c-0.3-0.1-0.9-0.2-1.5-0.3c-0.8-0.1-1.7-0.2-2.6-0.4c-0.9-0.2-2-0.5-3-0.7c-2-0.5-4.1-1.1-5.7-1.5c-1.2-0.8-2.4-1.6-3.6-2.4
								c-0.3-0.1-0.9-0.3-1.1-0.4c-1.4-0.6-2.8-1.1-4.2-1.7c-0.7-0.3-1.4-0.5-2.1-0.8s-1.4-0.6-2.1-0.9c-1.4-0.6-2.8-1.3-4.2-1.9
								c-1.4-0.7-2.8-1.4-4.2-2.1c-1.4-0.7-2.8-1.4-4.2-2.2c-1.2-0.8-3.1-2-4.6-3s-2.8-1.7-2.9-1.4l-3-2c-1-0.7-1.9-1.4-2.9-2.1
								c-0.1,0.2-0.8-0.2-2.2-1.2c-1.4-1-3.3-2.8-5.9-5c-2-1.6-4-3.3-6-5c-1.9-1.8-3.9-3.5-5.8-5.4c0.2-0.1,0.5-0.3,0.8-0.4
								c-1.3-1.6-2.4-2.9-3.7-4.5C76.7,275.8,77.8,276.2,78.7,276.7z"/>
						</g>
						<g>
							<path class="st8" d="M226,315.7c2-0.1,3.7-0.3,5.7-0.5c-2.2,1.8-3.9,2.9-1.3,2.3c2.3-0.6,2.9-1,3.4-1.4
								c0.6-0.4,1.1-0.8,3.4-1.5c1.4-0.5,2.6-0.8,4-1.3c0.1,0.5,0.1,0.9,0.2,1.3c-2.4,0.9-4.9,2-7.4,2.9c-1.3,0.4-2.6,0.9-3.9,1.3
								l-1.9,0.7l-2,0.6c-1.8,0.3-3.6,0.5-5.5,0.8c-1.9,0.2-3.8,0.4-5.7,0.6c0-0.3,0-0.6,0.1-0.9c-1.2,0.2-2.3,0.4-3.5,0.6l-3.5,0.5
								c1-0.9,1.9-1.8,3.1-2.7c0.6-0.1,1.2-0.2,1.9-0.3c0.6-0.1,1.2-0.3,1.9-0.4c1.3-0.3,2.5-0.5,3.8-0.8c1.3-0.2,2.5-0.6,3.7-0.9
								C223.6,316.3,224.8,316,226,315.7z"/>
						</g>
						<g>
							<path class="st7" d="M228.8,314.3c1.8-0.5,3.7-1,5.4-1.6c1.8-0.6,3.5-1.2,5.2-1.7c-1.1,0.6-2.1,1.3-3.1,1.9
								c-1.1,0.6-2.1,1.3-3.4,1.9c-0.3,0.1-0.9,0.3-1.1,0.4c-2,0.2-3.7,0.4-5.7,0.5C227.2,315.2,228,314.7,228.8,314.3z"/>
						</g>
						<g>
							<path class="st7" d="M252.5,305.8c-0.8-0.1,0.4-1,1.3-1.9c1-0.9,1.9-1.8,0.7-1.6c2-1.5,3.9-3,5.7-4.6
								c1.6-0.5,2.2-0.5,2.8-0.5c1-0.6,2-1.2,3-1.9l2.9-1.9c0.8-0.3,1.6-0.6,2.4-1c-1.3,1.4-2.9,2.8-4.3,4.1
								c-3.9,2.8-7.9,5.5-12,7.9C254.4,304.8,253.6,305.3,252.5,305.8z"/>
						</g>
						<g>
							<path class="st7" d="M305.9,254.9c-2.3,1.2,0.8-4.2,3-8.7c0.3-0.1,0.8-0.4,1.2-0.8c1.8-3.4,3.4-6.5,5-10
								c0.8-2.6,1.4-4.8,1.9-6.4c0.5-1.6,1-2.6,1.6-3.1c0.6-1.7,1.2-3.6,1.8-5.3l-0.9-0.6c0.1-0.3,0.3-0.8,0.5-1.4
								c0.6-1.6,1.3-3.5,1.9-5.1c0.3,0.2,0.6,0.3,1,0.6c-0.4,3.7-1.9,9.5-4.3,15.3c-0.3,1.2-0.6,2.4-1,3.6c-0.4,1.2-0.7,2.3-1.1,3.5
								c-1.8,3.4-3.7,6.3-5.7,9.4C309.3,248.9,307.6,252.1,305.9,254.9z"/>
						</g>
						<g>
							<path class="st7" d="M305.1,249.9c0.7-2.5,3-5.7,4.3-8.6c0.3,0.3,0.6,0.6,1,0.9c-0.7,1.3-1.2,2.3-1.9,3.6
								C307.4,247,306.1,248.6,305.1,249.9z"/>
						</g>
						<g>
							<path class="st7" d="M321.1,208.8c0.2-1.5,0.3-3,0.4-4.5c0.7-0.9,1.4-3.6,1.7-3.5c0.6-2.8,1-5.4,1.4-8.2
								c0.2-0.8,0.5-1.6,0.7-2.4c0.2,0.9,0.3,1.9,0.3,2.8c0.8-1.5,1.5-3.4,2.2-4.9c-0.1,1.2-0.1,2.4-0.2,3.6l-0.4,3.5
								c-0.5,0.7-1,1.4-1.6,2.4c-0.4,2.6-1,5.5-1.4,8.1c-0.7,1.2-1.3,2.5-2,3.7C321.9,209.2,321.5,209,321.1,208.8z"/>
						</g>
						<g>
							<path class="st6" d="M262.9,72c-1-0.5-2.3-1.2-3.5-1.8c-1.3-0.9-2.8-2-4.2-2.9c-0.9-1-1.7-2-2.6-2.9c1.8,1,3.5,2,5.2,3
								c1.7,1.1,3.3,2.1,5,3.3c0.5,0.6,0.9,1.3,1.4,1.9C264,72.5,263.4,72.3,262.9,72z"/>
						</g>
						<g>
							<path class="st6" d="M238.7,59.9c-2.6-0.8-5.2-1.6-7.6-2.2l-2.8-1.4c-0.9-0.4-1.9-0.8-2.8-1.2c0.2-0.3,0.4-0.6,0.7-1.1
								c0.8,0.2,1.6,0.5,2.4,0.7c0.8,0.3,1.6,0.6,2.4,0.8c1.8,0.2,3.8,0.4,5.6,0.7c1.3,0.7,2.6,1.4,4,2.1c1.3,0.8,2.6,1.5,3.9,2.2
								c-0.2,0.6-0.1,1.3,0,2C242.5,61.7,240.6,60.7,238.7,59.9z"/>
						</g>
						<g>
							<path class="st6" d="M181.9,32.1c-1.9,0.6-5.7,0.4-9.8,0.8c-1.1,0.1-2.2,0.2-3.5,0.4c-1.2,0.1-2.5,0.3-3.8,0.5
								c-2.6,0.2-5.4,0.7-8.1,1.1c-5.4,0.9-10.6,2.3-13.8,3.9c-2.5,0.9-2.8,0.8-3,0.6s-0.3-0.6-2.4,0c-3.7,1.1-7.2,2.6-10.8,4
								c0-0.2-0.1-0.5-0.1-0.7c2.1-0.7,4.1-1.4,6.1-2c2-0.7,4.1-1.2,6.2-1.8c9.3-3.1,19.2-5.3,28.9-6.5c2.6-0.3,4.7-0.5,7.1-0.8
								c1-0.1,2.1,0,3.3,0.1C179.4,31.8,180.7,31.9,181.9,32.1z"/>
						</g>
						<g>
							<path class="st6" d="M122,47.5c-1.3,0.6-2.4,1.2-3.7,1.8c-0.8,0.2-1.3,0.1-2,0.2c-0.3,0.1-0.7,0.2-1.2,0.4s-1.1,0.6-1.9,1.1
								c-1.3,0.6-2.6,1.2-3.9,1.7c-1.3,0.6-2.5,1.2-3.7,1.8c0.7-0.7,1.4-1.3,2.1-1.9c5.3-3.3,6.5-4.5,8.7-5.5c0.4,0,1.2-0.2,2.4-0.7
								c0.6-0.2,1.4-0.6,2.3-0.9c0.9-0.3,2-0.7,3.2-1.2C123.7,45.6,126.8,45.1,122,47.5z"/>
						</g>
						<g>
							<path class="st6" d="M85,72.1c-0.4,0.5-0.8,1-1,1.2c-0.7,0.6-1.4,1.3-2.1,1.9l-2,2c-1.3,1.3-2.7,2.6-4,4.1l-3.6,3.1
								c-1.2,1.1-2.3,2.2-3.4,3.3c-0.2-0.3-0.4-0.5-0.6-0.7c5.5-7,11.8-13.8,18.5-19.8c1.1-0.9,2.2-1.8,3.3-2.7
								c1.1-0.9,2.2-1.7,3.4-2.6c1.4-0.5,2.5-0.8,3.8-1.3c-0.9,0.6-1.9,1.3-3.1,2.2s-2.5,1.8-3.7,3c-1.2,1.1-2.4,2.2-3.4,3.3
								C86.3,70.1,85.5,71.2,85,72.1z"/>
						</g>
						<g>
							<path class="st6" d="M53.7,113.5c-0.7,1.3-1.4,2.6-1.9,3.6c-1.4,2.9-2.7,6.2-3.9,11c-0.5,1.4-0.9,2.5-1.3,3.9
								c-0.8,1.5-1.6,3.3-2.4,4.9c-0.3,0,0-1.4,0.3-3.2c0.4-1.8,0.9-3.9,1.1-5.4c0.7-1.8,1.5-3.5,2.3-5.3l1.2-2.6
								c0.4-0.9,0.8-1.7,1.3-2.6c0.5-1.3,1-2.6,1.6-4s1.2-2.7,1.8-4.1c0.9-0.8,1.7-1.9,2.8-2.9C55.5,109,54.6,111.3,53.7,113.5z"/>
						</g>
						<g>
							<path class="st6" d="M42.6,148.7c-0.4,2.3-0.9,4.6-1.2,6.9c0,1.8-0.1,4-0.1,5.8c-0.2,1.4-0.4,2.6-0.5,4
								c0.1,1.1-0.1,3.3-0.2,5c-0.1,1.7-0.4,2.9-0.7,1.9c0.1,1.4,0.1,2.8,0.1,4.1s0.1,2.5,0.1,3.7s0,2.3,0,3.5c0,1.1,0,2.2,0,3.4
								c0.1,2.2,0,4.5,0.4,7c0.3,2.4,0.7,5.1,1.6,8c-0.2,0.6-0.4,0.8-0.6,1.4c0.4,2.3,1,4.6,1.6,6.9c0.5,0.9,1,2,1.5,3.1
								c0.5,1,0.9,1.9,1.2,2.4c0.2,0.8,0.5,1.7,0.8,2.8c0.7,2.5,1.7,5.3,2.5,7.8s1.4,4.4,2.1,6.6c0.4,0.5,0.9,1,1.2,1.2
								c1,2.3,2.1,4.8,3.4,7.4c0.6,1.3,1.3,2.6,2,3.9c0.7,1.3,1.4,2.6,2.2,3.8c0.4,0.6,0.7,1.3,1.1,1.9c0.4,0.6,0.8,1.2,1.1,1.8
								c0.8,1.2,1.5,2.4,2.2,3.5c1.5,2.2,3,4.1,4.2,5.8c0.5,0.6,1.1,1.1,1.9,2s1.9,2.2,3.5,4.3c0.5,1,0.8,1.8,1.1,2.6
								c1,1.1,1.9,2.2,2.7,3.1c1.7,1.6,3.4,3.4,5.1,5c1.8,1.6,3.5,3.2,5.2,4.7c9.1,7.5,17.1,13.8,26.6,18.6c0.9,0.3,2.6,1.1,4.5,2.1
								c1,0.5,2,1,3,1.4s2,0.7,3,0.9c0.1,0.3,0.5,0.7,1.2,1.1s1.7,1,3,1.5c1.3,0.6,2.9,1.2,4.7,2c1.8,0.7,3.9,1.5,6.2,2.4
								c2.4,0.9,4.9,1.7,7.3,2.5c2.4,0.7,4.9,1.4,7.4,2.1c3.3,0.6,3.9,0.3,5.2,0.3c1.3-0.1,3.1,0,9.1,1.1c2.3,0.3,4.6,0.6,6.9,1
								c2.5,0.2,5,0.3,7.6,0.5c2.6,0,5.1,0.1,7.6,0.1c-0.9,0.2-1.9,0.5-2.8,0.7c-1.6,0-3,0.1-4.1,0.1s-2.1-0.1-3-0.1
								c-1.7-0.3-3.7-0.7-5.3-1c-2.2,0.3-4.1,0.5-6.3,0.8c-1.7-0.4-3.4-0.9-5.3-1.3l-2.4-0.3l-2.4-0.4l-4.8-0.9
								c-2.1-0.2-4.3-0.6-7-1.1c-1.3-0.3-2.8-0.7-4.4-1.2c-0.8-0.2-1.7-0.5-2.6-0.8c-0.9-0.3-1.8-0.7-2.8-1.1
								c-0.1-0.3-0.5-0.8-0.9-1.2c-0.6-0.4-1.7-0.8-3.1-1.2c-1.4-0.5-3.2-0.9-5.3-1.3c-1-0.4-2-0.8-2.9-1.3
								c-0.9-0.4-1.8-0.8-2.6-1.2c-0.8-0.4-1.6-0.7-2.4-1.1s-1.5-0.8-2.2-1.1c-0.2,0.2-0.3,0.3-2.1,0.1c-2.4-1.2-3.1-2-3.9-2.7
								s-1.6-1.4-3.9-2.7c-1.9-0.6-6.1-4.1-6.4-3.5c-2.2-1.6-4.3-3-6.3-4.6c-1-0.8-2-1.6-3.1-2.4c-0.5-0.4-1-0.8-1.5-1.2
								c-0.5-0.4-1-0.9-1.5-1.3c-0.8-0.5-1.6-1-2.6-1.7c-0.5-0.5-0.9-1-1.4-1.5c-0.4-0.5-0.8-1-1.3-1.6c-1-1.1-2-2.1-2.9-3.1
								s-1.8-2.1-2.8-3.2c-1-0.5-2-0.9-3.2-1.5c-0.6-0.7-1.2-1.4-1.7-2c1.5,0.5,0.1-1.2-1.9-3.6c-1-1.2-2-2.5-3-3.7
								c-0.9-1.2-1.8-2.3-2.1-3.1c0.6,0.2-0.6-1.6-2-3.6c-0.4-0.5-0.7-1-1.1-1.5c-0.3-0.5-0.7-1-1-1.4c-0.6-0.9-1.1-1.6-1.3-1.8
								c-1-1.2-2-2.6-2.9-4.1s-2-3.1-2.9-4.8s-1.8-3.4-2.8-5c-0.9-1.6-1.7-3.3-2.6-4.7c-0.8-2.2-1.4-4.5-2-6.7
								c-1.4-2.7-2.5-5.3-3.7-8.1c-0.4-1.7-0.8-3.7-1.1-5.4c-0.3-0.8-0.5-1.6-0.8-2.4c-0.2-0.8-0.5-1.6-0.7-2.4
								c-0.5-1.6-1-3.3-1.4-5.1c-0.1-0.9-0.2-1.8-0.2-2.6c-0.3-1.2-0.6-2.4-0.9-3.5c-0.3-1.2-0.4-2.4-0.7-3.6l-0.4-3.6
								c-0.2-1.2-0.2-2.4-0.3-3.6c-0.2-2.4-0.4-4.8-0.4-7.1c0.4-1.5,0.3-3,0.2-4.6s-0.2-3.4,0.1-5.4c0.3-2.3,0.7-4.6,1.1-6.9
								c0-1,0-2.1,0.1-3.4c0.1-1.2,0.3-2.5,0.5-3.8s0.3-2.6,0.5-3.8s0.4-2.3,0.4-3.3c0.3-1.1,0.6-2.2,0.9-3.4
								c0.4-1.1,0.7-2.2,1.1-3.3C42.6,145.5,42.5,147.1,42.6,148.7z"/>
						</g>
						<g>
							<path class="st6" d="M44.9,190.1c0.2,2.3,0.5,4.5,0.8,6.8c-0.5-0.1-1-0.1-1.6-0.2c-0.1-0.6-0.1-0.9-0.2-1.4
								c-0.1-1.7-0.4-3.7-0.4-5.4C44.2,189.9,44.6,190,44.9,190.1z"/>
						</g>
						<g>
							<path class="st6" d="M46.1,204.9c0.2,3.6,0.7,6.1,0.1,5.3c-0.3-1.4-0.6-2.7-0.9-4.1c-0.3-1.3-0.4-2.7-0.6-4.1
								C45.2,202.9,45.7,203.8,46.1,204.9z"/>
						</g>
						<g>
							<path class="st6" d="M69.5,258.7c1.7,1.4,3.6,4.2,5.4,6.5c1,1.4,2.4,2.8,3.5,4.2c0,0.6-0.1,1-0.1,1.6
								c-1.1-1.2-2.2-2.4-3.3-3.7c-1.1-1.3-2.1-2.6-3.1-3.8C70.5,261.6,70.1,260.2,69.5,258.7z"/>
						</g>
						<g>
							<path class="st6" d="M80.1,272.8l4,4l4.2,3.8c2.7,2.9,2.4,3.1,2.1,3.3c-4.1-3.7-7.5-6.9-11.1-10.6
								C79.7,273,79.9,272.9,80.1,272.8z"/>
						</g>
						<g>
							<path class="st6" d="M173.1,316.2c1.3,0.6,2.5,1.3,3.8,1.8c-1.6-0.1-3.2-0.3-4.9-0.4c-0.8-0.1-1.7-0.1-2.5-0.2
								s-1.6-0.2-2.4-0.3c-1.9-0.6-1.4-0.9,0-1c0.7-0.1,1.7,0,2.7,0C170.9,316.1,172.1,316.1,173.1,316.2z"/>
						</g>
						<g>
							<path class="st6" d="M188,317.5c1.1,0,2.3,0.1,3.4,0c1.1,0,2.3-0.1,3.4-0.1c0.2,0.5-1.2,1-3.1,1.1c-1.8,0.2-4-0.1-5.3-0.6
								C187.1,317.8,187.7,317.7,188,317.5z"/>
						</g>
						<g>
							<path class="st6" d="M223.4,312c2.5-0.7,0.8,0.3,1.4,0.5c-1.8,0.7-4.1,1.4-6.2,1.8c-2.1,0.4-3.9,0.5-4.7,0.5
								C211.7,313.8,220.1,313.3,223.4,312z"/>
						</g>
						<g>
							<path class="st6" d="M283.2,271.4c0.3-0.8,1.1-1.8,1.9-2.8s1.7-2.1,2.1-2.8c0.8-0.8,1.5-1.5,2.1-2.2s1.2-1.2,1.6-1.6
								c0.9-0.8,1.4-1,1.4-0.2l-1.9,2.9c-0.7,0.9-1.4,1.9-2.1,2.8l-2.5,2.1L283.2,271.4z"/>
						</g>
						<g>
							<path class="st8" d="M155.4,32.7c-1.8,0.3-3.2,1-4.7,1.4s-3,0.6-4.9,0.3c1.6-0.4,3.2-0.6,4.8-0.9
								C152.2,33.2,153.8,32.9,155.4,32.7z"/>
						</g>
						<g>
							<path class="st5" d="M100.3,55.8l-2.9,2.1l-1.5,1L94.5,60c-4.9,4.1-6.3,5.8-7.5,7.2C80.3,73.1,74,79.9,68.5,87
								c-0.2-0.3-0.4-0.6-0.7-0.9c-0.6,0.7-1.1,1.4-1.9,2.3c-0.2-0.2-0.3-0.4-0.5-0.7c2.3-3.3,4-5.9,5.5-7.7
								c1.5-1.8,2.6-3.1,3.6-3.7c2.1-2.2,4.1-4.4,6.3-6.5l3.3-3.1l3.4-3l1.7-1.5l1.8-1.4l3.6-2.8c1.2-0.9,2.5-1.8,3.7-2.6
								c1.2-0.9,2.5-1.8,3.7-2.6c3.2-2.4,3.4-1.7,5.1-2.2c-1.1,0.8-2.3,1.7-3.5,2.6C102.6,54.1,101.4,54.9,100.3,55.8z"/>
						</g>
						<g>
							<path class="st8" d="M100.6,56.7c-1.9,1.4-3.9,2.7-5.8,4.2c-0.5,0.4-0.9,0.9-1.1,1.1c-1.2,0.9-2.3,1.7-3.4,2.6
								c-1.1,0.9-2.2,1.8-3.3,2.7c1.2-1.4,2.6-3.1,7.5-7.2l1.4-1.1l1.5-1l2.9-2.1C100.4,56.1,100.5,56.4,100.6,56.7z"/>
						</g>
						<g>
							<path class="st8" d="M65.9,88.4c-1.4,2-2.7,4-4.1,6c-0.8,0.8-1.6,1.9-2.5,3.1c-0.8,1.2-1.7,2.5-2.5,4
								c-1.1,1.4-2.1,2.8-3.4,4.5c1.5-3.1,3-6.5,4.7-9.4c2.3-3.1,4.7-5.8,7.2-8.7C65.6,88,65.8,88.2,65.9,88.4z"/>
						</g>
						<g>
							<path class="st8" d="M43,131.3c-0.4,1.2-0.6,2.3-0.7,3.3c-0.2,1-0.3,2.1-0.4,3.1c-0.3,2-0.5,4.1-1.1,6.8
								c-0.3,0.8-0.6,1.7-1,2.6c-0.3,0.9-0.6,1.8-0.8,2.6c0.1-2.5,0.3-5,0.6-7.6c0.3-0.9,0.5-1.9,0.8-2.8c0.3-0.9,0.6-1.8,0.9-2.7
								c0.3-0.9,0.6-1.8,0.9-2.7c0.1-0.4,0.3-0.9,0.4-1.3C42.6,132.2,42.8,131.8,43,131.3z"/>
						</g>
						<g>
							<path class="st8" d="M44.1,223.9c0.5,0.9,0.9,1.9,1.4,2.9c0.4,1,0.9,2,1.3,3c0.9,2,1.6,4.1,2.6,6.2c0.5,1.4,0.9,2.7,1.3,4
								c0.4,1.3,1,2.6,1.5,4c0.8,1.2,1.5,2.4,2.4,3.7c0.9,1.2,1.7,2.5,2.6,3.8c0.9,1.3,2,2.7,3.4,4.9c1.4,2.2,3.3,5.1,6,9.3
								c-1.2-1.1-2-2-3.1-3.2c-0.9-1.2-1.7-2.4-2.5-3.6s-1.5-2.4-2.3-3.7c-0.9-0.6-1.8-1.3-2.9-2.2c-0.5-0.8-1-1.5-1.6-2.3
								c-1.5-2.6-2.6-5.1-3.9-7.8c-0.9-1.6-1.7-3.6-2.4-5.2c-0.4-1.1-0.8-2.2-1.1-3.4l-1-3.4c-0.3-1.1-0.7-2.3-1-3.4L44.1,223.9z"/>
						</g>
						<g>
							<path class="st8" d="M90.2,290.5c2.5,2.3,4.5,4,5.9,5s2.1,1.4,2.2,1.2c-0.1,0.2-0.8-0.2-2.2-1.2
								C94.7,294.5,92.8,292.8,90.2,290.5z"/>
						</g>
						<g>
							<path class="st8" d="M149,320.3c-0.8-0.1-1.7-0.2-2.6-0.4c-0.9-0.2-2-0.5-3-0.7c-2-0.5-4.1-1.1-5.7-1.5
								c-1.2-0.8-2.4-1.6-3.6-2.4c1.2,0.8,2.4,1.6,3.6,2.4c1.7,0.4,3.7,1,5.7,1.5c1,0.3,2,0.5,3,0.7
								C147.3,320.1,148.2,320.2,149,320.3z"/>
						</g>
						<g>
							<path class="st8" d="M196.6,323.3c1-0.5,3.5-1.3,11.3-1.6c-1.9,0.4-3.8,0.6-5.7,0.9C200.5,322.9,198.6,323.2,196.6,323.3z"/>
						</g>
						<g>
							<path class="st5" d="M232.9,314.8c1.4-0.3,2.8-0.7,4.3-1.1c1.5-0.7,3.1-1.4,4.5-2.3c1.5-0.8,3-1.6,4.4-2.4
								c1.9-0.8,3.5-1.6,5.4-2.4c0.3-0.2,0.8-0.6,1-0.8c1.1-0.5,1.8-1,2.6-1.4c2.7-1.1,5.2-1.9,7.8-3.1c0.8-0.5,1.5-1,2.3-1.4
								c1.5-1,2.9-2.2,4.2-3.2c1.4-1,2.7-2,4-3.1c0.5-0.2,0.8-0.3,1.4-0.5c1.1-0.7,2.3-1.4,3.5-2.2c1.2-0.8,2.4-1.7,3.6-2.5
								c-0.7,1.2-2.2,2.8-3.9,4.2c-1.7,1.4-3.5,2.9-4.9,4.2c-1.7,1.3-3.5,2.6-5.3,3.9s-3.7,2.5-5.5,3.6c-1.3,0.8-2.6,1.5-3.7,2.2
								c-0.6,0.1-1.2,0.2-1.5,0.1c-0.8,0.4-1.7,0.8-2.6,1.2c-0.9,0.4-1.8,0.8-2.6,1.1c-1,0.9-1.8,1.6-2.5,2.5
								c-1.6,0.9-3.6,1.8-5.2,2.6c-0.9,0.2-1.7,0.5-2.9,0.8c-0.1-0.5-0.1-0.9-0.2-1.3c-1.4,0.5-2.5,0.8-4,1.3
								c-2.3,0.7-2.8,1.1-3.4,1.5c-0.6,0.4-1.1,0.8-3.4,1.4c-2.6,0.6-0.9-0.5,1.3-2.3C232,315.1,232.6,314.9,232.9,314.8z"/>
						</g>
						<g>
							<path class="st8" d="M252,308.8c0.8-0.3,1.7-0.7,2.6-1.1c0.9-0.4,1.8-0.8,2.6-1.2c0.3,0.1,0.9,0,1.5-0.1
								c-1.5,0.8-3,1.7-4.5,2.5c-1.6,0.8-3.1,1.6-4.6,2.3C250.2,310.4,251,309.7,252,308.8z"/>
						</g>
						<g>
							<path class="st8" d="M255.1,304.4c1.3-1.1,3.2-2.2,5.3-3.6c1-0.7,2.1-1.4,3.3-2.1c0.6-0.4,1.1-0.7,1.7-1.1s1.1-0.8,1.7-1.2
								c1.4-1.3,3-2.7,4.3-4.1c2.3-1.8,4.5-3.3,6.8-5.1c1-0.9,2-1.7,3-2.5s1.9-1.7,2.9-2.6c0.9-0.9,1.9-1.7,2.9-2.6
								c0.9-0.9,1.8-1.8,2.8-2.8c-0.2,1.4-0.3,2.8-0.7,4.4c-1.1,1.2-2.3,2.4-3.5,3.6l-1.8,1.8l-1.8,1.7c-1.2,0.8-2.4,1.7-3.6,2.5
								s-2.4,1.5-3.5,2.2c-0.6,0.2-0.8,0.3-1.4,0.5c-1.3,1.1-2.6,2.1-4,3.1s-2.7,2.2-4.2,3.2c-0.8,0.5-1.5,1-2.3,1.4
								C260.3,302.5,257.8,303.3,255.1,304.4z"/>
						</g>
						<g>
							<path class="st5" d="M289,281.1c0.4-1.6,0.6-3,0.7-4.4c3.7-3.9,6.9-7.9,10.1-12.1c1-1.3,1.8-2.8,2.7-4.1
								c0.9-1.4,1.8-2.7,2.6-4.2c1.3-1.6,2.4-2.9,3.5-4.2c1.5-2.1,1.4-0.2,2,0c-0.6,1.9-1.8,3.6-2.7,5.2c-0.6,0.6-1.1,1.2-1.7,1.7
								c-0.6,0.6-1.2,1.1-1.7,1.7c-1.2,1.1-2.4,2.3-3.6,3.5c-0.3,1.5-0.9,3.2-1.4,4.9C296.2,273.4,292.8,277.2,289,281.1z"/>
						</g>
						<g>
							<path class="st8" d="M301,264.2c1.2-1.2,2.4-2.4,3.6-3.5c0.6-0.6,1.2-1.1,1.7-1.7c0.6-0.6,1.1-1.2,1.7-1.7
								c-1.3,2.1-2.7,4-4.1,6s-2.9,3.9-4.4,5.8C300.1,267.3,300.7,265.7,301,264.2z"/>
						</g>
						<g>
							<path class="st8" d="M305.9,254.9c1.7-2.8,3.4-6,4.9-8.9c2-3.2,3.9-6.1,5.7-9.4c-0.1,1-0.2,2.2-0.3,3.3
								c-0.1,1.1-0.3,2.2-0.5,3.3c-0.8,1.5-1.5,3-2.4,4.5s-1.7,3-2.6,4.4c-0.6-0.2-0.5-2.1-2,0c-1.1,1.3-2.2,2.7-3.5,4.2
								C305.5,255.8,305.8,255.2,305.9,254.9z"/>
						</g>
						<g>
							<path class="st8" d="M319.7,214.1c0.5-1.6,1-3.6,1.4-5.3c0.4,0.2,0.8,0.4,1.2,0.6c-0.1,1.5-0.2,2.8-0.4,4.3
								c-0.6,1.6-1.3,3.5-1.9,5.1C319.8,217.4,319.8,215.7,319.7,214.1z"/>
						</g>
						<g>
							<path class="st5" d="M316.5,236.6c0.3-1.6,1.1-3.2,1.7-5.6c0.1-0.6,0.3-1.2,0.4-1.5c0.3-1,0.6-2,1-3.1c0.3-1,0.6-2.1,0.9-3.1
								s0.6-2.1,0.9-3.1s0.5-2.1,0.7-3.1c0.3-1.1,0.6-2,0.8-2.8c-0.4-0.2-0.6-0.4-1-0.6c0.2-1.5,0.2-2.8,0.4-4.3
								c0.7-1.2,1.3-2.5,2-3.7c0.1,0.7,0.1,1.3,0.3,1.7l0.6-1.6l0.5-1.6l1.1-3.3c0.3-1.8,0.4-3.9,0.6-5.6l0.4-3.5
								c0.1-1.2,0.1-2.4,0.2-3.6c0.1-1.5,0.2-2.9,0.3-4.1c1.2-5.3,1.8-3.3,2.3-3.8c0.6,3.5-0.9,11,0,11.9c-0.3,2.2-0.6,4.6-0.9,7
								c-0.4,2.4-0.9,4.8-1.3,7.2c-0.8,3.5-1.7,7.3-2.8,11.1c-0.3,1.4-0.5,2.5-0.8,3.5s-0.5,1.8-0.7,2.6c-0.5,1.5-0.8,2.6-1.3,3.9
								c-1.1,2.6-2.1,5.3-3.2,7.9c-1.2,2.6-2.3,5.2-3.7,7.7c0.1-1.1,0.3-2.2,0.5-3.3C316.3,238.7,316.4,237.6,316.5,236.6z"/>
						</g>
						<g>
							<path class="st8" d="M324.3,205.7c0.5-2.6,1.1-5.5,1.4-8.1c0.6-1,1.1-1.7,1.6-2.4c-0.2,1.8-0.4,3.9-0.6,5.6l-1.1,3.3
								l-0.5,1.6l-0.6,1.6C324.4,207,324.3,206.3,324.3,205.7z"/>
						</g>
						<g>
							<path class="st5" d="M187.5,325.7c-0.9-1.1,1.4-1.4,3.9-1.5c2.5-0.3,5.3-0.4,5.2-0.8c2-0.1,3.8-0.4,5.7-0.7
								c1.9-0.3,3.7-0.5,5.7-0.9l3.5-0.5c1.2-0.2,2.4-0.3,3.5-0.6c0,0.3,0,0.6-0.1,0.9c1.9-0.2,3.8-0.4,5.7-0.6
								c1.9-0.3,3.7-0.5,5.5-0.8c-0.3,0.2-0.9,0.5-1.2,0.7c-1.5,0.4-2.9,0.8-4.4,1.2c-1.5,0.3-2.9,0.6-4.2,0.9l-2.2,0.1h-2.2
								c-1.8,0.3-3.6,0.6-5.7,1c-2.4,0.6-4.9,1.2-7.4,1.7C195,325.8,191.4,325.9,187.5,325.7z"/>
						</g>
						<g>
							<path class="st4" d="M257.8,54.2c-2.5-0.9-6-2.8-9.9-4.7c-1.9-1-4-1.9-6.1-2.8c-1-0.4-2-0.9-3-1.3c-1-0.4-2-0.7-3-1.1
								c-0.9-0.4-1.8-0.8-2.7-1.3c-0.9-0.4-1.9-0.8-2.8-1.2c-1.9-0.8-3.8-1.6-5.9-2.3c-1.6-0.3-3.5-0.7-5.4-1.2
								c-1.9-0.4-4-0.8-6-1.2c-4.1-0.7-8-1.4-10.9-1.3c-2.5-1-7-1.4-12-1.6c-5.1-0.1-10.7,0-15.6,0.2c-1.1,0.3-2.3,0.5-3.5,0.6
								c-0.6,0.1-1.2,0.1-1.8,0.1s-1.2,0.1-1.8,0.1c-2.5,0.1-5.1,0.1-7.9,0.7c-1.3,0.2-2.7,0.5-4.1,0.7c-1.4,0.3-2.8,0.6-4.1,0.9
								c-2.8,0.6-5.6,1.3-8.3,2.1c-1.4,0.4-2.7,0.8-4,1.2s-2.6,0.9-3.8,1.3c-2.4,0.9-4.7,1.9-6.7,2.8c-2.2,0.8-4.3,1.7-6.4,2.6
								c4.7-2.5,1.7-2,2.3-3.1c0.8-0.4,1.6-0.7,2.4-1.1c3.6-1.4,7.1-2.9,10.8-4c0.3-0.1,0.8-0.3,1.4-0.5c1.4-0.5,2.8-0.9,4.2-1.3
								c1.4-0.4,2.9-0.7,4.4-1.1c1.5-0.3,3-0.6,4.5-0.9c1.5-0.3,3-0.6,4.4-0.7c2.9-0.4,5.8-0.8,8.4-1.1c2.6-0.3,5.1-0.6,7.3-0.9
								c1.6-0.2,3.2-0.4,4.9-0.5L182,32c2.2-0.1,4.3,0.1,6.5,0.1c1.1,0,2.1,0.1,3.2,0.1c1.1,0.1,2.2,0.2,3.3,0.3
								c1.6,0.2,3.2,0.2,4.8,0.5l4.8,0.6c1.6,0.2,3.2,0.6,4.9,0.9c1.6,0.4,3.3,0.7,4.8,1.1c2.3,0.6,4.5,1.1,6.7,1.8
								c1.3,0.6,2.3,1.1,3.6,1.7c2.1,0.4,3.8,0.9,5.5,1.3c3.3,1.2,6.2,2.5,9.1,3.7c2.7,1.2,6.8,3.2,9.4,3.8c1.4,0.8,2.8,1.6,4.1,2.4
								c1.3,0.9,2.7,1.7,4,2.6C257.2,53.5,257.6,53.9,257.8,54.2z"/>
						</g>
						<g>
							<path class="st7" d="M247.8,46.9c0.1,0.3,0.5,0.8,0.8,1.2C248.3,47.7,248,47.2,247.8,46.9z"/>
						</g>
						<g>
							<path class="st6" d="M93.7,61.9c0.2-0.2,0.7-0.7,1.1-1.1C94.4,61.2,94,61.7,93.7,61.9z"/>
						</g>
						<g>
							<path class="st6" d="M310.2,245.4c-0.5,0.3-0.9,0.7-1.2,0.8C309.2,246.1,309.7,245.7,310.2,245.4z"/>
						</g>
						<g>
							<path class="st8" d="M38.9,149.7c-0.2,1.7-0.3,3.2-0.5,4.7c-0.1,1.5-0.2,3-0.4,4.4c-0.3,2.8-0.5,5.4-0.7,8
								c-0.3,2.5-0.3,5-0.4,7.4c-0.1,2.4,0,4.9,0.2,7.4c0,0.9-0.1,1.8-0.1,2.8s0,1.9,0,2.8c0.1,2.4,0.2,4.8,0.4,7.1
								c-0.7-1-1.4-2-2.1-3.3c0-0.3-0.1-0.9-0.1-1.2c0-2.2-0.1-4.4,0-6.6c0.1-2.2,0.2-4.3,0.3-6.5c0.1-2.7,0.1-5.7,0.3-8.4
								c0.3-1.9,0.3-3.4,0.3-4.7c0-0.7,0-1.3,0-2s0.1-1.4,0.1-2.1c0.4-1.6,0.8-3.2,1.2-4.9C37.9,152.9,38.4,151.3,38.9,149.7z"/>
						</g>
						<g>
							<path class="st8" d="M66.6,265.6c1.3,1.8,1.7,2,2.5,2.7c0.4,0.3,0.8,0.7,1.5,1.5c0.7,0.7,1.7,1.8,3.2,3.4
								c0.6,0.7,1.2,1.3,1.7,2c1.3,1.6,2.4,2.9,3.7,4.5c-0.2,0.1-0.5,0.3-0.8,0.4c-1.5-1.5-2.9-2.7-4.3-4.3c-0.7-1-1.4-1.8-2.5-3.3
								c-0.6-0.7-1.3-1.6-2.1-2.7C68.7,268.7,67.8,267.3,66.6,265.6z"/>
						</g>
						<g>
							<path class="st8" d="M150.5,320.6c4.5,0.2,6,0.4,11.5,1.6c1.6,0,3.1,0.1,4.6,0.1c0.8,0,1.5,0,2.2,0s1.4-0.1,2.1-0.1
								c1.6,0.2,3.3,0.5,4.9,0.7c1.7,0.2,3.4,0.3,5,0.5c1.2-0.1,2.4-0.1,3.7-0.2l3.6-0.3c1.1,0.3,2.2,0.5,3.5,0.6s2.9,0,5-0.4
								c0.1,0.4-2.7,0.6-5.2,0.8c-2.5,0.2-4.9,0.5-3.9,1.5c-1.8,0-3.9,0.1-5.8,0c-1.4-0.4-2.9-0.7-4.3-1c-1.9-0.1-3.8-0.4-5.7-0.5
								c-0.9-0.1-1.9-0.2-2.8-0.3c-0.9-0.1-1.9-0.3-2.8-0.4c-0.9-0.1-1.8-0.2-3-0.4c-2.1-0.2-4.2-0.7-6.4-1.1
								c-1.1-0.2-2.1-0.4-3.2-0.6C152.5,321.1,151.5,320.9,150.5,320.6z"/>
						</g>
						<g>
							<path class="st8" d="M149,320.3c0.6,0.1,1.2,0.3,1.5,0.3C150.2,320.6,149.6,320.4,149,320.3z"/>
						</g>
						<g>
							<path class="st8" d="M232.9,314.8c1.3-0.6,2.3-1.3,3.4-1.9c1-0.6,2.1-1.2,3.1-1.9c2.5-0.7,4.4-1.3,6.7-2
								c-1.5,0.8-2.9,1.6-4.4,2.4s-3,1.5-4.5,2.3C235.7,314.1,234.3,314.5,232.9,314.8z"/>
						</g>
						<g>
							<path class="st8" d="M231.8,315.2c0.3-0.1,0.8-0.3,1.1-0.4C232.6,314.9,232,315.1,231.8,315.2z"/>
						</g>
						<g>
							<path class="st5" d="M305.2,256.3c0.3-0.5,0.6-1.1,0.6-1.4C305.8,255.2,305.5,255.8,305.2,256.3z"/>
						</g>
					</g>
				</g>
			</g>
		</g>
	</g>
	<path class="st9" d="M132.4,181.2c0,0,3,1.9,1.1,5.8c0,0-1.1,2.1-3.2,10.8c0,0-1.3,3.4-6.5,2.2c0,0-23.6-8.7-25.6-42.5
		c0,0-6.4-51.8,51.1-75.7c0,0,63.2-27.9,108.1,22.3c0,0,30,33.1,3.9,89.2c0,0-14.3,30-42.2,36.4c0,0-31.3,8-47.9-13.3l-11.9,41.9
		c0,0-2.5,7.3-10.6,18.9c0,0-9,5.3-14.9-4.8c0,0-0.7-9,0.4-22.1c0,0,7.4-31.6,18-74c0,0-6.9-18.9-1.2-36.4c0,0,6.2-22.1,29-15.6
		c0,0,15.9,2.5,8.3,31.1c0,0-3.4,14.2-9.4,29.4c0,0-5.7,17.2,10.3,23c0,0,24.2,9,38.6-15.4c0,0,22.5-34.1,8.5-69.7
		c0,0-10.3-34.3-60.7-26.5c0,0-31.5,3.2-46.7,32.7C128.8,129,111.7,159.5,132.4,181.2z"/>
</g>
<g>
</g>
<g>
</g>
<g>
</g>
<g>
</g>
<g>
</g>
<g>
</g>
<g>
</g>
<g>
</g>
<g>
</g>
<g>
</g>
<g>
</g>
<g>
</g>
<g>
</g>
<g>
</g>
<g>
</g>
</svg>
