<?xml version="1.0" encoding="utf-8"?>
<!-- Generator: Adobe Illustrator 19.1.0, SVG Export Plug-In . SVG Version: 6.00 Build 0)  -->
<!DOCTYPE svg PUBLIC "-//W3C//DTD SVG 1.1//EN" "http://www.w3.org/Graphics/SVG/1.1/DTD/svg11.dtd">
<svg version="1.1" id="Layer_1" xmlns="http://www.w3.org/2000/svg" xmlns:xlink="http://www.w3.org/1999/xlink" x="0px" y="0px"
	 width="288px" height="89.2px" viewBox="0 0 288 89.2" style="enable-background:new 0 0 288 89.2;" xml:space="preserve">
<style type="text/css">
	.st0{fill:#FFFFFF;}
	.st1{opacity:0.85;}
	.st2{fill:#B8F3FF;}
	.st3{fill:#9FEFFF;}
	.st4{fill:#76E8FF;}
	.st5{fill:#D1F7FF;}
	.st6{fill:#8CECFF;}
	.st7{fill:#60E4FF;}
</style>
<rect class="st0" width="288" height="89.2"/>
<g>
	<g>
		<g>
			<g class="st1">
				<g class="st1">
					<g>
						<path class="st2" d="M408.7,86.9c-0.8,0.9-1.6,2.2-2.2,3.4c-1.6-0.5-3.4-1-5.1-1.5c-0.3,3.7-0.7,7.1-1.1,10.8
							c-1,2.6-2.1,5.2-3.1,7.5c3.5,4,5,4.4,7.7,9.4c-0.5,2.2-1,4.4-1.7,6.5c-2.6-0.8-5.2-1.6-7.9-2.4c-1.3-0.4-2.8-0.9-4.2-1.3
							c-0.6-1.6-1-2.9-1.4-4.5c-2.2,1.7-4.5,3.3-6.7,5c-0.7-0.2-1.5-0.4-2.2-0.7c-1.2-1.5-2.2-2.7-3.5-4c0,5.5-3.3-0.1-4.3,3.1
							c-4.6-2.6-8-10.3-9.4-4.3c-1.1-2.7-3.8-4.4-6.3-4.8c-1.9,8.8-3.1-7.4-5.2,1.4c-0.8-4.3-6-5.9-7.2-2.2
							c-7.6-3.2-16.6-4.4-24.5-3.3c-4.4,0.4-12.5-0.6-16.4-6.4c-1.4,0.7-0.6,3.6-0.9,5.6c-0.9-0.9-3,0-2.8-2.3
							c-0.4-1.9-1.3-1.9-2.1-2.1c-0.9,0.6-0.8,2.4-0.9,3.8c-12-13-19.9,6.6-31.7-6.7c0.3,6.5-3.8,0.6-3.9,7.3
							c-3.9,0.3-7.9,0.2-11.7,0.6c-4.9,1.2-10.7-2.3-15.9-3.3c-2.3-3-4-1.5-4.4,1.6c-3.6-0.8-7.2-1.3-10.8-2.1
							c-2.9-3.5-4.7-4-7.8-0.9c-2.4-0.7-4.9-1.5-7.2-2.2c-4.3-3.1-6.7-3.2-5.9,1.1c-0.4-0.1-0.9-0.3-1.3-0.4
							c-2.3-0.4-4.4-0.4-6.6-0.5c-0.6,0.1-1.4,0.5-2.1,0.5c-1.6-0.8-3.4-1.9-5.1-2.7c-2-2.7-2.9,1.7-3.7,3c-2.4-0.7-4.8-1.4-7.2-2.2
							c-3.2-3-3.8,0.9-5-0.1c-4.3-1.3-8.7-2.6-13-3.9c-2,2-3.8,1.5-5.8,0.9c-0.3-1-0.4-1.9-0.7-2.8c-0.8-0.2-1.4-0.4-2.1-0.6
							c-2.3,1.6-4.3,1.6-6,3.7c-0.6-0.2-1.3-0.4-2.1-0.6c-0.4-0.7-0.9-1.1-1.5-1.9c-1.3-0.4-2.8-0.9-4.2-1.3
							c-1.4,0.2-2.4,0.1-3.6,0.4c-0.8,0.6-1.5,1.3-2.3,2.2c-0.4-1.3-0.8-2.3-1.3-3.3c-1.4-0.1-2.4,0.1-3.6,0.4
							c-1.3-0.4-2.4-0.7-3.6-1.1c-1.1,1.1-2,2-3.1,3.2c-2.1,0.2-3.7-2-4.8-7c-1.2,1.1-2.5,2.2-3.7,3c-0.6-0.2-1.1-0.3-1.5-0.5
							c-2.2,1.4-4.5,2.5-6.6,3.9c-3.7-0.8-6.9,2-10.8-2.1c-0.8,1.2-1.6,2.4-2.2,3.7c-1.4-0.1-2.4,0.1-3.6,0.4
							c-1.7,5.3-6.7-2.3-8.9,2.9c-2.1-0.6-4.3-1.3-6.4-1.9c0.1-2.9,0.2-5.5,0.3-8.4c0.5-1.3,1-2.6,1.5-3.6c1.2,0.7,2.4,1.6,3.6,2.2
							c2.2,3,1.9-3.5,3.1-3.2c2.1-0.8,4.3-1.6,6.6-2.1c2,0.6,3.7,1.1,5.7,1.7c4-1.7,7.8-3.5,11.8-4.9c1.5,0.4,2.8,0.9,4.3,1.3
							c2.1,0.1,4.4,0.2,6.5,0.5c-0.7-2.5-1.3-5.1-1.9-7.6c1.5-3.6,5.9,0.6,4.5-7.1c6.7-0.3,15.2,6.9,19.1-5.3
							c2.5-6.9,4.3-6.6,6.1-6.6c0.6,1.6,1.3,3.3,2,4.7c0.7,3.1,1.4,4.8,1.9,6.4c1.9,2,2.2-2.3,3.1-3.4c0.7-3,1.5-6,2.4-8.9
							c6.3,0.7,12.5,1.7,18.8,2.8c3.2,4.8,4.1-1.1,5.8-2.3c0.9,0.3,1.9,0.6,2.8,0.9c1.5,0.7,3,1.8,4.3,2.5c4,3.5,3.1-2,4.4-1.3
							c0.5-0.4,0.9-0.9,1.5-1c5.1,6.2,5.3-1.3,7.2,0.7c0.9,1.1,1.7,2.3,2.8,3.7c0.5-1,1-1.8,1.4-2.5c0.6,0.2,1.1,0.3,1.5,0.4
							c4.9,3.8,2.4-4.2,5.2-2.5c0.6,0.5,1.3,1.3,2.1,2.1c1.2-0.8,2.5-1.3,3.7-1.8c0.4,1,1.8,4.4,2.6,7.8c0.3,0.1,0.5,0.1,0.8,0.2
							c2.6-4.8,8.9-4.6,12.5-3.2c2.5-1.9,7.2,1.3,10.8,3.3c2.4-4.5,6-2,8.6-0.3c2.4,0.7,4.8,1.4,7.2,2.2c2.4,0.7,4.8,1.4,7.2,2.2
							c0.8-5.6,3.2-1.4,3.8-4.4c1.4-1.6,5.9-0.3,7.1,3.6c0.4,0.1,0.9,0.3,1.5,0.4c2.9-4.4,3.2-1.6,6.7-5c5.7,2,11.5,4.4,17.2,6.6
							c1.2-0.2,0.3-3.7,1.6-2.4c2.9-1.7,1.5,5.1,4.2,5.7c1.7-5.9,5.4,0.2,6.7-5c4,8.2,8.7,0.9,13.6,5.3c7.4-0.4,15-1,22.6-1.4
							c3.2,0.1,7.6,2.9,10.7,7.3c0.6,0.2,1.3,0.4,2.1,0.6c1.6,0.8,3.4,1.9,5,3c0.2-2,0.6-3.6,0.8-5.3c6,2.1,12.1,4.5,17.9,6.6
							c5.1-3.4,8.7,0.9,14.5,1.7c1.1-1.1,1.8-3.8,3.1-3.4c0.9,0.3,1.9,0.6,2.8,0.9c4.4-1.3,7.3-0.4,10.1,1.9
							c1.9,0.6,3.9,1.2,5.7,1.7C416.2,89.7,411.7,87.8,408.7,86.9z"/>
					</g>
					<g>
						<path class="st3" d="M396,77.2c-1.3-0.4-2,2.3-3.1,3.4c-5.7-0.8-9.4-5.2-14.5-1.7c-5.8-2-12-4.5-17.9-6.6
							c-0.2,1.7-0.6,3.3-0.8,5.3c-1.6-1.1-3.4-2.2-5-3c-0.7-0.2-1.5-0.4-2.1-0.6c-3-4.4-7.5-7.2-10.7-7.3c-7.6,0.3-15.1,1-22.6,1.4
							c-4.9-4.4-9.6,2.9-13.6-5.3c-1.2,5.2-5-0.9-6.7,5c-2.7-0.5-1.3-7.4-4.2-5.7c-1.3-1.3-0.4,2.2-1.6,2.4
							c-5.7-2.3-11.5-4.6-17.2-6.6c-3.4,3.4-3.8,0.6-6.7,5c-0.6-0.2-1.1-0.3-1.5-0.4c-1.2-3.9-5.7-5.2-7.1-3.6
							c-0.6,3.1-3-1.2-3.8,4.4c-2.4-0.7-4.8-1.4-7.2-2.2c-2.4-0.7-4.8-1.4-7.2-2.2c-2.7-1.7-6.2-4.2-8.6,0.3
							c-3.6-2-8.3-5.1-10.8-3.3c-3.6-1.4-9.9-1.5-12.5,3.2c-0.3-0.1-0.4-0.1-0.8-0.2c-0.8-3.5-2.2-6.8-2.6-7.8
							c-1.2,0.5-2.5,1-3.7,1.8c-0.7-0.8-1.5-1.6-2.1-2.1c-2.8-1.7-0.4,6.3-5.2,2.5c-0.4-0.1-0.9-0.3-1.5-0.4c0,0.9,0,1.7-0.1,2.9
							c-0.4-0.1-0.9-0.3-1.3-0.4c-1-1.5-1.9-2.6-2.8-3.7c-1.9-2-2.1,5.5-7.2-0.7c-0.5-2.5-0.9-5-1.3-7.4c0.5-1.6,1-3.5,1.7-5
							c4.8,2,5.2-0.5,7.9-0.5c1.7,3.2,3.6,2,5,3c1.5,0.7,2.8,1.7,4.3,2.8c8.4-4.2,13.3-0.9,20.3-2.3c4.1,3.9,5.3,1,7.3-1.9
							c-5.3-5.4-4.8-0.3-7.2-1c-0.7-1.4-1.3-3-2-4.7c-6,2.9-12.5-0.9-17.2-5.2c-1.8,1.2-3.6,2.7-5.3,4c-1.7,0.4-3.5,0.7-5.2,1.4
							c-1.6-2.8-3.2-5.6-4.7-8.5c-5.2-4.5-7.7-5.2-9.9-7.4c-1.8,0.9-3.5,1.9-5.2,2.8c-2.8-1.4-5.6-2.9-8.6-4.1
							c0.1-3.2,0.2-6.7,0.3-9.9c1.2,0.4,2.4,0.7,3.6,1.1c5.5,8.4,5.8,2,8.7,2.6c0.4,1.3,0.8,2.3,1.4,3.3c1.4-0.5,2.9-0.9,4.3-1.6
							c2.9,2.9,5.7,5.5,8.5,8.4c2-7.6,4.5-5.3,5.9-5.2c1.5,5.7,4.2-0.5,6.6,0.6c0.8-1.5,3.1-1.4,4.3-3.1c1,0.3,1.9,0.6,3,0.9
							c0.2,0,0.4,0.1,0.6,0.2c0,1.5-0.1,2.9-0.1,4.3c1.6,0.8,3.4,1.9,5,3c2-2.3,3.2-1.9,5.2-1.4c0.5-2.8,1.1-5.2,1.6-8
							c0.9,0.3,1.9,0.6,2.8,0.9c0.7,1.1,1.4,2.2,2.2,3.6c1.4-1.6,3-2.9,4.5-4.2c0.4,0.4,0.9,1.1,1.3,1.6c0.8,0.2,1.5,0.5,2.3,0.7
							c0.5,3.1,1.2,6.2,1.8,9c2.2-6.7,7.4,1.3,10.3-3.9c4.2,4.5,5.3,3.9,6.4,3.4c0.6,1.1,1,2.1,1.4,3.3c-0.5,1.6-1,3.2-1.7,5.1
							c0.3,1,0.5,1.9,0.7,2.8c1.7,0.5,3.4,1,5.1,1.5c-2.4,3.1-4.2,4.3-5.1-0.1c-1.2,0.2-2.4,0.1-3.6,0.4c-7.5,3.3-16.2-4.3-21.1,3.6
							c3.2,3.3,4.8,5.3,5.7,2.9c12.1,4.8,26.9-0.1,40.3,11c1.3-1.7,2.5-3,3.8-4.7c7.1,1.3,15.4,7,20.9,3.7c-0.2,1.1,0.2,2.1,0.7,2.8
							c3.1,1.8,3.4-6,5.3-6.6c1.3,1.3,2.8,2.6,4.3,3.9c1.4,8.3,4.4-1.6,7.1,0.7c2.4,1.9,4.9,3.5,7.1,5.1c3.3,0.1,9.7,0.3,11.1-7.7
							c0.6-0.4,1.1-0.8,1.5-1c4.5,0.2,9.2,0.7,13.7,1.2c-0.1,3.2-0.2,6.7-0.3,9.8c1.1,2.7,3.4,1.9,5,3c0.8,0.2,1.4,0.4,2.1,0.6
							c0.3-1.1,0.7-1.9,0.8-2.7c2.4,0.7,4.8,1.4,7.2,2.2c1.3-1.7,0.6-5.4,2.3-6.3c1.1,0.3,1.9,0.6,3,0.9c0.8,3.2,1.8,6.1,2.6,9.3
							c0.7,2.5,2.4,1.6,3.5,2.5c1-3.8,4.2-2.3,5.9-5.2c1.5,0.4,2.8,0.9,4.3,1.3c0.7,2.5,2.4,1.6,3.6,2.2c2.3,5.4,3.8,4.4,4.2,7.1
							C395.4,76.1,395.7,76.8,396,77.2z"/>
					</g>
					<g>
						<path class="st2" d="M383.2,65.1c-1.8,3-4.9,1.4-5.9,5.2c-1.2-1-2.9,0-3.5-2.5c-0.8-3.2-1.8-6.1-2.6-9.3
							C375.2,60.7,379.2,62.8,383.2,65.1z"/>
					</g>
					<g>
						<path class="st2" d="M358.7,61.8c-0.2,0.8-0.5,1.6-0.8,2.7c-0.7-0.2-1.3-0.4-2.1-0.6c-1.6-1.1-3.9-0.3-5-3
							c0.1-3.2,0.2-6.7,0.3-9.8c2.7,1.4,5.2,2.5,7.9,3.9c3.1,0.9,6.3,1.9,9.3,2.8c-1.7,0.9-1,4.6-2.3,6.3
							C363.5,63.3,361.1,62.5,358.7,61.8z"/>
					</g>
					<g>
						<path class="st2" d="M336.6,23c-1.8,9.1-6.5,0.1-8.8,5.5c-0.7-1.4-1.4-3.1-2.1-4.7c0.1-1.7,0.1-3.8,0.2-5.5
							c1.6-1.6,3.1-2.8,4.5-4.2c2.2,2.4,4.2,4.8,6.3,7.4C336.6,21.8,336.6,22.4,336.6,23z"/>
					</g>
					<g>
						<path class="st2" d="M294.7-5.1c-0.6-1.3-1.3-2.4-2-3.5c0-1.4,0.1-2.6,0.1-4.1c1.3-6.3,3.8-2.1,5.8-2.6
							c-0.2,2.8,0.4,6.8-0.9,8.2C296.7-6.6,295.8-6,294.7-5.1z"/>
					</g>
					<g>
						<path class="st4" d="M301.8,23.6c-1.2-1.8-2.3-3.6-3.5-5.1c-1.9-2-2.8,1.2-4.4,1.3c-1.2,1.1-2.5,2.2-3.7,3.3
							c-0.2,1.7-0.6,3.3-0.8,5.3c-1.5-1-3-2.1-4.3-2.8c-0.5-2.5-0.9-5-1.3-7.4c-6.2-5.7-7.4,0.1-10.2,1c-0.4-0.1-0.9-0.3-1.5-0.5
							c-2.1-0.9-4.2-2.1-6.4-3.1c-0.9,0-2,0.3-2.9,0.3c-1.5,0.1-2.9,0.3-4.4,0.1c-0.4-0.1-0.9-0.3-1.3-0.4c-1.5-0.4-3-0.9-4.3-1.3
							c-0.6-0.2-1-0.3-1.5-0.5c-1.7,0.1-3.3-0.1-5,0c-0.6-0.2-1.1-0.3-1.5-0.5c-2.7,0.1-5.3,0.2-8,0.5c-0.5,0.2-0.9,0.6-1.4,0.8
							c-0.8-0.2-1.5-0.5-2.3-0.7c-0.4-0.4-0.9-1.1-1.3-1.6c-3.1-3-6.9-5.9-6.7,0.6c-0.9-0.3-1.9-0.6-2.8-0.9
							c-1.3-0.7-2.8-1.7-4.3-2.8c-2.2,4-5.2,3.4-7.4,4.8c-0.2,0-0.4-0.1-0.6-0.2c-1.1-0.3-1.9-0.6-3-0.9c-1.2-1.5-2.3-3.3-3.5-5.1
							c-1.4-0.4-2.8-0.9-4.2-1.3c-1,4.1-4.8,4.7-4.3-1.3c-2.5,3-4.4,1-5.9-0.3c-0.9,0-2,0.3-2.9,0.6c-1.1,4.9-3.4,2.2-4.5,4.2
							c-1.9-0.6-3.7-1.1-5.7-1.7c-0.9-1.4-1.9-2.6-2.8-3.8C172.3,9,169,8,168.9,6c-0.7-2.5-1.1-5,0.1-2.9c-3.1-0.9-5.2-2.2-5.2,1.4
							c-2.1,0.2-4.2,0.5-6.5,0.7c-1.3-0.7-2.8-1.7-4.3-2.5c0,1.2-0.1,2.6-0.1,4c-1.3-0.4-2.8-0.8-4.2-1.3c-2.2-1.3-4.3-2.2-6.5-3.4
							c0,1.4-0.1,2.9-0.1,4.3c-2.6-0.8-5.2-1.6-7.8-2.3c-1.4,4.9-3.7,2.4-5.2,2.5c-1.1-3.3-1.6-7.8-5-3c-1.4,0.2-2.9,0-4.2,0.2
							c-3-0.9-5.8-1.8-8.7-2.6c-1,3.8-4.2,2.2-5.9,5.2c-1.9-1.5-3.8-2.9-5.8-4.7c-6.5-0.8-9.9,2.6-16,3.7c-2.9-2.7-4.8-1.7-4.3-3.9
							c1.8-5.3,4.5-3.6,5.2-6.9c1.7-0.1,3.5-0.1,5.1,0.1c0.8-5.6,6.4,2.5,6-6.7c1.5,1.3,2.9,2.6,4.3,4.2c5.9-1.4,14.1-0.4,20.5-3.7
							c1.6,1.1,3.3,1.9,4.9,2.9c0.9-0.3,2.4,1.9,2.9-0.6c2.2-1.1,7.3-1,9.3,5.8c0.4,0.1,0.9,0.3,1.3,0.4c2.8-3.8,4.4-1.9,5.3-4
							c-0.6-4.6,2.4-2.8,3.7-3.3c2.4-0.7,1.7,2.8,4.2,6.8c2.1-5.8,5.9-3.5,6.7-7.6c7.9,7.7,15,0.4,23.2,4.1c0.6,1.6,1.3,3.3,1.9,6.1
							c1.2-0.8,2.5-1.9,3.7-3c0.9-1.2,2-2.3,3-3.2c6.4,11.3,7.9-10.5,13.1,2.5c0.9-0.3,2.2,1.8,2.9-0.6c-0.7-5.2,1.3-3.7,3-3.2
							c-0.1,2-0.5,5.7,1.3,6c2.8,2.9,4.4-4.2,5.9-5.2c2.1,0.6,4.3,1.3,6.4,1.9c5.8,2.1,11.5,4.4,17.2,6.6c0.9,0,1.8,0.8,2.3-0.8
							c-0.7-5.2,1.3-4,3-3.5C245-2,245.6-1.3,246-0.3c2.6-0.4,3.4-2.8,6.5-0.9c-0.1,3.8,1.7,2.9,1.9,6.4c8.3-4.5,17.6,1.8,26.9-0.3
							c-5.9-8.8-14.5-11.4-19.4-8.8c-2.5,1-1.4-3.1-3.5-3.7c-5.3,4-12.4-3.2-18.1-1.4c-5.2,0.5-13.5-2.6-17.4,0.3
							c-1.3-1.3-2.8-2.6-4.3-3.9c-0.4-3-0.7-6.1-1.1-8.8c2-0.6,3.8-0.9,5.8-1.2c0.8-5,4.4-0.4,6.5-0.7c2.4,0.7,4.8,1.4,7.2,2.2
							c1.3-1.7,2.3-4.6,3.8-4.7c2.4,1.9,4.7,3.5,7.1,5.1c7.4-1.3,15.6,3,23.2,2.9c5.7,1.7,8.7,1.2,11.6,0.6c3.3,1.3,6.6,2.9,10,4.5
							c0,1.4-0.1,2.6-0.1,4.1c-1.2,1.1-2.5,2.2-3.7,3.3c-1,6.4,3.2,4.2,5,5.6c0.1,0,0.4,0.1,0.6,0.2c4.2,4.2,5.8,4.7,7.1,5.1
							c1.5,0.7,3,1.8,4.3,2.5c0.2,2.4,0.3,4.8,0.5,7.2c-0.1,2.9-0.2,5.8-0.3,8.4C304.7,23.6,303.3,23.5,301.8,23.6z"/>
					</g>
					<g>
						<path class="st2" d="M240.9-25.8c-1.5,0.1-2.5,3-3.8,4.7c-2.4-0.7-4.8-1.4-7.2-2.2c0.7-3.3,1.3-6.3,1.8-9.4
							c2.7,0.2,5.3,0.7,8,0.9C240.2-29.8,240.6-27.6,240.9-25.8z"/>
					</g>
					<g>
						<path class="st5" d="M137.1,93.1c-5.2,1.6-7.4,9.2-11.8,3.5c-1.4-0.1-2.9,0-4.4,0.1c-3.4,3.9-9.6-1.2-14.4-2.9
							c-1.5,13.6-8.9,3.2-11.8,9c-3.8-0.8-6-6.5-10-7.4c-3.1,6.4-8.3,3.1-8.3,13c-1.8-0.5-3.4-1-5-3c-2,5-5.2,2.2-8.1,1.9
							c-1.3,1.4-2.5,3-3.8,4.4c-6.5-4.9-9.1,2.2-15.3-0.5c-2,2.6-6.2-0.4-6,8.1c-4.5-1.6-6.8-0.3-10.2,3.9c2.5,7.5,7.4,5.7,7.5,14.8
							c-3,10.5-10.3-8.1-11,5.1c-1.5-1-4.1-0.1-4.3-2.8c-4-3-5.3-13-9.6-16.9c-1.5-1.6-4.1-3.6-3.4-8c0.7-2.4,1.5-5.1,2.4-7.8
							c1.2,0.1,2.4-0.2,3.6-0.1c1.2,1.5,2.3,3.3,3.5,5.1c1.3-2,3.6-2.7,3.8-5.9c2.8,2.3,3.5,2.5,5.8-2.3c1.3-2.5,2.6-5.1,3.9-7.3
							c3.5-0.1,6.8,0,10.3,0.2c3.3,0.1,6.6,0.3,10.1,0.4c1.8-3.6,5.7-1.8,8.2-4.6c0.6,0.5,1.3,1.3,2.1,1.8c1.5-0.4,2.9-0.9,4.4-1.3
							c2.1,0.6,4.3,1.3,6.4,1.9c2.1-5.2,7.2,2.5,8.9-2.9c1.2-0.2,2.3-0.5,3.6-0.4c0.6-1.3,1.4-2.5,2.2-3.7c3.9,4.1,7.1,1.3,10.8,2.1
							c2.2-1.4,4.5-2.5,6.6-3.9c0.4,0.1,0.9,0.3,1.5,0.5c1.2-0.8,2.5-1.9,3.7-3c1.1,5,2.6,7.2,4.8,7c1.1-1.1,2-2,3.1-3.2
							c1.2,0.4,2.2,0.7,3.6,1.1c1.2-0.2,2.3-0.5,3.6-0.4c0.4,1,0.8,2,1.3,3.3c0.8-0.9,1.6-1.6,2.3-2.2c1.2-0.2,2.3-0.2,3.6-0.4
							c1.3,0.4,2.9,0.9,4.2,1.3C136.3,92,136.7,92.4,137.1,93.1z"/>
					</g>
					<g>
						<path class="st4" d="M77.2,13.4c0,0.3,0,0.9,0,1.4c-0.9,0-2,0.3-2.9,0.3c-1.7-0.5-3.4-1-5.1-1.5c-1.2-0.4-2.4-0.7-3.6-1.1
							c-0.5,5.7-4.2-0.4-6.6,2.4c0,1.4-0.1,2.6-0.1,4.1c-0.2,0.8-0.5,1.6-0.8,2.7c0-0.6,0-1.2,0-1.5c-1.6-1.9-3.2-3.9-4.8-5.5
							c-1.2-0.4-2.4-0.7-3.6-1.1c-1.5,0.7-1.2,4.9-2.4,4.8c-0.6-0.2-1.3-0.4-2.1-0.6c-0.1,2.6-0.2,5.5-0.3,8.4
							c-1.3,1.9-1.8,4.4-3,3.2c-5.7-1.7-1.8,4.1-2.5,7.7c0.3,1.5,0.5,2.8,0.6,4.3c6,0.1,10.4-3,13.9-4.3c0.7,0.8,1.5,1.6,2.2,2.1
							c1.4,0.1,2.9,0,4.4-0.1c0.5-1,1-2.3,1.5-3.6c2.2,0.7,4.3,1.3,6.4,2c2.3,2.2,4.7,4.3,7.1,6.2c-0.7,1.8-1.5,3.4-2.3,5.2
							c-1.3-1.3-2.1,0.5-3.7,1.5c-5.4,2.7-10.5-3.8-13.1,3.1c-6.1-7.7-11.4,8-17.4-5.2c-1.8,3.3-3.5,6.5-5.3,9.8
							c0.7,2,1.2,3.9,1.9,6.1c-0.1,2.6-0.2,5.5-0.3,9.6c2.7,2,5.2,3.6,7.8,5.3c-2.6,5.4-4.6,3-5.9,5.2c-0.6-0.2-1.1-0.3-1.5-0.5
							c-1.7,1.8-3.6,3.6-5.3,5.4c-0.1,0-0.4-0.1-0.6-0.2c-2.2-1.6-4.3-3.1-6.5-4.9c-0.1-0.1-0.4-0.1-0.6-0.2c-1.4,6.3-3.8,4.1-6,4
							c-2-0.3-3.8-0.3-5.7-0.6c-0.3,0.5-0.6,1-0.8,1.2c0.4,2.4,0.7,4.9,1.3,7.4c0.5,3.1,3.1,0.9,2.7,5.2c0,1.2-0.1,2.6-0.1,4.1
							c-0.3,0.8-0.7,1.6-0.8,2.7c-1.2-0.1-2.4,0.2-3.6,0.1c-2.1-2.1-1.1-5-1.3-7.4c-0.7-2.5-2.4-1.6-3.6-2.2
							c-5.1-9.4-5.7-2.9-10-4.5c-1.5-3.7-3.1-7.6-4.6-11.3c1-2,1.9-4.1,3.1-6.1c0.1-2.6,0.2-5.5,0.3-8.4c1.2,0.4,2.4,0.7,3.6,1.1
							c0.5-3.1,1.1-6.1,1.6-9.2c1.6,0.8,3.4,1.9,5,3c0.5-0.4,0.9-0.9,1.5-1c0.4,0.4,0.9,1.1,1.3,1.9c3.2,2.4,4-1.7,5.4-8.3
							c1.2-4,3.5-0.1,5.1-4c0.1-2,0.1-3.8,0.2-5.5c0-3.5-0.2-6.8-0.3-10c-1-0.3-1.9-0.6-3-0.9c-0.5-1.9-1.2-4.2-1.9-6.1
							c-1-2.3-3.2-3-5.1-1.5c-0.1,0-0.4-0.1-0.6-0.2c-0.6-4.6-1.2-8.9-1.9-13.1c-1.5-0.5,0.3-4.6-1.1-7.4C1.7,6,0.1,5.5-1.6,5
							C-0.8,3.2,0,1.7,0.7-0.1c0.6-1.6,1.2-3.4,1.7-5.1C0.9-7.4-0.4-9.8-1.8-12c1.7-5,4.2-3.7,5.4-6.9c2.1,1.2,4.3,2.2,6.4,3.4
							c-0.1,3.2-0.2,6.4-0.3,9.8c1.2,0.4,2.4,0.7,3.6,1.1c2.5-7.4,6.1-5.2,9.5-4.2c-0.5,2.2-1,4.1-1.6,6.5c5.5,2.8,6.2-1.3,10,3
							c4.6-1.2,2.9-5.3,5.4-6.9c-7-7.4-8.7,3.2-12.3-3.7c0.3-3.7,0.7-7.4,1.1-11.1c0.8-0.7,1.4-1.3,2.2-2c4-1.7,7.8-3.2,11.8-4.9
							c4.2-3.1,9.7,0.3,14.6-2.6c1.2-0.5,2.5-1,3.7-1.8c5,4.1,6.8,1.2,8.8,0c0.4,0.1,0.9,0.3,1.3,0.4c-0.1,2.6-0.2,5.5-0.3,8.4
							c-4.3,2.5-5.7,7.9-8.2,7.2c-0.9-0.3-1.9-0.6-2.8-0.9c-0.8,0.6-1.4,1.3-2.2,2.3c-1.2-0.9-2.4-1.9-3.6-2.5
							c-2.8-2-2.7,5.3-4.6,5.6c-2.1-1.2-4.3-2.2-6.4-3.4c-2.5-1.1-0.9,5-2.5,7.7c1.2,0.4,2.4,0.7,3.6,1.1C43.3-3,44.1-9.2,46-8.6
							c1.2,1.5,2.3,3.3,3.5,5.1c3.3,4.2,2-5.2,4.5-4.2c5.8,7.3,5.2-0.5,8,0.9c3.4,5.7,3.9,0.6,5.6,3.2c0.1,0.9,0.4,1.9,0.7,2.8
							c1.2,1.5,2.3,2.8,3.5,4c2,0.6,3.7,1.1,5.7,1.7C77.4,8.7,77.3,11,77.2,13.4z"/>
					</g>
					<g>
						<path class="st2" d="M17.2,51.4c-1.6,3.9-3.9,0-5.1,4c-1.9-2-3.8-4.1-5.7-5.8c0.7-2.4,1.2-4.3,1.7-6.5
							c0.8-1.5,3.1-1.1,2.3-5.2c1.2-0.8,2.5-1.9,3.7-3c1,0.3,1.9,0.6,3,0.9c0.1,3.2,0.3,6.5,0.3,10C17.3,47.6,17.3,49.3,17.2,51.4z"
							/>
					</g>
					<g>
						<path class="st6" d="M6.7,63.7c-0.4-0.7-0.9-1.4-1.3-1.9c-0.6,0.1-1.1,0.6-1.5,1c-1.6-1.1-3.4-2.2-5-3
							c-0.6,3.1-1.1,6.1-1.6,9.2c-1.2-0.4-2.4-0.7-3.6-1.1c-0.1,2.9-0.2,5.8-0.3,8.4c-1.1,2-2.1,4-3.1,6.1
							c-2.9-5.2-4.5-9.8-4.6-16.9c-3.2-4.2-3.3-4.2-4.2-6.8c0.1-2.3,0.1-4.6,0.3-8.4c-0.1-2.4-0.3-4.8-0.5-7.2
							c-0.5-2.5-1.2-5-1.9-7.6c1-1.5,2.1-3.2,3-4.6c-0.8-2.9-1.8-6.1-2.6-9.3c0.5-1.6,1-3.5,1.7-5.1c1.9-2.1,3.9-4.4,5.9-6.7
							c2-1.7,3.9-3.5,5.9-5.2c-0.1-0.9-0.4-1.9-0.5-2.8c0.5-2.8,1.1-5.2,1.6-8c1.3-2,2.5-3.9,3.8-5.9c1.4,2.2,2.7,4.6,4.2,6.8
							c-0.5,1.6-1,3.5-1.7,5.1C0,1.7-0.8,3.2-1.6,5c1.6,0.5,3.3,1,5.1,1.5c1.4,2.8-0.4,6.9,1.1,7.4c0.6,4.3,1.2,8.6,1.9,13.1
							C4.2,29,2,31.3-0.4,33.5c-1.3-1.6-2.8-2.9-4.1-4.2c-0.9,3-1.7,5.9-2.6,9.2c0.7,3.4,1.3,6.8,1.9,10.2c1.2-1.1,2.3-1.9,3.7-3
							c2.5,1.1,5.2,2.5,7.7,3.8c1.9,1.7,3.8,3.8,5.7,5.8C10.7,62,10,66.1,6.7,63.7z"/>
					</g>
					<g>
						<path class="st2" d="M-1.2,40.2c-1.9-0.6-3.9-1.2-5.8-1.8c-0.1-0.6-0.4-1.3-0.7-1.7c1.1-2.6,2.1-4.9,3.3-7.5
							c1.3,1.3,2.8,2.6,4.1,4.2C-0.6,35.7-0.9,37.7-1.2,40.2z"/>
					</g>
					<g>
						<path class="st5" d="M408.3,99.3c-1.7,2.7-3.8,0.3-8,0.2c0.4-3.7,0.8-7.1,1.1-10.8c1.6,0.5,3.4,1,5.1,1.5c0.4,1,0.8,2,1.3,3.3
							C408.4,96.4,408.3,97.9,408.3,99.3z"/>
					</g>
					<g>
						<path class="st5" d="M391.1,68.7c1.2-3.4,2.9-1.4,4.4-1.3c-0.1,2.6-0.2,5.5-0.3,8.4C394.9,73,393.4,74,391.1,68.7z"/>
					</g>
					<g>
						<path class="st5" d="M391,119.2c-3.2-0.1-6.2,4.9-8,0.5c2.2-1.7,4.5-3.3,6.7-5C390.1,116.3,390.5,117.6,391,119.2z"/>
					</g>
					<g>
						<path class="st5" d="M379.3,122.7c-1.2,0.5-2.5,1-3.7,1.8c-0.9-1.4-1.9-2.6-2.8-3.8c-5.3-1-10.7-2.3-15.9-3.4
							c-4.7,3.9-12-1.9-18.1-2.5c-4.4,4.2-12-3-17.4-1.1c-17.9,0.5-38.1-6.2-56.4-5.9c-0.1,2.6-2,0.6-3.5-3.7
							c0.1-6.7,4.1-0.8,3.9-7.3c11.8,13.2,19.7-6.3,31.7,6.7c0.1-1.5,0-3.2,0.9-3.8c0.7,0.2,1.7,0.2,2.1,2.1
							c-0.2,2.3,1.9,1.5,2.8,2.3c0.4-1.9-0.5-4.8,0.9-5.6c3.9,5.8,12,6.8,16.4,6.4c7.9-1.1,16.9,0.1,24.5,3.3
							c1.2-3.7,6.4-2.1,7.2,2.2c2.1-8.7,3.2,7.4,5.2-1.4c2.6,0.5,5.2,2.2,6.3,4.8c1.4-6,4.8,1.7,9.4,4.3c1-3.2,4.3,2.5,4.3-3.1
							c1.3,1.3,2.3,2.5,3.5,4C380.3,120.4,379.8,121.4,379.3,122.7z"/>
					</g>
					<g>
						<path class="st5" d="M359.1,97c1.8-3.6,2.7-3.3,3.7-3C365.9,102,359.8,99.3,359.1,97z"/>
					</g>
					<g>
						<path class="st5" d="M354.8,94.2c-6.1,8.1-10.4,0.4-16-0.4C344.4,91.7,349.2,90.2,354.8,94.2z"/>
					</g>
					<g>
						<path class="st5" d="M343.2,23.5c-1.5,5.1-6,3.7-6.6-0.5c0-0.6,0-1.2,0-1.5c-2-2.7-4.1-5-6.3-7.4c0.8-1.8,1.6-3.3,2.4-5.1
							c3.3-0.4,2.9,4.7,4.7,9.9c0.6-0.1,1.1-0.6,1.5-1c1.2,0.4,2.4,0.7,3.6,1.1c0.1,0.6,0.4,1.3,0.7,1.7
							C343.3,21.5,343.3,22.4,343.2,23.5z"/>
					</g>
					<g>
						<path class="st5" d="M335.7,50.8c-1.6-2-3.2-3.9-4.8-5.8c1.7-2.4,6-2.9,6.3,4.8C336.8,50,336.4,50.4,335.7,50.8z"/>
					</g>
					<g>
						<path class="st5" d="M326.5,48c-3.3-2.1-5.7,0-8.8,0c-4.8-1.7-8.3-4.3-11.3-4.9c-1.2-0.4-2.4-0.7-3.6-1.1
							c-0.5-3.4-2.9-2.4-2.7-6.4c0.6-3.9,1.2-8.1,1.7-12c1.5-0.1,2.9,0,4.4-0.1c2.4,0.7,4.8,1.5,7.2,2.2c1.2-1.1,2-5.2,3.7-3
							c2.9,0.3,5.7,0.6,8.6,1.1c0.7,1.7,1.4,3.3,2.1,4.7c-3.4,3.6-6.5,3.9-8.3,8.9c1.7,4.9,2.8-1.8,4.4-0.1c1,2.3,3.8,3.5,5.5,7.2
							C328.5,45.7,327.4,46.8,326.5,48z"/>
					</g>
					<g>
						<path class="st5" d="M321.4,92.7c0.1-4.3,1.4-6.3,3.8-4.4C325.9,94.3,323.7,96.9,321.4,92.7z"/>
					</g>
					<g>
						<path class="st5" d="M309.6,6.4c-1.2,0.5-2.4,1-3.7,1.5c-1.3-0.7-2.8-1.7-4.3-2.5c-1.3-0.4-2.8-0.9-7.1-5.1
							c0-1.8,0.1-3.8,0.2-5.5c1.1-0.8,2-1.4,3.1-2c1.2,0.9,2.2,1.5,3.5,2.5c1.2-0.5,2.3-1.1,3.7-1.8c0.5,8.3,2,7.3,3.4,8
							c0.4,0.7,0.9,1.4,1.3,1.9C309.7,4.3,309.7,5.2,309.6,6.4z"/>
					</g>
					<g>
						<path class="st5" d="M271.2-17.8c-7.6,0.1-15.7-4.2-23.2-2.9c-2.4-1.6-4.7-3.2-7.1-5.1c-0.4-1.9-0.8-4-1.2-5.9
							c5.3-5.7,12.9,3,18.2-1.5c4.1,4.5,9.7,3.8,13.4,11.1c2.1-0.2,4.4-0.4,6.5-0.7c0.7-1.6,5-2,5,5.6
							C280-16.6,276.9-16.1,271.2-17.8z"/>
					</g>
					<g>
						<path class="st5" d="M234.1,101.4c-2.1,3.2-4.4,4-4.4,1.6C230,99.9,231.8,98.3,234.1,101.4z"/>
					</g>
					<g>
						<path class="st5" d="M230-23.2c-2.1,0.2-5.8-4.4-6.5,0.7c-2,0.3-3.8,0.6-5.8,1.2c-1.6-0.5-3.4-1-5.1-1.5c0-0.6,0-1.2,0-1.4
							c-1.1-2.7-2.3-5.4-3.4-8c-2-0.6-3.4,1.9-5.1,2.6c-0.6-0.2-1-0.3-1.5-0.4c-2-0.6-3.9-1.2-5.7-1.7c-1,2-2.2,1.7-3.7,3.3
							c-0.6-0.2-1-0.3-1.5-0.5c-1,1.5-2.1,3.2-3,4.6c-2.4-0.7-4.8-1.4-7.2-2.2c-3.9-1.8-9.4-8.1-14.3-5.8
							c-5.1-0.7-10.1-1.3-15.2-1.7c-3.1,1.4-6.5,1.2-10.1-0.4c-3.1-7.1-5.9-0.3-9.5,0c-0.2,0.8-0.5,1.6-0.7,2.7
							c-0.3-0.1-0.6-0.2-0.7-0.2c-1-0.9-1.9-1.8-2.8-2.3c-2,0.3-3.9,0.6-5.9,0.8c-3.2,0.2-6.4,0.1-9.4,0.1c-0.3-1-0.5-1.9-0.7-3.1
							c0.9-2.9,1.7-5.9,2.4-8.9c4.2,1.6,9.4-10,12.2,5.2c1.3-11,4.6-5.6,5.9-4.1c1.7-1.2,3.6-2.7,5.3-4c3.5-1,1.7,3.7,4.1,8.3
							c1-3.5,2.2-6.7,3.2-10.1c6.1,3.3,12.1,0.4,17.3,3.7c0-4.1,3.1-3.7,5.2-2.5c4.8,1.5,9.6,2.9,14.4,4.3c0.4,1.3,0.9,1.4,1.3,0.4
							c-0.7-6.9,4.6-3.3,5.4-8.3c1.8,0.5,2.3,5.4,3.3,9.5c1.7-1.5,3.4-2.8,5.3-4c1.3,3.3,4.2,1,5.6,4.3c5.1-2.5,4.5,6.9,7.2,2.2
							c0-0.9,0.1-1.7,0.1-2.6c3.6,6.6,9.3-3,11.4,7.5c0.9-0.3,2.4,1.9,2.9-0.6c1.8,0.3,5-3.8,7.1,3.6
							C231.2-29.6,230.7-26.5,230-23.2z"/>
					</g>
					<g>
						<path class="st6" d="M228.8,39.5c-2.1,2.9-3.2,5.8-7.3,1.9c-7,1.4-11.9-1.8-20.3,2.3c-1.5-1-2.8-2-4.3-2.8
							c-1.5-0.5-2.8-0.9-4.3-1.3c-0.1-0.6-0.4-1-0.7-1.7c-2.7,0.1-3.1,2.6-7.9,0.5c-0.7,1.6-1.2,3.4-1.7,5c0.4,2.5,0.8,4.9,1.3,7.4
							c-0.6,0.1-1.1,0.6-1.5,1c-0.9-1.4-1.9-2.6-2.8-3.8c-0.6-0.2-1-0.3-1.5-0.4c-0.4-1-0.8-2-1.3-3c-0.6-0.2-1.1-0.3-1.5-0.5
							c-0.5,2.2-1,4.1-1.7,6.5c-0.9-0.3-1.9-0.6-2.8-0.9c-0.4-1.6-0.8-3.2-1.2-4.7c-2.4,3.1-4.6,3.6-4.6,7.1c-6.3-1-12.5-2-18.8-2.8
							c-2.1-1.2-4.3-2.5-6.4-3.4c-2.1-0.9-1.3,4-3,4.6c-1.8,0-3.6-0.2-6.1,6.6c-1.9-1.7-3.7-3.2-5.6-4.6c-2.1-14.7-5.4,3.1-10-4.5
							c-1.2,4.3-3.4,1.3-5.1-0.1c-2.8-0.9-5.7-1.7-8.7-2.6c-1.2-0.4-2.4-0.7-3.6-1.1c-3.9,4.4-8.3-1.6-8.8,5.8
							c-3.3-1.6-6.4-2.8-9.3-6.9c-0.5,0.1-0.9,0.6-1.4,0.8c0.3,3.3,0.7,6.9,1,10.3c2.1,4.2,0,5-0.3,8.4c0.3,1.5,0.5,2.8,0.6,4.3
							c0.4,0.7,0.9,1.1,1.5,1.9c2.4,1,4.8,2.3,7.1,3.6c3.2,3,3-3.8,5.8-2.6c1.5,1.6,4.2,1.3,4.2,5.7c-4,1.4-7.8,3.2-11.8,4.9
							c-1.9-0.6-3.7-1.1-5.7-1.7c-2.3,0.5-4.4,1.3-6.6,2.1c-1.2-0.4-0.9,6.1-3.1,3.2c-1.2-0.7-2.4-1.6-3.6-2.2c-0.5,1-1,2.3-1.5,3.6
							c-1.2-1.2-2.3-2.5-3.5-4c-0.7-0.2-1.5-0.5-2.2-0.7c-0.2,1.1-0.5,1.9-0.7,2.7c0,0.9-0.1,1.7-0.1,2.9c-3-2.4-5.8-4.6-8.6-7
							c-2.4-0.1-4.8-0.6-7.2-0.7c-2.7-1.7-5.2-3.3-7.8-5.3c-0.1-0.3-0.4-1-0.7-1.4c1.3-8.1-0.9-10.8-0.9-14.3
							c1.8-3.3,3.5-6.5,5.3-9.8c5.9,13.2,11.3-2.4,17.4,5.2c2.6-6.8,7.7-0.3,13.1-3.1c1.5-1,2.4-2.8,3.7-1.5
							c0.8-1.8,1.6-3.3,2.3-5.2c-2.4-1.9-4.7-4-7.1-6.2c-2.1-0.6-4.2-1.3-6.4-2c-0.5,1.3-1,2.6-1.5,3.6c-1.5,0.1-3,0.3-4.4,0.1
							c-0.7-0.5-1.5-1.3-2.2-2.1c-3.5,1.3-7.8,4.3-13.9,4.3c-0.1-1.5-0.4-2.7-0.6-4.3c0.7-3.6-3.2-9.4,2.5-7.7
							c1.2,1.2,1.7-1.3,3-3.2c0.1-2.9,0.2-5.8,0.3-8.4c0.7,0.2,1.5,0.4,2.1,0.6c1.2,0.1,0.9-4.1,2.4-4.8c1.2,0.4,2.4,0.7,3.6,1.1
							c1.9,1.5,3.7,2.9,5.6,4.3c0-1.4,0.1-2.6,0.1-4.1c2.4-2.8,6.1,3.3,6.6-2.4c1.2,0.4,2.4,0.7,3.6,1.1c-0.1,2-0.1,3.8-0.2,5.8
							c3,0.3,4-2.6,5.3-4.3c0.9,0,2-0.3,2.9-0.3c0-0.6,0-1.2,0-1.4c0.1-2.3,0.1-4.6,0.3-8.4c0-1.5,0.1-2.9,0.1-4.1
							c0.4,0.1,0.9,0.3,1.5,0.5c-0.5,2.2,1.3,1.3,4.3,3.9c6.1-1.1,9.5-4.4,16-3.7c1.9,1.7,3.8,3.2,5.8,4.7c1.8-3,4.9-1.5,5.9-5.2
							c2.8,0.9,5.7,1.7,8.7,2.6c1.4-0.2,2.9,0,4.2-0.2c1.3-4,5.4-4.5,5.1,0.1c0,1.2-0.1,2-0.1,2.9c1.5-0.1,3.9,2.3,5.2-2.5
							c2.5,0.8,5.2,1.6,7.8,2.3c0-1.4,0.1-2.9,0.1-4.3c2.2,1.3,4.3,2.2,6.5,3.4c1.3,0.4,2.8,0.9,4.2,1.3c0-1.4,0.1-2.9,0.1-4
							c1.5,0.8,3,1.8,4.3,2.5c2.3-0.2,4.4-0.4,6.5-0.7c0-3.5,2-2.3,5.2-1.4c-1.1-2.1-0.8,0.4-0.1,2.9c0.1,2.1,3.4,3.1,4.4-1.6
							c0.9,1.2,1.9,2.3,2.8,3.8c1.9,0.6,3.7,1.1,5.7,1.7c1.1-2,3.5,0.8,4.5-4.2c0.9-0.3,2-0.6,2.9-0.6c1.5,1.3,3.4,3.4,5.9,0.3
							c-0.5,6,3.3,5.4,4.3,1.3c1.4,0.4,2.8,0.9,4.2,1.3c1.1,1.8,2.3,3.6,3.5,5.1c-1.3,1.7-3.5,1.6-4.3,3.1c-2.4-1-5.2,5.2-6.6-0.6
							c-1.4-0.1-3.9-2.3-5.9,5.2c-2.8-2.9-5.6-5.5-8.5-8.4c-1.4,0.8-2.9,1.2-4.3,1.6c-0.6-1-1-2.1-1.4-3.3c-1.2,1.1-2.5,2.2-3.7,3.3
							c-1.6-1.6-5,0.8-5-5.9c-1.2-0.4-2.4-0.7-3.6-1.1c-0.1,3.2-0.2,6.7-0.3,9.9c3,1.2,5.8,2.6,8.6,4.1c1.7-0.9,3.4-1.9,5.2-2.8
							c2.2,2.1,4.7,2.9,9.9,7.4c1.6,2.8,3.1,5.6,4.7,8.5c1.7-0.7,3.5-1,5.2-1.4c1.7-1.2,3.4-2.8,5.3-4c4.7,4.3,11.2,8.1,17.2,5.2
							c0.7,1.7,1.3,3.3,2,4.7C223.9,39.3,223.5,34.1,228.8,39.5z"/>
					</g>
					<g>
						<path class="st5" d="M218.8,100.8c-2.2,2.8-6.4,1.6-7.8-0.9C214.1,96.8,215.9,97.3,218.8,100.8z"/>
					</g>
					<g>
						<path class="st5" d="M203.8,97.8c-2.5,3-5.4,3.6-5.9,1.1C197.1,94.6,199.5,94.7,203.8,97.8z"/>
					</g>
					<g>
						<path class="st5" d="M196.5,98.5c-2.5,6.9-4.2,2.6-6.6-0.5C192.2,98.1,194.3,98.1,196.5,98.5z"/>
					</g>
					<g>
						<path class="st5" d="M187.8,98.5c-3.6,2.7-7.2,3.4-8.8,0.3c0.8-1.2,1.7-5.6,3.7-3C184.4,96.6,186.1,97.7,187.8,98.5z"/>
					</g>
					<g>
						<path class="st5" d="M171.8,96.6c-2.2,2.5-5.9,4.6-5-0.1C168,97.5,168.6,93.6,171.8,96.6z"/>
					</g>
					<g>
						<path class="st5" d="M148,93.5c-4,3.5-8.6,5.6-8.8,0.3c1.7-2.1,3.7-2.1,6-3.7c0.7,0.2,1.3,0.4,2.1,0.6
							C147.6,91.6,147.7,92.5,148,93.5z"/>
					</g>
					<g>
						<path class="st5" d="M103.3-33.4c-3.7,3.5-2.4-6-4.9-1.5c-4.2-0.4-9.3,1.6-13.8,2.8c-1.3-0.4-2.4-0.7-3.6-1.1
							c-1.5-1.9-2.9-3.8-4.2-5.7c-2.6-0.5-4.8,4.7-6.2,8.1c-0.9-0.3-1.9-0.6-2.8-0.9c-0.4-0.1-0.9-0.3-1.3-0.4c-2,1.1-3.8,4.1-8.8,0
							c-1.2,0.8-2.5,1.3-3.7,1.8c-4.9,2.9-10.4-0.5-14.6,2.6c-4,1.7-7.8,3.2-11.8,4.9c-1.2-4.2-2.6-8.4-4-12.6
							c3.5-2.4,6.8-5.8,10.5-6.5c5.6-0.6,9.2-3.9,15.2-2.4c0.4-7.2,6,5.9,6-3.8c1.6,1.1,4,3.8,5.7,1.7c-1.2-6.2,3.1-6.1,4.5-3
							c-0.3,1.4,0.2,2.1,0.7,3.1c0.8,0,1.6,0.8,2.1-0.8c-0.9-5.2,1.9-3.8,2.5-6.3c1.8,1.4,3.2-0.5,3.7-3c4.3-2.2,10.5,10.8,11.5-0.9
							c3-0.5,8.3,6,8.8-1.4c-1.4-6.9,3.3-2.8,1.8-9.4c10.5-2.1,7.8,15.2,12.9,27.9C107.4-38,105.4-35.7,103.3-33.4z"/>
					</g>
					<g>
						<path class="st5" d="M10.4,37.9c0.8,4-1.5,3.6-2.3,5.2c-0.5,2.2-1,4.1-1.7,6.5c-2.5-1.3-5.2-2.7-7.7-3.8
							c0.1-2,0.1-3.8,0.2-5.5c0.2-2.6,0.6-4.5,0.8-6.8C2,31.3,4.2,29,6.5,27.1c0.1,0,0.4,0.1,0.6,0.2c1.9-1.5,4.1-0.8,5.1,1.5
							c0.7,2,1.4,4.2,1.9,6.1C12.9,36,11.6,37.1,10.4,37.9z"/>
					</g>
					<g>
						<path class="st5" d="M3.6-18.8C2.4-15.7-0.1-17-1.8-12c-1.3,2-2.5,3.9-3.8,5.9C-6.5-7.8-7.5-9.6-8.3-11
							c0.1-2.6,0.1-4.6,0.2-6.9c4.1,0.4,7.3-9.5,11-3.7C3-20.8,3.3-19.8,3.6-18.8z"/>
					</g>
					<g>
						<path class="st3" d="M325.7,23.8c-2.9-0.6-5.7-0.8-8.6-1.1c0.1-4.3,0.3-8.4,0.4-12.4c0.4,0.1,0.9,0.3,1.3,0.4
							c2.3,2.5,4.8,5,7,7.7C325.8,20,325.8,22.1,325.7,23.8z"/>
					</g>
					<g>
						<path class="st6" d="M335.7,50.8c-1.5,8-7.8,7.9-11.1,7.7c-2.2-1.5-4.7-3.2-7.1-5.1c-1.7,0.9-3.4,1.9-5.1,2.9
							c-2.1-0.9-4.4-4-6.3-7.5c-2,0.6-2.2,8.4-5.3,6.6c-0.4-0.7-0.9-1.7-0.7-2.8c-5.5,3.3-13.8-2.4-20.9-3.7c-1.3,1.7-2.5,3-3.8,4.7
							c-13.4-11.1-28.2-6.2-40.3-11c-0.8,2.4-2.4,0.4-5.7-2.9c4.9-7.9,13.6-0.3,21.1-3.6c1.2-0.5,2.4-1,3.7-1.8
							c-0.1-0.9-0.4-1.9-0.7-2.8c0.7-1.8,1.2-3.4,1.7-5.1c-0.4-1.3-0.8-2.3-1.4-3.3c-1.1,0.6-2.2,1.1-6.4-3.4
							c-2.9,5.3-8.1-2.7-10.3,3.9c-0.7-2.8-1.3-6-1.8-9c0.5-0.2,0.9-0.6,1.4-0.8c2.7-0.3,5.3-0.4,8-0.5c0.4,0.1,0.9,0.3,1.5,0.5
							c1.7-0.1,3.3,0.1,5,0c0.5,0.1,0.9,0.3,1.5,0.5c1.3,0.4,2.8,0.9,4.3,1.3c0.5,0.1,0.9,0.3,1.3,0.4c1.5,0.2,2.9,0,4.4-0.1
							c0.9,0,2-0.3,2.9-0.3c2.2,1,4.3,2.2,6.4,3.1c0.6,0.2,1,0.3,1.5,0.5c2.7-0.9,4-6.7,10.2-1c0.4,2.4,0.8,4.9,1.3,7.4
							c1.3,0.7,2.8,1.7,4.3,2.8c0.2-2,0.6-3.6,0.8-5.3c1.2-1.1,2.5-2.2,3.7-3.3c1.7-0.1,2.5-3.3,4.4-1.3c1.2,1.5,2.3,3.3,3.5,5.1
							c-0.6,3.9-1.2,8.1-1.7,12c-0.3,4,2.2,3,2.7,6.4c1.2,0.4,2.4,0.7,3.6,1.1c3,0.6,6.6,3.1,11.3,4.9c3,0,5.5-2.1,8.8,0
							c0.9-1.2,2-2.3,3-3.5c0.6,0.2,1.1,0.3,1.5,0.5C332.5,46.9,334.1,48.8,335.7,50.8z"/>
					</g>
					<g>
						<path class="st7" d="M222.9-5.8c-2.1-0.6-4.3-1.3-6.4-1.9c-1.5,1-3.1,8.1-5.9,5.2c-1.8-0.2-1.4-3.9-1.3-6
							c-1.6-0.5-3.7-2-3,3.2c-0.7,2.4-2,0.3-2.9,0.6c-5.2-13-6.6,8.8-13.1-2.5c-0.9,0.9-2,2-3,3.2c-1.2,1.1-2.5,2.2-3.7,3
							c-0.7-2.8-1.4-4.5-1.9-6.1c-8.2-3.6-15.2,3.6-23.2-4.1c-0.9,4.1-4.6,1.8-6.7,7.6c-2.4-4-1.7-7.5-4.2-6.8
							c-1.4,0.4-4.3-1.3-3.7,3.3c-0.8,2.1-2.4,0.1-5.3,4c-0.4-0.1-0.9-0.3-1.3-0.4c-2.1-6.8-7.2-6.9-9.3-5.8c-0.5,2.5-2,0.3-2.9,0.6
							c-1.6-1.1-3.3-1.9-4.9-2.9c-6.5,3.3-14.6,2.3-20.5,3.7c-1.3-1.6-2.8-2.9-4.3-4.2c0.5,9.2-5.2,1.1-6,6.7
							c-1.7-0.2-3.5-0.2-5.1-0.1c-0.7,3.3-3.4,1.6-5.2,6.9c-0.6-0.2-1.1-0.3-1.5-0.5c0,1.2-0.1,2.6-0.1,4.1
							c-3.1-1.8-6.2-3.6-9.2-5.7c-0.3-1-0.5-1.9-0.7-2.8C65.9-6.1,65.4-1,62-6.7c-2.8-1.4-2.2,6.4-8-0.9c-2.5-1.1-1.2,8.4-4.5,4.2
							c-1.2-1.8-2.3-3.6-3.5-5.1c-2-0.6-2.7,5.6-5.2,2.5c-1.2-0.4-2.4-0.7-3.6-1.1c1.6-2.7,0-8.8,2.5-7.7c2.1,1.2,4.3,2.2,6.4,3.4
							c1.8-0.3,1.8-7.7,4.6-5.6c1.2,0.7,2.4,1.6,3.6,2.5c0.8-0.9,1.4-1.6,2.2-2.3c0.9,0.3,1.9,0.6,2.8,0.9c2.5,0.8,3.9-4.6,8.2-7.2
							c0.1-2.9,0.2-5.8,0.3-8.4c0.9,0.3,1.9,0.6,2.8,0.9c1.3-3.4,3.6-8.6,6.2-8.1c1.3,1.9,2.8,3.8,4.2,5.7c1.2,0.4,2.2,0.7,3.6,1.1
							c4.6-1.2,9.6-3.2,13.8-2.8c2.6-4.5,1.2,5,4.9,1.5c1.5,1.6,2.9,3.5,4.2,5.4c2.2,1.8,3.3-4.3,5.3-4c2,3.8,4.1,7.7,6.1,11.5
							c1.3-2.2,2.6-4.8,3.8-7c1.6,1.7,3.2,3.6,5,5.6c0-4.7,3.2-5.8,3.2-10.1c0.1,0,0.4,0.1,0.7,0.2c1.3,1.6,2.8,3.5,4.1,5.3
							c2-2.6,3.8-7,6.1-8.1c3.6,1.7,7,1.8,10.1,0.4c5.1,0.4,10.1,1,15.2,1.7c4.9-2.3,10.5,4,14.3,5.8c2.4,0.7,4.8,1.5,7.2,2.2
							c1.6,2.8,3.1,5.6,4.7,8.4c2.2,2.4,3.1-2,3.7-3c1.5,0.7,3,1.8,4.3,2.5c1.9-1.2-0.5-8.6,2.5-7.4c0.4,0.4,0.9,1.1,1.3,1.6
							c2.4-0.2,4.8-0.3,7.3-0.4c1.6,0.5,3.4,1,5.1,1.5c0.4,2.7,0.7,5.8,1.1,8.8c1.5,1.3,2.9,2.6,4.3,3.9c3.9-2.9,12.2,0.2,17.4-0.3
							c5.7-1.8,12.8,5.3,18.1,1.4c2.1,0.6,1.1,4.7,3.5,3.7c4.9-2.6,13.5,0,19.4,8.8c-9.3,2.2-18.6-4.2-26.9,0.3
							c-0.2-3.6-2-2.7-1.9-6.4c-3.1-1.8-3.9,0.6-6.5,0.9c-0.4-1-1-1.8-0.7-3.1c-1.6-0.5-3.7-1.7-3,3.5c-0.5,1.6-1.4,0.8-2.3,0.8
							C234.4-1.4,228.8-3.7,222.9-5.8z"/>
					</g>
					<g>
						<path class="st3" d="M272.5,32.9c-2.4-0.1-4.8-0.3-7.2-0.7c0.4,1.9,0.8,4,1.3,6c-1.5-0.5-2.8-0.9-4.3-1.3
							c0.5-1.6,1-3.5,1.7-5.1c-1.5-1.3-2.9-2.7-4.3-3.9c0.1-2,0.1-3.8,0.2-5.8c0.4,0.1,0.9,0.3,1.3,0.4c1.5,1.6,2.9,2.9,4.3,4.2
							c2.4,1.6,4.7,3.2,7.1,5.1C272.5,32,272.5,32.6,272.5,32.9z"/>
					</g>
					<g>
						<path class="st3" d="M212.6-22.9c-2.4,0.1-4.8,0.3-7.3,0.4c-0.4-0.4-0.9-1.1-1.3-1.6c0.1-2,0.1-3.8,0.2-5.8
							c1.7-0.6,3.1-3.1,5.1-2.6c1.1,2.7,2.2,5.4,3.4,8C212.6-24.1,212.6-23.5,212.6-22.9z"/>
					</g>
					<g>
						<path class="st3" d="M170.4,50c-1.7,1.2-2.6,7.1-5.8,2.3c0-3.5,2.2-4,4.6-7.1C169.6,46.8,170,48.4,170.4,50z"/>
					</g>
					<g>
						<path class="st3" d="M143.4,58.5c-0.9,1.2-1.2,5.5-3.1,3.4c-0.6-1.6-1.3-3.3-1.9-6.4c-0.7-1.4-1.4-3.1-2-4.7
							c1.7-0.7,0.9-5.6,3-4.6c2.1,0.9,4.3,2.2,6.4,3.4C144.9,52.5,144.1,55.5,143.4,58.5z"/>
					</g>
					<g>
						<path class="st3" d="M141.9-34.6c-2.3,1.1-4.1,5.5-6.1,8.1c-1.3-1.9-2.8-3.8-4.1-5.3c0.2-1.1,0.5-1.9,0.7-2.7
							c1.3-1.4,2.5-3,3.8-4.4c1.9,0.6,3.9,1.2,5.8,1.8C141.9-35.5,141.9-34.9,141.9-34.6z"/>
					</g>
					<g>
						<path class="st3" d="M132.4,14.5c2.5-2.5,5.8-5,5.7,1.7C136.1,15.6,134.3,15.1,132.4,14.5z"/>
					</g>
					<g>
						<path class="st3" d="M131.8,81.6c-3-1.8-5.8-3.5-8.6-5.2c-0.5,1.6-1,3.5-1.7,5c-3.7-3.4-5.5-2-5.8,1.2
							c-2.1,0.2-4.4,0.4-6.5,0.7c-0.3-1.5-0.5-2.8-0.6-4.3c-2.1-0.6-4.3-1.3-6.4-1.9c-1.5-0.4-2.8-0.9-4.3-1.3
							c-4,1.4-7.8,3.2-11.8,4.9c-1.8-4.1-3.5-7.8-5.4-11.6c-0.6-0.8-1-1.2-1.5-1.9c-0.1-1.5-0.4-2.7-0.6-4.3
							c0.3-3.4,2.4-4.2,0.3-8.4c-0.3-3.3-0.7-6.9-1-10.3c0.5-0.1,0.9-0.6,1.4-0.8c2.9,4.1,6,5.3,9.3,6.9c0.5-7.4,4.9-1.4,8.8-5.8
							c1.2,0.4,2.4,0.7,3.6,1.1c3,0.9,5.8,1.8,8.7,2.6c1.8,1.4,3.9,4.4,5.1,0.1c4.6,7.5,7.9-10.2,10,4.5c1.9,1.5,3.7,2.9,5.6,4.6
							c-3.9,12.3-12.4,5-19.1,5.3c1.4,7.7-3,3.5-4.5,7.1c0.5,2.5,1.2,5,1.9,7.6c0.8-1.5,1.6-3.3,2.3-4.9c2.9-2.3,8.2,2.8,12.4,0.8
							c3.6,1.7,7.2,3,10.7,4.7C133.2,79.4,132.4,80.6,131.8,81.6z"/>
					</g>
					<g>
						<path class="st3" d="M112.8-32c-2-0.3-3.1,5.8-5.3,4c-1.3-1.9-2.8-3.8-4.2-5.4c2-2.3,4.1-4.6,6.1-6.6c0.9,1.1,1.9,2.3,2.8,3.5
							c0.1,1.2,0.4,2.2,0.7,3.1C112.8-33.2,112.8-32.6,112.8-32z"/>
					</g>
					<g>
						<path class="st3" d="M80.9-33.2c-1.5-1.9-2.9-3.8-4.2-5.7c-2.6-0.5-4.8,4.7-6.2,8.1c1.3-3.4,3.6-8.6,6.2-8.1
							C78-37,79.5-35.1,80.9-33.2z"/>
					</g>
					<g>
						<path class="st3" d="M74.3,15.1C73,16.8,72,19.7,69,19.4c0.1-2,0.1-3.8,0.2-5.8C70.9,14.1,72.6,14.6,74.3,15.1z"/>
					</g>
					<g>
						<path class="st3" d="M65.3,93.9c-1.5,0.4-2.9,0.9-4.4,1.3c-0.7-0.5-1.5-1.3-2.1-1.8c-2.5,2.8-6.4,1-8.2,4.6
							c-3.5-0.2-6.8-0.3-10.1-0.4c-3.5-0.2-6.8-0.3-10.3-0.2c-1.3,2.2-2.6,4.8-3.9,7.3c-1.9-0.6-3.7-1.1-5.7-1.7
							c0.8-2.7,1.7-5.3,2.4-7.8c2.5,1.9,4-1.7,7.2,0.7c0.1-2.3,0.1-4.6,0.2-6.9c1.7-1.8,3.6-3.6,5.3-5.4c3-0.5,5.6-0.3,7.4-4.8
							c2.4,0.1,4.8,0.6,7.2,0.7c2.8,2.3,5.6,4.6,8.6,7c0-1.2,0.1-2,0.1-2.9c0.2-0.8,0.5-1.6,0.7-2.7c0.8,0.2,1.5,0.5,2.2,0.7
							c1.2,1.5,2.3,2.7,3.5,4C65.5,88.4,65.4,91,65.3,93.9z"/>
					</g>
					<g>
						<path class="st3" d="M57.6-32c5,4.1,6.8,1.2,8.8,0C64.4-30.9,62.6-27.9,57.6-32z"/>
					</g>
					<g>
						<path class="st3" d="M-1.3,45.7c-1.4,1-2.5,1.9-3.7,3c-0.6-3.4-1.3-6.8-1.9-10.2c2,0.6,3.9,1.2,5.8,1.8
							C-1.2,42-1.3,43.7-1.3,45.7z"/>
					</g>
					<g>
						<path class="st3" d="M-6.7,4.7c-2,1.7-3.9,3.5-5.9,5.2c-0.2-2.4-0.3-4.8-0.5-7.2c2-0.3,4-0.6,5.9-0.8
							C-7.1,2.8-6.8,3.7-6.7,4.7z"/>
					</g>
					<g>
						<path class="st4" d="M197.2-19.1c-0.6,1-1.5,5.4-3.7,3c-1.6-2.8-3.1-5.6-4.7-8.4c1-1.5,2.1-3.2,3-4.6c0.4,0.1,0.9,0.3,1.5,0.5
							C194.5-25.8,195.9-22.4,197.2-19.1z"/>
					</g>
					<g>
						<path class="st4" d="M122.8-27.5c-1.3,2.2-2.6,4.8-3.8,7c-2-3.8-4.1-7.7-6.1-11.5c0-0.6,0-1.2,0-1.5c3,0,6.2,0.1,9.4-0.1
							C122.9-31.3,122.9-29.6,122.8-27.5z"/>
					</g>
					<g>
						<path class="st6" d="M317.1,22.7c-1.7-2.3-2.5,1.9-3.7,3c-2.4-0.7-4.8-1.4-7.2-2.2c0.1-2.6,0.2-5.5,0.3-8.4
							c-0.2-2.4-0.3-4.8-0.5-7.2c1.2-0.5,2.5-1,3.7-1.5c2.7,1.1,5.2,2.5,7.9,3.9C317.4,14.3,317.3,18.3,317.1,22.7z"/>
					</g>
					<g>
						<path class="st6" d="M294.5,0.4c-0.2-0.1-0.5-0.1-0.6-0.2c-1.8-1.4-5.9,0.8-5-5.6c1.2-1.1,2.5-2.2,3.7-3.3
							c0.7,1.1,1.4,2.2,2,3.5C294.7-3.4,294.6-1.4,294.5,0.4z"/>
					</g>
					<g>
						<path class="st6" d="M227.4,16.6c-0.7-1.4-1.4-2.5-2.2-3.6c-0.3-6.5,3.6-3.6,6.7-0.6C230.3,13.7,228.8,15,227.4,16.6z"/>
					</g>
					<g>
						<path class="st6" d="M220.8,20.2c-2-0.6-3.1-1-5.2,1.4c-1.6-1.1-3.4-2.2-5-3c0-1.4,0.1-2.9,0.1-4.3c2.2-1.4,5.2-0.8,7.4-4.8
							c1.5,1,3,2.1,4.3,2.8C221.8,14.9,221.3,17.4,220.8,20.2z"/>
					</g>
					<g>
						<path class="st6" d="M204-24.1c-3-1.2-0.6,6.2-2.5,7.4c-1.3-0.7-2.8-1.7-4.3-2.5c-1.3-3.3-2.7-6.7-3.9-9.7
							c1.6-1.6,2.8-1.2,3.7-3.3c1.8,0.5,3.7,1.1,5.7,1.7c0.4,0.1,0.9,0.3,1.5,0.4C204.1-27.8,204.1-26.1,204-24.1z"/>
					</g>
					<g>
						<path class="st6" d="M122.8-27.5c0.1-2,0.1-3.8-0.6-6c2-0.3,3.9-0.6,5.9-0.8c0.9,0.6,1.8,1.4,2.8,2.3c0,4.4-3.2,5.5-3.2,10.1
							C126-23.9,124.4-25.9,122.8-27.5z"/>
					</g>
					<g>
						<path class="st6" d="M34.2,43.9c-1.2,1.4-2.5,2.7-3.8,4.4c-1.7,0.4-3.1-2.4-3.5-4c0.9-1.5,2.1-3.2,3-4.6
							c-0.3-3.3-0.7-6.9-1.2-10.3c1.6,0.5,3.4,1,5.1,1.5c1.9,2.9,1.4,6.9,3.3,10.9C36.2,42.5,35.2,43,34.2,43.9z"/>
					</g>
					<g>
						<path class="st6" d="M30.3,95.9c-3.2-2.4-4.7,1.2-7.2-0.7c-0.7,2.4-1.5,5.1-2.4,7.8c-0.3-0.1-0.5-0.1-0.7-0.2
							c-3.9-4.7-4.5-1.1-5.7-1.7c0.4-4.3-2.2-2.1-2.7-5.2c-0.5-2.5-0.9-5-1.3-7.4c0.2-0.2,0.5-0.7,0.8-1.2c2,0.3,3.8,0.3,5.7,0.6
							c2.3,0.1,4.6,2.3,6-4c0.2,0.1,0.5,0.1,0.6,0.2c2.2,1.8,4.3,3.3,6.5,4.9c0.2,0,0.5,0.1,0.6,0.2C30.5,91.3,30.4,93.6,30.3,95.9z
							"/>
					</g>
					<g>
						<path class="st6" d="M24.3-9.7c-0.5,0.2-0.9,0.6-1.5,1c-3.4-1-7-3.3-9.5,4.2C12-4.9,10.8-5.2,9.6-5.6c0.1-3.5,0.2-6.7,0.3-9.8
							c0.9-1.2,2-2.3,3-3.2c4.1-0.8,7.9-2.9,12.5-2.1C25-17,24.5-13.4,24.3-9.7z"/>
					</g>
					<g>
						<path class="st7" d="M23.5,83.9c-0.1-0.1-0.4-0.1-0.6-0.2c-1.5-1.6-2.9-3.5-4.2-5.4c2-1.1,3.9-2.6,5.9-3.8
							c0.4,1,0.8,2,1.4,3.1C25.1,79.7,24.3,81.8,23.5,83.9z"/>
					</g>
					<g>
						<path class="st7" d="M24.3,36.6c-2.2-0.7-4.3-1.3-6.6-2c2.8-3.8,5.8-6.1,6.7-0.6C24.4,35.7,24.3,36.3,24.3,36.6z"/>
					</g>
					<g>
						<path class="st7" d="M6.3,76.1c-1.3,3.4-3.4,1.3-5,0c-1.1,0.6-2,1.1-3.1,1.7c-0.4-0.4-0.9-1.1-1.3-1.8c0.1-2.3,0.1-4.6,0.2-7
							c1.3,1.6,2.8,2.9,4.2,4.2c0.5-0.7,1-1.5,1.4-2.5C4,72.5,5.2,74.3,6.3,76.1z"/>
					</g>
					<g>
						<path class="st7" d="M2.7,100.2c0.6,4.9,1.2,9.7,1.7,14.5c-4.5,3.9-4.7-2.9-8.3-9.5c1-1.5,2.1-3.2,3-4.6
							c-1.5-1.9-2.8-3.8-4.2-5.4c0-0.6,0-1.2,0-1.5c4.3,1.6,4.8-5,10,4.5C4.2,98.9,3.5,99.5,2.7,100.2z"/>
					</g>
					<g>
						<path class="st5" d="M338.8,93.8c-1.4,4.9-4.2,2.2-5.8,0.9c-1.5,0.1-2.9,0-4.4,0.1c0.4-4.3,1.7-7.7,4.5-4.2
							C335.1,91.5,336.8,92.6,338.8,93.8z"/>
					</g>
					<g>
						<path class="st5" d="M330.4,14.1c-1.4,1.3-3,2.6-4.5,4.2c-2.2-2.7-4.7-5.2-7-7.7c0.8-2.7,1.6-3.9,2.4-5.1
							C324.9,6,328,8.4,330.4,14.1z"/>
					</g>
					<g>
						<path class="st3" d="M183.5,51c-0.6,0.1-1.1,0.6-1.5,1C182.4,51.6,182.9,51.1,183.5,51z"/>
					</g>
					<g>
						<path class="st3" d="M162.8,16.7c-0.3,0.8-0.7,1.6-0.8,2.7c-0.3-0.1-0.6-0.2-0.7-0.2c-1.7,0.4-3.5,0.7-5.2,1.1
							c-4.1-0.6-8.1-1.6-12.2-2.2c-1.5-0.4-2.8-0.9-4.3-1.3c1.3-1.4,2.5-3,3.8-4.4c0-0.6,0-1.2,0-1.4c1.2-0.2,2.4-0.1,3.6-0.4
							c1.6,1.1,3.3,1.9,5,3c2,2.4,2.9-2,3.7-3C158,12.3,160.5,14.5,162.8,16.7z"/>
					</g>
					<g>
						<path class="st3" d="M163.4,16.9c-0.1-0.1-0.4-0.1-0.6-0.2C163,16.7,163.3,16.8,163.4,16.9z"/>
					</g>
					<g>
						<path class="st4" d="M-5.1,93.7c0,0.3,0,0.9,0,1.5C-5.1,94.6-5.1,94-5.1,93.7z"/>
					</g>
					<g>
						<path class="st6" d="M229.5,39.8c-0.3-0.1-0.4-0.1-0.7-0.2C229.1,39.6,229.2,39.7,229.5,39.8z"/>
					</g>
					<g>
						<path class="st7" d="M36.6-6c-2.5,1.6-0.8,5.6-5.4,6.9c-3.8-4.4-4.5-0.2-10-3c0.5-2.5,1-4.4,1.6-6.5c0.6-0.4,1.1-0.8,1.5-1
							C27.8-2.7,29.5-13.3,36.6-6z"/>
					</g>
					<g>
						<path class="st7" d="M37.2-7.2C37-7,36.7-6.5,36.6-6C36.7-6.5,37-7,37.2-7.2z"/>
					</g>
					<g>
						<path class="st7" d="M212.6-22.9c0-0.6,0-1.2,0-1.4C212.6-24.1,212.6-23.5,212.6-22.9z"/>
					</g>
					<g>
						<path class="st7" d="M18.6,78.4C18,79.7,17.5,81,17,82c-2,0-3.8,0-5.7-0.3c-1-1.8-1.9-3.2-2.7-4.9c0.2-1.1,0.5-1.9,0.7-2.7
							C14.9,72,16.5,75.4,18.6,78.4z"/>
					</g>
					<g>
						<path class="st3" d="M182,52c-1.3-0.7-0.5,4.8-4.4,1.3c-1.3-0.7-2.8-1.7-4.3-2.5c0.7-2.4,1.2-4.3,1.7-6.5
							c0.4,0.1,0.9,0.3,1.5,0.5c0.4,1,0.8,2,1.3,3c0.4,0.1,0.9,0.3,1.5,0.4C180.1,49.4,181.1,50.6,182,52z"/>
					</g>
				</g>
			</g>
		</g>
	</g>
</g>
<g>
</g>
<g>
</g>
<g>
</g>
<g>
</g>
<g>
</g>
<g>
</g>
<g>
</g>
<g>
</g>
<g>
</g>
<g>
</g>
<g>
</g>
<g>
</g>
<g>
</g>
<g>
</g>
<g>
</g>
</svg>
