<?xml version="1.0" encoding="utf-8"?>
<!-- Generator: Adobe Illustrator 19.1.0, SVG Export Plug-In . SVG Version: 6.00 Build 0)  -->
<!DOCTYPE svg PUBLIC "-//W3C//DTD SVG 1.1//EN" "http://www.w3.org/Graphics/SVG/1.1/DTD/svg11.dtd">
<svg version="1.1" id="Layer_1" xmlns="http://www.w3.org/2000/svg" xmlns:xlink="http://www.w3.org/1999/xlink" x="0px" y="0px"
	 width="288px" height="26.9px" viewBox="-161 415.1 288 26.9" style="enable-background:new -161 415.1 288 26.9;"
	 xml:space="preserve">
<style type="text/css">
	.st0{fill:#FFFFFF;}
	.st1{opacity:0.85;}
	.st2{fill:#B8F3FF;}
	.st3{fill:#9FEFFF;}
	.st4{fill:#76E8FF;}
	.st5{fill:#D1F7FF;}
	.st6{fill:#8CECFF;}
	.st7{fill:#60E4FF;}
</style>
<rect x="-161" y="352.8" class="st0" width="288" height="89.2"/>
<g>
	<g>
		<g>
			<g class="st1">
				<g class="st1">
					<g>
						<path class="st2" d="M247.7,439.7c-0.8,0.9-1.6,2.2-2.2,3.4c-1.6-0.5-3.4-1-5.1-1.5c-0.3,3.7-0.7,7.1-1.1,10.8
							c-1,2.6-2.1,5.2-3.1,7.5c3.5,4,5,4.4,7.7,9.4c-0.5,2.2-1,4.4-1.7,6.5c-2.6-0.8-5.2-1.6-7.9-2.4c-1.3-0.4-2.8-0.9-4.2-1.3
							c-0.6-1.6-1-2.9-1.4-4.5c-2.2,1.7-4.5,3.3-6.7,5c-0.7-0.2-1.5-0.4-2.2-0.7c-1.2-1.5-2.2-2.7-3.5-4c0,5.5-3.3-0.1-4.3,3.1
							c-4.6-2.6-8-10.3-9.4-4.3c-1.1-2.7-3.8-4.4-6.3-4.8c-1.9,8.8-3.1-7.4-5.2,1.4c-0.8-4.3-6-5.9-7.2-2.2
							c-7.6-3.2-16.6-4.4-24.5-3.3c-4.4,0.4-12.5-0.6-16.4-6.4c-1.4,0.7-0.6,3.6-0.9,5.6c-0.9-0.9-3,0-2.8-2.3
							c-0.4-1.9-1.3-1.9-2.1-2.1c-0.9,0.6-0.8,2.4-0.9,3.8c-12-13-19.9,6.6-31.7-6.7c0.3,6.5-3.8,0.6-3.9,7.3
							c-3.9,0.3-7.9,0.2-11.7,0.6c-4.9,1.2-10.7-2.3-15.9-3.3c-2.3-3-4-1.5-4.4,1.6c-3.6-0.8-7.2-1.3-10.8-2.1
							c-2.9-3.5-4.7-4-7.8-0.9c-2.4-0.7-4.9-1.5-7.2-2.2c-4.3-3.1-6.7-3.2-5.9,1.1c-0.4-0.1-0.9-0.3-1.3-0.4
							c-2.3-0.4-4.4-0.4-6.6-0.5c-0.6,0.1-1.4,0.5-2.1,0.5c-1.6-0.8-3.4-1.9-5.1-2.7c-2-2.7-2.9,1.7-3.7,3c-2.4-0.7-4.8-1.4-7.2-2.2
							c-3.2-3-3.8,0.9-5-0.1c-4.3-1.3-8.7-2.6-13-3.9c-2,2-3.8,1.5-5.8,0.9c-0.3-1-0.4-1.9-0.7-2.8c-0.8-0.2-1.4-0.4-2.1-0.6
							c-2.3,1.6-4.3,1.6-6,3.7c-0.6-0.2-1.3-0.4-2.1-0.6c-0.4-0.7-0.9-1.1-1.5-1.9c-1.3-0.4-2.8-0.9-4.2-1.3
							c-1.4,0.2-2.4,0.1-3.6,0.4c-0.8,0.6-1.5,1.3-2.3,2.2c-0.4-1.3-0.8-2.3-1.3-3.3c-1.4-0.1-2.4,0.1-3.6,0.4
							c-1.3-0.4-2.4-0.7-3.6-1.1c-1.1,1.1-2,2-3.1,3.2c-2.1,0.2-3.7-2-4.8-7c-1.2,1.1-2.5,2.2-3.7,3c-0.6-0.2-1.1-0.3-1.5-0.5
							c-2.2,1.4-4.5,2.5-6.6,3.9c-3.7-0.8-6.9,2-10.8-2.1c-0.8,1.2-1.6,2.4-2.2,3.7c-1.4-0.1-2.4,0.1-3.6,0.4
							c-1.7,5.3-6.7-2.3-8.9,2.9c-2.1-0.6-4.3-1.3-6.4-1.9c0.1-2.9,0.2-5.5,0.3-8.4c0.5-1.3,1-2.6,1.5-3.6c1.2,0.7,2.4,1.6,3.6,2.2
							c2.2,3,1.9-3.5,3.1-3.2c2.1-0.8,4.3-1.6,6.6-2.1c2,0.6,3.7,1.1,5.7,1.7c4-1.7,7.8-3.5,11.8-4.9c1.5,0.4,2.8,0.9,4.3,1.3
							c2.1,0.1,4.4,0.2,6.5,0.5c-0.7-2.5-1.3-5.1-1.9-7.6c1.5-3.6,5.9,0.6,4.5-7.1c6.7-0.3,15.2,6.9,19.1-5.3
							c2.5-6.9,4.3-6.6,6.1-6.6c0.6,1.6,1.3,3.3,2,4.7c0.7,3.1,1.4,4.8,1.9,6.4c1.9,2,2.2-2.3,3.1-3.4c0.7-3,1.5-6,2.4-8.9
							c6.3,0.7,12.5,1.7,18.8,2.8c3.2,4.8,4.1-1.1,5.8-2.3c0.9,0.3,1.9,0.6,2.8,0.9c1.5,0.7,3,1.8,4.3,2.5c4,3.5,3.1-2,4.4-1.3
							c0.5-0.4,0.9-0.9,1.5-1c5.1,6.2,5.3-1.3,7.2,0.7c0.9,1.1,1.7,2.3,2.8,3.7c0.5-1,1-1.8,1.4-2.5c0.6,0.2,1.1,0.3,1.5,0.4
							c4.9,3.8,2.4-4.2,5.2-2.5c0.6,0.5,1.3,1.3,2.1,2.1c1.2-0.8,2.5-1.3,3.7-1.8c0.4,1,1.8,4.4,2.6,7.8c0.3,0.1,0.5,0.1,0.8,0.2
							c2.6-4.8,8.9-4.6,12.5-3.2c2.5-1.9,7.2,1.3,10.8,3.3c2.4-4.5,6-2,8.6-0.3c2.4,0.7,4.8,1.4,7.2,2.2c2.4,0.7,4.8,1.4,7.2,2.2
							c0.8-5.6,3.2-1.4,3.8-4.4c1.4-1.6,5.9-0.3,7.1,3.6c0.4,0.1,0.9,0.3,1.5,0.4c2.9-4.4,3.2-1.6,6.7-5c5.7,2,11.5,4.4,17.2,6.6
							c1.2-0.2,0.3-3.7,1.6-2.4c2.9-1.7,1.5,5.1,4.2,5.7c1.7-5.9,5.4,0.2,6.7-5c4,8.2,8.7,0.9,13.6,5.3c7.4-0.4,15-1,22.6-1.4
							c3.2,0.1,7.6,2.9,10.7,7.3c0.6,0.2,1.3,0.4,2.1,0.6c1.6,0.8,3.4,1.9,5,3c0.2-2,0.6-3.6,0.8-5.3c6,2.1,12.1,4.5,17.9,6.6
							c5.1-3.4,8.7,0.9,14.5,1.7c1.1-1.1,1.8-3.8,3.1-3.4c0.9,0.3,1.9,0.6,2.8,0.9c4.4-1.3,7.3-0.4,10.1,1.9
							c1.9,0.6,3.9,1.2,5.7,1.7C255.2,442.5,250.7,440.6,247.7,439.7z"/>
					</g>
					<g>
						<path class="st3" d="M235,430c-1.3-0.4-2,2.3-3.1,3.4c-5.7-0.8-9.4-5.2-14.5-1.7c-5.8-2-12-4.5-17.9-6.6
							c-0.2,1.7-0.6,3.3-0.8,5.3c-1.6-1.1-3.4-2.2-5-3c-0.7-0.2-1.5-0.4-2.1-0.6c-3-4.4-7.5-7.2-10.7-7.3c-7.6,0.3-15.1,1-22.6,1.4
							c-4.9-4.4-9.6,2.9-13.6-5.3c-1.2,5.2-5-0.9-6.7,5c-2.7-0.5-1.3-7.4-4.2-5.7c-1.3-1.3-0.4,2.2-1.6,2.4
							c-5.7-2.3-11.5-4.6-17.2-6.6c-3.4,3.4-3.8,0.6-6.7,5c-0.6-0.2-1.1-0.3-1.5-0.4c-1.2-3.9-5.7-5.2-7.1-3.6
							c-0.6,3.1-3-1.2-3.8,4.4c-2.4-0.7-4.8-1.4-7.2-2.2c-2.4-0.7-4.8-1.4-7.2-2.2c-2.7-1.7-6.2-4.2-8.6,0.3
							c-3.6-2-8.3-5.1-10.8-3.3c-3.6-1.4-9.9-1.5-12.5,3.2c-0.3-0.1-0.4-0.1-0.8-0.2c-0.8-3.5-2.2-6.8-2.6-7.8
							c-1.2,0.5-2.5,1-3.7,1.8c-0.7-0.8-1.5-1.6-2.1-2.1c-2.8-1.7-0.4,6.3-5.2,2.5c-0.4-0.1-0.9-0.3-1.5-0.4c0,0.9,0,1.7-0.1,2.9
							c-0.4-0.1-0.9-0.3-1.3-0.4c-1-1.5-1.9-2.6-2.8-3.7c-1.9-2-2.1,5.5-7.2-0.7c-0.5-2.5-0.9-5-1.3-7.4c0.5-1.6,1-3.5,1.7-5
							c4.8,2,5.2-0.5,7.9-0.5c1.7,3.2,3.6,2,5,3c1.5,0.7,2.8,1.7,4.3,2.8c8.4-4.2,13.3-0.9,20.3-2.3c4.1,3.9,5.3,1,7.3-1.9
							c-5.3-5.4-4.8-0.3-7.2-1c-0.7-1.4-1.3-3-2-4.7c-6,2.9-12.5-0.9-17.2-5.2c-1.8,1.2-3.6,2.7-5.3,4c-1.7,0.4-3.5,0.7-5.2,1.4
							c-1.6-2.8-3.2-5.6-4.7-8.5c-5.2-4.5-7.7-5.2-9.9-7.4c-1.8,0.9-3.5,1.9-5.2,2.8c-2.8-1.4-5.6-2.9-8.6-4.1
							c0.1-3.2,0.2-6.7,0.3-9.9c1.2,0.4,2.4,0.7,3.6,1.1c5.5,8.4,5.8,2,8.7,2.6c0.4,1.3,0.8,2.3,1.4,3.3c1.4-0.5,2.9-0.9,4.3-1.6
							c2.9,2.9,5.7,5.5,8.5,8.4c2-7.6,4.5-5.3,5.9-5.2c1.5,5.7,4.2-0.5,6.6,0.6c0.8-1.5,3.1-1.4,4.3-3.1c1,0.3,1.9,0.6,3,0.9
							c0.2,0,0.4,0.1,0.6,0.2c0,1.5-0.1,2.9-0.1,4.3c1.6,0.8,3.4,1.9,5,3c2-2.3,3.2-1.9,5.2-1.4c0.5-2.8,1.1-5.2,1.6-8
							c0.9,0.3,1.9,0.6,2.8,0.9c0.7,1.1,1.4,2.2,2.2,3.6c1.4-1.6,3-2.9,4.5-4.2c0.4,0.4,0.9,1.1,1.3,1.6c0.8,0.2,1.5,0.5,2.3,0.7
							c0.5,3.1,1.2,6.2,1.8,9c2.2-6.7,7.4,1.3,10.3-3.9c4.2,4.5,5.3,3.9,6.4,3.4c0.6,1.1,1,2.1,1.4,3.3c-0.5,1.6-1,3.2-1.7,5.1
							c0.3,1,0.5,1.9,0.7,2.8c1.7,0.5,3.4,1,5.1,1.5c-2.4,3.1-4.2,4.3-5.1-0.1c-1.2,0.2-2.4,0.1-3.6,0.4c-7.5,3.3-16.2-4.3-21.1,3.6
							c3.2,3.3,4.8,5.3,5.7,2.9c12.1,4.8,26.9-0.1,40.3,11c1.3-1.7,2.5-3,3.8-4.7c7.1,1.3,15.4,7,20.9,3.7c-0.2,1.1,0.2,2.1,0.7,2.8
							c3.1,1.8,3.4-6,5.3-6.6c1.3,1.3,2.8,2.6,4.3,3.9c1.4,8.3,4.4-1.6,7.1,0.7c2.4,1.9,4.9,3.5,7.1,5.1c3.3,0.1,9.7,0.3,11.1-7.7
							c0.6-0.4,1.1-0.8,1.5-1c4.5,0.2,9.2,0.7,13.7,1.2c-0.1,3.2-0.2,6.7-0.3,9.8c1.1,2.7,3.4,1.9,5,3c0.8,0.2,1.4,0.4,2.1,0.6
							c0.3-1.1,0.7-1.9,0.8-2.7c2.4,0.7,4.8,1.4,7.2,2.2c1.3-1.7,0.6-5.4,2.3-6.3c1.1,0.3,1.9,0.6,3,0.9c0.8,3.2,1.8,6.1,2.6,9.3
							c0.7,2.5,2.4,1.6,3.5,2.5c1-3.8,4.2-2.3,5.9-5.2c1.5,0.4,2.8,0.9,4.3,1.3c0.7,2.5,2.4,1.6,3.6,2.2c2.3,5.4,3.8,4.4,4.2,7.1
							C234.4,428.9,234.7,429.6,235,430z"/>
					</g>
					<g>
						<path class="st2" d="M222.2,417.9c-1.8,3-4.9,1.4-5.9,5.2c-1.2-1-2.9,0-3.5-2.5c-0.8-3.2-1.8-6.1-2.6-9.3
							C214.2,413.5,218.2,415.6,222.2,417.9z"/>
					</g>
					<g>
						<path class="st2" d="M197.7,414.6c-0.2,0.8-0.5,1.6-0.8,2.7c-0.7-0.2-1.3-0.4-2.1-0.6c-1.6-1.1-3.9-0.3-5-3
							c0.1-3.2,0.2-6.7,0.3-9.8c2.7,1.4,5.2,2.5,7.9,3.9c3.1,0.9,6.3,1.9,9.3,2.8c-1.7,0.9-1,4.6-2.3,6.3
							C202.5,416.1,200.1,415.3,197.7,414.6z"/>
					</g>
					<g>
						<path class="st2" d="M175.6,375.8c-1.8,9.1-6.5,0.1-8.8,5.5c-0.7-1.4-1.4-3.1-2.1-4.7c0.1-1.7,0.1-3.8,0.2-5.5
							c1.6-1.6,3.1-2.8,4.5-4.2c2.2,2.4,4.2,4.8,6.3,7.4C175.6,374.6,175.6,375.2,175.6,375.8z"/>
					</g>
					<g>
						<path class="st2" d="M133.7,347.7c-0.6-1.3-1.3-2.4-2-3.5c0-1.4,0.1-2.6,0.1-4.1c1.3-6.3,3.8-2.1,5.8-2.6
							c-0.2,2.8,0.4,6.8-0.9,8.2C135.7,346.2,134.8,346.8,133.7,347.7z"/>
					</g>
					<g>
						<path class="st4" d="M140.8,376.4c-1.2-1.8-2.3-3.6-3.5-5.1c-1.9-2-2.8,1.2-4.4,1.3c-1.2,1.1-2.5,2.2-3.7,3.3
							c-0.2,1.7-0.6,3.3-0.8,5.3c-1.5-1-3-2.1-4.3-2.8c-0.5-2.5-0.9-5-1.3-7.4c-6.2-5.7-7.4,0.1-10.2,1c-0.4-0.1-0.9-0.3-1.5-0.5
							c-2.1-0.9-4.2-2.1-6.4-3.1c-0.9,0-2,0.3-2.9,0.3c-1.5,0.1-2.9,0.3-4.4,0.1c-0.4-0.1-0.9-0.3-1.3-0.4c-1.5-0.4-3-0.9-4.3-1.3
							c-0.6-0.2-1-0.3-1.5-0.5c-1.7,0.1-3.3-0.1-5,0c-0.6-0.2-1.1-0.3-1.5-0.5c-2.7,0.1-5.3,0.2-8,0.5c-0.5,0.2-0.9,0.6-1.4,0.8
							c-0.8-0.2-1.5-0.5-2.3-0.7c-0.4-0.4-0.9-1.1-1.3-1.6c-3.1-3-6.9-5.9-6.7,0.6c-0.9-0.3-1.9-0.6-2.8-0.9
							c-1.3-0.7-2.8-1.7-4.3-2.8c-2.2,4-5.2,3.4-7.4,4.8c-0.2,0-0.4-0.1-0.6-0.2c-1.1-0.3-1.9-0.6-3-0.9c-1.2-1.5-2.3-3.3-3.5-5.1
							c-1.4-0.4-2.8-0.9-4.2-1.3c-1,4.1-4.8,4.7-4.3-1.3c-2.5,3-4.4,1-5.9-0.3c-0.9,0-2,0.3-2.9,0.6c-1.1,4.9-3.4,2.2-4.5,4.2
							c-1.9-0.6-3.7-1.1-5.7-1.7c-0.9-1.4-1.9-2.6-2.8-3.8c-0.9,4.8-4.2,3.8-4.3,1.8c-0.7-2.5-1.1-5,0.1-2.9
							c-3.1-0.9-5.2-2.2-5.2,1.4c-2.1,0.2-4.2,0.5-6.5,0.7c-1.3-0.7-2.8-1.7-4.3-2.5c0,1.2-0.1,2.6-0.1,4c-1.3-0.4-2.8-0.8-4.2-1.3
							c-2.2-1.3-4.3-2.2-6.5-3.4c0,1.4-0.1,2.9-0.1,4.3c-2.6-0.8-5.2-1.6-7.8-2.3c-1.4,4.9-3.7,2.4-5.2,2.5c-1.1-3.3-1.6-7.8-5-3
							c-1.4,0.2-2.9,0-4.2,0.2c-3-0.9-5.8-1.8-8.7-2.6c-1,3.8-4.2,2.2-5.9,5.2c-1.9-1.5-3.8-2.9-5.8-4.7c-6.5-0.8-9.9,2.6-16,3.7
							c-2.9-2.7-4.8-1.7-4.3-3.9c1.8-5.3,4.5-3.6,5.2-6.9c1.7-0.1,3.5-0.1,5.1,0.1c0.8-5.6,6.4,2.5,6-6.7c1.5,1.3,2.9,2.6,4.3,4.2
							c5.9-1.4,14.1-0.4,20.5-3.7c1.6,1.1,3.3,1.9,4.9,2.9c0.9-0.3,2.4,1.9,2.9-0.6c2.2-1.1,7.3-1,9.3,5.8c0.4,0.1,0.9,0.3,1.3,0.4
							c2.8-3.8,4.4-1.9,5.3-4c-0.6-4.6,2.4-2.8,3.7-3.3c2.4-0.7,1.7,2.8,4.2,6.8c2.1-5.8,5.9-3.5,6.7-7.6c7.9,7.7,15,0.4,23.2,4.1
							c0.6,1.6,1.3,3.3,1.9,6.1c1.2-0.8,2.5-1.9,3.7-3c0.9-1.2,2-2.3,3-3.2c6.4,11.3,7.9-10.5,13.1,2.5c0.9-0.3,2.2,1.8,2.9-0.6
							c-0.7-5.2,1.3-3.7,3-3.2c-0.1,2-0.5,5.7,1.3,6c2.8,2.9,4.4-4.2,5.9-5.2c2.1,0.6,4.3,1.3,6.4,1.9c5.8,2.1,11.5,4.4,17.2,6.6
							c0.9,0,1.8,0.8,2.3-0.8c-0.7-5.2,1.3-4,3-3.5c-0.5,1.5,0.1,2.2,0.5,3.2c2.6-0.4,3.4-2.8,6.5-0.9c-0.1,3.8,1.7,2.9,1.9,6.4
							c8.3-4.5,17.6,1.8,26.9-0.3c-5.9-8.8-14.5-11.4-19.4-8.8c-2.5,1-1.4-3.1-3.5-3.7c-5.3,4-12.4-3.2-18.1-1.4
							c-5.2,0.5-13.5-2.6-17.4,0.3c-1.3-1.3-2.8-2.6-4.3-3.9c-0.4-3-0.7-6.1-1.1-8.8c2-0.6,3.8-0.9,5.8-1.2c0.8-5,4.4-0.4,6.5-0.7
							c2.4,0.7,4.8,1.4,7.2,2.2c1.3-1.7,2.3-4.6,3.8-4.7c2.4,1.9,4.7,3.5,7.1,5.1c7.4-1.3,15.6,3,23.2,2.9c5.7,1.7,8.7,1.2,11.6,0.6
							c3.3,1.3,6.6,2.9,10,4.5c0,1.4-0.1,2.6-0.1,4.1c-1.2,1.1-2.5,2.2-3.7,3.3c-1,6.4,3.2,4.2,5,5.6c0.1,0,0.4,0.1,0.6,0.2
							c4.2,4.2,5.8,4.7,7.1,5.1c1.5,0.7,3,1.8,4.3,2.5c0.2,2.4,0.3,4.8,0.5,7.2c-0.1,2.9-0.2,5.8-0.3,8.4
							C143.7,376.4,142.3,376.3,140.8,376.4z"/>
					</g>
					<g>
						<path class="st2" d="M79.9,327c-1.5,0.1-2.5,3-3.8,4.7c-2.4-0.7-4.8-1.4-7.2-2.2c0.7-3.3,1.3-6.3,1.8-9.4
							c2.7,0.2,5.3,0.7,8,0.9C79.2,323,79.6,325.2,79.9,327z"/>
					</g>
					<g>
						<path class="st5" d="M-23.9,445.9c-5.2,1.6-7.4,9.2-11.8,3.5c-1.4-0.1-2.9,0-4.4,0.1c-3.4,3.9-9.6-1.2-14.4-2.9
							c-1.5,13.6-8.9,3.2-11.8,9c-3.8-0.8-6-6.5-10-7.4c-3.1,6.4-8.3,3.1-8.3,13c-1.8-0.5-3.4-1-5-3c-2,5-5.2,2.2-8.1,1.9
							c-1.3,1.4-2.5,3-3.8,4.4c-6.5-4.9-9.1,2.2-15.3-0.5c-2,2.6-6.2-0.4-6,8.1c-4.5-1.6-6.8-0.3-10.2,3.9c2.5,7.5,7.4,5.7,7.5,14.8
							c-3,10.5-10.3-8.1-11,5.1c-1.5-1-4.1-0.1-4.3-2.8c-4-3-5.3-13-9.6-16.9c-1.5-1.6-4.1-3.6-3.4-8c0.7-2.4,1.5-5.1,2.4-7.8
							c1.2,0.1,2.4-0.2,3.6-0.1c1.2,1.5,2.3,3.3,3.5,5.1c1.3-2,3.6-2.7,3.8-5.9c2.8,2.3,3.5,2.5,5.8-2.3c1.3-2.5,2.6-5.1,3.9-7.3
							c3.5-0.1,6.8,0,10.3,0.2c3.3,0.1,6.6,0.3,10.1,0.4c1.8-3.6,5.7-1.8,8.2-4.6c0.6,0.5,1.3,1.3,2.1,1.8c1.5-0.4,2.9-0.9,4.4-1.3
							c2.1,0.6,4.3,1.3,6.4,1.9c2.1-5.2,7.2,2.5,8.9-2.9c1.2-0.2,2.3-0.5,3.6-0.4c0.6-1.3,1.4-2.5,2.2-3.7c3.9,4.1,7.1,1.3,10.8,2.1
							c2.2-1.4,4.5-2.5,6.6-3.9c0.4,0.1,0.9,0.3,1.5,0.5c1.2-0.8,2.5-1.9,3.7-3c1.1,5,2.6,7.2,4.8,7c1.1-1.1,2-2,3.1-3.2
							c1.2,0.4,2.2,0.7,3.6,1.1c1.2-0.2,2.3-0.5,3.6-0.4c0.4,1,0.8,2,1.3,3.3c0.8-0.9,1.6-1.6,2.3-2.2c1.2-0.2,2.3-0.2,3.6-0.4
							c1.3,0.4,2.9,0.9,4.2,1.3C-24.7,444.8-24.3,445.2-23.9,445.9z"/>
					</g>
					<g>
						<path class="st4" d="M-83.8,366.2c0,0.3,0,0.9,0,1.4c-0.9,0-2,0.3-2.9,0.3c-1.7-0.5-3.4-1-5.1-1.5c-1.2-0.4-2.4-0.7-3.6-1.1
							c-0.5,5.7-4.2-0.4-6.6,2.4c0,1.4-0.1,2.6-0.1,4.1c-0.2,0.8-0.5,1.6-0.8,2.7c0-0.6,0-1.2,0-1.5c-1.6-1.9-3.2-3.9-4.8-5.5
							c-1.2-0.4-2.4-0.7-3.6-1.1c-1.5,0.7-1.2,4.9-2.4,4.8c-0.6-0.2-1.3-0.4-2.1-0.6c-0.1,2.6-0.2,5.5-0.3,8.4
							c-1.3,1.9-1.8,4.4-3,3.2c-5.7-1.7-1.8,4.1-2.5,7.7c0.3,1.5,0.5,2.8,0.6,4.3c6,0.1,10.4-3,13.9-4.3c0.7,0.8,1.5,1.6,2.2,2.1
							c1.4,0.1,2.9,0,4.4-0.1c0.5-1,1-2.3,1.5-3.6c2.2,0.7,4.3,1.3,6.4,2c2.3,2.2,4.7,4.3,7.1,6.2c-0.7,1.8-1.5,3.4-2.3,5.2
							c-1.3-1.3-2.1,0.5-3.7,1.5c-5.4,2.7-10.5-3.8-13.1,3.1c-6.1-7.7-11.4,8-17.4-5.2c-1.8,3.3-3.5,6.5-5.3,9.8
							c0.7,2,1.2,3.9,1.9,6.1c-0.1,2.6-0.2,5.5-0.3,9.6c2.7,2,5.2,3.6,7.8,5.3c-2.6,5.4-4.6,3-5.9,5.2c-0.6-0.2-1.1-0.3-1.5-0.5
							c-1.7,1.8-3.6,3.6-5.3,5.4c-0.1,0-0.4-0.1-0.6-0.2c-2.2-1.6-4.3-3.1-6.5-4.9c-0.1-0.1-0.4-0.1-0.6-0.2c-1.4,6.3-3.8,4.1-6,4
							c-2-0.3-3.8-0.3-5.7-0.6c-0.3,0.5-0.6,1-0.8,1.2c0.4,2.4,0.7,4.9,1.3,7.4c0.5,3.1,3.1,0.9,2.7,5.2c0,1.2-0.1,2.6-0.1,4.1
							c-0.3,0.8-0.7,1.6-0.8,2.7c-1.2-0.1-2.4,0.2-3.6,0.1c-2.1-2.1-1.1-5-1.3-7.4c-0.7-2.5-2.4-1.6-3.6-2.2
							c-5.1-9.4-5.7-2.9-10-4.5c-1.5-3.7-3.1-7.6-4.6-11.3c1-2,1.9-4.1,3.1-6.1c0.1-2.6,0.2-5.5,0.3-8.4c1.2,0.4,2.4,0.7,3.6,1.1
							c0.5-3.1,1.1-6.1,1.6-9.2c1.6,0.8,3.4,1.9,5,3c0.5-0.4,0.9-0.9,1.5-1c0.4,0.4,0.9,1.1,1.3,1.9c3.2,2.4,4-1.7,5.4-8.3
							c1.2-4,3.5-0.1,5.1-4c0.1-2,0.1-3.8,0.2-5.5c0-3.5-0.2-6.8-0.3-10c-1-0.3-1.9-0.6-3-0.9c-0.5-1.9-1.2-4.2-1.9-6.1
							c-1-2.3-3.2-3-5.1-1.5c-0.1,0-0.4-0.1-0.6-0.2c-0.6-4.6-1.2-8.9-1.9-13.1c-1.5-0.5,0.3-4.6-1.1-7.4c-1.7-0.9-3.3-1.4-5-1.9
							c0.8-1.8,1.6-3.3,2.3-5.1c0.6-1.6,1.2-3.4,1.7-5.1c-1.5-2.2-2.8-4.6-4.2-6.8c1.7-5,4.2-3.7,5.4-6.9c2.1,1.2,4.3,2.2,6.4,3.4
							c-0.1,3.2-0.2,6.4-0.3,9.8c1.2,0.4,2.4,0.7,3.6,1.1c2.5-7.4,6.1-5.2,9.5-4.2c-0.5,2.2-1,4.1-1.6,6.5c5.5,2.8,6.2-1.3,10,3
							c4.6-1.2,2.9-5.3,5.4-6.9c-7-7.4-8.7,3.2-12.3-3.7c0.3-3.7,0.7-7.4,1.1-11.1c0.8-0.7,1.4-1.3,2.2-2c4-1.7,7.8-3.2,11.8-4.9
							c4.2-3.1,9.7,0.3,14.6-2.6c1.2-0.5,2.5-1,3.7-1.8c5,4.1,6.8,1.2,8.8,0c0.4,0.1,0.9,0.3,1.3,0.4c-0.1,2.6-0.2,5.5-0.3,8.4
							c-4.3,2.5-5.7,7.9-8.2,7.2c-0.9-0.3-1.9-0.6-2.8-0.9c-0.8,0.6-1.4,1.3-2.2,2.3c-1.2-0.9-2.4-1.9-3.6-2.5
							c-2.8-2-2.7,5.3-4.6,5.6c-2.1-1.2-4.3-2.2-6.4-3.4c-2.5-1.1-0.9,5-2.5,7.7c1.2,0.4,2.4,0.7,3.6,1.1c2.5,3.4,3.3-2.8,5.2-2.2
							c1.2,1.5,2.3,3.3,3.5,5.1c3.3,4.2,2-5.2,4.5-4.2c5.8,7.3,5.2-0.5,8,0.9c3.4,5.7,3.9,0.6,5.6,3.2c0.1,0.9,0.4,1.9,0.7,2.8
							c1.2,1.5,2.3,2.8,3.5,4c2,0.6,3.7,1.1,5.7,1.7C-83.6,361.5-83.7,363.8-83.8,366.2z"/>
					</g>
					<g>
						<path class="st2" d="M-143.8,404.2c-1.6,3.9-3.9,0-5.1,4c-1.9-2-3.8-4.1-5.7-5.8c0.7-2.4,1.2-4.3,1.7-6.5
							c0.8-1.5,3.1-1.1,2.3-5.2c1.2-0.8,2.5-1.9,3.7-3c1,0.3,1.9,0.6,3,0.9c0.1,3.2,0.3,6.5,0.3,10
							C-143.7,400.4-143.7,402.1-143.8,404.2z"/>
					</g>
					<g>
						<path class="st6" d="M-154.3,416.5c-0.4-0.7-0.9-1.4-1.3-1.9c-0.6,0.1-1.1,0.6-1.5,1c-1.6-1.1-3.4-2.2-5-3
							c-0.6,3.1-1.1,6.1-1.6,9.2c-1.2-0.4-2.4-0.7-3.6-1.1c-0.1,2.9-0.2,5.8-0.3,8.4c-1.1,2-2.1,4-3.1,6.1
							c-2.9-5.2-4.5-9.8-4.6-16.9c-3.2-4.2-3.3-4.2-4.2-6.8c0.1-2.3,0.1-4.6,0.3-8.4c-0.1-2.4-0.3-4.8-0.5-7.2
							c-0.5-2.5-1.2-5-1.9-7.6c1-1.5,2.1-3.2,3-4.6c-0.8-2.9-1.8-6.1-2.6-9.3c0.5-1.6,1-3.5,1.7-5.1c1.9-2.1,3.9-4.4,5.9-6.7
							c2-1.7,3.9-3.5,5.9-5.2c-0.1-0.9-0.4-1.9-0.5-2.8c0.5-2.8,1.1-5.2,1.6-8c1.3-2,2.5-3.9,3.8-5.9c1.4,2.2,2.7,4.6,4.2,6.8
							c-0.5,1.6-1,3.5-1.7,5.1c-0.7,1.9-1.5,3.4-2.3,5.2c1.6,0.5,3.3,1,5.1,1.5c1.4,2.8-0.4,6.9,1.1,7.4c0.6,4.3,1.2,8.6,1.9,13.1
							c-2.3,2-4.5,4.3-6.9,6.5c-1.3-1.6-2.8-2.9-4.1-4.2c-0.9,3-1.7,5.9-2.6,9.2c0.7,3.4,1.3,6.8,1.9,10.2c1.2-1.1,2.3-1.9,3.7-3
							c2.5,1.1,5.2,2.5,7.7,3.8c1.9,1.7,3.8,3.8,5.7,5.8C-150.3,414.8-151,418.9-154.3,416.5z"/>
					</g>
					<g>
						<path class="st2" d="M-162.2,393c-1.9-0.6-3.9-1.2-5.8-1.8c-0.1-0.6-0.4-1.3-0.7-1.7c1.1-2.6,2.1-4.9,3.3-7.5
							c1.3,1.3,2.8,2.6,4.1,4.2C-161.6,388.5-161.9,390.5-162.2,393z"/>
					</g>
					<g>
						<path class="st5" d="M247.3,452.1c-1.7,2.7-3.8,0.3-8,0.2c0.4-3.7,0.8-7.1,1.1-10.8c1.6,0.5,3.4,1,5.1,1.5
							c0.4,1,0.8,2,1.3,3.3C247.4,449.2,247.3,450.7,247.3,452.1z"/>
					</g>
					<g>
						<path class="st5" d="M230.1,421.5c1.2-3.4,2.9-1.4,4.4-1.3c-0.1,2.6-0.2,5.5-0.3,8.4C233.9,425.8,232.4,426.8,230.1,421.5z"/>
					</g>
					<g>
						<path class="st5" d="M230,472c-3.2-0.1-6.2,4.9-8,0.5c2.2-1.7,4.5-3.3,6.7-5C229.1,469.1,229.5,470.4,230,472z"/>
					</g>
					<g>
						<path class="st5" d="M218.3,475.5c-1.2,0.5-2.5,1-3.7,1.8c-0.9-1.4-1.9-2.6-2.8-3.8c-5.3-1-10.7-2.3-15.9-3.4
							c-4.7,3.9-12-1.9-18.1-2.5c-4.4,4.2-12-3-17.4-1.1c-17.9,0.5-38.1-6.2-56.4-5.9c-0.1,2.6-2,0.6-3.5-3.7
							c0.1-6.7,4.1-0.8,3.9-7.3c11.8,13.2,19.7-6.3,31.7,6.7c0.1-1.5,0-3.2,0.9-3.8c0.7,0.2,1.7,0.2,2.1,2.1
							c-0.2,2.3,1.9,1.5,2.8,2.3c0.4-1.9-0.5-4.8,0.9-5.6c3.9,5.8,12,6.8,16.4,6.4c7.9-1.1,16.9,0.1,24.5,3.3
							c1.2-3.7,6.4-2.1,7.2,2.2c2.1-8.7,3.2,7.4,5.2-1.4c2.6,0.5,5.2,2.2,6.3,4.8c1.4-6,4.8,1.7,9.4,4.3c1-3.2,4.3,2.5,4.3-3.1
							c1.3,1.3,2.3,2.5,3.5,4C219.3,473.2,218.8,474.2,218.3,475.5z"/>
					</g>
					<g>
						<path class="st5" d="M198.1,449.8c1.8-3.6,2.7-3.3,3.7-3C204.9,454.8,198.8,452.1,198.1,449.8z"/>
					</g>
					<g>
						<path class="st5" d="M193.8,447c-6.1,8.1-10.4,0.4-16-0.4C183.4,444.5,188.2,443,193.8,447z"/>
					</g>
					<g>
						<path class="st5" d="M182.2,376.3c-1.5,5.1-6,3.7-6.6-0.5c0-0.6,0-1.2,0-1.5c-2-2.7-4.1-5-6.3-7.4c0.8-1.8,1.6-3.3,2.4-5.1
							c3.3-0.4,2.9,4.7,4.7,9.9c0.6-0.1,1.1-0.6,1.5-1c1.2,0.4,2.4,0.7,3.6,1.1c0.1,0.6,0.4,1.3,0.7,1.7
							C182.3,374.3,182.3,375.2,182.2,376.3z"/>
					</g>
					<g>
						<path class="st5" d="M174.7,403.6c-1.6-2-3.2-3.9-4.8-5.8c1.7-2.4,6-2.9,6.3,4.8C175.8,402.8,175.4,403.2,174.7,403.6z"/>
					</g>
					<g>
						<path class="st5" d="M165.5,400.8c-3.3-2.1-5.7,0-8.8,0c-4.8-1.7-8.3-4.3-11.3-4.9c-1.2-0.4-2.4-0.7-3.6-1.1
							c-0.5-3.4-2.9-2.4-2.7-6.4c0.6-3.9,1.2-8.1,1.7-12c1.5-0.1,2.9,0,4.4-0.1c2.4,0.7,4.8,1.5,7.2,2.2c1.2-1.1,2-5.2,3.7-3
							c2.9,0.3,5.7,0.6,8.6,1.1c0.7,1.7,1.4,3.3,2.1,4.7c-3.4,3.6-6.5,3.9-8.3,8.9c1.7,4.9,2.8-1.8,4.4-0.1c1,2.3,3.8,3.5,5.5,7.2
							C167.5,398.5,166.4,399.6,165.5,400.8z"/>
					</g>
					<g>
						<path class="st5" d="M160.4,445.5c0.1-4.3,1.4-6.3,3.8-4.4C164.9,447.1,162.7,449.7,160.4,445.5z"/>
					</g>
					<g>
						<path class="st5" d="M148.6,359.2c-1.2,0.5-2.4,1-3.7,1.5c-1.3-0.7-2.8-1.7-4.3-2.5c-1.3-0.4-2.8-0.9-7.1-5.1
							c0-1.8,0.1-3.8,0.2-5.5c1.1-0.8,2-1.4,3.1-2c1.2,0.9,2.2,1.5,3.5,2.5c1.2-0.5,2.3-1.1,3.7-1.8c0.5,8.3,2,7.3,3.4,8
							c0.4,0.7,0.9,1.4,1.3,1.9C148.7,357.1,148.7,358,148.6,359.2z"/>
					</g>
					<g>
						<path class="st5" d="M110.2,335c-7.6,0.1-15.7-4.2-23.2-2.9c-2.4-1.6-4.7-3.2-7.1-5.1c-0.4-1.9-0.8-4-1.2-5.9
							c5.3-5.7,12.9,3,18.2-1.5c4.1,4.5,9.7,3.8,13.4,11.1c2.1-0.2,4.4-0.4,6.5-0.7c0.7-1.6,5-2,5,5.6
							C119,336.2,115.9,336.7,110.2,335z"/>
					</g>
					<g>
						<path class="st5" d="M73.1,454.2c-2.1,3.2-4.4,4-4.4,1.6C69,452.7,70.8,451.1,73.1,454.2z"/>
					</g>
					<g>
						<path class="st5" d="M69,329.6c-2.1,0.2-5.8-4.4-6.5,0.7c-2,0.3-3.8,0.6-5.8,1.2c-1.6-0.5-3.4-1-5.1-1.5c0-0.6,0-1.2,0-1.4
							c-1.1-2.7-2.3-5.4-3.4-8c-2-0.6-3.4,1.9-5.1,2.6c-0.6-0.2-1-0.3-1.5-0.4c-2-0.6-3.9-1.2-5.7-1.7c-1,2-2.2,1.7-3.7,3.3
							c-0.6-0.2-1-0.3-1.5-0.5c-1,1.5-2.1,3.2-3,4.6c-2.4-0.7-4.8-1.4-7.2-2.2c-3.9-1.8-9.4-8.1-14.3-5.8
							c-5.1-0.7-10.1-1.3-15.2-1.7c-3.1,1.4-6.5,1.2-10.1-0.4c-3.1-7.1-5.9-0.3-9.5,0c-0.2,0.8-0.5,1.6-0.7,2.7
							c-0.3-0.1-0.6-0.2-0.7-0.2c-1-0.9-1.9-1.8-2.8-2.3c-2,0.3-3.9,0.6-5.9,0.8c-3.2,0.2-6.4,0.1-9.4,0.1c-0.3-1-0.5-1.9-0.7-3.1
							c0.9-2.9,1.7-5.9,2.4-8.9c4.2,1.6,9.4-10,12.2,5.2c1.3-11,4.6-5.6,5.9-4.1c1.7-1.2,3.6-2.7,5.3-4c3.5-1,1.7,3.7,4.1,8.3
							c1-3.5,2.2-6.7,3.2-10.1c6.1,3.3,12.1,0.4,17.3,3.7c0-4.1,3.1-3.7,5.2-2.5c4.8,1.5,9.6,2.9,14.4,4.3c0.4,1.3,0.9,1.4,1.3,0.4
							c-0.7-6.9,4.6-3.3,5.4-8.3c1.8,0.5,2.3,5.4,3.3,9.5c1.7-1.5,3.4-2.8,5.3-4c1.3,3.3,4.2,1,5.6,4.3c5.1-2.5,4.5,6.9,7.2,2.2
							c0-0.9,0.1-1.7,0.1-2.6c3.6,6.6,9.3-3,11.4,7.5c0.9-0.3,2.4,1.9,2.9-0.6c1.8,0.3,5-3.8,7.1,3.6
							C70.2,323.2,69.7,326.3,69,329.6z"/>
					</g>
					<g>
						<path class="st6" d="M67.8,392.3c-2.1,2.9-3.2,5.8-7.3,1.9c-7,1.4-11.9-1.8-20.3,2.3c-1.5-1-2.8-2-4.3-2.8
							c-1.5-0.5-2.8-0.9-4.3-1.3c-0.1-0.6-0.4-1-0.7-1.7c-2.7,0.1-3.1,2.6-7.9,0.5c-0.7,1.6-1.2,3.4-1.7,5c0.4,2.5,0.8,4.9,1.3,7.4
							c-0.6,0.1-1.1,0.6-1.5,1c-0.9-1.4-1.9-2.6-2.8-3.8c-0.6-0.2-1-0.3-1.5-0.4c-0.4-1-0.8-2-1.3-3c-0.6-0.2-1.1-0.3-1.5-0.5
							c-0.5,2.2-1,4.1-1.7,6.5c-0.9-0.3-1.9-0.6-2.8-0.9c-0.4-1.6-0.8-3.2-1.2-4.7c-2.4,3.1-4.6,3.6-4.6,7.1c-6.3-1-12.5-2-18.8-2.8
							c-2.1-1.2-4.3-2.5-6.4-3.4c-2.1-0.9-1.3,4-3,4.6c-1.8,0-3.6-0.2-6.1,6.6c-1.9-1.7-3.7-3.2-5.6-4.6c-2.1-14.7-5.4,3.1-10-4.5
							c-1.2,4.3-3.4,1.3-5.1-0.1c-2.8-0.9-5.7-1.7-8.7-2.6c-1.2-0.4-2.4-0.7-3.6-1.1c-3.9,4.4-8.3-1.6-8.8,5.8
							c-3.3-1.6-6.4-2.8-9.3-6.9c-0.5,0.1-0.9,0.6-1.4,0.8c0.3,3.3,0.7,6.9,1,10.3c2.1,4.2,0,5-0.3,8.4c0.3,1.5,0.5,2.8,0.6,4.3
							c0.4,0.7,0.9,1.1,1.5,1.9c2.4,1,4.8,2.3,7.1,3.6c3.2,3,3-3.8,5.8-2.6c1.5,1.6,4.2,1.3,4.2,5.7c-4,1.4-7.8,3.2-11.8,4.9
							c-1.9-0.6-3.7-1.1-5.7-1.7c-2.3,0.5-4.4,1.3-6.6,2.1c-1.2-0.4-0.9,6.1-3.1,3.2c-1.2-0.7-2.4-1.6-3.6-2.2c-0.5,1-1,2.3-1.5,3.6
							c-1.2-1.2-2.3-2.5-3.5-4c-0.7-0.2-1.5-0.5-2.2-0.7c-0.2,1.1-0.5,1.9-0.7,2.7c0,0.9-0.1,1.7-0.1,2.9c-3-2.4-5.8-4.6-8.6-7
							c-2.4-0.1-4.8-0.6-7.2-0.7c-2.7-1.7-5.2-3.3-7.8-5.3c-0.1-0.3-0.4-1-0.7-1.4c1.3-8.1-0.9-10.8-0.9-14.3
							c1.8-3.3,3.5-6.5,5.3-9.8c5.9,13.2,11.3-2.4,17.4,5.2c2.6-6.8,7.7-0.3,13.1-3.1c1.5-1,2.4-2.8,3.7-1.5
							c0.8-1.8,1.6-3.3,2.3-5.2c-2.4-1.9-4.7-4-7.1-6.2c-2.1-0.6-4.2-1.3-6.4-2c-0.5,1.3-1,2.6-1.5,3.6c-1.5,0.1-3,0.3-4.4,0.1
							c-0.7-0.5-1.5-1.3-2.2-2.1c-3.5,1.3-7.8,4.3-13.9,4.3c-0.1-1.5-0.4-2.7-0.6-4.3c0.7-3.6-3.2-9.4,2.5-7.7
							c1.2,1.2,1.7-1.3,3-3.2c0.1-2.9,0.2-5.8,0.3-8.4c0.7,0.2,1.5,0.4,2.1,0.6c1.2,0.1,0.9-4.1,2.4-4.8c1.2,0.4,2.4,0.7,3.6,1.1
							c1.9,1.5,3.7,2.9,5.6,4.3c0-1.4,0.1-2.6,0.1-4.1c2.4-2.8,6.1,3.3,6.6-2.4c1.2,0.4,2.4,0.7,3.6,1.1c-0.1,2-0.1,3.8-0.2,5.8
							c3,0.3,4-2.6,5.3-4.3c0.9,0,2-0.3,2.9-0.3c0-0.6,0-1.2,0-1.4c0.1-2.3,0.1-4.6,0.3-8.4c0-1.5,0.1-2.9,0.1-4.1
							c0.4,0.1,0.9,0.3,1.5,0.5c-0.5,2.2,1.3,1.3,4.3,3.9c6.1-1.1,9.5-4.4,16-3.7c1.9,1.7,3.8,3.2,5.8,4.7c1.8-3,4.9-1.5,5.9-5.2
							c2.8,0.9,5.7,1.7,8.7,2.6c1.4-0.2,2.9,0,4.2-0.2c1.3-4,5.4-4.5,5.1,0.1c0,1.2-0.1,2-0.1,2.9c1.5-0.1,3.9,2.3,5.2-2.5
							c2.5,0.8,5.2,1.6,7.8,2.3c0-1.4,0.1-2.9,0.1-4.3c2.2,1.3,4.3,2.2,6.5,3.4c1.3,0.4,2.8,0.9,4.2,1.3c0-1.4,0.1-2.9,0.1-4
							c1.5,0.8,3,1.8,4.3,2.5c2.3-0.2,4.4-0.4,6.5-0.7c0-3.5,2-2.3,5.2-1.4c-1.1-2.1-0.8,0.4-0.1,2.9c0.1,2.1,3.4,3.1,4.4-1.6
							c0.9,1.2,1.9,2.3,2.8,3.8c1.9,0.6,3.7,1.1,5.7,1.7c1.1-2,3.5,0.8,4.5-4.2c0.9-0.3,2-0.6,2.9-0.6c1.5,1.3,3.4,3.4,5.9,0.3
							c-0.5,6,3.3,5.4,4.3,1.3c1.4,0.4,2.8,0.9,4.2,1.3c1.1,1.8,2.3,3.6,3.5,5.1c-1.3,1.7-3.5,1.6-4.3,3.1c-2.4-1-5.2,5.2-6.6-0.6
							c-1.4-0.1-3.9-2.3-5.9,5.2c-2.8-2.9-5.6-5.5-8.5-8.4c-1.4,0.8-2.9,1.2-4.3,1.6c-0.6-1-1-2.1-1.4-3.3c-1.2,1.1-2.5,2.2-3.7,3.3
							c-1.6-1.6-5,0.8-5-5.9c-1.2-0.4-2.4-0.7-3.6-1.1c-0.1,3.2-0.2,6.7-0.3,9.9c3,1.2,5.8,2.6,8.6,4.1c1.7-0.9,3.4-1.9,5.2-2.8
							c2.2,2.1,4.7,2.9,9.9,7.4c1.6,2.8,3.1,5.6,4.7,8.5c1.7-0.7,3.5-1,5.2-1.4c1.7-1.2,3.4-2.8,5.3-4c4.7,4.3,11.2,8.1,17.2,5.2
							c0.7,1.7,1.3,3.3,2,4.7C62.9,392.1,62.5,386.9,67.8,392.3z"/>
					</g>
					<g>
						<path class="st5" d="M57.8,453.6c-2.2,2.8-6.4,1.6-7.8-0.9C53.1,449.6,54.9,450.1,57.8,453.6z"/>
					</g>
					<g>
						<path class="st5" d="M42.8,450.6c-2.5,3-5.4,3.6-5.9,1.1C36.1,447.4,38.5,447.5,42.8,450.6z"/>
					</g>
					<g>
						<path class="st5" d="M35.5,451.3c-2.5,6.9-4.2,2.6-6.6-0.5C31.2,450.9,33.3,450.9,35.5,451.3z"/>
					</g>
					<g>
						<path class="st5" d="M26.8,451.3c-3.6,2.7-7.2,3.4-8.8,0.3c0.8-1.2,1.7-5.6,3.7-3C23.4,449.4,25.1,450.5,26.8,451.3z"/>
					</g>
					<g>
						<path class="st5" d="M10.8,449.4c-2.2,2.5-5.9,4.6-5-0.1C7,450.3,7.6,446.4,10.8,449.4z"/>
					</g>
					<g>
						<path class="st5" d="M-13,446.3c-4,3.5-8.6,5.6-8.8,0.3c1.7-2.1,3.7-2.1,6-3.7c0.7,0.2,1.3,0.4,2.1,0.6
							C-13.4,444.4-13.3,445.3-13,446.3z"/>
					</g>
					<g>
						<path class="st5" d="M-57.7,319.4c-3.7,3.5-2.4-6-4.9-1.5c-4.2-0.4-9.3,1.6-13.8,2.8c-1.3-0.4-2.4-0.7-3.6-1.1
							c-1.5-1.9-2.9-3.8-4.2-5.7c-2.6-0.5-4.8,4.7-6.2,8.1c-0.9-0.3-1.9-0.6-2.8-0.9c-0.4-0.1-0.9-0.3-1.3-0.4c-2,1.1-3.8,4.1-8.8,0
							c-1.2,0.8-2.5,1.3-3.7,1.8c-4.9,2.9-10.4-0.5-14.6,2.6c-4,1.7-7.8,3.2-11.8,4.9c-1.2-4.2-2.6-8.4-4-12.6
							c3.5-2.4,6.8-5.8,10.5-6.5c5.6-0.6,9.2-3.9,15.2-2.4c0.4-7.2,6,5.9,6-3.8c1.6,1.1,4,3.8,5.7,1.7c-1.2-6.2,3.1-6.1,4.5-3
							c-0.3,1.4,0.2,2.1,0.7,3.1c0.8,0,1.6,0.8,2.1-0.8c-0.9-5.2,1.9-3.8,2.5-6.3c1.8,1.4,3.2-0.5,3.7-3c4.3-2.2,10.5,10.8,11.5-0.9
							c3-0.5,8.3,6,8.8-1.4c-1.4-6.9,3.3-2.8,1.8-9.4c10.5-2.1,7.8,15.2,12.9,27.9C-53.6,314.8-55.6,317.1-57.7,319.4z"/>
					</g>
					<g>
						<path class="st5" d="M-150.6,390.7c0.8,4-1.5,3.6-2.3,5.2c-0.5,2.2-1,4.1-1.7,6.5c-2.5-1.3-5.2-2.7-7.7-3.8
							c0.1-2,0.1-3.8,0.2-5.5c0.2-2.6,0.6-4.5,0.8-6.8c2.3-2.2,4.5-4.5,6.8-6.4c0.1,0,0.4,0.1,0.6,0.2c1.9-1.5,4.1-0.8,5.1,1.5
							c0.7,2,1.4,4.2,1.9,6.1C-148.1,388.8-149.4,389.9-150.6,390.7z"/>
					</g>
					<g>
						<path class="st5" d="M-157.4,334c-1.2,3.1-3.7,1.8-5.4,6.8c-1.3,2-2.5,3.9-3.8,5.9c-0.9-1.7-1.9-3.5-2.7-4.9
							c0.1-2.6,0.1-4.6,0.2-6.9c4.1,0.4,7.3-9.5,11-3.7C-158,332-157.7,333-157.4,334z"/>
					</g>
					<g>
						<path class="st3" d="M164.7,376.6c-2.9-0.6-5.7-0.8-8.6-1.1c0.1-4.3,0.3-8.4,0.4-12.4c0.4,0.1,0.9,0.3,1.3,0.4
							c2.3,2.5,4.8,5,7,7.7C164.8,372.8,164.8,374.9,164.7,376.6z"/>
					</g>
					<g>
						<path class="st6" d="M174.7,403.6c-1.5,8-7.8,7.9-11.1,7.7c-2.2-1.5-4.7-3.2-7.1-5.1c-1.7,0.9-3.4,1.9-5.1,2.9
							c-2.1-0.9-4.4-4-6.3-7.5c-2,0.6-2.2,8.4-5.3,6.6c-0.4-0.7-0.9-1.7-0.7-2.8c-5.5,3.3-13.8-2.4-20.9-3.7c-1.3,1.7-2.5,3-3.8,4.7
							c-13.4-11.1-28.2-6.2-40.3-11c-0.8,2.4-2.4,0.4-5.7-2.9c4.9-7.9,13.6-0.3,21.1-3.6c1.2-0.5,2.4-1,3.7-1.8
							c-0.1-0.9-0.4-1.9-0.7-2.8c0.7-1.8,1.2-3.4,1.7-5.1c-0.4-1.3-0.8-2.3-1.4-3.3c-1.1,0.6-2.2,1.1-6.4-3.4
							c-2.9,5.3-8.1-2.7-10.3,3.9c-0.7-2.8-1.3-6-1.8-9c0.5-0.2,0.9-0.6,1.4-0.8c2.7-0.3,5.3-0.4,8-0.5c0.4,0.1,0.9,0.3,1.5,0.5
							c1.7-0.1,3.3,0.1,5,0c0.5,0.1,0.9,0.3,1.5,0.5c1.3,0.4,2.8,0.9,4.3,1.3c0.5,0.1,0.9,0.3,1.3,0.4c1.5,0.2,2.9,0,4.4-0.1
							c0.9,0,2-0.3,2.9-0.3c2.2,1,4.3,2.2,6.4,3.1c0.6,0.2,1,0.3,1.5,0.5c2.7-0.9,4-6.7,10.2-1c0.4,2.4,0.8,4.9,1.3,7.4
							c1.3,0.7,2.8,1.7,4.3,2.8c0.2-2,0.6-3.6,0.8-5.3c1.2-1.1,2.5-2.2,3.7-3.3c1.7-0.1,2.5-3.3,4.4-1.3c1.2,1.5,2.3,3.3,3.5,5.1
							c-0.6,3.9-1.2,8.1-1.7,12c-0.3,4,2.2,3,2.7,6.4c1.2,0.4,2.4,0.7,3.6,1.1c3,0.6,6.6,3.1,11.3,4.9c3,0,5.5-2.1,8.8,0
							c0.9-1.2,2-2.3,3-3.5c0.6,0.2,1.1,0.3,1.5,0.5C171.5,399.7,173.1,401.6,174.7,403.6z"/>
					</g>
					<g>
						<path class="st7" d="M61.9,347c-2.1-0.6-4.3-1.3-6.4-1.9c-1.5,1-3.1,8.1-5.9,5.2c-1.8-0.2-1.4-3.9-1.3-6c-1.6-0.5-3.7-2-3,3.2
							c-0.7,2.4-2,0.3-2.9,0.6c-5.2-13-6.6,8.8-13.1-2.5c-0.9,0.9-2,2-3,3.2c-1.2,1.1-2.5,2.2-3.7,3c-0.7-2.8-1.4-4.5-1.9-6.1
							c-8.2-3.6-15.2,3.6-23.2-4.1c-0.9,4.1-4.6,1.8-6.7,7.6c-2.4-4-1.7-7.5-4.2-6.8c-1.4,0.4-4.3-1.3-3.7,3.3
							c-0.8,2.1-2.4,0.1-5.3,4c-0.4-0.1-0.9-0.3-1.3-0.4c-2.1-6.8-7.2-6.9-9.3-5.8c-0.5,2.5-2,0.3-2.9,0.6c-1.6-1.1-3.3-1.9-4.9-2.9
							c-6.5,3.3-14.6,2.3-20.5,3.7c-1.3-1.6-2.8-2.9-4.3-4.2c0.5,9.2-5.2,1.1-6,6.7c-1.7-0.2-3.5-0.2-5.1-0.1
							c-0.7,3.3-3.4,1.6-5.2,6.9c-0.6-0.2-1.1-0.3-1.5-0.5c0,1.2-0.1,2.6-0.1,4.1c-3.1-1.8-6.2-3.6-9.2-5.7c-0.3-1-0.5-1.9-0.7-2.8
							c-1.7-2.6-2.2,2.5-5.6-3.2c-2.8-1.4-2.2,6.4-8-0.9c-2.5-1.1-1.2,8.4-4.5,4.2c-1.2-1.8-2.3-3.6-3.5-5.1c-2-0.6-2.7,5.6-5.2,2.5
							c-1.2-0.4-2.4-0.7-3.6-1.1c1.6-2.7,0-8.8,2.5-7.7c2.1,1.2,4.3,2.2,6.4,3.4c1.8-0.3,1.8-7.7,4.6-5.6c1.2,0.7,2.4,1.6,3.6,2.5
							c0.8-0.9,1.4-1.6,2.2-2.3c0.9,0.3,1.9,0.6,2.8,0.9c2.5,0.8,3.9-4.6,8.2-7.2c0.1-2.9,0.2-5.8,0.3-8.4c0.9,0.3,1.9,0.6,2.8,0.9
							c1.3-3.4,3.6-8.6,6.2-8.1c1.3,1.9,2.8,3.8,4.2,5.7c1.2,0.4,2.2,0.7,3.6,1.1c4.6-1.2,9.6-3.2,13.8-2.8c2.6-4.5,1.2,5,4.9,1.5
							c1.5,1.6,2.9,3.5,4.2,5.4c2.2,1.8,3.3-4.3,5.3-4c2,3.8,4.1,7.7,6.1,11.5c1.3-2.2,2.6-4.8,3.8-7c1.6,1.7,3.2,3.6,5,5.6
							c0-4.7,3.2-5.8,3.2-10.1c0.1,0,0.4,0.1,0.7,0.2c1.3,1.6,2.8,3.5,4.1,5.3c2-2.6,3.8-7,6.1-8.1c3.6,1.7,7,1.8,10.1,0.4
							c5.1,0.4,10.1,1,15.2,1.7c4.9-2.3,10.5,4,14.3,5.8c2.4,0.7,4.8,1.5,7.2,2.2c1.6,2.8,3.1,5.6,4.7,8.4c2.2,2.4,3.1-2,3.7-3
							c1.5,0.7,3,1.8,4.3,2.5c1.9-1.2-0.5-8.6,2.5-7.4c0.4,0.4,0.9,1.1,1.3,1.6c2.4-0.2,4.8-0.3,7.3-0.4c1.6,0.5,3.4,1,5.1,1.5
							c0.4,2.7,0.7,5.8,1.1,8.8c1.5,1.3,2.9,2.6,4.3,3.9c3.9-2.9,12.2,0.2,17.4-0.3c5.7-1.8,12.8,5.3,18.1,1.4
							c2.1,0.6,1.1,4.7,3.5,3.7c4.9-2.6,13.5,0,19.4,8.8c-9.3,2.2-18.6-4.2-26.9,0.3c-0.2-3.6-2-2.7-1.9-6.4
							c-3.1-1.8-3.9,0.6-6.5,0.9c-0.4-1-1-1.8-0.7-3.1c-1.6-0.5-3.7-1.7-3,3.5c-0.5,1.6-1.4,0.8-2.3,0.8
							C73.4,351.4,67.8,349.1,61.9,347z"/>
					</g>
					<g>
						<path class="st3" d="M111.5,385.7c-2.4-0.1-4.8-0.3-7.2-0.7c0.4,1.9,0.8,4,1.3,6c-1.5-0.5-2.8-0.9-4.3-1.3
							c0.5-1.6,1-3.5,1.7-5.1c-1.5-1.3-2.9-2.7-4.3-3.9c0.1-2,0.1-3.8,0.2-5.8c0.4,0.1,0.9,0.3,1.3,0.4c1.5,1.6,2.9,2.9,4.3,4.2
							c2.4,1.6,4.7,3.2,7.1,5.1C111.5,384.8,111.5,385.4,111.5,385.7z"/>
					</g>
					<g>
						<path class="st3" d="M51.6,329.9c-2.4,0.1-4.8,0.3-7.3,0.4c-0.4-0.4-0.9-1.1-1.3-1.6c0.1-2,0.1-3.8,0.2-5.8
							c1.7-0.6,3.1-3.1,5.1-2.6c1.1,2.7,2.2,5.4,3.4,8C51.6,328.7,51.6,329.3,51.6,329.9z"/>
					</g>
					<g>
						<path class="st3" d="M9.4,402.8c-1.7,1.2-2.6,7.1-5.8,2.3c0-3.5,2.2-4,4.6-7.1C8.6,399.6,9,401.2,9.4,402.8z"/>
					</g>
					<g>
						<path class="st3" d="M-17.6,411.3c-0.9,1.2-1.2,5.5-3.1,3.4c-0.6-1.6-1.3-3.3-1.9-6.4c-0.7-1.4-1.4-3.1-2-4.7
							c1.7-0.7,0.9-5.6,3-4.6c2.1,0.9,4.3,2.2,6.4,3.4C-16.1,405.3-16.9,408.3-17.6,411.3z"/>
					</g>
					<g>
						<path class="st3" d="M-19.1,318.2c-2.3,1.1-4.1,5.5-6.1,8.1c-1.3-1.9-2.8-3.8-4.1-5.3c0.2-1.1,0.5-1.9,0.7-2.7
							c1.3-1.4,2.5-3,3.8-4.4c1.9,0.6,3.9,1.2,5.8,1.8C-19.1,317.3-19.1,317.9-19.1,318.2z"/>
					</g>
					<g>
						<path class="st3" d="M-28.6,367.3c2.5-2.5,5.8-5,5.7,1.7C-24.9,368.4-26.7,367.9-28.6,367.3z"/>
					</g>
					<g>
						<path class="st3" d="M-29.2,434.4c-3-1.8-5.8-3.5-8.6-5.2c-0.5,1.6-1,3.5-1.7,5c-3.7-3.4-5.5-2-5.8,1.2
							c-2.1,0.2-4.4,0.4-6.5,0.7c-0.3-1.5-0.5-2.8-0.6-4.3c-2.1-0.6-4.3-1.3-6.4-1.9c-1.5-0.4-2.8-0.9-4.3-1.3
							c-4,1.4-7.8,3.2-11.8,4.9c-1.8-4.1-3.5-7.8-5.4-11.6c-0.6-0.8-1-1.2-1.5-1.9c-0.1-1.5-0.4-2.7-0.6-4.3
							c0.3-3.4,2.4-4.2,0.3-8.4c-0.3-3.3-0.7-6.9-1-10.3c0.5-0.1,0.9-0.6,1.4-0.8c2.9,4.1,6,5.3,9.3,6.9c0.5-7.4,4.9-1.4,8.8-5.8
							c1.2,0.4,2.4,0.7,3.6,1.1c3,0.9,5.8,1.8,8.7,2.6c1.8,1.4,3.9,4.4,5.1,0.1c4.6,7.5,7.9-10.2,10,4.5c1.9,1.5,3.7,2.9,5.6,4.6
							c-3.9,12.3-12.4,5-19.1,5.3c1.4,7.7-3,3.5-4.5,7.1c0.5,2.5,1.2,5,1.9,7.6c0.8-1.5,1.6-3.3,2.3-4.9c2.9-2.3,8.2,2.8,12.4,0.8
							c3.6,1.7,7.2,3,10.7,4.7C-27.8,432.2-28.6,433.4-29.2,434.4z"/>
					</g>
					<g>
						<path class="st3" d="M-48.2,320.8c-2-0.3-3.1,5.8-5.3,4c-1.3-1.9-2.8-3.8-4.2-5.4c2-2.3,4.1-4.6,6.1-6.6
							c0.9,1.1,1.9,2.3,2.8,3.5c0.1,1.2,0.4,2.2,0.7,3.1C-48.2,319.6-48.2,320.2-48.2,320.8z"/>
					</g>
					<g>
						<path class="st3" d="M-80.1,319.6c-1.5-1.9-2.9-3.8-4.2-5.7c-2.6-0.5-4.8,4.7-6.2,8.1c1.3-3.4,3.6-8.6,6.2-8.1
							C-83,315.8-81.5,317.7-80.1,319.6z"/>
					</g>
					<g>
						<path class="st3" d="M-86.7,367.9c-1.3,1.7-2.3,4.6-5.3,4.3c0.1-2,0.1-3.8,0.2-5.8C-90.1,366.9-88.4,367.4-86.7,367.9z"/>
					</g>
					<g>
						<path class="st3" d="M-95.7,446.7c-1.5,0.4-2.9,0.9-4.4,1.3c-0.7-0.5-1.5-1.3-2.1-1.8c-2.5,2.8-6.4,1-8.2,4.6
							c-3.5-0.2-6.8-0.3-10.1-0.4c-3.5-0.2-6.8-0.3-10.3-0.2c-1.3,2.2-2.6,4.8-3.9,7.3c-1.9-0.6-3.7-1.1-5.7-1.7
							c0.8-2.7,1.7-5.3,2.4-7.8c2.5,1.9,4-1.7,7.2,0.7c0.1-2.3,0.1-4.6,0.2-6.9c1.7-1.8,3.6-3.6,5.3-5.4c3-0.5,5.6-0.3,7.4-4.8
							c2.4,0.1,4.8,0.6,7.2,0.7c2.8,2.3,5.6,4.6,8.6,7c0-1.2,0.1-2,0.1-2.9c0.2-0.8,0.5-1.6,0.7-2.7c0.8,0.2,1.5,0.5,2.2,0.7
							c1.2,1.5,2.3,2.7,3.5,4C-95.5,441.2-95.6,443.8-95.7,446.7z"/>
					</g>
					<g>
						<path class="st3" d="M-103.4,320.8c5,4.1,6.8,1.2,8.8,0C-96.6,321.9-98.4,324.9-103.4,320.8z"/>
					</g>
					<g>
						<path class="st3" d="M-162.3,398.5c-1.4,1-2.5,1.9-3.7,3c-0.6-3.4-1.3-6.8-1.9-10.2c2,0.6,3.9,1.2,5.8,1.8
							C-162.2,394.8-162.3,396.5-162.3,398.5z"/>
					</g>
					<g>
						<path class="st3" d="M-167.7,357.5c-2,1.7-3.9,3.5-5.9,5.2c-0.2-2.4-0.3-4.8-0.5-7.2c2-0.3,4-0.6,5.9-0.8
							C-168.1,355.6-167.8,356.5-167.7,357.5z"/>
					</g>
					<g>
						<path class="st4" d="M36.2,333.7c-0.6,1-1.5,5.4-3.7,3c-1.6-2.8-3.1-5.6-4.7-8.4c1-1.5,2.1-3.2,3-4.6c0.4,0.1,0.9,0.3,1.5,0.5
							C33.5,327,34.9,330.4,36.2,333.7z"/>
					</g>
					<g>
						<path class="st4" d="M-38.2,325.3c-1.3,2.2-2.6,4.8-3.8,7c-2-3.8-4.1-7.7-6.1-11.5c0-0.6,0-1.2,0-1.5c3,0,6.2,0.1,9.4-0.1
							C-38.1,321.5-38.1,323.2-38.2,325.3z"/>
					</g>
					<g>
						<path class="st6" d="M156.1,375.5c-1.7-2.3-2.5,1.9-3.7,3c-2.4-0.7-4.8-1.4-7.2-2.2c0.1-2.6,0.2-5.5,0.3-8.4
							c-0.2-2.4-0.3-4.8-0.5-7.2c1.2-0.5,2.5-1,3.7-1.5c2.7,1.1,5.2,2.5,7.9,3.9C156.4,367.1,156.3,371.1,156.1,375.5z"/>
					</g>
					<g>
						<path class="st6" d="M133.5,353.2c-0.2-0.1-0.5-0.1-0.6-0.2c-1.8-1.4-5.9,0.8-5-5.6c1.2-1.1,2.5-2.2,3.7-3.3
							c0.7,1.1,1.4,2.2,2,3.5C133.7,349.4,133.6,351.4,133.5,353.2z"/>
					</g>
					<g>
						<path class="st6" d="M66.4,369.4c-0.7-1.4-1.4-2.5-2.2-3.6c-0.3-6.5,3.6-3.6,6.7-0.6C69.3,366.5,67.8,367.8,66.4,369.4z"/>
					</g>
					<g>
						<path class="st6" d="M59.8,373c-2-0.6-3.1-1-5.2,1.4c-1.6-1.1-3.4-2.2-5-3c0-1.4,0.1-2.9,0.1-4.3c2.2-1.4,5.2-0.8,7.4-4.8
							c1.5,1,3,2.1,4.3,2.8C60.8,367.7,60.3,370.2,59.8,373z"/>
					</g>
					<g>
						<path class="st6" d="M43,328.7c-3-1.2-0.6,6.2-2.5,7.4c-1.3-0.7-2.8-1.7-4.3-2.5c-1.3-3.3-2.7-6.7-3.9-9.7
							c1.6-1.6,2.8-1.2,3.7-3.3c1.8,0.5,3.7,1.1,5.7,1.7c0.4,0.1,0.9,0.3,1.5,0.4C43.1,325,43.1,326.7,43,328.7z"/>
					</g>
					<g>
						<path class="st6" d="M-38.2,325.3c0.1-2,0.1-3.8-0.6-6c2-0.3,3.9-0.6,5.9-0.8c0.9,0.6,1.8,1.4,2.8,2.3c0,4.4-3.2,5.5-3.2,10.1
							C-35,328.9-36.6,326.9-38.2,325.3z"/>
					</g>
					<g>
						<path class="st6" d="M-126.8,396.7c-1.2,1.4-2.5,2.7-3.8,4.4c-1.7,0.4-3.1-2.4-3.5-4c0.9-1.5,2.1-3.2,3-4.6
							c-0.3-3.3-0.7-6.9-1.2-10.3c1.6,0.5,3.4,1,5.1,1.5c1.9,2.9,1.4,6.9,3.3,10.9C-124.8,395.3-125.8,395.8-126.8,396.7z"/>
					</g>
					<g>
						<path class="st6" d="M-130.7,448.7c-3.2-2.4-4.7,1.2-7.2-0.7c-0.7,2.4-1.5,5.1-2.4,7.8c-0.3-0.1-0.5-0.1-0.7-0.2
							c-3.9-4.7-4.5-1.1-5.7-1.7c0.4-4.3-2.2-2.1-2.7-5.2c-0.5-2.5-0.9-5-1.3-7.4c0.2-0.2,0.5-0.7,0.8-1.2c2,0.3,3.8,0.3,5.7,0.6
							c2.3,0.1,4.6,2.3,6-4c0.2,0.1,0.5,0.1,0.6,0.2c2.2,1.8,4.3,3.3,6.5,4.9c0.2,0,0.5,0.1,0.6,0.2
							C-130.5,444.1-130.6,446.4-130.7,448.7z"/>
					</g>
					<g>
						<path class="st6" d="M-136.7,343.1c-0.5,0.2-0.9,0.6-1.5,1c-3.4-1-7-3.3-9.5,4.2c-1.3-0.4-2.5-0.7-3.7-1.1
							c0.1-3.5,0.2-6.7,0.3-9.8c0.9-1.2,2-2.3,3-3.2c4.1-0.8,7.9-2.9,12.5-2.1C-136,335.8-136.5,339.4-136.7,343.1z"/>
					</g>
					<g>
						<path class="st7" d="M-137.5,436.7c-0.1-0.1-0.4-0.1-0.6-0.2c-1.5-1.6-2.9-3.5-4.2-5.4c2-1.1,3.9-2.6,5.9-3.8
							c0.4,1,0.8,2,1.4,3.1C-135.9,432.5-136.7,434.6-137.5,436.7z"/>
					</g>
					<g>
						<path class="st7" d="M-136.7,389.4c-2.2-0.7-4.3-1.3-6.6-2c2.8-3.8,5.8-6.1,6.7-0.6C-136.6,388.5-136.7,389.1-136.7,389.4z"/>
					</g>
					<g>
						<path class="st7" d="M-154.7,428.9c-1.3,3.4-3.4,1.3-5,0c-1.1,0.6-2,1.1-3.1,1.7c-0.4-0.4-0.9-1.1-1.3-1.8
							c0.1-2.3,0.1-4.6,0.2-7c1.3,1.6,2.8,2.9,4.2,4.2c0.5-0.7,1-1.5,1.4-2.5C-157,425.3-155.8,427.1-154.7,428.9z"/>
					</g>
					<g>
						<path class="st7" d="M-158.3,453c0.6,4.9,1.2,9.7,1.7,14.5c-4.5,3.9-4.7-2.9-8.3-9.5c1-1.5,2.1-3.2,3-4.6
							c-1.5-1.9-2.8-3.8-4.2-5.4c0-0.6,0-1.2,0-1.5c4.3,1.6,4.8-5,10,4.5C-156.8,451.7-157.5,452.3-158.3,453z"/>
					</g>
					<g>
						<path class="st5" d="M177.8,446.6c-1.4,4.9-4.2,2.2-5.8,0.9c-1.5,0.1-2.9,0-4.4,0.1c0.4-4.3,1.7-7.7,4.5-4.2
							C174.1,444.3,175.8,445.4,177.8,446.6z"/>
					</g>
					<g>
						<path class="st5" d="M169.4,366.9c-1.4,1.3-3,2.6-4.5,4.2c-2.2-2.7-4.7-5.2-7-7.7c0.8-2.7,1.6-3.9,2.4-5.1
							C163.9,358.8,167,361.2,169.4,366.9z"/>
					</g>
					<g>
						<path class="st3" d="M22.5,403.8c-0.6,0.1-1.1,0.6-1.5,1C21.4,404.4,21.9,403.9,22.5,403.8z"/>
					</g>
					<g>
						<path class="st3" d="M1.8,369.5c-0.3,0.8-0.7,1.6-0.8,2.7c-0.3-0.1-0.6-0.2-0.7-0.2c-1.7,0.4-3.5,0.7-5.2,1.1
							c-4.1-0.6-8.1-1.6-12.2-2.2c-1.5-0.4-2.8-0.9-4.3-1.3c1.3-1.4,2.5-3,3.8-4.4c0-0.6,0-1.2,0-1.4c1.2-0.2,2.4-0.1,3.6-0.4
							c1.6,1.1,3.3,1.9,5,3c2,2.4,2.9-2,3.7-3C-3,365.1-0.5,367.3,1.8,369.5z"/>
					</g>
					<g>
						<path class="st3" d="M2.4,369.7c-0.1-0.1-0.4-0.1-0.6-0.2C2,369.5,2.3,369.6,2.4,369.7z"/>
					</g>
					<g>
						<path class="st4" d="M-166.1,446.5c0,0.3,0,0.9,0,1.5C-166.1,447.4-166.1,446.8-166.1,446.5z"/>
					</g>
					<g>
						<path class="st6" d="M68.5,392.6c-0.3-0.1-0.4-0.1-0.7-0.2C68.1,392.4,68.2,392.5,68.5,392.6z"/>
					</g>
					<g>
						<path class="st7" d="M-124.4,346.8c-2.5,1.6-0.8,5.6-5.4,6.9c-3.8-4.4-4.5-0.2-10-3c0.5-2.5,1-4.4,1.6-6.5
							c0.6-0.4,1.1-0.8,1.5-1C-133.2,350.1-131.5,339.5-124.4,346.8z"/>
					</g>
					<g>
						<path class="st7" d="M-123.8,345.6c-0.2,0.2-0.5,0.7-0.6,1.2C-124.3,346.3-124,345.8-123.8,345.6z"/>
					</g>
					<g>
						<path class="st7" d="M51.6,329.9c0-0.6,0-1.2,0-1.4C51.6,328.7,51.6,329.3,51.6,329.9z"/>
					</g>
					<g>
						<path class="st7" d="M-142.4,431.2c-0.6,1.3-1.1,2.6-1.6,3.6c-2,0-3.8,0-5.7-0.3c-1-1.8-1.9-3.2-2.7-4.9
							c0.2-1.1,0.5-1.9,0.7-2.7C-146.1,424.8-144.5,428.2-142.4,431.2z"/>
					</g>
					<g>
						<path class="st3" d="M21,404.8c-1.3-0.7-0.5,4.8-4.4,1.3c-1.3-0.7-2.8-1.7-4.3-2.5c0.7-2.4,1.2-4.3,1.7-6.5
							c0.4,0.1,0.9,0.3,1.5,0.5c0.4,1,0.8,2,1.3,3c0.4,0.1,0.9,0.3,1.5,0.4C19.1,402.2,20.1,403.4,21,404.8z"/>
					</g>
				</g>
			</g>
		</g>
	</g>
</g>
</svg>
